<?xml version="1.0" encoding="utf-8"?>
<!-- Generator: Adobe Illustrator 22.0.1, SVG Export Plug-In . SVG Version: 6.00 Build 0)  -->
<svg version="1.1" id="Слой_1" xmlns="http://www.w3.org/2000/svg" xmlns:xlink="http://www.w3.org/1999/xlink" x="0px" y="0px"
	 viewBox="0 0 80 80" style="enable-background:new 0 0 80 80;" xml:space="preserve">
<style type="text/css">
	.st0{fill:#F2185E;}
	.st1{fill:#FFFFFF;}
</style>
<rect id="shape_copy_12" class="st0" width="80" height="80"/>
<path class="st1" d="M55,34.9H37l3.9-4c2-2.1,2-5.4,0-7.4c0,0-0.1-0.1-0.1-0.1c-2-1.9-5.2-1.9-7.1,0.1L22.7,34.7v0
	c-0.4,0.4-0.8,1-1,1.5c-1.1,0.9-1.7,2.3-1.7,3.8v0.5c0,1.7,0.8,3.1,2.1,4c0.2,0.2,0.3,0.4,0.5,0.6l11.1,11.4c2,2,5.2,2.1,7.3,0.1
	c0,0,0.1-0.1,0.1-0.1c2.1-2.1,2.1-5.5,0-7.6v0l-3.4-3.5H55c2.8,0,5-2.2,5-5v-0.5C60,37.1,57.8,34.9,55,34.9z"/>
</svg>
