<?xml version="1.0" encoding="utf-8"?>
<!-- Generator: Adobe Illustrator 22.0.1, SVG Export Plug-In . SVG Version: 6.00 Build 0)  -->
<svg version="1.1" id="Слой_1" xmlns="http://www.w3.org/2000/svg" xmlns:xlink="http://www.w3.org/1999/xlink" x="0px" y="0px"
	 viewBox="0 0 147 203.7" style="enable-background:new 0 0 147 203.7;" xml:space="preserve">
<style type="text/css">
	.st0{clip-path:url(#SVGID_2_);fill:#FFFFFF;}
</style>
<g>
	<defs>
		<rect id="SVGID_1_" width="147" height="203.7"/>
	</defs>
	<clipPath id="SVGID_2_">
		<use xlink:href="#SVGID_1_"  style="overflow:visible;"/>
	</clipPath>
	<path class="st0" d="M146.8,146.7c0.1-0.4,0.2-0.9,0.2-1.3V4.5c0-2.5-2-4.5-4.5-4.5h-123C8.7,0,0,8.7,0,19.5v141
		C0,171.2,8.7,180,19.5,180h35.9v19.2c0,1.6,0.8,3.1,2.2,3.9c1.4,0.8,3.1,0.8,4.5,0.1l16.6-9l16.6,9c0.7,0.4,1.4,0.6,2.2,0.6
		c0.8,0,1.6-0.2,2.3-0.6c1.2-0.7,2-1.9,2.2-3.3V180h40.6c1.6,0,3.1-0.9,3.9-2.3c0.8-1.4,0.8-3.1-0.1-4.5c-4.7-7.8-4.7-17.5,0-25.3
		C146.5,147.5,146.7,147.1,146.8,146.7 M9,19.5C9,13.7,13.7,9,19.5,9H26v132h-6.5c-3.9,0-7.5,1.1-10.5,3.1V19.5z M92.9,191.6
		L80.8,185c-1.3-0.7-3-0.7-4.3,0l-12.1,6.6V180v-9v-5.5h28.5v5.5v9V191.6z M135.5,171h-33.7v-5.4h0v0h4c2.5,0,4.5-2,4.5-4.5
		c0-2.5-2-4.5-4.5-4.5H51.4c-2.5,0-4.5,2-4.5,4.5c0,2.5,2,4.5,4.5,4.5h4v5.5H19.5C13.7,171,9,166.3,9,160.5
		c0-5.8,4.7-10.5,10.5-10.5h116C133.3,156.8,133.3,164.2,135.5,171 M138,141H35V9h103V141z"/>
</g>
</svg>
