<?xml version="1.0" encoding="utf-8"?>
<!-- Generator: Adobe Illustrator 22.0.1, SVG Export Plug-In . SVG Version: 6.00 Build 0)  -->
<svg version="1.1" id="Слой_1" xmlns="http://www.w3.org/2000/svg" xmlns:xlink="http://www.w3.org/1999/xlink" x="0px" y="0px"
	 viewBox="0 0 352 237" style="enable-background:new 0 0 352 237;" xml:space="preserve">
<style type="text/css">
	.st0{fill:#FFFFFF;}
	.st1{enable-background:new    ;}
	.st2{fill:#4D418D;}
</style>
<path id="bubble_shape" class="st0" d="M84,236c0,0-40.1,6.8-57.1-32.5c-10.9-25.4-7.9-62.1-1.2-79.8s3-21.7-10.5-38.9
	c-21.3-27.1-16-80-8.9-84.3C15.2-5,21.1,40,58,42.7c16.8,1.2,39.3-3.3,84.9-2.9c43.7,0.4,170.1-7.9,188.4,10
	C348,66,352.1,78.5,346.7,116c-3.8,26.3,1.7,27.8,5,53.5S334.1,238.4,287,237s-107.7-7.8-162.7-5C110.8,232.6,97.4,233.9,84,236z"/>
<g class="st1">
	<path class="st2" d="M68.2,126.5h-5.8v-13.3h-5.1v13.3h-5.8v-30h5.8v11.8h5.1V96.5h5.8V126.5z"/>
	<path class="st2" d="M76.1,116v1.6c0,4,0.6,5.6,2.1,5.6c1.8,0,2.4-1.6,2.4-4.4h4.9c0,4.9-2.7,8.2-7.3,8.2c-6.8,0-7.5-4-7.5-12
		c0-6,1-11.8,7.9-11.8c6.6,0,7.2,4.5,7.2,11.4v1.3H76.1z M80.5,112.1c0-3-0.3-5-2.2-5c-1.8,0-2.2,1.9-2.2,4.7v0.9h4.4V112.1z"/>
	<path class="st2" d="M103.7,127.1c-6,0.1-7.8-4.2-7.8-11.9c0-7.5,2.1-11.8,7.8-11.9c6.1,0,7.8,4.2,7.8,11.9
		C111.5,122.7,109.4,127.1,103.7,127.1z M103.7,107.1c-2.2,0-2.3,3.4-2.3,8.1c0,4.7,0.1,8.1,2.3,8.1c1.6,0,2.3-2.6,2.3-8.1
		C106,109.7,105.3,107.1,103.7,107.1z"/>
	<path class="st2" d="M123.4,126.5v-8.9c-1.2,0.6-2.6,1-4.4,1c-3.6,0-5.2-2.4-5.2-6.6v-8.1h5.6v7c0,2.2,0.6,3.2,1.6,3.2
		c1,0,1.7-0.2,2.5-0.7v-9.6h5.6v22.6H123.4z"/>
	<path class="st2" d="M136.9,116v1.6c0,4,0.6,5.6,2.1,5.6c1.8,0,2.4-1.6,2.4-4.4h4.9c0,4.9-2.7,8.2-7.3,8.2c-6.8,0-7.5-4-7.5-12
		c0-6,1-11.8,7.9-11.8c6.6,0,7.2,4.5,7.2,11.4v1.3H136.9z M141.2,112.1c0-3-0.3-5-2.2-5c-1.8,0-2.2,1.9-2.2,4.7v0.9h4.4V112.1z"/>
	<path class="st2" d="M159.2,126.5v-9.9h-4.9v9.9h-5.6v-22.6h5.6v8.9h4.9v-8.9h5.6v22.6H159.2z"/>
	<path class="st2" d="M176.8,126.5H168v-22.6h5.6v8.9h3c3.6,0,7.7,1.4,7.7,6.6C184.2,123.5,181.9,126.5,176.8,126.5z M175.2,116.6
		h-1.6v6h1.2c2.5,0,3.8-0.7,3.8-3C178.5,117.3,177.4,116.6,175.2,116.6z"/>
	<path class="st2" d="M205.2,125.4c-1.3,6.6-3.2,8.5-8.2,8.5c-0.5,0-1.2,0-2-0.1v-4c0.4,0.1,0.9,0.1,1.2,0.1c1.8,0,2.2-0.8,2.4-2.4
		l0.1-0.9l-5.2-22.7h5.8l2.6,16h0l2.2-16h5.4L205.2,125.4z"/>
	<path class="st2" d="M223.4,132.1v-5.6h-8.6v5.6H210v-10.2h1.6c1.5-4.9,2.8-10.8,2.8-18h12.4v18h1.6v10.2H223.4z M221.2,108.1h-2
		c0,4.3-1.2,10.2-2.4,13.8h4.4V108.1z"/>
	<path class="st2" d="M240,126.5c-0.2-0.7-0.4-1.6-0.4-2h-0.1c-0.8,1.6-2.2,2.6-4.6,2.6c-3.9,0-5-3.3-5-6.5c0-4.1,1.7-5.5,5.2-7
		l2.4-1c1.2-0.5,1.9-1.2,1.9-2.8c0-1.8-0.4-2.8-2-2.8c-1.2,0-2,1.1-2,3.1v0.6h-4.9v-0.5c0-5.2,3-7,7.1-7c5.6,0,7.1,3.1,7.1,6.9v12
		c0,2,0.1,3,0.6,4.3H240z M239.5,115.7c-0.3,0.4-0.9,0.7-1.7,1c-1.6,0.7-2.6,1.4-2.6,3.4c0,1.8,0.5,3.2,1.6,3.2
		c1.2,0,2.8-1.1,2.8-3.6V115.7z"/>
	<path class="st2" d="M252.8,116v1.6c0,4,0.6,5.6,2.1,5.6c1.8,0,2.4-1.6,2.4-4.4h4.9c0,4.9-2.7,8.2-7.3,8.2c-6.8,0-7.5-4-7.5-12
		c0-6,1-11.8,7.9-11.8c6.6,0,7.2,4.5,7.2,11.4v1.3H252.8z M257.2,112.1c0-3-0.3-5-2.2-5c-1.8,0-2.2,1.9-2.2,4.7v0.9h4.4V112.1z"/>
	<path class="st2" d="M272.4,108.4v18.1h-5.6v-18.1h-3.4v-4.5h12.4v4.5H272.4z"/>
	<path class="st2" d="M284.6,127.1c-5,0-7.6-3-7.6-11.9c0-9,3.6-11.9,8.1-11.9c5.8,0,7.1,4.2,7.1,8.6h-5.3c0-3.3-0.6-4.6-1.9-4.6
		c-1.6,0-2.5,1.4-2.5,8c0,5.2,0.6,7.9,2.3,7.9c1.3,0,2.1-1.7,2.1-5.2h5.3C292.2,123.5,289.8,127.1,284.6,127.1z"/>
	<path class="st2" d="M304.3,126.5v-9.4h-1.1c-2.1,0-2.7,1.2-2.7,3.2v3.7c0,1-0.1,1.9-0.2,2.5h-5.8c0.2-0.4,0.5-1.2,0.5-2.1v-2.4
		c0-4.2,0.7-6.1,3.8-6.5v-0.1c-2.4-0.6-3.9-2.7-3.9-5.6c0-4,2.1-5.8,6.6-5.8h8.4v22.6H304.3z M304.3,107.6h-0.8
		c-2.4,0-3.2,0.9-3.2,2.8c0,2.4,0.9,3.1,3.4,3.1h0.7V107.6z"/>
</g>
<g class="st1">
	<path class="st2" d="M61.6,166.5v-18.8h-2c-1,18.2-2.2,19.1-7,19.1c-1,0-1.8-0.1-2.3-0.3v-4.2c0.3,0,0.6,0.1,1.2,0.1
		c2.6,0,2.6-0.8,3.4-18.6h12.4v22.6H61.6z"/>
	<path class="st2" d="M79.7,166.5c-0.2-0.7-0.4-1.6-0.4-2h-0.1c-0.8,1.6-2.2,2.6-4.6,2.6c-3.9,0-5-3.3-5-6.5c0-4.1,1.7-5.5,5.2-7
		l2.4-1c1.2-0.5,1.9-1.2,1.9-2.8c0-1.8-0.4-2.8-2-2.8c-1.2,0-2,1.1-2,3.1v0.6h-4.9v-0.5c0-5.2,3-7,7.1-7c5.6,0,7.1,3.1,7.1,6.9v12
		c0,2,0.1,3,0.6,4.3H79.7z M79.2,155.7c-0.3,0.4-0.9,0.7-1.7,1c-1.6,0.7-2.6,1.4-2.6,3.4c0,1.8,0.5,3.2,1.6,3.2
		c1.2,0,2.8-1.1,2.8-3.6V155.7z"/>
	<path class="st2" d="M100,172.1v-5.6h-8.6v5.6h-4.9v-10.2h1.6c1.5-4.9,2.8-10.8,2.8-18h12.4v18h1.6v10.2H100z M97.8,148.1h-2
		c0,4.3-1.2,10.2-2.4,13.8h4.4V148.1z"/>
	<path class="st2" d="M116.7,166.5v-12.6h0l-4.4,12.6h-5v-22.6h5v12.9h0l4.5-12.9h4.9v22.6H116.7z"/>
	<path class="st2" d="M132.5,148.4v18.1h-5.6v-18.1h-3.4v-4.5h12.4v4.5H132.5z"/>
	<path class="st2" d="M146.6,166.5h-8.8v-22.6h5.6v8.9h3c3.6,0,7.7,1.4,7.7,6.6C154,163.5,151.7,166.5,146.6,166.5z M145,156.6h-1.6
		v6h1.2c2.5,0,3.8-0.7,3.8-3C148.3,157.3,147.2,156.6,145,156.6z"/>
	<path class="st2" d="M171.6,167.1c-5,0-7.6-3-7.6-11.9c0-9,3.6-11.9,8.1-11.9c5.8,0,7.1,4.2,7.1,8.6h-5.3c0-3.3-0.6-4.6-1.9-4.6
		c-1.6,0-2.5,1.4-2.5,8c0,5.2,0.6,7.9,2.3,7.9c1.3,0,2.1-1.7,2.1-5.2h5.3C179.2,163.5,176.8,167.1,171.6,167.1z"/>
	<path class="st2" d="M200.2,166.5v-18.8h-2c-1,18.2-2.2,19.1-7,19.1c-1,0-1.8-0.1-2.3-0.3v-4.2c0.3,0,0.6,0.1,1.2,0.1
		c2.6,0,2.6-0.8,3.4-18.6h12.4v22.6H200.2z"/>
	<path class="st2" d="M224.2,167.1c-5.4,0-7.4-3.5-7.7-10h-2.1v9.4h-5.6v-22.6h5.6v9.1h2.2c0.4-6.2,2.6-9.6,7.7-9.7
		c6.1,0,7.8,4.2,7.8,11.9C232,162.7,229.9,167,224.2,167.1z M224.2,147.1c-2.2,0-2.3,3.4-2.3,8.1c0,4.7,0.1,8.1,2.3,8.1
		c1.6,0,2.3-2.6,2.3-8.1C226.5,149.7,225.8,147.1,224.2,147.1z"/>
	<path class="st2" d="M247,172.1v-5.6h-8.6v5.6h-4.9v-10.2h1.6c1.5-4.9,2.8-10.8,2.8-18h12.4v18h1.6v10.2H247z M244.7,148.1h-2
		c0,4.3-1.2,10.2-2.4,13.8h4.4V148.1z"/>
	<path class="st2" d="M263,166.5h-8.8v-22.6h5.6v8.9h3c3.6,0,7.7,1.4,7.7,6.6C270.4,163.5,268.1,166.5,263,166.5z M261.4,156.6h-1.6
		v6h1.2c2.5,0,3.8-0.7,3.8-3C264.7,157.3,263.6,156.6,261.4,156.6z"/>
	<path class="st2" d="M287.7,166.5v-17.2h-0.1l-3,17.2h-4.1l-3-17.2h0v17.2h-4.9v-22.6h8l2.1,14.5h0l2-14.5h7.9v22.6H287.7z"/>
	<path class="st2" d="M305.2,166.5v-12.6h0l-4.4,12.6h-5v-22.6h5v12.9h0l4.5-12.9h4.9v22.6H305.2z"/>
	<path class="st2" d="M313.1,145.7v-0.9c0-5.4,2.7-8.6,7.5-8.6c5.1,0,7.5,2.6,7.5,8c0,2.9-0.6,4.6-2.1,6.6c-1,1.3-1.6,2.2-1.9,2.6
		c-0.6,0.8-1.2,2.2-1.2,4.2v0.7h-5v-1.5c0-1.2,0.1-2.2,0.3-3c0.2-0.8,0.5-1.5,0.8-2c0.4-0.6,1.2-1.8,2.5-3.5c0.8-1,1.2-2.5,1.2-4.6
		c0-2.3-0.8-3.8-2.1-3.8c-1.3,0-2.2,1.9-2.2,4.8v0.9H313.1z M323,166.5h-5.4v-5.4h5.4V166.5z"/>
</g>
</svg>
