<?xml version="1.0" encoding="utf-8"?>
<!-- Generator: Adobe Illustrator 22.0.1, SVG Export Plug-In . SVG Version: 6.00 Build 0)  -->
<svg version="1.1" id="bubble_2" xmlns="http://www.w3.org/2000/svg" xmlns:xlink="http://www.w3.org/1999/xlink" x="0px" y="0px"
	 viewBox="0 0 434.1 281.2" style="enable-background:new 0 0 434.1 281.2;" xml:space="preserve">
<style type="text/css">
	.st0{fill:#4D418D;}
	.st1{enable-background:new    ;}
	.st2{fill:#FFFFFF;}
</style>
<path id="bubble_shape" class="st0" d="M349.9,142.2c1.1,12.2-1.4,25.9-6.9,40.6c-10.4,27.8-43.1,45.3-81.8,44.1
	c-16,41.9-68.8,59.3-126.5,53.1c-48.2-5.2-84.5-39.1-86-78c-20.3-8.3-38.2-31.2-44.8-51.8c-14.4-45,13.1-93.4,57.1-105.7
	c13.4-3.7,24.9-3.6,37.7-1.5c11.8-16,20.7-23.7,36.1-31.2c45.8-22.3,102.7-10.1,137.7,15.1c5.7,2.7,20.3,20.3,27.6,33.2
	c11.8,16.3,27,21.7,41.5,15.4c12.1-5.2,18.4-13.7,30.8-28.2c20.8-24.3,57.9-24.6,61.6-23.6c1,0.2-15.2,4.4-35.6,28.9
	c-9,10.7-2.6,26-2.7,32.8C395.2,111.5,381,137.1,349.9,142.2z"/>
<g class="st1">
	<path class="st2" d="M88.4,106.8h-5.1v-5.2h-9.5v5.2h-5.1v-9.5h1.8c1.1-3.7,1.9-7.6,2.4-11.8c0.6-4.2,0.9-8.1,0.9-11.6h12.9v23.4
		h1.7V106.8z M81.4,97.3v-19h-2.8c-0.2,6.1-1.1,12.5-2.8,19H81.4z"/>
	<path class="st2" d="M99.5,102.2c-1.7,0-2.9-0.8-3.9-2.5h0v8.8h-5.1V80.8h4.9V83h0.1c1.1-1.8,2.4-2.8,4.1-2.8
		c3.6,0,5.4,3.4,5.4,10.9C104.8,98.5,102.9,102.2,99.5,102.2z M97.6,84.1c-1.7,0-2.1,2.5-2.1,7.1c0,4.5,0.4,7.1,2.1,7.1
		c1.8,0,2.1-2.4,2.1-7.1C99.7,86.6,99.4,84.1,97.6,84.1z"/>
	<path class="st2" d="M116.8,100.6c-1.2,6.1-3,7.8-7.5,7.8c-0.5,0-1.1,0-1.8-0.1v-3.7c0.4,0.1,0.8,0.1,1.1,0.1c1.7,0,2-0.7,2.2-2.2
		l0.1-0.9l-4.8-21h5.3l2.4,14.8h0l2.1-14.8h5L116.8,100.6z"/>
	<path class="st2" d="M128.6,102.2c-4.3,0-6.9-2.1-6.9-6.2v-0.6h5c0,2.6,0.5,3.5,2.2,3.5c1.8,0,2.2-1.1,2.2-3.2
		c0-1.8-0.6-3.3-2.7-3.3h-1.6v-3.3h1.6c1.8,0,2.4-1.3,2.4-3c0-1.9-0.7-2.6-2-2.6c-1.7,0-2.1,1.3-2.1,3.2H122c0-4.4,2.5-6.5,6.9-6.5
		c4.5,0,6.8,1.9,6.8,5.7c0,2.4-1.3,4.1-3.3,4.5v0.1c2.9,0.4,3.9,2.3,3.9,4.9C136.4,99.1,134.6,102.2,128.6,102.2z"/>
	<path class="st2" d="M147.1,101.6h-8.1V80.8h5.1V89h2.8c3.4,0,7.1,1.3,7.1,6.1C154,98.8,151.8,101.6,147.1,101.6z M145.6,92.5h-1.5
		v5.6h1.1c2.3,0,3.5-0.7,3.5-2.8C148.7,93.1,147.7,92.5,145.6,92.5z"/>
	<path class="st2" d="M164.8,101.6V93h-1c-2,0-2.5,1.1-2.5,2.9v3.4c0,0.9-0.1,1.8-0.2,2.3h-5.4c0.2-0.4,0.5-1.1,0.5-2v-2.3
		c0-3.9,0.6-5.7,3.5-6v-0.1c-2.3-0.5-3.6-2.5-3.6-5.2c0-3.7,2-5.4,6.1-5.4h7.8v20.9H164.8z M164.8,84.2h-0.8c-2.3,0-3,0.8-3,2.5
		c0,2.3,0.8,2.9,3.1,2.9h0.6V84.2z"/>
	<path class="st2" d="M76.2,146.5c-5.5,0.1-7.2-3.9-7.2-11c0-6.9,1.9-10.9,7.2-11c5.6,0,7.2,3.9,7.2,11
		C83.4,142.5,81.5,146.5,76.2,146.5z M76.2,128.1c-2.1,0-2.1,3.2-2.1,7.5c0,4.3,0.1,7.5,2.1,7.5c1.5,0,2.1-2.4,2.1-7.5
		C78.3,130.5,77.7,128.1,76.2,128.1z"/>
	<path class="st2" d="M92.1,146.5c-5.5,0-7.2-3.7-7.2-12.6c0-16.9,9.8-13.7,9.8-15.7h3.4c0,6.3-7.3,3.2-7.9,8.5
		c0.6-0.4,1.6-0.7,2.6-0.7c4.8,0,6.4,3.9,6.4,10.2C99.3,142.5,97.4,146.5,92.1,146.5z M92.2,129.5c-2.1,0-2.1,2.4-2.1,6.7
		c0,4.3,0.1,6.8,2.1,6.8c1.5,0,2.1-1.7,2.1-6.8C94.3,131.2,93.6,129.5,92.2,129.5z"/>
	<path class="st2" d="M110.3,146v-11.7h0l-4.1,11.7h-4.6v-20.9h4.6V137h0l4.1-11.9h4.5V146H110.3z"/>
	<path class="st2" d="M134.3,146l-3.5-9.3v9.3h-5.1v-9.3l-3.5,9.3h-5.8l5.5-12l-5.4-8.9h5.8l3.4,6.6v-13.4h5.1v13.4l3.4-6.6h5.7
		l-5.3,8.7l5.5,12.2H134.3z"/>
	<path class="st2" d="M150.3,146c-0.2-0.7-0.4-1.5-0.4-1.9h-0.1c-0.8,1.4-2,2.4-4.2,2.4c-3.6,0-4.6-3.1-4.6-6c0-3.8,1.6-5.1,4.8-6.4
		l2.2-0.9c1.1-0.4,1.8-1.1,1.8-2.6c0-1.7-0.3-2.6-1.8-2.6c-1.1,0-1.8,1-1.8,2.9v0.6h-4.5v-0.4c0-4.8,2.8-6.5,6.5-6.5
		c5.2,0,6.6,2.8,6.6,6.4V142c0,1.8,0.1,2.8,0.5,4H150.3z M149.9,136c-0.3,0.3-0.8,0.6-1.6,0.9c-1.5,0.6-2.4,1.3-2.4,3.1
		c0,1.7,0.4,3,1.5,3c1.1,0,2.5-1,2.5-3.3V136z"/>
	<path class="st2" d="M171.9,146.5c-5,0-6.8-3.3-7.1-9.3h-2v8.7h-5.1v-20.9h5.1v8.4h2c0.3-5.7,2.4-8.9,7.1-8.9c5.6,0,7.2,3.9,7.2,11
		C179.1,142.5,177.1,146.5,171.9,146.5z M171.9,128.1c-2.1,0-2.1,3.2-2.1,7.5c0,4.3,0.1,7.5,2.1,7.5c1.5,0,2.1-2.4,2.1-7.5
		C174,130.5,173.4,128.1,171.9,128.1z"/>
	<path class="st2" d="M188.7,129.2V146h-5.1v-16.7h-3.1v-4.1h11.4v4.1H188.7z"/>
	<path class="st2" d="M199.9,146.5c-4.6,0-7.1-2.7-7.1-11c0-8.4,3.4-11,7.5-11c5.4,0,6.6,3.8,6.6,7.9h-4.9c0-3-0.5-4.2-1.8-4.2
		c-1.4,0-2.3,1.3-2.3,7.4c0,4.8,0.5,7.3,2.1,7.3c1.2,0,2-1.6,2-4.8h4.9C206.9,143.2,204.7,146.5,199.9,146.5z"/>
	<path class="st2" d="M218.1,146v-8.6h-1c-2,0-2.5,1.1-2.5,2.9v3.4c0,0.9-0.1,1.8-0.2,2.3H209c0.2-0.4,0.5-1.1,0.5-2v-2.3
		c0-3.9,0.6-5.7,3.5-6v-0.1c-2.3-0.5-3.6-2.5-3.6-5.2c0-3.7,2-5.4,6.1-5.4h7.8V146H218.1z M218.1,128.5h-0.8c-2.3,0-3,0.8-3,2.5
		c0,2.3,0.8,2.9,3.1,2.9h0.6V128.5z"/>
	<path class="st2" d="M240.9,146.5c-5.5,0-7.2-3.7-7.2-12.6c0-16.9,9.8-13.7,9.8-15.7h3.4c0,6.3-7.3,3.2-7.9,8.5
		c0.6-0.4,1.6-0.7,2.6-0.7c4.8,0,6.4,3.9,6.4,10.2C248.1,142.5,246.1,146.5,240.9,146.5z M240.9,129.5c-2.1,0-2.1,2.4-2.1,6.7
		c0,4.3,0.1,6.8,2.1,6.8c1.5,0,2.1-1.7,2.1-6.8C243,131.2,242.4,129.5,240.9,129.5z"/>
	<path class="st2" d="M254.7,136.3v1.5c0,3.7,0.6,5.2,1.9,5.2c1.6,0,2.2-1.5,2.2-4h4.5c0,4.5-2.5,7.5-6.8,7.5
		c-6.3,0-6.9-3.7-6.9-11.1c0-5.5,1-10.9,7.3-10.9c6.1,0,6.7,4.2,6.7,10.5v1.2H254.7z M258.7,132.6c0-2.8-0.3-4.6-2-4.6
		c-1.7,0-2.1,1.7-2.1,4.3v0.8h4.1V132.6z"/>
	<path class="st2" d="M272,146.5c-4.3,0-6.9-2.1-6.9-6.2v-0.6h5c0,2.6,0.5,3.5,2.2,3.5c1.8,0,2.2-1.1,2.2-3.2c0-1.8-0.6-3.3-2.7-3.3
		h-1.6v-3.3h1.6c1.8,0,2.4-1.3,2.4-3c0-1.9-0.7-2.6-2-2.6c-1.7,0-2.1,1.3-2.1,3.2h-4.7c0-4.4,2.6-6.5,6.9-6.5c4.5,0,6.8,1.9,6.8,5.7
		c0,2.4-1.3,4.1-3.3,4.5v0.1c2.9,0.4,3.9,2.3,3.9,4.9C279.8,143.5,278,146.5,272,146.5z"/>
	<path class="st2" d="M77.7,190.3h-8.1v-20.9h7.8c4,0,6.6,1.6,6.6,5.5c0,2.1-1.1,4-3.4,4.4v0c2.4,0.4,4.1,2.3,4.1,4.8
		C84.6,187.5,82.7,190.3,77.7,190.3z M75.8,172.9h-1.1v5.1h0.7c2.9,0,3.5-0.8,3.5-2.6C79,173.5,77.9,172.9,75.8,172.9z M76.2,181.2
		h-1.5v5.6h1.1c1.9,0,3.5-0.6,3.5-2.8C79.3,181.8,78.3,181.2,76.2,181.2z"/>
	<path class="st2" d="M95.8,190.3v-11.7h0l-4.1,11.7H87v-20.9h4.6v11.9h0l4.1-11.9h4.5v20.9H95.8z"/>
	<path class="st2" d="M114.6,195.6v-5.2h-7.9v5.2h-4.5v-9.5h1.5c1.4-4.5,2.6-10,2.6-16.6h11.4v16.6h1.5v9.5H114.6z M112.5,173.3
		h-1.9c0,4-1.1,9.5-2.2,12.8h4.1V173.3z"/>
	<path class="st2" d="M130,190.3v-11.7h0l-4.1,11.7h-4.6v-20.9h4.6v11.9h0l4.1-11.9h4.5v20.9H130z"/>
	<path class="st2" d="M151.5,190.3v-15.9h-0.1l-2.8,15.9h-3.8l-2.8-15.9h0v15.9h-4.5v-20.9h7.4l2,13.4h0l1.8-13.4h7.3v20.9H151.5z"
		/>
	<path class="st2" d="M167.1,190.3H159v-20.9h5.1v8.2h2.8c3.4,0,7.1,1.3,7.1,6.1C174,187.5,171.9,190.3,167.1,190.3z M165.7,181.2
		h-1.5v5.6h1.1c2.3,0,3.5-0.7,3.5-2.8C168.8,181.8,167.8,181.2,165.7,181.2z M175.1,190.3v-20.9h5.1v20.9H175.1z"/>
	<path class="st2" d="M191.9,190.3l-2.4-7l-2.4,7h-5.3l4.7-10.8l-4.5-10.1h5.3l2.2,6.5l2.2-6.5h5.3l-4.4,10.1l4.7,10.8H191.9z"/>
	<path class="st2" d="M216.4,190.3V173h-4.5v17.4h-5.1v-20.9h14.8v20.9H216.4z"/>
	<path class="st2" d="M233.4,190.9c-1.7,0-2.9-0.9-3.9-2.5h0v8.8h-5.1v-27.7h4.9v2.2h0.1c1.1-1.8,2.4-2.8,4.1-2.8
		c3.6,0,5.4,3.4,5.4,10.9C238.7,187.2,236.8,190.9,233.4,190.9z M231.6,172.8c-1.7,0-2.1,2.5-2.1,7.1c0,4.5,0.4,7.1,2.1,7.1
		c1.8,0,2.1-2.4,2.1-7.1C233.7,175.3,233.3,172.8,231.6,172.8z"/>
	<path class="st2" d="M250,190.3v-11.7h0l-4.1,11.7h-4.6v-20.9h4.6v11.9h0l4.1-11.9h4.5v20.9H250z"/>
	<path class="st2" d="M266.3,190.3v-8.2c-1.1,0.6-2.4,1-4.1,1c-3.3,0-4.8-2.2-4.8-6.1v-7.5h5.1v6.5c0,2,0.6,3,1.5,3
		c1,0,1.6-0.1,2.3-0.6v-8.8h5.1v20.9H266.3z"/>
	<path class="st2" d="M283.1,190.3v-11.7h0l-4.1,11.7h-4.6v-20.9h4.6v11.9h0l4.1-11.9h4.5v20.9H283.1z"/>
	<path class="st2" d="M300.2,190.3v-9.1h-4.5v9.1h-5.1v-20.9h5.1v8.2h4.5v-8.2h5.1v20.9H300.2z"/>
	<path class="st2" d="M308,171.1v-0.8c0-5,2.5-8,6.9-8c4.7,0,6.9,2.4,6.9,7.4c0,2.7-0.6,4.3-2,6.1c-0.9,1.2-1.5,2-1.8,2.4
		c-0.6,0.8-1.1,2-1.1,3.8v0.6h-4.6v-1.4c0-1.1,0.1-2,0.3-2.7c0.2-0.7,0.4-1.4,0.8-1.9c0.3-0.6,1.1-1.6,2.3-3.2
		c0.7-0.9,1.1-2.3,1.1-4.2c0-2.1-0.7-3.5-2-3.5s-2,1.8-2,4.4v0.8H308z M317.1,190.3h-5v-5h5V190.3z"/>
</g>
</svg>
