<?xml version="1.0" encoding="utf-8"?>
<!-- Generator: Adobe Illustrator 22.0.1, SVG Export Plug-In . SVG Version: 6.00 Build 0)  -->
<svg version="1.1" id="Слой_1" xmlns="http://www.w3.org/2000/svg" xmlns:xlink="http://www.w3.org/1999/xlink" x="0px" y="0px"
	 viewBox="0 0 380 100" style="enable-background:new 0 0 380 100;" xml:space="preserve">
<style type="text/css">
	.st0{fill:#F2185E;}
	.st1{enable-background:new    ;}
	.st2{fill:#FFFFFF;}
</style>
<g>
	<rect class="st0" width="380" height="100"/>
</g>
<g class="st1">
	<path class="st2" d="M104.2,69.3h-5V34.1H90v35.2H85V29.6h19.2V69.3z"/>
	<path class="st2" d="M109.4,29.6h8.1c2,0,3.6,0.2,4.9,0.6c2.7,0.8,4.8,4,4.8,10.8c0,7.2-3.8,11.6-9.8,11.6h-2.9v16.7h-5.1V29.6z
		 M114.5,48.5h2.4c3.1,0,5-2.8,5-7.6c0-4.7-1.7-7.1-5.2-7.1h-2.2V48.5z"/>
	<path class="st2" d="M149.4,33.6c1.8,3.1,2.7,8.4,2.7,15.8c0,7.5-0.9,12.8-2.7,16c-1.8,3.1-4.5,4.7-8.1,4.7s-6.3-1.6-8.1-4.8
		c-1.7-3.2-2.6-8.5-2.6-15.9c0-7.4,0.9-12.7,2.6-15.8c1.8-3.2,4.5-4.8,8.1-4.8S147.6,30.4,149.4,33.6z M145.5,62.6
		c0.9-2.3,1.4-6.7,1.4-13.1c0-6.5-0.5-10.8-1.4-13.1c-0.9-2.3-2.3-3.4-4.2-3.4c-1.9,0-3.3,1.2-4.2,3.4c-0.9,2.3-1.3,6.7-1.3,13.1
		c0,6.4,0.4,10.8,1.3,13.1s2.3,3.4,4.2,3.4C143.3,66,144.6,64.9,145.5,62.6z"/>
	<path class="st2" d="M171,48.2c4,1.2,5.9,4.5,5.9,9.8c0,7.9-3.2,11.3-10.4,11.3h-9.9V29.6h10.4c5.7,0,8.9,3.4,8.9,10.2
		c0,3.8-1.9,7.3-4.9,8.3V48.2z M161.8,46.7h3.5c4.2,0,5.5-2.4,5.5-6.6c0-4.3-1.7-6.4-5.3-6.4h-3.7V46.7z M161.8,65.2h4.3
		c3.6,0,5.6-2.9,5.6-7.2c0-5.1-2.4-7.5-5.8-7.5h-4.1V65.2z"/>
	<path class="st2" d="M197.6,69.3h-16.1V29.6h15.6v4.5h-10.5v12.2h9.8v4.5h-9.8v14h11V69.3z"/>
	<path class="st2" d="M201.8,29.6h8.1c2,0,3.5,0.2,4.9,0.6c2.7,0.8,4.8,4,4.8,10.8c0,7.2-3.8,11.6-9.8,11.6h-2.9v16.7h-5.1V29.6z
		 M206.9,48.5h2.4c3.1,0,5-2.8,5-7.6c0-4.7-1.7-7.1-5.2-7.1h-2.2V48.5z"/>
	<path class="st2" d="M244.1,69.3h-4.7V39.6h-0.1l-9.8,29.8h-6V29.6h4.7v30.6h0.1l10.1-30.6h5.7V69.3z"/>
	<path class="st2" d="M267.6,34.1h-7.4v35.2h-5V34.1H248v-4.5h19.6V34.1z"/>
	<path class="st2" d="M276.2,46.7h5.2c6.1,0,10,4.2,10,11.3c0,7.3-4,11.3-11.1,11.3h-9.2V29.6h5.1V46.7z M276.2,65.2h4.3
		c3.6,0,5.6-2.9,5.6-7.2c0-4.8-2-7.2-5.8-7.2h-4.1V65.2z"/>
</g>
</svg>
