<?xml version="1.0" encoding="utf-8"?>
<!-- Generator: Adobe Illustrator 22.0.1, SVG Export Plug-In . SVG Version: 6.00 Build 0)  -->
<svg version="1.1" id="Слой_1" xmlns="http://www.w3.org/2000/svg" xmlns:xlink="http://www.w3.org/1999/xlink" x="0px" y="0px"
	 viewBox="0 0 129 54" style="enable-background:new 0 0 129 54;" xml:space="preserve">
<style type="text/css">
	.st0{fill:#FFFFFF;}
</style>
<g>
	<g>
		<g>
			<g>
				<g>
					<path class="st0" d="M121.5,10.5c-0.2,0.1-0.3,0.5,0.2,0.6c0.2-0.1,0.4-0.2,0.7-0.3C122.2,10.6,121.8,10.5,121.5,10.5z"/>
					<path class="st0" d="M122.7,13.7c0.4,0.4,0.9,1.1,1.5,0.8c-0.3-0.3-0.4-0.5-0.5-0.7c-0.1-0.2-0.3-0.4-0.7-0.6
						c-0.2-0.4-0.1-0.8,0.1-0.9c-0.2-0.1-0.4-0.8-0.9-0.7c0.2,0.8,0.4,1.3,0.9,2C123,13.8,122.8,13.7,122.7,13.7z"/>
					<path class="st0" d="M94.3,37.5l0.3,0C94.5,37.5,94.4,37.5,94.3,37.5z"/>
					<path class="st0" d="M71.8,44.7c0.2-0.1,0.2-0.1,0.2-0.2C71.9,44.5,71.7,44.6,71.8,44.7z"/>
					<path class="st0" d="M67.7,44.9c0.1,0,0.2,0,0.2,0C67.9,44.8,67.8,44.8,67.7,44.9z"/>
					<path class="st0" d="M94.3,37.5l-0.7,0.1C93.7,37.8,94,37.6,94.3,37.5z"/>
					<path class="st0" d="M122.3,19.6c0.1-0.1,0.1-0.3,0.1-0.4C122.3,19.3,122.3,19.4,122.3,19.6C122.2,19.5,122.2,19.5,122.3,19.6z
						"/>
					<path class="st0" d="M103.2,32.3l0.2-0.1c0-0.1,0-0.2,0-0.3L103.2,32.3z"/>
					<path class="st0" d="M109.4,27.4c-0.2,0.1,0.2,0.6,0.3,0.8c-0.1-0.2,0-0.4,0.1-0.5C109.6,27.6,109.5,27.5,109.4,27.4z"/>
					<path class="st0" d="M119.3,19.6l0.1-0.2C119.4,19.5,119.4,19.6,119.3,19.6z"/>
					<path class="st0" d="M98.2,35c0-0.1-0.1-0.1-0.2-0.1C98.1,34.9,98.2,34.9,98.2,35z"/>
					<path class="st0" d="M112.7,6.1C112.6,6.1,112.7,6.1,112.7,6.1C112.7,6.1,112.7,6.1,112.7,6.1z"/>
					<path class="st0" d="M121.4,10.3l-0.1,0c0,0.1-0.1,0.2-0.1,0.3L121.4,10.3z"/>
					<path class="st0" d="M60.4,45.6C60.4,45.6,60.4,45.6,60.4,45.6C60.6,45.5,60.5,45.5,60.4,45.6z"/>
					<path class="st0" d="M7.4,30.8c-0.7,0.6-0.2-1.4-1.1-0.5C6.5,30.3,6.8,31.5,7.4,30.8z"/>
					<path class="st0" d="M122.1,19.7c-0.1,0.1-0.1,0.2-0.2,0.3C122,19.9,122,19.8,122.1,19.7z"/>
					<path class="st0" d="M6.2,30.3L6.2,30.3L6.2,30.3C6.2,30.4,6.2,30.3,6.2,30.3z"/>
					<path class="st0" d="M43.7,47.6c0,0.1,0.1,0.2,0.2,0.2C43.9,47.8,43.9,47.7,43.7,47.6z"/>
					<path class="st0" d="M56.3,47.4l-0.3,0C56.1,47.4,56.2,47.4,56.3,47.4z"/>
					<path class="st0" d="M37.2,48.3c-0.2,0-0.2-0.1-0.5-0.1c0,0,0,0.1,0.1,0.1C36.9,48.3,37,48.3,37.2,48.3z"/>
					<path class="st0" d="M30.5,47.9c0,0,0.1,0.1,0.1,0.1c0.1,0,0.1,0,0.2,0L30.5,47.9z"/>
					<path class="st0" d="M91.8,2.7c0.1,0.2,0.2,0.4,0.3,0.5C92,2.8,93,2.8,91.8,2.7z"/>
					<path class="st0" d="M122,19.4c0.1,0.1,0.1,0.2,0.1,0.3c0-0.1,0.1-0.1,0.1-0.2C122.1,19.4,122.1,19.4,122,19.4z"/>
					<path class="st0" d="M36.8,52.8l-1.1-0.1C36,52.7,36.4,52.7,36.8,52.8z"/>
					<path class="st0" d="M41.8,4.8L42,4.7C41.9,4.7,41.8,4.8,41.8,4.8z"/>
					<path class="st0" d="M32.3,52.5c-0.2-0.2-0.4-0.4-0.6-0.4c-0.1,0-0.1,0.1-0.1,0.1L32.3,52.5z"/>
					<path class="st0" d="M92.1,3.3L92.1,3.3L92.1,3.3z"/>
					<path class="st0" d="M99.5,3c-1-0.2-0.6,0.6-0.9,1c-1.3,0-0.5-0.6-0.9-1.1c-0.8,0.1-1.5,0.7-2.1,0.5c0-0.1-0.1-0.2,0-0.3
						c-0.9,0.5-2.5-0.3-3.5,0.3c-0.1-0.1-0.1-0.1-0.1-0.2c0.1,0.4,0.1,0.8,0,1c-0.5,0-0.9,0.4-1-0.1c0.3,0,0.3-0.1,0.5-0.3L91,4
						c-0.4-0.7,0.7-0.2,0.8-0.7c-1,0.1-2.2,0.6-2.9,0.3c-0.1-0.7,1.7,0,0.8-0.7l1.1,0.4c-0.8-1.2,0.7,0.2,0-1.1
						c-1.5-0.4-1.7,0.1-3.2-0.2c-0.4,0.3,0.1,0.6-0.3,0.9c-2.2,0.5-1.5-1.8-3.2-1.1c-0.4,0.4-0.6,1.3-1.7,0.8l0.4-0.7
						c-1.5-0.2-0.9,1.1-2.4,0.5C80.7,2,81.6,2.1,81.3,2c-1-0.7-0.7,0.4-1.5,0.4l-0.1-0.7c-1.6,0.1-3.3,0.5-5,0.6
						c0.1-0.2,0.4-0.4,0-0.6C72.5,2,70,1.6,67.9,1.3l-0.8,0.6c-0.2,0-0.4-0.3-0.2-0.4c-0.8-0.2,0,0.4-0.4,0.6
						c-0.5,0.1-0.6-0.3-0.3-0.5c-1.4,0.6-4,1.3-5.6,0.8l0.3-0.2c-1.2-0.1-1.2,1.3-2.4,0.9L58.7,3c-1.3,0-2.6,0.2-3.9,0.3
						c-1.3,0.1-2.5,0.2-3.5-0.1c-0.3,0.9-2.6,0-2.6,1.2c-1.5-0.4-1.2-0.6-3.3-0.7c-0.6,0-0.7,0.9-1.3,1.1L44,4.3l-0.8,0.8l-0.6-0.6
						L42,4.7c0.3,0,0.6,0.2,0.6,0.4c-0.9,0.5-2.5,0-2.6-0.3c-0.7,0.3-1.5,0.7-2.2,1c0-0.3,0.4-0.4,0.6-0.6c-1.1,0.9-0.4-0.6-1.4,0.2
						c0.2,0.1,0,0.4,0,0.5c-0.6-0.2-1.9,0-2.8,0.4l0.1-0.5c-1.7,0.3-3.6,1.1-5.5,1.6c0.7,0,0.8,0.8,0.2,1l-0.4-0.6
						c-0.3,0.5,0.6,0.1,0,0.8C28,8.7,28.1,8,28.4,7.7l-0.8,0.5c-0.1-0.2,0.1-0.3,0.1-0.6c-0.2,0.5-1.7-0.2-2,0.6L25.6,8
						c-1.9,0.6-2.7,1.1-4.3,1.6c0.2,0.5-0.5,0.6-0.8,1.2c-1.2,0.3-2.6,0.4-4,1.1c-0.8,0.7-0.1,0.6-0.3,1.1c-0.3-0.4-1.6,0.4-1.1-0.3
						c-1.5,1-2,1.3-3.5,3.1c0.3,0,0.6-0.1,0.6,0.1c-0.3,0.3-0.9,0.5-1,0.2l0-0.1c-0.7,1.1-2,2-3.1,2.9C7,20,5.9,21,5.9,22.2l0-0.1
						c-0.2,0.7-0.3,1.4-0.5,2.1C4.9,25,5.3,23.5,4.8,24c-0.2,2.4-1.5,3.3-1.6,5.2c-0.9,0.4-1.3,1.6-1.5,3.1
						c-0.2,1.5-0.2,3.1-0.6,4.4l0.3-0.2c0.4,0.6-0.1,0.8-0.1,1.3c0.2-0.1,0.2-0.7,0.4-0.4c0.3,1.3,0.9,2.6,1.6,3.7
						c0.7,1.1,1.5,2.1,2.4,2.9c1.7,1.7,3.6,3.1,5.6,4.2c1.5,0.8,1.6-1.3,3.1,0.2l-0.8,0.4c3.3,0.4,6.3,2,9.5,1.9
						C23,50.8,22.9,51,22.6,51c0.6,0.6,2.4,0.4,2.4,0c0.5,0.1,0.1,0.4,0.3,0.6c0.6,0.4,1.7-0.4,2,0.1c0,0.1-0.2,0.1-0.3,0.1
						c0.4-0.2,1.9,0.3,1.6-0.3c1.1,0.4,2.2,0,3.1,0.4c0.6-0.5,1.9,0.5,2.2-0.4c-0.1,0.9,2,0.8,2.7,0.5c-0.3,0.3,0.6,0.3,0.3,0.7
						c0.8,0,1.6-0.1,1.5-0.6c1.5,1.1,3-0.8,3.9,0.5c1.2-0.3,2.4-0.5,3.5-0.7c1.1-0.2,2.2-0.4,3.3-0.6c0,0.9-2.4,0.2-2.3,1.2
						c1-0.2,1.8-0.6,2.6-0.8c0.8-0.3,1.6-0.5,2.6-0.5c0.5,0.1-0.3,0.4-0.4,0.6c2-0.5,4-0.4,5.8-1.1c0,0.1-0.2,0.2-0.4,0.3
						c0.4-0.1,0.9,0,0.8-0.4l-0.3,0.2c-0.7-0.5,1.2-1.5,1.3-1.8c-0.4,1.3,1.8,0,1.1,1.6c0.2-0.1,0.5-0.4,0.4-0.6
						c0.4,0,0.5,0.2,0.2,0.5c1.2-0.4,0.7-0.8,1.9-1c0,0.2-0.2,0.3-0.3,0.6c0.5-0.5,1-1,2-1c0,0.1,0.1,0.3-0.2,0.3
						c1.7-0.4,2.6-1.6,4.5-1.6c-0.3,1,0.7,0.1,0.9,0.8c0.3-0.1,0.6-0.3,0.9-0.5L69.8,48c0.9-0.2,1.5-0.9,2.3-0.9l-0.6,0.5l1.6-0.5
						l-1-0.1c0.8-0.6-0.3-0.9,0.9-1c-0.2,0.1,0.8-0.2,1.4,0.1l0,0c0.4-0.3,0.7-0.7,1.4-0.7c0.2,0.2,0.1,0.8,0.2,1
						c0.2-0.7,1.9-0.7,2.3-1.5c-0.1,0.2,0,0.6,0.1,0.6l0.2-0.6c0.4,0,0.5,0.1,0.5,0.4c1.2-0.3-0.6-0.8,0.9-0.8
						c-0.1,0.1,0,0.1-0.2,0.3c1.5-0.2,2.6-1.2,3.9-1.3c0.6,0.6-1.1,0.5-0.4,1c1.8-0.7,3.5-2.1,5.3-2.6l-0.4,0
						c-0.1-1.1,1.5,0,2.2-0.8c-0.2,0.2-0.1,0.7-0.1,0.5c1.3-0.3,2.4-1.2,4-2.2l-0.1,0.3c0.8-0.1,1.9-0.7,2.7-0.9
						c0.1-0.3,0.6-0.5,0.1-0.7c1.5,0.2,2.5-0.6,3.4-1.3c0.9-0.8,1.8-1.6,3.1-1.6c-0.2,0.1-0.4,0.5-0.2,0.4c0.5-0.4,1-0.8,1.5-1.2
						c-0.4-0.3-0.4-0.1-0.9-0.2c0.1-0.4,0.4-0.8,0.8-1.1c-0.5,0.7,0.4,0.6,0.9,0.6c-0.1-0.1-0.1-0.3-0.2-0.4c1.3,0.1-0.4-0.9,1-1.2
						l0.1,0.2c0.3-0.4,0.5-0.9,1-1.2c0.5,0.3-0.3,0.5,0,0.9c0.6-0.5,0.6-1.7,1.5-1.7c-0.2,0.3-0.5,0.6-0.7,0.9c1,0,1-0.2,1.5-0.4
						l-0.1,0l1.2-0.6l-0.4,0.1c-0.1-1.7,1.3-1.4,1.7-3c-0.4,1.5,0.2,0.5,0.5,1c0.4-0.1,0.9-0.3,0.9,0c0.1-0.8,1-0.4,1.2-1.5
						c0.2,0.1,0.5-0.4,0.7,0c0.5-0.6-0.4-0.1-0.5-0.4c0.5-1.3,2.7-1.3,3.4-3.2c0.8-1.4,0.6-2,1.3-3.3c0.5-0.2,0.3,0.8,0.3,0.8
						c0.7-0.4,1.1-0.9,1.3-1.6c0,0.2,0.3,0.2,0.6,0.1c0.3-0.5-0.3-0.7,0.3-1.2c0.1,0.2,0.3,0.6,0.3,0.9c0.3-0.7,0.3-1.5,0.5-2.3
						c0.4-0.1,0.2,0.7,0.3,1c0.2-0.4,0.4-1.1,0.4-1.6c0-0.5,0-1-0.3-1.2c-0.1,0.2-0.2,0.3-0.3,0.5c0-0.3,0.5-0.1,0.5,0.2
						c0.2,0.9-0.6,1-0.7,1c0-0.2,0.1-0.4,0.1-0.6c-0.6,0.1-0.8,0.5-0.9,1.1c-0.1,0.6-0.2,1.3-0.5,1.7l-0.4-0.8c0,0.4,0,0.8,0,1.2
						c-0.3,0.1-0.8-0.1-0.6-0.6c-0.8,0.3-0.2,0.7-0.9,0.9c-0.1,0-0.1,0-0.1-0.1c-0.1,0.2-0.2,0.5-0.3,0.7c0-0.2-0.5-0.3-0.1-0.5
						c-1.2,0.6-0.9,1.9-1.7,1.8l0-0.1c-1.1,1.4,0.3,0.6-0.2,2l-1.7-0.5l0.3,0.6c-0.1,0.1-0.4,0.3-0.6,0.1c-0.2,0.8,0.3,0.1,0.2,0.7
						c-1,0.2-1.6,1.8-2.4,1.2c0.1,0.6,0.9-0.3,0.4,0.6c-0.9-0.6-0.7,0.8-1.6,1c-0.2-0.6,0.6-0.8-0.3-0.7c0.2,1-1.3,0.9-1.7,1.4
						c0.4,0.6-0.9,1.2-1.6,2c-0.1-0.2-1.9,1-2.9,1.4l0-0.1c0.3,0.7-0.7,1.2-1.2,1.8c-0.2-0.4-0.2-0.6,0-1l-0.6,0.4
						c0,0.3-0.1,0.5-0.5,0.8l-0.1-0.6c-0.8,0.5-1.3,1.6-2.6,1.9c0.2,0.5,1.6,0.8,0.6,1.7c-0.2-0.2-0.4-0.6-0.2-0.9
						c-0.1,0.1-0.2,0.4-0.5,0.4l0.2-0.7c-0.6,0.1-0.1,0.5-0.5,0.7c-0.2-0.4-0.4-0.1-0.5-0.4c0.1-0.1,0.4,0,0.5-0.3
						c-0.5,0.2-1.1,0.3-1.5,0.1c0.1,0.2,0.2,0.5-0.1,0.7c-0.9,0.5-0.5-0.3-1.1-0.2c-0.1,0.3-0.8,0.4-0.5,0.9
						c-0.3,0.1-0.4-0.1-0.6-0.2c-0.3,0.5-2.1,1-1.3,1.4l0.1,0c0,0,0,0-0.1,0.1l0,0l0,0c-1.3,1.2-3.3,1-4.8,1.8l-0.1-0.2
						c-0.8,0.6-2,0.9-2.5,1.5c-0.3,0.1-0.8-0.1-0.7-0.4c-0.7,0.4-0.7,0.6-1.8,0.7c0.6-0.6-0.3-0.2,0.6-0.5c-1,0.2-1.3-0.1-2.1,0.8
						c0.2-0.6-0.9-0.4-1.3-0.1l0.8,0.1c-0.5,0.2-0.9,0.3-1.4,0.4l0-0.7c-2.1-0.1-3,2.4-4.9,1.5c-0.4,0.6,1.1,0,0.8,0.7
						c-0.9,0.2-2.1-0.5-2.4-0.4c-1.3,0-0.9,1.2-2.2,1.4c0.2,0.2,0.5,0.8-0.4,1.2c-0.9,0.1-1.3-0.7-0.8-1c0.2-0.1,0.3,0,0.3,0.1
						c0.3-0.2,0.6-0.3,0.2-0.5l-0.1,0.3c-0.5-0.1-1.7,0.2-1.5-0.3c-0.6,0.4-0.2,0.4,0.3,0.4c-1.2-0.1-1.8,0.4-3,0.5
						c0.2,0.1,0.5,0.3,0.3,0.4c-1.8,0.1-0.7,0.6-1.8,1c-0.7-0.2,0.1-0.9-1.1-0.3c-0.8-0.1-0.3-0.6,0-0.8c-1,0.7-2.1,0.1-2.7,0.1
						l0.5-0.3c-0.3,0.2-0.6,0.2-0.9,0.3l0.4,0.4c-0.3,0-0.6,0-0.7-0.2c-0.3,0.4,0.4,0.7-0.2,1.3c-0.5-0.1-1.3,0.5-1.6-0.1
						c1.4,0-0.3-0.6,0.9-0.9c-0.2,0.1-0.5,0.2-0.8,0.1c-0.1-0.1,0-0.1,0.1-0.2c-1.4-0.3-0.5,0.8-1.9,1c0.1-0.4-0.4-0.6-0.6-0.5
						c0.6-0.1,0.4,0.5-0.1,0.9c-0.9-0.1-0.9,0.3-1.4,0.4l0.6,0.1c-0.1,0.4-0.6,0.4-1.2,0.6c-0.1-0.3,0.5-0.3,0.3-0.4
						c-0.6,0.7-1.7-0.4-2.6,0.1c-0.5-0.2-0.1-0.7-0.5-0.8c-1,0.6-1.2-0.4-2.3,0.1c0.4,0.4,0.4,0.3-0.3,0.9l1.9-0.5l-1.1,0.8
						c0.6,0,1.2-0.4,1.5-0.4c-0.5,0.4-0.5,0.3-0.2,0.7c-0.9-0.6-1.5,0.6-2.5,0.2l-0.1-1.2c-1.4-0.4-2.4,0.8-4.1,0.6l0.6,0.2
						c-0.2,0.5-1.1,0.1-1.7,0.3c0-0.4-0.3-0.5-0.6-0.8c0,0.3-1.3,0-1.4,0.8l-0.8-0.5c-1.4-0.2-1.6,1.1-3,1c0.4-0.4-0.2-0.7,0.7-1
						c-0.5,0-0.9-0.1-0.9,0.2c-0.3-0.3-1.3,0.5-1.7,0.1c-0.2,0.2-0.3,0.6-0.8,0.5c-0.1-0.1,0-0.2,0-0.2c0,0.2-0.8,0.2-0.4,0.7
						C35,48.7,34,48.7,33,48.6c-1-0.1-1.9-0.1-2.5-0.7c-1,0.1-2.2,0-3.1-0.1c0.1-0.1,0-0.2,0.2-0.1c-1.2-0.5-0.9,1-2.3,0.4
						c-0.6-0.7,0.8-0.2,0.4-0.5c0-1.3-1.7-0.1-2.5-1l0.2,0c-0.6-0.6-1.8,0.1-3-0.2c0,0,0.1-0.1,0.1-0.2c-0.9,0.5-2.5,0.3-3.6,0.1
						c0.5-0.4,0.6-0.1,0.5-0.7c-0.5-0.1-0.1,0.8-1.1,0.7c-0.2-0.4-0.8-0.9-0.7-1.4l0.9,0.3c-0.2-0.8-1.2-0.4-1.6-0.7l0.2-0.3
						c-1.4-0.4-1.7,0.3-3.1-0.5l0,0.3c-1.1,0.3-0.4-0.7-1.5-0.6l0.2-0.8c-0.6-0.1-2.1-0.4-2.9-0.9c0.8-0.1,1.9,0.3,2.7,0.4
						c-0.5-0.3-1.5-1-2-0.8c0.2,0.1,0.5,0.1,0.6,0.3c-0.9,0.1-1.8-0.2-2.5-1c0.6-0.5,0.2-1-0.1-1.6c-0.4-0.6-0.6-1.4-0.1-1.8
						c-0.5-0.6-0.5-1.4-0.2-2.3C6.4,33.9,6.7,33,7,31.9c-1.4,0.4,0.2-0.6-1-0.9c0.1-0.5,0.2-0.7,0.3-0.8C6.6,29.9,7,29.4,7.5,29
						c0.5-0.2,0.1,0.6,0.4,0.6c0.5-1,0.6-0.3,1.2-0.9c-0.5,0-0.4-0.6,0-1.1c-0.3,0.2-0.6,0.4-0.9,0.6c0-1.7,1.5-0.9,1.5-2.6l0.1,0.6
						c0.1-0.9,1.4-2.5,1-3.7c0.2,0,0.6,0,0.5,0.3c0.6-0.7,1-1.7,1.5-2.6c0.5-0.9,1.1-1.6,1.9-1.8l0.1,0.3c0.2-0.3,0.1-0.8,0.7-0.8
						c0.1,0.1,0.1,0.3,0.2,0.2c0.1-0.2,0.5-1,1-1.1l-0.2,0.5c1.7-0.6,2.1-2.1,3.5-3c0.4,0.8,1.9,0.5,2.6,0.4l0,0.1
						c2.1-0.7,3.4-1.9,5.5-2.9c1.6,0.6,4.5-0.8,6.8-0.8c-0.4-0.1-0.1-0.7,0.2-0.9c0.5,0.1,1.2-0.9,1.3-0.1l-0.2,0
						c0.6,0.7,1.5,0.3,2.3,0.1l-0.1-1.1c2.4,1,5.4-1.7,6.8-0.5c0.5-0.3,1.1-0.4,1.6-0.8l0.1,0.6c1.4-0.1,2.1-0.2,3.9-0.5l-0.3,0.5
						c1-0.1,1-1.8,1.9-2l0.4,0.8C54.5,7.4,56.4,7.9,58,7c0,0.1,0,0.4-0.3,0.4c0.8-0.1,3.2,0.3,2.8-0.8c0.1,0.8,1.8-0.1,2.7-0.5
						l-0.1,0.6c0.7-0.8,0.8-1,1.9-1.2c0.3,0.1,0.3,0.4-0.1,0.3c0.9,0.2,0.7-0.6,1.7-0.3l-0.4,0.4c0.9,0,0.8-0.2,1.3-0.6
						c0.6-0.2,1.7,0.1,1.9,0.6C69.5,5.5,70,5,70.5,5.2c0.1,0.2-0.1,0.3-0.2,0.4c1.5,0.4,2.2-0.7,3.3-0.1c0,0.2,0.1,0.3,0.2,0.3
						c-1.2,0-2.2,0-2.1-0.1c0,0.5,1,0.6,0.2,1.3c0.8-0.4,2.1-1.2,3-1c0,0,0.1,0.1,0.1,0.2L75,6.2c0.2,0.1,0.4,0,0.6-0.1
						c0.3,0.1,0.5,0.2,0.8,0.2c0.1,0.4,1.1,0.3,1.6,0.3c0-0.6,0.6-0.5,0-0.9c0.1,0-0.1,0.1-0.4,0.1c-0.1,0-0.2,0-0.2,0.1
						c0,0,0,0,0,0c-0.3,0-0.7,0-1.2,0c0.4-0.3,0.8-0.5,1.3-0.2c0.3-0.4,0.5-0.7,0.7-0.9c0.6,0.8,1.9,1.3,2.1,1.8
						c1.5-0.2,3.5-0.1,4.5-1c0.4-0.1,0.5,0.3,0.6,0.5C85,6,84.7,6,84.6,6.1c0.9-0.2,2.5,0.1,2.7-0.6c1,0.4-0.7,0.6,0.8,0.6l-0.2,0.2
						c2.7,1.5,4.9-1.4,7.8,0.6c-0.2-0.1-0.3-0.2-0.3-0.3c3.5,1.2,7.5,0.6,10.8,2.4c1,0.4,1.2,0,1.8-0.3l0.1,0.6l1.2-0.5
						c1.6-0.2,2.3,2,4.4,1.4l-0.2-0.4c0.7,0.2,2.2,0.1,2,0.6c0.1-0.1,0.3-0.4,0.5-0.1l0,0.3l1.8-0.3c1.3,0.4-0.4,1.2,1.5,1.6
						c0.7,0,2.2-0.6,1.9-0.9c-0.3-0.1-0.7-0.3-0.7-0.6l0.7-0.1c0.2-0.9,0.8-1.8-0.6-2.6l-1.2,0.4l-0.3-0.5l0.9,0.1
						c-0.5-0.5-0.8-0.2-1.2,0c-0.1-0.3-0.2-0.4-0.4-0.6l-1.2,0.7c-0.1-0.4,0.6-0.6-0.1-0.9c-0.6,0.3,0.3,0.9-0.5,1
						c-0.5-0.5-0.2-0.8-0.9-0.6c0-0.3,0.1-0.4,0.4-0.4c-0.6,0.2-1.5-0.1-1.8,0.3c-0.4-0.6-1.9-0.2-1.6-1.1c-0.2,0.2-1.1,0.5-1.6,0.4
						c1.1-0.9-1.9-0.4-1.4-1.5c-0.9,0.8-2.5-0.1-3.8,0.2c0.1-0.1,0.2-0.2,0.3-0.1c-0.7-0.2-0.8-0.5-1.2-0.8c-0.2,0.8-1.3,0.7-2,1.1
						c-0.7-0.9,0.7-0.8,0.6-1.6c-0.1,0.6-1.6,0.3-1.4,0.9c-0.6-0.6-0.5-0.3-0.7-1c-0.3,0.9-0.6,0.1-1.3,0.6
						c-0.8-0.6-0.1-0.9-1.2-0.8C98.5,3.2,99.5,3,99.5,3z M74.7,2.5C74.7,2.5,74.7,2.5,74.7,2.5c0.2,0,0.4,0,0.5,0
						C75.1,2.5,75,2.5,74.7,2.5z M72.6,2.5c0.3,0,0.6,0,0.9,0c0.1,0.2,0,0.4-0.2,0.4C73.4,2.8,72.9,2.7,72.6,2.5z M76.9,6.5
						c-0.3,0.1-0.4,0-0.5-0.2c0.2,0,0.3,0,0.6-0.1c0,0,0,0,0-0.1C77,6.3,77,6.4,76.9,6.5z"/>
					<path class="st0" d="M77.5,5.7c0,0,0.1,0,0.1,0c-0.1-0.1-0.1-0.1-0.2-0.1c0,0.1-0.1,0.1-0.1,0.2C77.4,5.7,77.5,5.7,77.5,5.7z"
						/>
					<path class="st0" d="M94.6,37.5L94.6,37.5C94.6,37.5,94.6,37.5,94.6,37.5C94.6,37.5,94.6,37.5,94.6,37.5z"/>
					<polygon class="st0" points="44,4.1 44,4.3 44.2,4.1 					"/>
					<path class="st0" d="M105.5,33.8c0,0,0.1,0,0.2,0C105.7,33.8,105.6,33.8,105.5,33.8z"/>
					<path class="st0" d="M109.5,30.9l0.7-0.3C109.9,30.7,109.7,30.8,109.5,30.9z"/>
					<path class="st0" d="M112.6,28.7c0-0.1-0.1-0.2-0.1-0.2l0,0L112.6,28.7z"/>
					<path class="st0" d="M57.1,51.1c-0.1,0-0.1,0-0.1,0C56.6,51.3,56.8,51.2,57.1,51.1z"/>
					<path class="st0" d="M74.4,46.2c-0.2,0.1-0.3,0.3-0.5,0.4C74.2,46.6,74.5,46.5,74.4,46.2z"/>
					<path class="st0" d="M36.9,52.8C36.9,52.8,36.9,52.8,36.9,52.8c0,0-0.1,0-0.1,0L36.9,52.8z"/>
					<path class="st0" d="M73.1,46.8c0.3,0,0.6-0.1,0.8-0.2C73.6,46.6,73.3,46.7,73.1,46.8z"/>
					<path class="st0" d="M124.1,16.1l0.1-0.2c0,0-0.1,0-0.1,0L124.1,16.1z"/>
					<path class="st0" d="M124.1,15.8l0-0.3C124.1,15.7,124.1,15.8,124.1,15.8z"/>
					<path class="st0" d="M124.1,15c0,0.2,0,0.4,0.1,0.6C124.2,15.4,124.2,15.1,124.1,15z"/>
					<path class="st0" d="M121,20.8l0.1,0.2C121.2,20.9,121.1,20.9,121,20.8z"/>
					<path class="st0" d="M120,22.1c0.3-0.2,1-0.4,1.2-0.9l-0.1-0.1C121.2,21.4,120,21.6,120,22.1z"/>
					<path class="st0" d="M113.7,24.6l1.1-0.7c-0.3,0-0.7,0-0.3-0.5C112.8,23.9,115,23.5,113.7,24.6z"/>
					<path class="st0" d="M110.5,26.9c0.4-0.5-0.2-0.2-0.3-0.4C110,27,110,27.1,110.5,26.9z"/>
					<path class="st0" d="M86.3,40.3l-0.1-0.5C85.7,40,86.2,39.9,86.3,40.3z"/>
					<polygon class="st0" points="82,44.5 82.6,44.6 82.7,44.1 					"/>
					<polygon class="st0" points="77.9,42 78,41.8 77.3,42.2 					"/>
					<path class="st0" d="M31.7,47.5l0.1,0.6C32.2,48,32.3,47.3,31.7,47.5z"/>
					<path class="st0" d="M12.3,43.5c0-0.4-0.4-0.8-0.9-0.7C11.8,43,12.1,43.4,12.3,43.5z"/>
					<polygon class="st0" points="39.6,10.1 39.3,10.4 40,10.1 					"/>
				</g>
			</g>
		</g>
	</g>
</g>
</svg>
