<?xml version="1.0" encoding="utf-8"?>
<!-- Generator: Adobe Illustrator 22.0.1, SVG Export Plug-In . SVG Version: 6.00 Build 0)  -->
<svg version="1.1" id="face_recognition" xmlns="http://www.w3.org/2000/svg" xmlns:xlink="http://www.w3.org/1999/xlink" x="0px"
	 y="0px" viewBox="0 0 339.1 370.1" style="enable-background:new 0 0 339.1 370.1;" xml:space="preserve">
<style type="text/css">
	.st0{opacity:0.7;fill:#FFFFFF;enable-background:new    ;}
	.st1{opacity:0.5;fill:none;stroke:#FFFFFF;stroke-width:2;enable-background:new    ;}
	.st2{opacity:0.5;fill:none;stroke:#FFFFFF;stroke-width:4;enable-background:new    ;}
	.st3{fill:none;stroke:#FFFFFF;stroke-width:12;}
</style>
<g id="Dots">
	<ellipse id="Ellipse_1" class="st0" cx="136.5" cy="78.2" rx="4.3" ry="4.3"/>
	<ellipse id="Ellipse_2" class="st0" cx="81.9" cy="119.2" rx="4.3" ry="4.3"/>
	<ellipse id="Ellipse_3" class="st0" cx="149.7" cy="227.2" rx="4.3" ry="4.3"/>
	<circle id="Ellipse_4" class="st0" cx="110.1" cy="206.4" r="4.3"/>
	<ellipse id="Ellipse_5" class="st0" cx="186.2" cy="210.8" rx="4.3" ry="4.3"/>
	<ellipse id="Ellipse_6" class="st0" cx="145.4" cy="296.7" rx="4.3" ry="4.3"/>
	<path id="Ellipse_7" class="st0" d="M207.2,271.5c2.4,0,4.3,1.9,4.3,4.3c0,2.4-1.9,4.3-4.3,4.3s-4.3-1.9-4.3-4.3c0,0,0,0,0,0
		C202.9,273.5,204.8,271.5,207.2,271.5z"/>
	<circle id="Ellipse_8" class="st0" cx="86.8" cy="260.7" r="4.3"/>
	<circle id="Ellipse_9" class="st0" cx="189.9" cy="77.6" r="4.3"/>
	<path id="Ellipse_10" class="st0" d="M298.5,74.8c2.4,0,4.3,1.9,4.3,4.3c0,2.4-1.9,4.3-4.3,4.3c-2.4,0-4.3-1.9-4.3-4.3
		C294.3,76.7,296.2,74.8,298.5,74.8C298.5,74.8,298.5,74.8,298.5,74.8z"/>
	<circle id="Ellipse_11" class="st0" cx="200.6" cy="108.6" r="4.3"/>
	<ellipse id="Ellipse_12" class="st0" cx="272.7" cy="111.2" rx="4.3" ry="4.3"/>
	<path id="Ellipse_13" class="st0" d="M239.7,127c2.4,0,4.3,1.9,4.3,4.3s-1.9,4.3-4.3,4.3c-2.4,0-4.3-1.9-4.3-4.3
		C235.4,128.9,237.3,127,239.7,127z"/>
	<ellipse id="Ellipse_14" class="st0" cx="45.2" cy="88.7" rx="4.3" ry="4.3"/>
	<circle id="Ellipse_15" class="st0" cx="13.1" cy="150.9" r="4.3"/>
	<circle id="Ellipse_16" class="st0" cx="299.1" cy="171" r="4.3"/>
	<path id="Shape_1" class="st1" d="M14.2,150.9l72.6,108.7L14.2,150.9z"/>
	<path id="Shape_2" class="st1" d="M45.2,87.7l-31,63.3l71.5,109.8"/>
	<path id="Shape_3" class="st1" d="M271.6,111.1l28.6,59.9l-93,104.8"/>
	<ellipse id="Shape_4" class="st0" cx="37.7" cy="53.3" rx="4.3" ry="4.3"/>
	<circle id="Shape_5" class="st0" cx="129.2" cy="107.2" r="4.3"/>
	<path id="Shape_6" class="st1" d="M85.7,260.7l60.8,37.1l60.8-22l-19.9-65l-38.7,15.3l-38.5-20.8L85.7,260.7z"/>
	<path id="Shape_7" class="st1" d="M241.8,132.4l-35.7,142.4"/>
	<path id="Shape_8" class="st1" d="M86.8,261.8l-4.9-142.5L45.2,88.7l-7.5-35.4l98.8,24.9l-7.3,29l-46.2,11"/>
	<path id="Shape_9" class="st1" d="M189.9,76.6L299.6,79l-27,32.1l-33,21.2l-40.2-23.7L189.9,76.6z"/>
	<path id="Shape_10" class="st1" d="M129.2,108.3l-19.1,96"/>
	<path id="Shape_11" class="st1" d="M200.6,108.6l-13.2,102.2"/>
</g>
<rect id="shape" x="7.2" y="6" class="st2" width="325.9" height="358.1"/>
<path id="angle_1" class="st3" d="M7.2,107.6V6h106.3"/>
<path id="angle_2" class="st3" d="M115.8,364.1H6v-98.4"/>
<path id="angle_3" class="st3" d="M333.1,262.6v101.6H226.8"/>
<path id="angle_4" class="st3" d="M223.3,6h109.8v98.4"/>
</svg>
