<svg width="67" height="67" xmlns="http://www.w3.org/2000/svg">

 <g>
  <title>background</title>
  <rect fill="none" id="canvas_background" height="402" width="582" y="-1" x="-1"/>
 </g>
 <g>
  <title>Layer 1</title>
  <path stroke="null" id="svg_1" fill-rule="evenodd" clip-rule="evenodd" fill="#000000" d="m28.79887,51.61627l7.486282,0l0,-18.118489l4.994185,0l0.661599,-6.243008l-5.655784,0l0.00777,-3.125944c0,-1.627356 0.155409,-2.500978 2.490987,-2.500978l3.121504,0l0,-6.244118l-4.995295,0c-5.999904,0 -8.111249,3.029369 -8.111249,8.122349l0,3.748691l-3.739811,0l0,6.244118l3.739811,0l0,18.117379zm4.701127,15.185696c-18.391565,0 -33.301965,-14.9104 -33.301965,-33.301965c0,-18.392675 14.9104,-33.301965 33.301965,-33.301965s33.301965,14.90929 33.301965,33.301965c0,18.391565 -14.9104,33.301965 -33.301965,33.301965z"/>
 </g>
</svg>