<?xml version="1.0" encoding="utf-8"?>
<!-- Generator: Adobe Illustrator 22.0.1, SVG Export Plug-In . SVG Version: 6.00 Build 0)  -->
<svg version="1.1" id="Слой_1" xmlns="http://www.w3.org/2000/svg" xmlns:xlink="http://www.w3.org/1999/xlink" x="0px" y="0px"
	 viewBox="0 0 1560 247" style="enable-background:new 0 0 1560 247;" xml:space="preserve">
<style type="text/css">
	.st0{enable-background:new    ;}
	.st1{fill:#FFFFFF;}
</style>
<g class="st0">
	<path class="st1" d="M138.8,152.7c0.3,29.4-4.1,51.8-13.3,66.6c-10.7,18.3-29,27.5-55.3,27.5c-18.6,0-32.5-5.1-42-15.2
		C9.7,211.1,5.9,178.9,5.9,125.6c0-28.1,1.6-50.8,4.4-68.2c6-34.4,24-56.8,63.5-56.8c19.3,0,33.2,3.8,42.3,11.7
		c9.2,7.9,15.2,17,17.4,27.8c2.2,10.4,3.5,24.9,3.5,43.6H91.7c0-34.4-5.1-47.7-19.3-47.7c-7.9,0-13.3,6.6-16.1,19.6
		c-2.8,12.9-4.4,36.6-4.4,71c0,32.8,1.3,54.9,4.1,66.6c2.8,11.7,8.5,17.4,16.4,17.4c13.9,0,20.8-19.3,20.8-57.8H138.8z"/>
	<path class="st1" d="M298.2,242.1h-45.5V42.6h-25.9c-2.2,49.6-4.7,88.1-7.9,114.9c-2.8,26.8-6.9,46.4-12,59
		c-4.7,12.6-11.1,20.5-18.6,24c-7.6,3.5-18.6,5.1-32.8,5.1c-4.7,0-9.5-1.3-14.5-3.5v-34.4c4.7,0.6,7.9,0.9,9.8,0.9
		c6,0,10.7-1.6,13.6-4.4c2.8-3.2,5.7-10.7,7.9-23c2.2-12.3,4.4-32.2,6-59.4c1.6-27.5,3.5-66.3,5.1-116.5h114.9V242.1z"/>
	<path class="st1" d="M420.4,9.1c10.1,5.7,18.3,16.4,24.3,31.9c6,15.5,9.2,43.3,9.2,82.7c0,35-2.5,60.9-7.3,77
		c-9.8,31.9-29.7,46.1-62.2,46.1c-23.7,0-41.4-7.9-52.7-23.7C320.6,207,315,173.9,315,123.7c0-35,2.5-60.6,7.3-76.7
		c9.8-32.5,29.7-46.4,62.2-46.4C398.6,0.6,410.6,3.4,420.4,9.1z M402.7,196c3.5-10.4,5.1-34.7,5.1-72.3c0-37.6-1.6-61.6-5.1-72
		c-3.5-10.7-9.5-16.1-18.3-16.1S369.6,41,366.1,52c-3.5,11-5.1,34.7-5.1,71.7c0,33.5,1.6,56.5,4.4,69.1c2.8,12.3,9.2,18.6,18.9,18.6
		C393.6,211.5,399.6,206.4,402.7,196z"/>
	<path class="st1" d="M682.1,242.1h-51.5l-37.9-109.2v109.2h-45.5V132.8l-37.9,109.2H458l49.9-128.8l-44.2-108h49.9l33.8,97.9V5.3
		h45.5v97.9l33.8-97.9h49.9l-44.2,108L682.1,242.1z"/>
	<path class="st1" d="M821.4,242.1h-45.5V137.3h-40.1v104.8h-45.5V5.3h45.5v93.1h40.1V5.3h45.5V242.1z"/>
	<path class="st1" d="M943.6,9.1c10.1,5.7,18.3,16.4,24.3,31.9c6,15.5,9.2,43.3,9.2,82.7c0,35-2.5,60.9-7.3,77
		c-9.8,31.9-29.7,46.1-62.2,46.1c-23.7,0-41.4-7.9-52.7-23.7c-11-16.1-16.7-49.3-16.7-99.5c0-35,2.5-60.6,7.3-76.7
		c9.8-32.5,29.7-46.4,62.2-46.4C921.8,0.6,933.8,3.4,943.6,9.1z M925.9,196c3.5-10.4,5.1-34.7,5.1-72.3c0-37.6-1.6-61.6-5.1-72
		c-3.5-10.7-9.5-16.1-18.3-16.1S892.7,41,889.2,52c-3.5,11-5.1,34.7-5.1,71.7c0,33.5,1.6,56.5,4.4,69.1c2.8,12.3,9.2,18.6,18.9,18.6
		C916.7,211.5,922.7,206.4,925.9,196z"/>
	<path class="st1" d="M1176.5,242.1h-40.7V50.4h-0.6L1102,242.1h-33.8l-33.2-191.6h-0.6v191.6h-40.7V5.3h66l25.6,168.3h0.6
		l24.9-168.3h65.7V242.1z"/>
	<path class="st1" d="M1297.5,242.1h-99.8V5.3h97.2v37.3h-51.8v58.1h46.4v37.6h-46.4v66.6h54.3V242.1z"/>
	<path class="st1" d="M1423.1,42.6h-38.2v199.5h-45.5V42.6h-38.2V5.3h121.9V42.6z"/>
	<path class="st1" d="M1433.9,5.3h67.6c37.6,0,55.3,21.2,55.3,70.7c0,22.1-6.3,39.5-19.3,52.1c-12.6,12.3-29,18.6-48.9,18.6h-9.2
		v95.3h-45.5V5.3z M1479.3,113.3h6.3c14.8,0,23.7-13.3,23.7-36.9c0-24.9-8.5-37.6-25.9-37.6h-4.1V113.3z"/>
</g>
</svg>
