<svg width="563" height="177" viewBox="0 0 563 177" fill="none" xmlns="http://www.w3.org/2000/svg">
<circle cx="88.5" cy="88.5" r="88.5" fill="#F2185E"/>
<path d="M223.499 52.2108C228.049 50.6709 230.289 46.891 230.289 40.8012C230.289 31.7714 226.229 27.5016 217.199 27.5016H201.8V80H217.899C227.209 80 231.619 75.5201 231.619 64.6705C231.619 57.6007 228.889 53.5408 223.499 52.3508V52.2108ZM211.88 34.9213H214.12C218.389 34.9213 220.349 37.0913 220.349 42.0611C220.349 47.9409 218.599 49.2009 213.28 49.2009H211.88V34.9213ZM211.88 56.2007H214.89C219.019 56.2007 221.119 58.9306 221.119 64.3905C221.119 69.6403 218.599 72.4402 214.12 72.4402H211.88V56.2007ZM258.428 51.4408L268.228 27.5016H257.168L249.678 49.2009V27.5016H239.599V80H249.678V55.7807L258.078 80.07H269.488L258.428 51.4408ZM307.273 27.5016H281.793C281.443 38.6312 281.023 47.241 280.673 53.3308C280.323 59.3506 279.833 63.7605 279.343 66.4904C278.853 69.2203 278.223 70.9003 277.593 71.6002C276.963 72.2302 275.913 72.5802 274.584 72.5802C274.164 72.5802 273.464 72.5102 272.414 72.3702V80C273.534 80.49 274.584 80.77 275.634 80.77C278.783 80.77 281.233 80.42 282.913 79.65C284.593 78.88 285.993 77.1301 287.043 74.3302C288.163 71.5303 289.073 67.1904 289.703 61.2406C290.403 55.2907 290.963 46.751 291.453 35.7613H297.193V80H307.273V27.5016ZM325.755 49.2009V27.5016H315.675V80H325.755V57.5307H330.585C330.585 66.3504 331.635 72.5102 333.805 75.9401C335.974 79.37 339.754 81.05 345.074 81.05C350.604 81.05 354.734 79.09 357.394 75.1701C360.054 71.1803 361.384 64.0405 361.384 53.7508C361.384 45.001 360.684 38.8412 359.354 35.4113C358.024 31.9814 356.204 29.6015 354.034 28.3415C351.864 27.0816 349.134 26.4516 345.984 26.4516C340.734 26.4516 336.884 28.2015 334.435 31.6314C332.055 35.0613 330.795 40.9412 330.655 49.2009H325.755ZM345.984 73.2102C343.954 73.2102 342.624 72.0202 341.854 69.6403C341.154 67.1904 340.804 61.9405 340.804 53.7508C340.804 45.561 341.154 40.3112 341.924 37.8612C342.694 35.4113 344.024 34.2214 345.984 34.2214C347.944 34.2214 349.274 35.4113 350.044 37.7912C350.814 40.1012 351.164 45.421 351.164 53.7508C351.164 62.0805 350.814 67.4704 350.044 69.7803C349.344 72.0902 348.014 73.2102 345.984 73.2102ZM398.032 27.5016H387.952V51.0909C386.762 52.5608 385.082 53.2608 382.842 53.2608C379.973 53.2608 379.063 51.3008 379.063 46.611V27.5016H368.983V47.451C368.983 56.4807 373.043 61.0306 381.092 61.0306C383.892 61.0306 386.202 60.2606 387.952 58.7906V80H398.032V27.5016ZM436.687 27.5016H427.588L415.618 62.0805H415.478V27.5016H406.378V80H415.478L427.448 45.911H427.518V80H436.687V27.5016ZM220.629 133.441L230.429 109.502H219.369L211.88 131.201V109.502H201.8V162H211.88V137.781L220.279 162.07H231.689L220.629 133.441ZM259.814 109.502H244.694L234.475 162H244.834L246.724 150.38H257.434L259.324 162H269.964L259.814 109.502ZM248.124 142.191L252.044 118.391H252.184L256.104 142.191H248.124ZM316.081 109.502H301.521L295.991 146.81H295.851L290.182 109.502H275.552V162H284.582V119.511H284.722L292.072 162H299.561L306.911 119.511H307.051V162H316.081V109.502ZM346.612 153.74H334.573V138.971H344.863V130.641H334.573V117.761H346.053V109.502H324.493V162H346.612V153.74ZM353.474 162H363.554V140.861H365.584C369.993 140.861 373.633 139.461 376.433 136.731C379.303 133.931 380.703 130.081 380.703 125.181C380.703 114.191 376.783 109.502 368.453 109.502H353.474V162ZM363.554 116.921H364.464C368.313 116.921 370.203 119.721 370.203 125.251C370.203 130.501 368.243 133.441 364.954 133.441H363.554V116.921ZM406.772 109.502L401.593 135.611H401.453L395.293 109.502H384.233L393.613 142.961C394.523 146.25 395.013 148.98 395.013 151.15C395.013 153.46 393.473 154.58 390.393 154.58C389.203 154.58 387.873 154.3 386.403 153.74V162C388.083 162.49 389.763 162.77 391.443 162.77C396.203 162.77 399.913 161.3 402.573 158.43C405.232 155.49 407.472 150.31 409.222 142.961L417.272 109.502H406.772Z" fill="white"/>
<path d="M89.0001 104.4C96.953 104.4 103.4 97.9529 103.4 90C103.4 82.0471 96.953 75.6 89.0001 75.6C81.0472 75.6 74.6001 82.0471 74.6001 90C74.6001 97.9529 81.0472 104.4 89.0001 104.4Z" fill="white"/>
<path d="M75.5 45L67.265 54H53C48.05 54 44 58.05 44 63V117C44 121.95 48.05 126 53 126H125C129.95 126 134 121.95 134 117V63C134 58.05 129.95 54 125 54H110.735L102.5 45H75.5ZM89 112.5C76.58 112.5 66.5 102.42 66.5 90C66.5 77.58 76.58 67.5 89 67.5C101.42 67.5 111.5 77.58 111.5 90C111.5 102.42 101.42 112.5 89 112.5Z" fill="white"/>
</svg>
