<svg width="563" height="177" viewBox="0 0 563 177" fill="none" xmlns="http://www.w3.org/2000/svg">
<path d="M145 30H34V143H145V30Z" fill="white"/>
<path d="M88.5 0C39.6 0 0 39.6 0 88.5C0 137.4 39.6 177 88.5 177C137.4 177 177 137.4 177 88.5C177 39.6 137.4 0 88.5 0ZM121.1 71.6C121.3 71.6 121.6 71.7 121.7 72C121.8 72.2 121.8 72.5 121.6 72.7L89 112.4C88.8 112.7 88.4 112.7 88.1 112.5L88 112.4L55.4 72.6C55.2 72.4 55.2 72.1 55.3 71.9C55.4 71.7 55.6 71.5 55.9 71.5H73C73.7 71.4 74.1 71 74.2 69.7V42C74.2 41.4 74.5 40.8 75 40.6H75.1H75.2H75.3H75.4C75.4 40.6 75.4 40.6 75.5 40.6H101.1H101.2C101.2 40.6 101.2 40.6 101.3 40.6H101.4H101.5C102 40.9 102.3 41.5 102.3 42V69.8C102.4 71.1 102.8 71.5 103.5 71.6H121.1ZM135.9 131.1C135.9 132.2 135 133.1 133.9 133.1H43.1C42 133.1 41.1 132.2 41.1 131.1V108.6C41.1 107.5 42 106.6 43.1 106.6H51.3C52.4 106.6 53.3 107.5 53.3 108.6V120.9H123.8V108.6C123.8 107.5 124.7 106.6 125.8 106.6H134C135.1 106.6 136 107.5 136 108.6L135.9 131.1Z" fill="#F2185E"/>
<path d="M221.539 52.0008C225.809 50.8109 228.329 46.401 228.329 40.2412C228.329 31.3514 223.499 26.5216 214.82 26.5216C206.07 26.5216 201.17 32.1914 201.17 42.2711H210.41C210.41 36.3213 211.81 33.3114 214.54 33.3114C217.129 33.3114 218.459 35.7613 218.459 40.6612C218.459 46.051 216.849 49.2009 213.77 49.2009H210.69V55.9907H213.84C217.409 55.9907 219.159 57.9507 219.159 65.2304C219.159 69.2203 218.809 71.7402 218.179 72.7902C217.549 73.7702 216.429 74.2602 214.75 74.2602C211.6 74.2602 210.34 71.5303 210.34 64.5305H200.54V65.9304C200.54 75.1701 205.86 81.05 214.26 81.05C224.409 81.05 229.519 75.5901 229.519 64.7405C229.519 57.2507 226.859 53.0508 221.539 52.1408V52.0008ZM260.087 27.5016H244.968L234.748 80H245.108L246.998 68.3803H257.707L259.597 80H270.237L260.087 27.5016ZM248.398 60.1906L252.318 36.3913H252.458L256.378 60.1906H248.398ZM297.385 27.5016H275.825V80H285.905V35.3413H297.385V27.5016ZM303.986 80H314.066V58.8606H316.096C320.505 58.8606 324.145 57.4607 326.945 54.7307C329.815 51.9308 331.215 48.0809 331.215 43.1811C331.215 32.1914 327.295 27.5016 318.966 27.5016H303.986V80ZM314.066 34.9213H314.976C318.826 34.9213 320.715 37.7213 320.715 43.2511C320.715 48.5009 318.756 51.4408 315.466 51.4408H314.066V34.9213ZM357.284 27.5016L352.105 53.6108H351.965L345.805 27.5016H334.745L344.125 60.9606C345.035 64.2505 345.525 66.9804 345.525 69.1503C345.525 71.4603 343.985 72.5802 340.905 72.5802C339.715 72.5802 338.385 72.3002 336.915 71.7402V80C338.595 80.49 340.275 80.77 341.955 80.77C346.715 80.77 350.425 79.3 353.085 76.4301C355.744 73.4902 357.984 68.3103 359.734 60.9606L367.784 27.5016H357.284ZM392.898 52.0008C397.167 50.8109 399.687 46.401 399.687 40.2412C399.687 31.3514 394.857 26.5216 386.178 26.5216C377.428 26.5216 372.528 32.1914 372.528 42.2711H381.768C381.768 36.3213 383.168 33.3114 385.898 33.3114C388.488 33.3114 389.818 35.7613 389.818 40.6612C389.818 46.051 388.208 49.2009 385.128 49.2009H382.048V55.9907H385.198C388.768 55.9907 390.518 57.9507 390.518 65.2304C390.518 69.2203 390.168 71.7402 389.538 72.7902C388.908 73.7702 387.788 74.2602 386.108 74.2602C382.958 74.2602 381.698 71.5303 381.698 64.5305H371.898V65.9304C371.898 75.1701 377.218 81.05 385.618 81.05C395.767 81.05 400.877 75.5901 400.877 64.7405C400.877 57.2507 398.217 53.0508 392.898 52.1408V52.0008ZM439.145 27.5016H430.046L418.076 62.0805H417.936V27.5016H408.836V80H417.936L429.906 45.911H429.976V80H439.145V27.5016ZM225.459 109.502H216.219V115.241C205.93 115.521 200.47 122.661 200.47 135.751C200.47 149.26 205.72 156.05 216.219 156.26V162H225.459V156.26C236.029 156.05 241.209 149.68 241.209 135.751C241.209 128.401 239.879 123.151 237.289 120.001C234.699 116.851 230.709 115.311 225.459 115.241V109.502ZM225.459 122.801C229.169 123.011 230.989 127.351 230.989 135.751C230.989 144.641 229.449 148.35 225.459 148.63V122.801ZM216.219 148.63C212.02 148.56 210.69 145.061 210.69 135.751C210.69 127.071 212.37 123.151 216.219 122.801V148.63ZM262.7 108.452C255.49 108.452 251.08 111.531 248.91 118.741C247.86 122.311 247.3 127.981 247.3 135.751C247.3 146.88 248.56 154.23 251.01 157.8C253.53 161.3 257.45 163.05 262.7 163.05C269.91 163.05 274.319 159.9 276.489 152.83C277.539 149.26 278.099 143.521 278.099 135.751C278.099 127.001 277.399 120.841 276.069 117.411C274.739 113.981 272.919 111.601 270.68 110.342C268.51 109.082 265.85 108.452 262.7 108.452ZM262.7 155.21C260.53 155.21 259.13 153.81 258.5 151.08C257.87 148.28 257.52 143.171 257.52 135.751C257.52 127.561 257.87 122.311 258.64 119.861C259.41 117.411 260.74 116.221 262.7 116.221C264.66 116.221 265.99 117.411 266.76 119.791C267.53 122.101 267.88 127.421 267.88 135.751C267.88 144.081 267.53 149.47 266.76 151.78C266.06 154.09 264.73 155.21 262.7 155.21ZM310.241 109.502H283.222V117.761H291.692V162H301.772V117.761H310.241V109.502ZM330.778 108.452C323.568 108.452 319.159 111.531 316.989 118.741C315.939 122.311 315.379 127.981 315.379 135.751C315.379 146.88 316.639 154.23 319.089 157.8C321.608 161.3 325.528 163.05 330.778 163.05C337.988 163.05 342.398 159.9 344.568 152.83C345.618 149.26 346.178 143.521 346.178 135.751C346.178 127.001 345.478 120.841 344.148 117.411C342.818 113.981 340.998 111.601 338.758 110.342C336.588 109.082 333.928 108.452 330.778 108.452ZM330.778 155.21C328.608 155.21 327.208 153.81 326.578 151.08C325.948 148.28 325.598 143.171 325.598 135.751C325.598 127.561 325.948 122.311 326.718 119.861C327.488 117.411 328.818 116.221 330.778 116.221C332.738 116.221 334.068 117.411 334.838 119.791C335.608 122.101 335.958 127.421 335.958 135.751C335.958 144.081 335.608 149.47 334.838 151.78C334.138 154.09 332.808 155.21 330.778 155.21Z" fill="white"/>
</svg>
