<?xml version="1.0" encoding="utf-8"?>
<!-- Generator: Adobe Illustrator 22.0.1, SVG Export Plug-In . SVG Version: 6.00 Build 0)  -->
<svg version="1.1" id="act" xmlns="http://www.w3.org/2000/svg" xmlns:xlink="http://www.w3.org/1999/xlink" x="0px" y="0px"
	 viewBox="0 0 563 177" style="enable-background:new 0 0 563 177;" xml:space="preserve">
<style type="text/css">
	.st0{fill:#FFFFFF;}
	.st1{enable-background:new    ;}
	.st2{fill:#F2185E;}
</style>
<rect x="34" y="30" class="st0" width="111" height="113"/>
<g>
	<g class="st1">
		<path class="st0" d="M219.3,55.6c5.1,0.9,7.6,4.9,7.6,12c0,10.4-4.9,15.6-14.6,15.6c-8,0-13.1-5.6-13.1-14.4v-1.3h9.4
			c0,6.7,1.2,9.3,4.2,9.3c1.6,0,2.7-0.5,3.3-1.4c0.6-1,0.9-3.4,0.9-7.2c0-7-1.7-8.8-5.1-8.8h-3v-6.5h2.9c2.9,0,4.5-3,4.5-8.2
			c0-4.7-1.3-7-3.7-7c-2.6,0-3.9,2.9-3.9,8.6h-8.8c0-9.6,4.7-15,13-15s12.9,4.6,12.9,13.1C225.8,50.3,223.4,54.5,219.3,55.6
			L219.3,55.6L219.3,55.6z"/>
		<path class="st0" d="M263.2,82.2H253l-1.8-11.1H241l-1.8,11.1h-9.9l9.8-50.1h14.4L263.2,82.2z M250,63.3l-3.7-22.7h-0.1l-3.7,22.7
			H250z"/>
		<path class="st0" d="M286.4,39.6h-11v42.6h-9.6V32.1h20.6V39.6z"/>
		<path class="st0" d="M290.1,32.1h14.3c8,0,11.7,4.5,11.7,15c0,4.7-1.3,8.4-4.1,11c-2.7,2.6-6.1,3.9-10.4,3.9h-1.9v20.2h-9.6V32.1z
			 M299.7,54.9h1.3c3.1,0,5-2.8,5-7.8c0-5.3-1.8-8-5.5-8h-0.9v15.8H299.7z"/>
		<path class="st0" d="M348.3,32.1L340.6,64c-1.7,7-3.8,12-6.3,14.8c-2.5,2.7-6.1,4.1-10.6,4.1c-1.6,0-3.2-0.3-4.8-0.7v-7.9
			c1.4,0.5,2.7,0.8,3.8,0.8c2.9,0,4.4-1.1,4.4-3.3c0-2.1-0.5-4.7-1.3-7.8l-9-31.9h10.6l5.9,24.9h0.1l4.9-24.9H348.3z"/>
		<path class="st0" d="M369.6,55.6c5.1,0.9,7.6,4.9,7.6,12c0,10.4-4.9,15.6-14.6,15.6c-8,0-13.1-5.6-13.1-14.4v-1.3h9.4
			c0,6.7,1.2,9.3,4.2,9.3c1.6,0,2.7-0.5,3.3-1.4c0.6-1,0.9-3.4,0.9-7.2c0-7-1.7-8.8-5.1-8.8h-3v-6.5h2.9c2.9,0,4.5-3,4.5-8.2
			c0-4.7-1.3-7-3.7-7c-2.6,0-3.9,2.9-3.9,8.6h-8.8c0-9.6,4.7-15,13-15s12.9,4.6,12.9,13.1C376.1,50.3,373.7,54.5,369.6,55.6
			L369.6,55.6L369.6,55.6z"/>
		<path class="st0" d="M411.1,82.2h-8.8V49.6h-0.1l-11.4,32.5h-8.7v-50h8.7v33h0.1l11.4-33h8.7L411.1,82.2L411.1,82.2z"/>
		<path class="st0" d="M453.4,37.6c5,0.1,8.8,1.5,11.3,4.5s3.7,8,3.7,15c0,13.3-4.9,19.4-15,19.6v5.5h-8.8v-5.5
			c-10-0.2-15-6.7-15-19.6c0-12.5,5.2-19.3,15-19.6V32h8.8V37.6z M444.6,44.8c-3.7,0.3-5.3,4.1-5.3,12.4c0,8.9,1.3,12.2,5.3,12.3
			V44.8z M453.4,69.4c3.8-0.3,5.3-3.8,5.3-12.3c0-8-1.7-12.2-5.3-12.4V69.4z"/>
		<path class="st0" d="M493.9,32.9c2.1,1.2,3.9,3.5,5.1,6.8c1.3,3.3,1.9,9.2,1.9,17.5c0,7.4-0.5,12.9-1.5,16.3
			c-2.1,6.8-6.3,9.8-13.2,9.8c-5,0-8.8-1.7-11.2-5c-2.3-3.4-3.5-10.4-3.5-21.1c0-7.4,0.5-12.8,1.5-16.2c2.1-6.9,6.3-9.8,13.2-9.8
			C489.3,31.1,491.8,31.7,493.9,32.9z M490.2,72.4c0.7-2.2,1.1-7.4,1.1-15.3s-0.3-13-1.1-15.2c-0.7-2.3-2-3.4-3.9-3.4
			s-3.1,1.1-3.9,3.5c-0.7,2.3-1.1,7.4-1.1,15.2c0,7.1,0.3,12,0.9,14.6c0.6,2.6,1.9,3.9,4,3.9C488.2,75.7,489.5,74.6,490.2,72.4z"/>
		<path class="st0" d="M529,40h-8.1v42.2h-9.6V40h-8.1v-7.9H529V40z"/>
		<path class="st0" d="M553.5,32.9c2.1,1.2,3.9,3.5,5.1,6.8s1.9,9.2,1.9,17.5c0,7.4-0.5,12.9-1.5,16.3c-2.1,6.8-6.3,9.8-13.2,9.8
			c-5,0-8.8-1.7-11.2-5c-2.3-3.4-3.5-10.4-3.5-21.1c0-7.4,0.5-12.8,1.5-16.2c2.1-6.9,6.3-9.8,13.2-9.8
			C548.9,31.1,551.5,31.7,553.5,32.9z M549.8,72.4c0.7-2.2,1.1-7.4,1.1-15.3s-0.3-13-1.1-15.2c-0.7-2.3-2-3.4-3.9-3.4
			s-3.1,1.1-3.9,3.5c-0.7,2.3-1.1,7.4-1.1,15.2c0,7.1,0.3,12,0.9,14.6c0.6,2.6,1.9,3.9,4,3.9C547.9,75.7,549.1,74.6,549.8,72.4z"/>
	</g>
	<g class="st1">
		<path class="st0" d="M211.2,137v-15.3l0,0l-5.4,15.3h-6v-27.3h6v15.6l0,0l5.4-15.6h6V137H211.2z"/>
		<path class="st0" d="M233.2,137v-22.7h-2.5c-1.2,22-2.6,23.1-8.5,23.1c-1.2,0-2.2-0.1-2.8-0.4v-5c0.4,0,0.8,0.1,1.4,0.1
			c3.2,0,3.2-0.9,4.1-22.5h15V137H233.2z"/>
		<path class="st0" d="M255.2,137v-15.3l0,0l-5.4,15.3h-6v-27.3h6v15.6l0,0l5.4-15.6h6V137H255.2z"/>
		<path class="st0" d="M285.9,137h-10.6v-27.3h10.2c5.2,0,8.6,2.1,8.6,7.2c0,2.8-1.5,5.2-4.5,5.8l0,0c3.2,0.5,5.4,3,5.4,6.2
			C294.9,133.3,292.3,137,285.9,137z M283.4,114.1h-1.5v6.7h0.9c3.8,0,4.6-1,4.6-3.4C287.5,114.9,286.2,114.1,283.4,114.1z
			 M283.9,125h-2v7.4h1.5c2.5,0,4.6-0.8,4.6-3.7S286.7,125,283.9,125z"/>
		<path class="st0" d="M309.1,137l-4.5-12.2V137h-6.7v-27.3h6.7v8.6l4.4-8.6h7.5l-6.9,11.4l7.2,16h-7.7V137z"/>
		<path class="st0" d="M330.9,137v-22.7h-2.5c-1.2,22-2.6,23.1-8.5,23.1c-1.2,0-2.2-0.1-2.8-0.4v-5c0.4,0,0.8,0.1,1.4,0.1
			c3.2,0,3.2-0.9,4.1-22.5h15V137H330.9z"/>
		<path class="st0" d="M359.9,137.7c-6.6,0-9-4.3-9.3-12.1H348V137h-6.7v-27.3h6.7v11h2.6c0.4-7.5,3.1-11.7,9.3-11.7
			c7.4,0,9.4,5.1,9.4,14.4C369.3,132.4,366.8,137.6,359.9,137.7z M360,113.5c-2.7,0-2.8,4.2-2.8,9.8c0,5.7,0.1,9.8,2.8,9.8
			c2,0,2.8-3.1,2.8-9.8C362.7,116.7,361.9,113.5,360,113.5z"/>
		<path class="st0" d="M384.1,137v-10.8c-1.5,0.8-3.1,1.3-5.4,1.3c-4.4,0-6.3-2.9-6.3-8v-9.8h6.7v8.5c0,2.7,0.8,3.9,2,3.9
			c1.3,0,2.1-0.2,3-0.8v-11.6h6.7V137H384.1z"/>
		<path class="st0" d="M406.1,137v-15.3l0,0l-5.4,15.3h-6v-27.3h6v15.6l0,0l5.4-15.6h6V137H406.1z"/>
		<path class="st0" d="M437.4,137l-4.5-12.2V137h-6.7v-27.3h6.7v8.6l4.4-8.6h7.5l-6.9,11.4l7.2,16h-7.7V137z"/>
		<path class="st0" d="M458.4,137c-0.3-0.9-0.5-2-0.5-2.5h-0.1c-1,1.9-2.6,3.2-5.5,3.2c-4.7,0-6.1-4-6.1-7.8c0-5,2-6.7,6.3-8.4
			l2.9-1.2c1.5-0.6,2.3-1.5,2.3-3.3c0-2.2-0.4-3.4-2.4-3.4c-1.5,0-2.4,1.4-2.4,3.8v0.7h-6v-0.6c0-6.3,3.6-8.5,8.6-8.5
			c6.8,0,8.6,3.7,8.6,8.3v14.5c0,2.4,0.1,3.7,0.7,5.2L458.4,137L458.4,137z M457.8,123.9c-0.3,0.4-1.1,0.8-2.1,1.2
			c-2,0.8-3.2,1.7-3.2,4.1c0,2.2,0.6,3.9,1.9,3.9c1.4,0,3.3-1.4,3.3-4.4v-4.8H457.8z"/>
		<path class="st0" d="M486.5,137v-20.8h-0.1l-3.6,20.8h-4.9l-3.7-20.8l0,0V137h-6v-27.3h9.6l2.6,17.5l0,0l2.4-17.5h9.6V137H486.5z"
			/>
		<path class="st0" d="M502,124.3v2c0,4.9,0.7,6.8,2.5,6.8c2.1,0,2.9-2,2.9-5.3h6c0,5.9-3.2,9.9-8.9,9.9c-8.3,0-9.1-4.8-9.1-14.6
			c0-7.3,1.3-14.2,9.6-14.2c7.9,0,8.8,5.5,8.8,13.8v1.6H502z M507.3,119.5c0-3.7-0.4-6-2.6-6s-2.7,2.3-2.7,5.7v1.1h5.3L507.3,119.5
			L507.3,119.5z"/>
		<path class="st0" d="M528.2,137.7c-2.3,0-3.8-1.1-5.1-3.2l0,0V146h-6.7v-36.3h6.4v2.9h0.1c1.5-2.4,3.1-3.6,5.3-3.6
			c4.7,0,7,4.5,7,14.3C535.2,132.9,532.7,137.7,528.2,137.7z M525.8,114c-2.2,0-2.7,3.3-2.7,9.2s0.5,9.2,2.7,9.2
			c2.3,0,2.8-3.2,2.8-9.3C528.6,117.3,528.1,114,525.8,114z"/>
		<path class="st0" d="M550.9,135.7c-1.6,8-3.9,10.3-9.9,10.3c-0.6,0-1.5,0-2.4-0.1V141c0.5,0.1,1.1,0.1,1.4,0.1
			c2.2,0,2.6-0.9,2.9-2.9l0.1-1.1l-6.3-27.4h7l3.1,19.4l0,0l2.7-19.4h6.6L550.9,135.7z"/>
	</g>
</g>
<g id="button">
	<path id="upload" class="st2" d="M88.5,0C39.6,0,0,39.6,0,88.5S39.6,177,88.5,177S177,137.4,177,88.5S137.4,0,88.5,0z M121.1,71.6
		c0.2,0,0.5,0.1,0.6,0.4c0.1,0.2,0.1,0.5-0.1,0.7L89,112.4c-0.2,0.3-0.6,0.3-0.9,0.1l-0.1-0.1L55.4,72.6c-0.2-0.2-0.2-0.5-0.1-0.7
		c0.1-0.2,0.3-0.4,0.6-0.4H73c0.7-0.1,1.1-0.5,1.2-1.8V42c0-0.6,0.3-1.2,0.8-1.4l0,0l0,0h0.1h0.1l0,0h0.1l0,0l0,0l0,0l0,0l0,0l0,0
		l0,0h0.1c0,0,0,0,0.1,0h25.6l0,0h0.1l0,0c0,0,0,0,0.1,0l0,0l0,0l0,0l0,0l0,0l0,0l0,0l0,0h0.1h0.1l0,0l0,0c0.5,0.3,0.8,0.9,0.8,1.4
		v27.8c0.1,1.3,0.5,1.7,1.2,1.8 M135.9,131.1c0,1.1-0.9,2-2,2H43.1c-1.1,0-2-0.9-2-2v-22.5c0-1.1,0.9-2,2-2h8.2c1.1,0,2,0.9,2,2
		v12.3h70.5v-12.3c0-1.1,0.9-2,2-2h8.2c1.1,0,2,0.9,2,2L135.9,131.1L135.9,131.1z"/>
</g>
</svg>
