<?xml version="1.0" encoding="utf-8"?>
<!-- Generator: Adobe Illustrator 22.0.1, SVG Export Plug-In . SVG Version: 6.00 Build 0)  -->
<svg version="1.1" id="act" xmlns="http://www.w3.org/2000/svg" xmlns:xlink="http://www.w3.org/1999/xlink" x="0px" y="0px"
	 viewBox="0 0 177 177" style="enable-background:new 0 0 177 177;" xml:space="preserve">
<style type="text/css">
	.st0{fill:#FFFFFF;}
	.st1{fill:#F2185E;}
</style>
<rect x="33" y="30" class="st0" width="111" height="113"/>
<g id="button">
	<path id="upload" class="st1" d="M88.5,0C39.6,0,0,39.6,0,88.5S39.6,177,88.5,177S177,137.4,177,88.5S137.4,0,88.5,0z M121.1,71.6
		c0.2,0,0.5,0.1,0.6,0.4c0.1,0.2,0.1,0.5-0.1,0.7L89,112.4c-0.2,0.3-0.6,0.3-0.9,0.1l-0.1-0.1L55.4,72.6c-0.2-0.2-0.2-0.5-0.1-0.7
		c0.1-0.2,0.3-0.4,0.6-0.4H73c0.7-0.1,1.1-0.5,1.2-1.8V42c0-0.6,0.3-1.2,0.8-1.4l0,0l0,0h0.1h0.1l0,0h0.1l0,0l0,0l0,0l0,0l0,0l0,0
		l0,0h0.1c0,0,0,0,0.1,0h25.6l0,0h0.1l0,0c0,0,0,0,0.1,0l0,0l0,0l0,0l0,0l0,0l0,0l0,0l0,0h0.1h0.1l0,0l0,0c0.5,0.3,0.8,0.9,0.8,1.4
		v27.8c0.1,1.3,0.5,1.7,1.2,1.8 M135.9,131.1c0,1.1-0.9,2-2,2H43.1c-1.1,0-2-0.9-2-2v-22.5c0-1.1,0.9-2,2-2h8.2c1.1,0,2,0.9,2,2
		v12.3h70.5v-12.3c0-1.1,0.9-2,2-2h8.2c1.1,0,2,0.9,2,2L135.9,131.1L135.9,131.1z"/>
</g>
</svg>
