<?xml version="1.0" encoding="utf-8"?>
<!-- Generator: Adobe Illustrator 22.0.1, SVG Export Plug-In . SVG Version: 6.00 Build 0)  -->
<svg version="1.1" id="act" xmlns="http://www.w3.org/2000/svg" xmlns:xlink="http://www.w3.org/1999/xlink" x="0px" y="0px"
	 viewBox="0 0 534.4 177" style="enable-background:new 0 0 534.4 177;" xml:space="preserve">
<style type="text/css">
	.st0{fill:#FFFFFF;}
	.st1{enable-background:new    ;}
	.st2{fill:#F2185E;}
</style>
<rect x="30" y="29" class="st0" width="116" height="117"/>
<g>
	<g class="st1">
		<path class="st0" d="M222.3,80.4h-7.4V48h-6.5v32.3H201V41.7h21.4L222.3,80.4L222.3,80.4z"/>
		<path class="st0" d="M226.4,41.7h11c6.1,0,9,3.5,9,11.5c0,3.6-1,6.4-3.1,8.5c-2.1,2-4.7,3-8,3h-1.5v15.6h-7.4V41.7z M233.8,59.3h1
			c2.4,0,3.9-2.2,3.9-6c0-4.1-1.4-6.1-4.2-6.1h-0.7V59.3z"/>
		<path class="st0" d="M265.6,42.3c1.6,0.9,3,2.7,4,5.2s1.5,7.1,1.5,13.5c0,5.7-0.4,9.9-1.2,12.6c-1.6,5.2-4.8,7.5-10.2,7.5
			c-3.9,0-6.8-1.3-8.6-3.9s-2.7-8-2.7-16.2c0-5.7,0.4-9.9,1.2-12.5c1.6-5.3,4.8-7.6,10.2-7.6C262,40.9,264,41.4,265.6,42.3z
			 M262.7,72.8c0.6-1.7,0.8-5.7,0.8-11.8c0-6.1-0.3-10.1-0.8-11.8c-0.6-1.8-1.5-2.6-3-2.6c-1.4,0-2.4,0.9-3,2.7
			c-0.6,1.8-0.8,5.7-0.8,11.7c0,5.5,0.3,9.2,0.7,11.3c0.5,2,1.5,3,3.1,3C261.2,75.4,262.2,74.5,262.7,72.8z"/>
		<path class="st0" d="M290.4,60c4,0.9,6,3.9,6,9.1c0,8-3.2,11.3-10.1,11.3h-11.9V41.7h11.3c6.6,0,9.6,3.1,9.6,9.8
			c0,4.5-1.6,7.3-5,8.4V60H290.4z M281.9,57.7h1c3.9,0,5.2-0.9,5.2-5.3c0-3.7-1.4-5.3-4.6-5.3h-1.6V57.7z M281.9,74.8h1.6
			c3.3,0,5.2-2.1,5.2-5.9c0-4-1.5-6-4.6-6h-2.2V74.8z"/>
		<path class="st0" d="M316.5,80.4h-16.3V41.7h15.9v6.1h-8.5v9.5h7.6v6.1h-7.6v10.9h8.9V80.4z"/>
		<path class="st0" d="M319.5,41.7h11c6.1,0,9,3.5,9,11.5c0,3.6-1,6.4-3.1,8.5c-2.1,2-4.7,3-8,3h-1.5v15.6h-7.4V41.7z M326.9,59.3h1
			c2.4,0,3.9-2.2,3.9-6c0-4.1-1.4-6.1-4.2-6.1h-0.7L326.9,59.3L326.9,59.3z"/>
		<path class="st0" d="M349.6,57.7h2.9c8.2,0,11.6,3.6,11.6,11.1c0,7.2-4,11.5-11.2,11.5h-10.7V41.7h7.4L349.6,57.7L349.6,57.7z
			 M349.6,74.8h1.6c3.3,0,5.2-2.1,5.2-5.9c0-4-1.5-6-4.6-6h-2.2V74.8z"/>
		<path class="st0" d="M398.9,65.8c0.1,4.8-0.7,8.5-2.2,10.9c-1.8,3-4.7,4.5-9,4.5c-3,0-5.3-0.8-6.9-2.5c-3-3.4-3.7-8.6-3.7-17.3
			c0-4.6,0.3-8.3,0.7-11.1c1-5.6,3.9-9.3,10.4-9.3c3.1,0,5.4,0.6,6.9,1.9c1.5,1.3,2.5,2.8,2.8,4.5c0.4,1.7,0.6,4.1,0.6,7.1h-7.4
			c0-5.6-0.8-7.8-3.1-7.8c-1.3,0-2.2,1.1-2.6,3.2c-0.5,2.1-0.7,6-0.7,11.6c0,5.4,0.2,9,0.7,10.9s1.4,2.8,2.7,2.8
			c2.3,0,3.4-3.1,3.4-9.4C391.5,65.8,398.9,65.8,398.9,65.8z"/>
		<path class="st0" d="M418.1,80.4h-16.3V41.7h15.9v6.1h-8.5v9.5h7.6v6.1h-7.6v10.9h8.9V80.4z"/>
		<path class="st0" d="M428.5,57.7h2.9c8.2,0,11.6,3.6,11.6,11.1c0,7.2-4,11.5-11.2,11.5h-10.7V41.7h16.8v5.8h-9.3L428.5,57.7
			L428.5,57.7z M428.5,74.8h1.6c3.3,0,5.2-2.1,5.2-5.9c0-4-1.5-6-4.6-6h-2.2V74.8z"/>
		<path class="st0" d="M466.3,80.4h-7.4V63.9h-1.4c-2.6,0-3.6,1.2-3.6,4.9V76c0,1.8-0.1,3.2-0.3,4.3h-7.8c0.5-1.2,0.7-2.4,0.7-3.6
			v-4.4c0-4.4,0.4-7.2,1.3-8.6s2.3-2.2,4.1-2.4v-0.1c-3.7-0.8-5.6-4-5.6-8.5c0-7.1,3.3-11,9.7-11h10.4v38.7
			C466.4,80.4,466.3,80.4,466.3,80.4z M458.8,58.7V47.2h-1.1c-3,0-4.2,1.2-4.2,5.5c0,4.7,0.9,6.1,4.4,6.1L458.8,58.7L458.8,58.7z"/>
		<path class="st0" d="M502.8,80.4h-7.4V63.2h-6.5v17.1h-7.4V41.7h7.4v15.2h6.5V41.7h7.4V80.4z"/>
		<path class="st0" d="M531,80.4h-7.8l-1.4-8.6h-7.9l-1.4,8.6h-7.6l7.5-38.7h11.1L531,80.4z M520.8,65.8l-2.9-17.5h-0.1l-2.9,17.5
			H520.8z"/>
	</g>
	<g>
		<path class="st0" d="M226.3,117.8c0.1,5.7-0.8,10.1-2.6,12.9c-2.1,3.6-5.6,5.3-10.7,5.3c-3.6,0-6.3-1-8.2-2.9
			c-3.6-4-4.4-10.2-4.4-20.6c0-5.5,0.3-9.9,0.9-13.3c1.2-6.7,4.7-11,12.3-11c3.7,0,6.4,0.7,8.2,2.3c1.8,1.5,2.9,3.3,3.4,5.4
			c0.4,2,0.7,4.8,0.7,8.5h-8.8c0-6.7-1-9.3-3.7-9.3c-1.5,0-2.6,1.3-3.1,3.8c-0.6,2.5-0.9,7.1-0.9,13.8c0,6.4,0.2,10.7,0.8,12.9
			c0.6,2.3,1.7,3.4,3.2,3.4c2.7,0,4.1-3.7,4.1-11.2H226.3z"/>
		<path class="st0" d="M258.1,135.2h-8.8V96.4h-5c-0.4,9.6-0.9,17.1-1.5,22.3c-0.6,5.2-1.3,9-2.3,11.5c-0.9,2.5-2.1,4-3.6,4.7
			c-1.5,0.7-3.6,1-6.4,1c-0.9,0-1.8-0.2-2.8-0.7v-6.7c0.9,0.1,1.5,0.2,1.9,0.2c1.2,0,2.1-0.3,2.6-0.9c0.6-0.6,1.1-2.1,1.5-4.5
			c0.4-2.4,0.9-6.3,1.2-11.5c0.3-5.3,0.7-12.9,1-22.6h22.3V135.2z"/>
		<path class="st0" d="M282.7,89.9c2,1.1,3.6,3.2,4.7,6.2c1.2,3,1.8,8.4,1.8,16.1c0,6.8-0.5,11.8-1.4,15c-1.9,6.2-5.8,9-12.1,9
			c-4.6,0-8-1.5-10.2-4.6c-2.1-3.1-3.3-9.6-3.3-19.3c0-6.8,0.5-11.8,1.4-14.9c1.9-6.3,5.8-9,12.1-9
			C278.4,88.2,280.8,88.8,282.7,89.9z M279.2,126.2c0.7-2,1-6.8,1-14.1s-0.3-12-1-14c-0.7-2.1-1.8-3.1-3.6-3.1s-2.9,1-3.6,3.2
			c-0.7,2.1-1,6.8-1,13.9c0,6.5,0.3,11,0.9,13.4c0.6,2.4,1.8,3.6,3.7,3.6C277.5,129.2,278.6,128.2,279.2,126.2z"/>
		<path class="st0" d="M334.3,135.2h-10l-7.4-21.2v21.2h-8.8v-21.2l-7.4,21.2h-10l9.7-25l-8.6-21h9.7l6.6,19v-19h8.8v19l6.6-19h9.7
			l-8.6,21L334.3,135.2z"/>
		<path class="st0" d="M362.2,135.2h-8.8v-20.4h-7.8v20.4h-8.8v-46h8.8v18.1h7.8V89.1h8.8V135.2z"/>
		<path class="st0" d="M386.7,89.9c2,1.1,3.6,3.2,4.7,6.2c1.2,3,1.8,8.4,1.8,16.1c0,6.8-0.5,11.8-1.4,15c-1.9,6.2-5.8,9-12.1,9
			c-4.6,0-8-1.5-10.2-4.6c-2.1-3.1-3.3-9.6-3.3-19.3c0-6.8,0.5-11.8,1.4-14.9c1.9-6.3,5.8-9,12.1-9
			C382.5,88.2,384.8,88.8,386.7,89.9z M383.3,126.2c0.7-2,1-6.8,1-14.1s-0.3-12-1-14c-0.7-2.1-1.8-3.1-3.6-3.1c-1.7,0-2.9,1-3.6,3.2
			c-0.7,2.1-1,6.8-1,13.9c0,6.5,0.3,11,0.9,13.4c0.6,2.4,1.8,3.6,3.7,3.6C381.5,129.2,382.7,128.2,383.3,126.2z"/>
		<path class="st0" d="M432.8,135.2h-7.9V97.9h-0.1l-6.4,37.2h-6.6l-6.4-37.2h-0.1v37.2h-7.9v-46h12.8l5,32.7h0.1l4.8-32.7h12.8
			V135.2z"/>
		<path class="st0" d="M457.1,135.2h-19.4v-46h18.9v7.2h-10.1v11.3h9v7.3h-9v12.9h10.6V135.2z"/>
		<path class="st0" d="M482.4,96.4h-7.4v38.8h-8.8V96.4h-7.4v-7.2h23.7V96.4z"/>
		<path class="st0" d="M485.2,89.1h13.1c7.3,0,10.7,4.1,10.7,13.7c0,4.3-1.2,7.7-3.7,10.1c-2.5,2.4-5.6,3.6-9.5,3.6h-1.8v18.5h-8.8
			V89.1z M494.1,110.1h1.2c2.9,0,4.6-2.6,4.6-7.2c0-4.8-1.7-7.3-5-7.3h-0.8V110.1z"/>
		<path class="st0" d="M531.6,135.2h-19.4v-46h18.9v7.2h-10.1v11.3h9v7.3h-9v12.9h10.6V135.2z"/>
	</g>
</g>
<g id="button">
	
		<image style="overflow:visible;enable-background:new    ;" width="128" height="130" id="substrate" xlink:href="B9A226B00E131631.png"  transform="matrix(0.9962 0 0 0.9962 22.1556 23.2495)">
	</image>
	<path id="upload" class="st2" d="M88.5,0C39.6,0,0,39.6,0,88.5S39.6,177,88.5,177S177,137.4,177,88.5l0,0C177,39.6,137.4,0,88.5,0z
		 M121.1,71.5c0.4,0,0.7,0.3,0.7,0.7c0,0.1-0.1,0.3-0.1,0.4L89,112.4c-0.2,0.3-0.6,0.3-0.9,0.1l-0.1-0.1L55.4,72.6
		c-0.2-0.3-0.2-0.7,0.1-0.9c0.1-0.1,0.3-0.2,0.4-0.2h17c0.7-0.1,1.1-0.5,1.2-1.8V42c0-0.6,0.3-1.2,0.8-1.5l0,0l0,0H75h0.1l0,0h0.1
		l0,0l0,0l0,0l0,0l0,0l0,0l0,0h0.1l0,0h25.6l0,0h0.1l0,0l0,0l0,0l0,0l0,0l0,0l0,0l0,0l0,0l0,0h0.1h0.1l0,0l0,0
		c0.5,0.3,0.8,0.9,0.8,1.5v27.8c0.1,1.3,0.5,1.7,1.2,1.8 M135.9,131.1c0,1.1-0.9,2-2,2H43.1c-1.1,0-2-0.9-2-2v-22.5c0-1.1,0.9-2,2-2
		h8.2c1.1,0,2,0.9,2,2v12.3h70.5v-12.3c0-1.1,0.9-2,2-2h8.2c1.1,0,2,0.9,2,2L135.9,131.1L135.9,131.1z"/>
</g>
</svg>
