<?xml version="1.0" encoding="utf-8"?>
<!-- Generator: Adobe Illustrator 22.0.1, SVG Export Plug-In . SVG Version: 6.00 Build 0)  -->
<svg version="1.1" id="act" xmlns="http://www.w3.org/2000/svg" xmlns:xlink="http://www.w3.org/1999/xlink" x="0px" y="0px"
	 viewBox="0 0 534.4 177" style="enable-background:new 0 0 534.4 177;" xml:space="preserve">
<style type="text/css">
	.st0{fill:#FFFFFF;}
	.st1{enable-background:new    ;}
	.st2{fill:#F2185E;}
</style>
<rect x="30" y="29" class="st0" width="116" height="117"/>
<g>
	<g class="st1">
		<path class="st0" d="M222.3,78.9h-7.4V46.5h-6.5v32.3H201V40.2h21.4v38.7H222.3z"/>
		<path class="st0" d="M226.4,40.2h11c6.1,0,9,3.5,9,11.5c0,3.6-1,6.4-3.1,8.5c-2.1,2-4.7,3-8,3h-1.5v15.6h-7.4V40.2z M233.8,57.8h1
			c2.4,0,3.9-2.2,3.9-6c0-4.1-1.4-6.1-4.2-6.1h-0.7V57.8z"/>
		<path class="st0" d="M265.6,40.8c1.6,0.9,3,2.7,4,5.2s1.5,7.1,1.5,13.5c0,5.7-0.4,9.9-1.2,12.6c-1.6,5.2-4.8,7.5-10.2,7.5
			c-3.9,0-6.8-1.3-8.6-3.9s-2.7-8-2.7-16.2c0-5.7,0.4-9.9,1.2-12.5c1.6-5.3,4.8-7.6,10.2-7.6C262,39.4,264,39.9,265.6,40.8z
			 M262.7,71.3c0.6-1.7,0.8-5.7,0.8-11.8s-0.3-10.1-0.8-11.8c-0.6-1.8-1.5-2.6-3-2.6c-1.4,0-2.4,0.9-3,2.7s-0.8,5.7-0.8,11.7
			c0,5.5,0.3,9.2,0.7,11.3c0.5,2,1.5,3,3.1,3C261.2,73.9,262.2,73,262.7,71.3z"/>
		<path class="st0" d="M290.4,58.5c4,0.9,6,3.9,6,9.1c0,8-3.2,11.3-10.1,11.3h-11.9V40.2h11.3c6.6,0,9.6,3.1,9.6,9.8
			c0,4.5-1.6,7.3-5,8.4v0.1H290.4z M281.9,56.2h1c3.9,0,5.2-0.9,5.2-5.3c0-3.7-1.4-5.3-4.6-5.3h-1.6V56.2z M281.9,73.3h1.6
			c3.3,0,5.2-2.1,5.2-5.9c0-4-1.5-6-4.6-6h-2.2V73.3z"/>
		<path class="st0" d="M316.5,78.9h-16.3V40.2h15.9v6.1h-8.5v9.5h7.6v6.1h-7.6v10.9h8.9V78.9z"/>
		<path class="st0" d="M319.5,40.2h11c6.1,0,9,3.5,9,11.5c0,3.6-1,6.4-3.1,8.5c-2.1,2-4.7,3-8,3h-1.5v15.6h-7.4V40.2z M326.9,57.8h1
			c2.4,0,3.9-2.2,3.9-6c0-4.1-1.4-6.1-4.2-6.1h-0.7L326.9,57.8L326.9,57.8z"/>
		<path class="st0" d="M349.6,56.2h2.9c8.2,0,11.6,3.6,11.6,11.1c0,7.2-4,11.5-11.2,11.5h-10.7V40.2h7.4L349.6,56.2L349.6,56.2z
			 M349.6,73.3h1.6c3.3,0,5.2-2.1,5.2-5.9c0-4-1.5-6-4.6-6h-2.2V73.3z"/>
		<path class="st0" d="M398.9,64.3c0.1,4.8-0.7,8.5-2.2,10.9c-1.8,3-4.7,4.5-9,4.5c-3,0-5.3-0.8-6.9-2.5c-3-3.4-3.7-8.6-3.7-17.3
			c0-4.6,0.3-8.3,0.7-11.1c1-5.6,3.9-9.3,10.4-9.3c3.1,0,5.4,0.6,6.9,1.9c1.5,1.3,2.5,2.8,2.8,4.5c0.4,1.7,0.6,4.1,0.6,7.1h-7.4
			c0-5.6-0.8-7.8-3.1-7.8c-1.3,0-2.2,1.1-2.6,3.2c-0.5,2.1-0.7,6-0.7,11.6c0,5.4,0.2,9,0.7,10.9s1.4,2.8,2.7,2.8
			c2.3,0,3.4-3.1,3.4-9.4C391.5,64.3,398.9,64.3,398.9,64.3z"/>
		<path class="st0" d="M418.1,78.9h-16.3V40.2h15.9v6.1h-8.5v9.5h7.6v6.1h-7.6v10.9h8.9V78.9z"/>
		<path class="st0" d="M428.5,56.2h2.9c8.2,0,11.6,3.6,11.6,11.1c0,7.2-4,11.5-11.2,11.5h-10.7V40.2h16.8V46h-9.3L428.5,56.2
			L428.5,56.2z M428.5,73.3h1.6c3.3,0,5.2-2.1,5.2-5.9c0-4-1.5-6-4.6-6h-2.2V73.3z"/>
		<path class="st0" d="M466.3,78.9h-7.4V62.4h-1.4c-2.6,0-3.6,1.2-3.6,4.9v7.2c0,1.8-0.1,3.2-0.3,4.3h-7.8c0.5-1.2,0.7-2.4,0.7-3.6
			v-4.4c0-4.4,0.4-7.2,1.3-8.6c0.9-1.4,2.3-2.2,4.1-2.4v-0.1c-3.7-0.8-5.6-4-5.6-8.5c0-7.1,3.3-11,9.7-11h10.4v38.7H466.3z
			 M458.8,57.2V45.7h-1.1c-3,0-4.2,1.2-4.2,5.5c0,4.7,0.9,6.1,4.4,6.1L458.8,57.2L458.8,57.2z"/>
		<path class="st0" d="M502.8,78.9h-7.4V61.7h-6.5v17.1h-7.4V40.2h7.4v15.2h6.5V40.2h7.4V78.9z"/>
		<path class="st0" d="M531,78.9h-7.8l-1.4-8.6h-7.9l-1.4,8.6h-7.6l7.5-38.7h11.1L531,78.9z M520.8,64.3l-2.9-17.5h-0.1l-2.9,17.5
			H520.8z"/>
	</g>
	<g class="st1">
		<path class="st0" d="M228.3,117.9c0.1,6.1-0.9,10.8-2.8,13.9c-2.2,3.8-6.1,5.7-11.5,5.7c-3.9,0-6.8-1.1-8.8-3.2
			c-3.9-4.3-4.7-11-4.7-22.2c0-5.9,0.3-10.6,0.9-14.3c1.3-7.2,5-11.9,13.3-11.9c4,0,6.9,0.8,8.8,2.4c1.9,1.6,3.2,3.6,3.6,5.8
			c0.5,2.2,0.7,5.2,0.7,9.1h-9.4c0-7.2-1.1-10-4-10c-1.6,0-2.8,1.4-3.4,4.1c-0.6,2.7-0.9,7.7-0.9,14.8c0,6.9,0.3,11.5,0.9,13.9
			c0.6,2.4,1.8,3.6,3.4,3.6c2.9,0,4.4-4,4.4-12.1h9.5V117.9z"/>
		<path class="st0" d="M262.5,136.6H253V94.9h-5.4c-0.5,10.4-1,18.4-1.6,24s-1.5,9.7-2.5,12.3c-1,2.6-2.3,4.3-3.9,5
			c-1.6,0.7-3.9,1.1-6.9,1.1c-1,0-2-0.3-3-0.7v-7.2c1,0.1,1.6,0.2,2,0.2c1.3,0,2.2-0.3,2.8-0.9c0.6-0.7,1.2-2.2,1.6-4.8
			c0.5-2.6,0.9-6.7,1.3-12.4c0.3-5.7,0.7-13.9,1.1-24.4h24L262.5,136.6L262.5,136.6z"/>
		<path class="st0" d="M288.9,87.9c2.1,1.2,3.8,3.4,5.1,6.7c1.3,3.2,1.9,9,1.9,17.3c0,7.3-0.5,12.7-1.5,16.1c-2,6.7-6.2,9.6-13,9.6
			c-4.9,0-8.6-1.6-11-4.9c-2.3-3.4-3.5-10.3-3.5-20.8c0-7.3,0.5-12.7,1.5-16c2-6.8,6.2-9.7,13-9.7C284.4,86.1,286.9,86.7,288.9,87.9
			z M285.2,126.9c0.7-2.2,1.1-7.3,1.1-15.1c0-7.9-0.3-12.9-1.1-15c-0.7-2.2-2-3.4-3.8-3.4s-3.1,1.1-3.8,3.4c-0.7,2.3-1.1,7.3-1.1,15
			c0,7,0.3,11.8,0.9,14.5c0.6,2.6,1.9,3.9,4,3.9C283.3,130.2,284.6,129.1,285.2,126.9z"/>
		<path class="st0" d="M344.5,136.6h-10.8l-7.9-22.8v22.8h-9.5v-22.8l-7.9,22.8h-10.8l10.4-26.9l-9.2-22.6h10.4l7.1,20.5V87.1h9.5
			v20.5l7.1-20.5h10.4l-9.2,22.6L344.5,136.6z"/>
		<path class="st0" d="M374.5,136.6H365v-21.9h-8.4v21.9h-9.5V87.1h9.5v19.5h8.4V87.1h9.5V136.6z"/>
		<path class="st0" d="M400.9,87.9c2.1,1.2,3.8,3.4,5.1,6.7c1.3,3.2,1.9,9,1.9,17.3c0,7.3-0.5,12.7-1.5,16.1c-2,6.7-6.2,9.6-13,9.6
			c-4.9,0-8.6-1.6-11-4.9c-2.3-3.4-3.5-10.3-3.5-20.8c0-7.3,0.5-12.7,1.5-16c2-6.8,6.2-9.7,13-9.7C396.3,86.1,398.8,86.7,400.9,87.9
			z M397.2,126.9c0.7-2.2,1.1-7.3,1.1-15.1c0-7.9-0.3-12.9-1.1-15c-0.7-2.2-2-3.4-3.8-3.4s-3.1,1.1-3.8,3.4c-0.7,2.3-1.1,7.3-1.1,15
			c0,7,0.3,11.8,0.9,14.5c0.6,2.6,1.9,3.9,4,3.9C395.2,130.2,396.5,129.1,397.2,126.9z"/>
		<path class="st0" d="M450.4,136.6h-8.5V96.5h-0.1l-6.9,40.1h-7.1l-6.9-40.1h-0.1v40.1h-8.5V87.1H426l5.3,35.2h0.1l5.2-35.2h13.7
			L450.4,136.6L450.4,136.6z"/>
		<path class="st0" d="M476.6,136.6h-20.9V87.1H476v7.8h-10.8V107h9.7v7.9h-9.7v13.9h11.4V136.6z"/>
		<path class="st0" d="M503.7,94.9h-8v41.7h-9.5V94.9h-8v-7.8h25.5V94.9z"/>
		<path class="st0" d="M506.8,87.1h14.1c7.9,0,11.5,4.4,11.5,14.8c0,4.6-1.3,8.2-4,10.9c-2.6,2.6-6.1,3.9-10.2,3.9h-1.9v19.9h-9.5
			L506.8,87.1L506.8,87.1z M516.3,109.7h1.3c3.1,0,5-2.8,5-7.7c0-5.2-1.8-7.9-5.4-7.9h-0.9L516.3,109.7L516.3,109.7z"/>
	</g>
</g>
<g id="button">
	
		<image style="overflow:visible;enable-background:new    ;" width="128" height="130" id="substrate" xlink:href="B9A226B00E131631.png"  transform="matrix(0.9962 0 0 0.9962 22.1556 23.2495)">
	</image>
	<path id="upload" class="st2" d="M88.5,0C39.6,0,0,39.6,0,88.5S39.6,177,88.5,177S177,137.4,177,88.5l0,0C177,39.6,137.4,0,88.5,0z
		 M121.1,71.5c0.4,0,0.7,0.3,0.7,0.7c0,0.1-0.1,0.3-0.1,0.4L89,112.4c-0.2,0.3-0.6,0.3-0.9,0.1l-0.1-0.1L55.4,72.6
		c-0.2-0.3-0.2-0.7,0.1-0.9c0.1-0.1,0.3-0.2,0.4-0.2h17c0.7-0.1,1.1-0.5,1.2-1.8V42c0-0.6,0.3-1.2,0.8-1.5l0,0l0,0H75h0.1l0,0h0.1
		l0,0l0,0l0,0l0,0l0,0l0,0l0,0h0.1l0,0h25.6l0,0h0.1l0,0l0,0l0,0l0,0l0,0l0,0l0,0l0,0l0,0l0,0h0.1h0.1l0,0l0,0
		c0.5,0.3,0.8,0.9,0.8,1.5v27.8c0.1,1.3,0.5,1.7,1.2,1.8 M135.9,131.1c0,1.1-0.9,2-2,2H43.1c-1.1,0-2-0.9-2-2v-22.5c0-1.1,0.9-2,2-2
		h8.2c1.1,0,2,0.9,2,2v12.3h70.5v-12.3c0-1.1,0.9-2,2-2h8.2c1.1,0,2,0.9,2,2L135.9,131.1L135.9,131.1z"/>
</g>
</svg>
