<?xml version="1.0" encoding="utf-8"?>
<!-- Generator: Adobe Illustrator 22.0.1, SVG Export Plug-In . SVG Version: 6.00 Build 0)  -->
<svg version="1.1" id="Слой_1" xmlns="http://www.w3.org/2000/svg" xmlns:xlink="http://www.w3.org/1999/xlink" x="0px" y="0px"
	 viewBox="0 0 24 24" style="enable-background:new 0 0 24 24;" xml:space="preserve">
<path d="M12,0.1C5.4,0.1,0.1,5.4,0.1,12S5.4,23.9,12,23.9S23.9,18.6,23.9,12S18.6,0.1,12,0.1 M4.3,7.8h1.8c0.4,0,0.6,0.2,0.8,0.7
	c0.9,2.5,2.3,4.7,2.9,4.7c0.2,0,0.3-0.1,0.3-0.7V10C10,8.8,9.3,8.7,9.3,8.2c0-0.2,0.2-0.4,0.5-0.4h2.7C12.9,7.8,13,8,13,8.5V12
	c0,0.4,0.2,0.5,0.3,0.5c0.2,0,0.4-0.1,0.8-0.5c1.3-1.4,2.1-3.6,2.1-3.6c0.1-0.3,0.3-0.5,0.8-0.5h1.7c0.5,0,0.7,0.3,0.5,0.6
	c-0.2,1-2.4,4-2.4,4c-0.2,0.3-0.3,0.4,0,0.8c0.2,0.2,0.8,0.8,1.2,1.3c0.8,0.8,1.3,1.6,1.5,2c0.1,0.5-0.1,0.7-0.6,0.7h-1.8
	c-0.7,0-0.9-0.5-2-1.7c-1-1-1.5-1.1-1.7-1.1c-0.4,0-0.5,0.1-0.5,0.6v1.6c0,0.4-0.1,0.7-1.2,0.7c-1.9,0-3.9-1.1-5.3-3.2
	c-2.2-3-2.8-5.3-2.8-5.8C3.7,8.1,3.8,7.8,4.3,7.8z"/>
</svg>
