<svg width="176" height="241" viewBox="0 0 176 241" fill="none" xmlns="http://www.w3.org/2000/svg">
<path d="M48.433 1.75H44.44V10H45.496V2.685H47.388V10H48.433V1.75ZM50.032 10H51.088V6.524H51.682C52.925 6.524 53.717 5.622 53.717 4.126C53.717 2.707 53.288 2.058 52.727 1.882C52.452 1.794 52.122 1.75 51.715 1.75H50.032V10ZM51.088 2.608H51.55C52.276 2.608 52.639 3.103 52.639 4.082C52.639 5.094 52.243 5.666 51.594 5.666H51.088V2.608ZM59.3333 1.75H58.1453L56.0553 8.108H56.0333V1.75H55.0653V10H56.3083L58.3433 3.818H58.3653V10H59.3333V1.75ZM64.9833 1.75H60.9903V10H62.0463V2.685H63.9383V10H64.9833V1.75ZM68.6832 1.596C67.9352 1.596 67.3742 1.926 67.0002 2.586C66.6372 3.246 66.4502 4.346 66.4502 5.875C66.4502 7.404 66.6372 8.504 67.0002 9.175C67.3742 9.835 67.9352 10.165 68.6832 10.165C69.4312 10.165 69.9922 9.835 70.3662 9.186C70.7402 8.526 70.9272 7.426 70.9272 5.875C70.9272 4.335 70.7402 3.235 70.3662 2.586C69.9922 1.926 69.4312 1.596 68.6832 1.596ZM68.6832 9.307C68.2872 9.307 67.9902 9.065 67.8032 8.592C67.6162 8.119 67.5282 7.206 67.5282 5.875C67.5282 4.544 67.6162 3.631 67.8032 3.158C67.9902 2.685 68.2872 2.443 68.6832 2.443C69.0902 2.443 69.3762 2.685 69.5632 3.158C69.7502 3.631 69.8492 4.533 69.8492 5.875C69.8492 7.217 69.7502 8.13 69.5632 8.603C69.3762 9.076 69.0902 9.307 68.6832 9.307ZM76.877 9.065H76.415V1.75H73.588C73.588 2.762 73.489 3.928 73.28 5.237C73.082 6.546 72.807 7.822 72.455 9.065H72.048V11.551H73.038V10H75.887V11.551H76.877V9.065ZM73.467 9.065C74.16 6.524 74.512 4.39 74.512 2.685H75.359V9.065H73.467ZM82.221 1.75H81.176V5.116H79.284V1.75H78.228V10H79.284V6.051H81.176V10H82.221V1.75ZM87.615 1.75H85.613C84.513 1.75 83.831 2.531 83.831 3.818C83.831 4.874 84.216 5.677 84.92 5.897V5.919C84.26 6.007 83.919 6.48 83.897 7.393L83.864 8.746C83.853 9.329 83.743 9.747 83.534 10H84.733C84.854 9.813 84.931 9.428 84.942 8.834L84.986 7.657C84.997 6.953 85.107 6.678 85.272 6.535C85.448 6.37 85.635 6.337 85.91 6.337H86.559V10H87.615V1.75ZM86.152 5.49C85.448 5.49 84.931 5.391 84.898 3.917C84.898 3.092 85.316 2.608 86.031 2.608H86.559V5.49H86.152ZM92.9369 1.75H88.8669V2.685H90.3739V10H91.4079V2.685H92.9369V1.75ZM100.172 1.75H99.1158V10H100.172V1.75ZM95.2328 1.75H94.1768V10H96.0908C97.5538 10 98.3898 9.153 98.3898 7.646C98.3898 6.161 97.5978 5.292 96.3218 5.292H95.2328V1.75ZM95.2328 6.15H96.0798C96.8828 6.15 97.2898 6.645 97.2898 7.646C97.2898 8.537 96.8608 9.142 96.1238 9.142H95.2328V6.15ZM105.1 9.065H102.823V6.15H104.847V5.226H102.823V2.685H105.001V1.75H101.767V10H105.1V9.065ZM45.496 15.685H47.443V14.75H44.44V23H46.486C47.993 23 48.653 22.285 48.653 20.646C48.653 19.942 48.455 19.37 48.059 18.941C47.674 18.512 47.179 18.292 46.585 18.292H45.496V15.685ZM45.496 19.15H46.343C47.146 19.15 47.553 19.645 47.553 20.646C47.553 21.537 47.124 22.142 46.387 22.142H45.496V19.15ZM50.1179 23H51.1739V19.524H51.7679C53.0109 19.524 53.8029 18.622 53.8029 17.126C53.8029 15.707 53.3739 15.058 52.8129 14.882C52.5379 14.794 52.2079 14.75 51.8009 14.75H50.1179V23ZM51.1739 15.608H51.6359C52.3619 15.608 52.7249 16.103 52.7249 17.082C52.7249 18.094 52.3289 18.666 51.6799 18.666H51.1739V15.608ZM57.2523 14.596C56.5043 14.596 55.9433 14.926 55.5693 15.586C55.2063 16.246 55.0193 17.346 55.0193 18.875C55.0193 20.404 55.2063 21.504 55.5693 22.175C55.9433 22.835 56.5043 23.165 57.2523 23.165C58.0003 23.165 58.5613 22.835 58.9353 22.186C59.3093 21.526 59.4963 20.426 59.4963 18.875C59.4963 17.335 59.3093 16.235 58.9353 15.586C58.5613 14.926 58.0003 14.596 57.2523 14.596ZM57.2523 22.307C56.8563 22.307 56.5593 22.065 56.3723 21.592C56.1853 21.119 56.0973 20.206 56.0973 18.875C56.0973 17.544 56.1853 16.631 56.3723 16.158C56.5593 15.685 56.8563 15.443 57.2523 15.443C57.6593 15.443 57.9453 15.685 58.1323 16.158C58.3193 16.631 58.4183 17.533 58.4183 18.875C58.4183 20.217 58.3193 21.13 58.1323 21.603C57.9453 22.076 57.6593 22.307 57.2523 22.307ZM63.939 18.589C64.566 18.369 64.962 17.654 64.962 16.862C64.962 15.465 64.313 14.75 63.125 14.75H60.958V23H63.004C64.511 23 65.171 22.285 65.171 20.646C65.171 19.546 64.764 18.864 63.939 18.611V18.589ZM62.014 15.608H62.784C63.521 15.608 63.884 16.048 63.884 16.939C63.884 17.808 63.62 18.303 62.74 18.303H62.014V15.608ZM62.014 19.084H62.861C63.576 19.084 64.071 19.579 64.071 20.646C64.071 21.537 63.642 22.142 62.905 22.142H62.014V19.084ZM70.9039 14.75H69.7159L67.6259 21.108H67.6039V14.75H66.6359V23H67.8789L69.9139 16.818H69.9359V23H70.9039V14.75Z" fill="white"/>
<path d="M122.433 48.75H118.44V57H119.496V49.685H121.388V57H122.433V48.75ZM124.032 57H125.088V53.524H125.682C126.925 53.524 127.717 52.622 127.717 51.126C127.717 49.707 127.288 49.058 126.727 48.882C126.452 48.794 126.122 48.75 125.715 48.75H124.032V57ZM125.088 49.608H125.55C126.276 49.608 126.639 50.103 126.639 51.082C126.639 52.094 126.243 52.666 125.594 52.666H125.088V49.608ZM133.333 48.75H132.145L130.055 55.108H130.033V48.75H129.065V57H130.308L132.343 50.818H132.365V57H133.333V48.75ZM136.904 52.567L138.752 48.75H137.608L136.046 52.259V48.75H134.99V57H136.046V52.996L137.828 57H139.027L136.904 52.567ZM140.12 57H141.176V53.524H141.77C143.013 53.524 143.805 52.622 143.805 51.126C143.805 49.707 143.376 49.058 142.815 48.882C142.54 48.794 142.21 48.75 141.803 48.75H140.12V57ZM141.176 49.608H141.638C142.364 49.608 142.727 50.103 142.727 51.082C142.727 52.094 142.331 52.666 141.682 52.666H141.176V49.608ZM151.149 48.75H150.093V57H151.149V48.75ZM146.21 48.75H145.154V57H147.068C148.531 57 149.367 56.153 149.367 54.646C149.367 53.161 148.575 52.292 147.299 52.292H146.21V48.75ZM146.21 53.15H147.057C147.86 53.15 148.267 53.645 148.267 54.646C148.267 55.537 147.838 56.142 147.101 56.142H146.21V53.15ZM156.473 48.75H152.403V49.685H153.91V57H154.944V49.685H156.473V48.75ZM163.708 48.75H162.652V57H163.708V48.75ZM158.769 48.75H157.713V57H159.627C161.09 57 161.926 56.153 161.926 54.646C161.926 53.161 161.134 52.292 159.858 52.292H158.769V48.75ZM158.769 53.15H159.616C160.419 53.15 160.826 53.645 160.826 54.646C160.826 55.537 160.397 56.142 159.66 56.142H158.769V53.15ZM168.636 56.065H166.359V53.15H168.383V52.226H166.359V49.685H168.537V48.75H165.303V57H168.636V56.065ZM121.443 61.75H118.44V70H119.496V62.685H121.443V61.75ZM126.029 61.75H123.015L122.883 65.094C122.839 66.15 122.795 66.942 122.74 67.47C122.685 67.987 122.63 68.372 122.553 68.625C122.421 69.12 122.245 69.219 121.86 69.219C121.794 69.219 121.684 69.208 121.519 69.186V70C121.695 70.077 121.86 70.121 122.025 70.121C122.432 70.121 122.74 70.066 122.938 69.945C123.147 69.824 123.312 69.538 123.433 69.087C123.554 68.636 123.653 67.932 123.73 66.975C123.807 66.018 123.873 64.588 123.95 62.685H124.973V70H126.029V61.75ZM130.398 61.75H129.034L127.142 70H128.242L128.671 67.767H130.684L131.113 70H132.224L130.398 61.75ZM128.88 66.909L129.683 62.938H129.705L130.486 66.909H128.88ZM135.767 65.567C136.438 65.358 136.856 64.643 136.856 63.774C136.856 63.169 136.691 62.652 136.35 62.223C136.02 61.794 135.558 61.585 134.964 61.585C133.732 61.585 133.028 62.476 133.028 64.005H134.062C134.062 62.927 134.359 62.388 134.964 62.388C135.492 62.388 135.778 62.905 135.778 63.774C135.778 64.698 135.437 65.248 134.821 65.248H134.37V66.062H134.832C135.58 66.062 135.954 66.59 135.954 67.646C135.954 68.79 135.69 69.351 134.975 69.351C134.37 69.351 134.095 68.9 134.095 67.701H133.028V67.811C133.028 69.538 133.644 70.154 134.909 70.154C136.328 70.154 137.032 69.296 137.032 67.569C137.032 66.447 136.614 65.787 135.767 65.6V65.567ZM141.206 61.75H139.842L137.95 70H139.05L139.479 67.767H141.492L141.921 70H143.032L141.206 61.75ZM139.688 66.909L140.491 62.938H140.513L141.294 66.909H139.688Z" fill="white"/>
<path d="M132.443 205.151C132.421 206.592 132.091 207.307 131.453 207.307C131.079 207.307 130.804 207.065 130.628 206.57C130.463 206.075 130.375 205.184 130.375 203.875C130.375 202.478 130.463 201.554 130.639 201.114C130.815 200.663 131.09 200.443 131.453 200.443C132.08 200.443 132.388 200.96 132.388 202.181H133.466C133.455 201.235 133.301 200.564 132.993 200.179C132.696 199.794 132.19 199.596 131.486 199.596C130.76 199.596 130.21 199.915 129.847 200.542C129.484 201.169 129.308 202.28 129.308 203.875C129.308 205.514 129.484 206.647 129.847 207.252C130.21 207.857 130.76 208.165 131.486 208.165C132.806 208.165 133.477 207.219 133.521 205.151H132.443ZM139.204 203.567L141.008 199.728H139.864L138.368 203.259V199.75H137.312V203.259L135.816 199.728H134.672L136.476 203.567L134.397 208H135.596L137.312 203.996V208H138.368V203.996L140.084 208H141.283L139.204 203.567ZM145.147 199.75H143.783L141.891 208H142.991L143.42 205.767H145.433L145.862 208H146.973L145.147 199.75ZM143.629 204.909L144.432 200.938H144.454L145.235 204.909H143.629ZM151.793 199.75H147.723V200.685H149.23V208H150.264V200.685H151.793V199.75ZM159.027 199.75H157.971V208H159.027V199.75ZM154.088 199.75H153.032V208H154.946C156.409 208 157.245 207.153 157.245 205.646C157.245 204.161 156.453 203.292 155.177 203.292H154.088V199.75ZM154.088 204.15H154.935C155.738 204.15 156.145 204.645 156.145 205.646C156.145 206.537 155.716 207.142 154.979 207.142H154.088V204.15ZM163.955 207.065H161.678V204.15H163.702V203.226H161.678V200.685H163.856V199.75H160.622V208H163.955V207.065ZM132.443 212.75H129.44V221H130.496V213.685H132.443V212.75ZM136.801 212.75L135.734 217.678H135.701L134.403 212.75H133.281L134.997 218.36C135.129 218.789 135.195 219.119 135.195 219.339C135.195 219.922 134.909 220.241 134.425 220.241C134.15 220.241 133.864 220.175 133.578 220.054V220.956C133.831 221.055 134.106 221.099 134.381 221.099C135.283 221.099 135.866 220.571 136.141 219.526L137.901 212.75H136.801ZM140.122 213.685H142.069V212.75H139.066V221H141.112C142.619 221 143.279 220.285 143.279 218.646C143.279 217.942 143.081 217.37 142.685 216.941C142.3 216.512 141.805 216.292 141.211 216.292H140.122V213.685ZM140.122 217.15H140.969C141.772 217.15 142.179 217.645 142.179 218.646C142.179 219.537 141.75 220.142 141.013 220.142H140.122V217.15ZM150.739 212.75H149.683V221H150.739V212.75ZM145.8 212.75H144.744V221H146.658C148.121 221 148.957 220.153 148.957 218.646C148.957 217.161 148.165 216.292 146.889 216.292H145.8V212.75ZM145.8 217.15H146.647C147.45 217.15 147.857 217.645 147.857 218.646C147.857 219.537 147.428 220.142 146.691 220.142H145.8V217.15Z" fill="white"/>
<path d="M44.9998 27L0.999806 141" stroke="white" stroke-width="0.5"/>
<path d="M114 77C96.4447 109.291 66.0672 155.215 65 157" stroke="white" stroke-width="0.5"/>
<path d="M123 220L47 224" stroke="white" stroke-width="0.5"/>
<circle r="1" transform="matrix(-1 0 0 1 47 224)" fill="white"/>
<circle r="1" transform="matrix(-1 0 0 1 123 220)" fill="white"/>
<circle r="1" transform="matrix(-1 0 0 1 65 157)" fill="white"/>
<circle r="1" transform="matrix(-1 0 0 1 114 77)" fill="white"/>
<circle r="1" transform="matrix(-1 0 0 1 45 27)" fill="white"/>
</svg>
