<?xml version="1.0" encoding="utf-8"?>
<!-- Generator: Adobe Illustrator 22.0.1, SVG Export Plug-In . SVG Version: 6.00 Build 0)  -->
<svg version="1.1" id="Слой_1" xmlns="http://www.w3.org/2000/svg" xmlns:xlink="http://www.w3.org/1999/xlink" x="0px" y="0px"
	 viewBox="0 0 24 24" style="enable-background:new 0 0 24 24;" xml:space="preserve">
<style type="text/css">
	.st0{fill:#31c0ec;}
</style>
<path class="st0" d="M23,6.6c0.2-0.5,0-0.9-0.8-0.9h-2.5c-0.6,0-0.9,0.3-1.1,0.7c0,0-1.3,3.1-3.1,5.2c-0.6,0.6-0.9,0.8-1.2,0.8
	c-0.2,0-0.4-0.2-0.4-0.7v-5c0-0.6-0.1-0.9-0.7-0.9h-4c-0.4,0-0.6,0.3-0.6,0.6c0,0.6,0.9,0.7,1,2.5v3.7c0,0.8-0.1,1-0.5,1
	c-0.8,0-2.9-3.2-4.2-6.7c-0.2-0.7-0.5-1-1.1-1H1.3C0.6,5.6,0.4,6,0.4,6.4c0,0.7,0.9,4,4,8.4c2.1,3,5,4.6,7.7,4.6
	c1.6,0,1.8-0.4,1.8-1v-2.3c0-0.7,0.1-0.9,0.7-0.9c0.4,0,1,0.2,2.5,1.6c1.7,1.7,2,2.5,3,2.5h2.5c0.7,0,1.1-0.4,0.9-1.1
	c-0.2-0.7-1-1.7-2.1-3c-0.6-0.7-1.5-1.4-1.7-1.8c-0.4-0.5-0.3-0.7,0-1.1C19.6,12.4,22.6,8.1,23,6.6z"/>
</svg>
