<?xml version="1.0" encoding="utf-8"?>
<!-- Generator: Adobe Illustrator 22.0.1, SVG Export Plug-In . SVG Version: 6.00 Build 0)  -->
<svg version="1.1" id="Ñëîé_5" xmlns="http://www.w3.org/2000/svg" xmlns:xlink="http://www.w3.org/1999/xlink" x="0px" y="0px"
	 viewBox="0 0 617.3 748.5" style="enable-background:new 0 0 617.3 748.5;" xml:space="preserve">
<style type="text/css">
	.st0{fill:#6A79A8;}
	.st1{fill:#FFFFFF;}
	.st2{fill:#3C819E;}
	.st3{fill:#FFEEA7;}
	.st4{fill:#79DCF3;}
	.st5{fill:#FF9C81;}
</style>
<g>
	<g id="XMLID_225_">
		<g id="XMLID_232_">
			<rect id="XMLID_233_" x="77.9" y="618.5" class="st0" width="6" height="14.9"/>
		</g>
		<g id="XMLID_230_">
			<rect id="XMLID_231_" x="77.9" y="648.6" class="st0" width="6" height="14.9"/>
		</g>
		<g id="XMLID_228_">
			<rect id="XMLID_229_" x="58.3" y="637.9" class="st0" width="14.9" height="6"/>
		</g>
		<g id="XMLID_226_">
			<rect id="XMLID_227_" x="88.4" y="637.9" class="st0" width="14.9" height="6"/>
		</g>
	</g>
	<g>
		<g>
			
				<rect x="218.9" y="47.6" transform="matrix(-0.722 -0.6919 0.6919 -0.722 434.2375 712.5753)" class="st1" width="282.7" height="443"/>
			<g>
				<path class="st2" d="M309.3,528.5c-0.5,0.1-1-0.1-1.4-0.5L103.8,332.4c-0.7-0.7-0.7-1.8-0.1-2.4L410.2,10.2
					c0.3-0.3,0.8-0.5,1.2-0.5c0.5,0,0.9,0.2,1.2,0.5l204.1,195.6c0.7,0.7,0.7,1.8,0.1,2.4L310.3,528
					C310.1,528.3,309.7,528.4,309.3,528.5z M107.4,331.1L309,524.3L613.1,207L411.5,13.8L107.4,331.1z"/>
			</g>
			<g id="XMLID_22_">
				<g id="XMLID_25_">
					<g id="XMLID_26_">
						<path class="st0" d="M367.6,466.9l-2.2,2.3c-31.4-30.1-81.5-29.1-111.7,2.4l-2.3-2.2C282.8,436.6,334.9,435.5,367.6,466.9z"/>
						<path class="st0" d="M365.4,470.4l-0.6-0.6c-15-14.4-34.8-22.1-55.7-21.7c-20.9,0.4-40.3,9-54.7,24l-0.6,0.6l-3.5-3.4l0.6-0.6
							c31.7-33,84.3-34.2,117.4-2.5l0.6,0.6L365.4,470.4z M300.1,447.1c3-0.4,6-0.6,9-0.7c21.1-0.4,41,7.2,56.3,21.5l1-1
							c-32.2-30.2-82.8-29.1-113.7,2.4l1,1C266.3,457.5,282.5,449.4,300.1,447.1z"/>
					</g>
				</g>
				<g id="XMLID_23_">
					<g id="XMLID_24_">
						<path class="st0" d="M164.1,271.9c32.7,31.3,33.8,83.4,2.5,116.1l-2.3-2.2c30.1-31.4,29.1-81.5-2.4-111.7L164.1,271.9z"/>
						<path class="st0" d="M166.6,389.2l-3.5-3.4l0.6-0.6c29.8-31.1,28.7-80.6-2.4-110.4l-0.6-0.6l3.4-3.5l0.6,0.6
							c16,15.3,25,36,25.5,58.2c0.5,22.2-7.7,43.2-23,59.2L166.6,389.2z M165.5,385.8l1,1c14.6-15.6,22.4-35.9,21.9-57.3
							c-0.5-21.4-9.1-41.4-24.4-56.4l-1,1c15,14.7,23.5,34.3,23.9,55.3C187.5,350.5,179.8,370.5,165.5,385.8z"/>
					</g>
				</g>
			</g>
			<g id="XMLID_17_">
				<g id="XMLID_20_">
					<g id="XMLID_21_">
						<path class="st2" d="M557.3,150.2l2.3,2.2c-30.1,31.4-29.1,81.5,2.4,111.7l-2.2,2.3C527,235,525.9,182.9,557.3,150.2z"/>
						<path class="st2" d="M559.8,267.6l-0.6-0.6c-16-15.3-25-36-25.5-58.2c-0.5-22.2,7.7-43.2,23-59.2l0.6-0.6l3.5,3.4l-0.6,0.6
							c-14.4,15-22.1,34.8-21.7,55.7c0.4,20.9,9,40.3,24,54.7l0.6,0.6L559.8,267.6z M557.3,151.4c-14.6,15.6-22.4,35.9-21.9,57.3
							c0.5,21.4,9.1,41.4,24.4,56.4l1-1c-15-14.7-23.5-34.3-23.9-55.3c-0.4-21.1,7.2-41,21.5-56.3L557.3,151.4z"/>
					</g>
				</g>
				<g id="XMLID_18_">
					<g id="XMLID_19_">
						<path class="st2" d="M470.1,66.7l2.3,2.2c-31.3,32.7-83.4,33.8-116.1,2.5l2.2-2.3C389.8,99.2,439.9,98.1,470.1,66.7z"/>
						<path class="st2" d="M424,94.3c-24.2,3.2-49.5-4.2-68.4-22.3l-0.6-0.6l3.4-3.5l0.6,0.6c15,14.4,34.8,22.1,55.7,21.7
							c20.9-0.4,40.3-9,54.7-24l0.6-0.6l3.5,3.4l-0.6,0.6C459.4,83.6,442.1,91.9,424,94.3z M357.4,71.3
							c32.2,30.2,82.8,29.1,113.7-2.4l-1-1c-14.7,15-34.3,23.5-55.3,23.9c-21.1,0.4-41-7.2-56.3-21.5L357.4,71.3z"/>
					</g>
				</g>
			</g>
			<g id="XMLID_5_">
				
					<ellipse id="XMLID_16_" transform="matrix(0.7071 -0.7071 0.7071 0.7071 -93.5036 344.1743)" class="st3" cx="368.7" cy="285" rx="88.3" ry="88.3"/>
				<g id="XMLID_11_">
					<path class="st2" d="M423.1,203c36,34.5,37.2,91.8,2.7,127.8c-34.5,36-91.8,37.2-127.8,2.7c-36-34.5-37.2-91.8-2.7-127.8
						C329.8,169.7,387.1,168.5,423.1,203z M300.2,331.2c34.7,33.3,90,32.1,123.3-2.6c33.3-34.7,32.1-90-2.6-123.3
						c-34.7-33.3-90-32.1-123.3,2.6C264.3,242.6,265.5,297.9,300.2,331.2z"/>
					<path class="st2" d="M372.8,358.6c-3.4,0.5-6.8,0.7-10.3,0.8c-24.4,0.5-47.5-8.5-65.1-25.3c-36.3-34.8-37.6-92.7-2.8-129
						c16.8-17.6,39.5-27.5,63.9-28c24.4-0.5,47.5,8.5,65.1,25.3l0,0c17.6,16.8,27.5,39.5,28,63.9c0.5,24.4-8.5,47.5-25.3,65.1
						C412,346.4,393.2,355.9,372.8,358.6z M348.6,179.6c-20.1,2.7-38.5,12-52.6,26.7c-34.1,35.6-32.9,92.4,2.7,126.5
						c17.2,16.5,39.9,25.3,63.8,24.8c23.9-0.5,46.2-10.3,62.7-27.5c16.5-17.2,25.3-39.9,24.8-63.8c-0.5-23.9-10.3-46.2-27.5-62.7
						c-17.2-16.5-39.9-25.3-63.8-24.8C355.2,178.9,351.9,179.1,348.6,179.6z M372.2,355.5c-25.6,3.4-52.5-4.4-72.6-23.7
						c-17-16.2-26.6-38.2-27.1-61.7c-0.5-23.5,8.2-45.8,24.4-62.8c16.2-17,38.2-26.6,61.7-27.1c23.5-0.5,45.8,8.2,62.8,24.4
						c35.1,33.6,36.2,89.4,2.7,124.5C409.8,344.1,391.4,352.9,372.2,355.5z M349,182.7c-19.3,2.6-37.1,11.5-50.8,25.8
						c-15.9,16.6-24.4,38.5-23.9,61.6c0.5,23.1,9.9,44.6,26.5,60.5c34.4,32.9,89.1,31.8,122.1-2.6c32.9-34.4,31.8-89.1-2.6-122.1
						c-16.6-15.9-38.5-24.4-61.6-23.9C355.4,182,352.2,182.3,349,182.7z"/>
				</g>
				<path id="XMLID_6_" class="st0" d="M338.3,269.2c2.7,2.6,5.8,3.8,9.2,3.7c3.4-0.1,8.1-1.7,14-4.6c6.6-3.6,12.2-5.5,16.8-5.8
					c4.7-0.3,9.1,1.6,13.3,5.6c4,3.8,6.1,8.2,6.2,13.1c0.2,4.9-1.6,9.6-5.4,14.2l7.5,7.2l-3.6,3.8l-7.5-7.2
					c-4.5,3.9-9.3,5.8-14.4,5.5c-5.1-0.3-9.9-2.7-14.6-7.3l-0.1-0.3l4-4.2c3.6,3.5,7.5,5.3,11.7,5.6c4.2,0.2,8-1.4,11.4-5
					c3.5-3.7,5.2-7.3,5.1-11.1c-0.1-3.7-1.6-7-4.5-9.8c-2.8-2.7-5.9-4-9.2-4c-3.3,0-8.1,1.7-14.3,5c-6.6,3.5-12.2,5.3-16.8,5.6
					c-4.6,0.3-9-1.5-13.1-5.5c-4.1-3.9-6.2-8.3-6.1-13.2c0-4.9,1.9-9.7,5.7-14.4l-7-6.7l3.6-3.8l7,6.7c4.6-4.2,9.5-6.6,15-7
					c5.4-0.5,10.7,1.8,15.8,6.9l0.1,0.3l-4,4.2c-4.4-4.2-8.7-6-13-5.3c-4.3,0.6-8.2,2.7-11.6,6.3c-3.5,3.7-5.3,7.5-5.5,11.4
					C334,263,335.4,266.4,338.3,269.2z"/>
			</g>
		</g>
		<g>
			<g>
				
					<rect x="133.8" y="40.8" transform="matrix(0.9057 0.424 -0.424 0.9057 137.1339 -91.9039)" class="st1" width="282.7" height="443"/>
				<path class="st2" d="M309.5,524.5c-0.3,0-0.7,0-1-0.1l-256-119.9c-0.9-0.4-1.2-1.4-0.8-2.3L239.4,1c0.4-0.9,1.4-1.2,2.3-0.8
					l256,119.9c0.4,0.2,0.7,0.5,0.9,1c0.2,0.4,0.1,0.9-0.1,1.3L310.8,523.5c-0.2,0.4-0.5,0.7-1,0.9
					C309.7,524.4,309.6,524.5,309.5,524.5z M55.5,402.1l252.9,118.4l186.3-398L241.8,4L55.5,402.1z"/>
			</g>
			<g id="XMLID_185_">
				<g id="XMLID_190_">
					<g id="XMLID_191_">
						<path class="st2" d="M204.8,77.2l1.3-2.9c39.4,18.5,86.5,1.4,105-38l2.9,1.3C294.8,78.7,245.8,96.4,204.8,77.2z"/>
						<path class="st2" d="M250.4,85.1c-15.2,2-31.1-0.1-46-7.1l-0.8-0.4l2.1-4.4l0.8,0.4c18.9,8.8,40.1,9.8,59.7,2.7
							c19.6-7.1,35.3-21.4,44.1-40.3l0.4-0.8l4.4,2.1l-0.4,0.8C302.3,64.6,277.5,81.5,250.4,85.1z M205.9,76.8
							c40.2,18.3,87.8,1,106.9-38.7l-1.3-0.6c-9.1,18.9-25,33.2-44.8,40.4c-19.8,7.2-41.2,6.3-60.2-2.4L205.9,76.8z"/>
					</g>
				</g>
				<g id="XMLID_188_">
					<g id="XMLID_189_">
						<path class="st2" d="M460.1,196.7c-41-19.2-58.8-68.2-39.6-109.2l2.9,1.3c-18.5,39.4-1.4,86.5,38,105L460.1,196.7z"/>
						<path class="st2" d="M460.5,197.9l-0.8-0.4c-41.4-19.4-59.4-68.9-40-110.4l0.4-0.8l4.4,2.1l-0.4,0.8
							c-18.3,39-1.4,85.6,37.6,103.9l0.8,0.4L460.5,197.9z M420.9,88.7c-18.3,40.2-1,87.8,38.7,106.9l0.6-1.3
							c-18.9-9.1-33.2-25-40.4-44.8c-7.2-19.8-6.3-41.2,2.4-60.2L420.9,88.7z"/>
					</g>
				</g>
			</g>
			<g id="XMLID_152_">
				<g id="XMLID_183_">
					<g id="XMLID_184_">
						<path class="st0" d="M126.6,437.9l-2.9-1.3c18.5-39.4,1.4-86.5-38-105l1.3-2.9C128,347.9,145.8,396.9,126.6,437.9z"/>
						<path class="st0" d="M127,439.1l-4.4-2.1l0.4-0.8c18.3-39,1.4-85.6-37.6-103.9l-0.8-0.4l2.1-4.4l0.8,0.4
							c20,9.4,35.3,26,42.8,46.9c7.6,20.9,6.6,43.4-2.8,63.4L127,439.1z M124.9,436.2l1.3,0.6c8.9-19.4,9.7-41.2,2.4-61.3
							c-7.3-20.2-21.9-36.3-41.1-45.6l-0.6,1.3C125.9,350,142.8,396.7,124.9,436.2z"/>
					</g>
				</g>
				<g id="XMLID_153_">
					<g id="XMLID_182_">
						<path class="st0" d="M236,489.1l-2.9-1.3c19.2-41,68.2-58.8,109.2-39.6l-1.3,2.9C301.5,432.6,254.4,449.7,236,489.1z"/>
						<path class="st0" d="M236.4,490.3l-4.4-2.1l0.4-0.8c19.4-41.4,68.9-59.4,110.4-40l0.8,0.4l-2.1,4.4l-0.8-0.4
							c-39-18.3-85.6-1.4-103.9,37.6L236.4,490.3z M234.3,487.4l1.3,0.6c9.1-18.9,25-33.2,44.8-40.4c19.8-7.2,41.2-6.3,60.2,2.4
							l0.6-1.3C301,430.4,253.4,447.6,234.3,487.4z"/>
					</g>
				</g>
			</g>
			<g id="XMLID_74_">
				<circle id="XMLID_151_" class="st3" cx="281.6" cy="280.8" r="88.3"/>
				<g id="XMLID_95_">
					<g id="XMLID_148_">
						<path class="st2" d="M236.8,344.9c-45.1-21.1-64.7-75-43.5-120.2c21.1-45.1,75-64.7,120.2-43.5c45.1,21.1,64.7,75,43.5,120.2
							C335.8,346.5,281.9,366.1,236.8,344.9z M312.1,184.1c-43.5-20.4-95.6-1.5-115.9,42c-20.4,43.5-1.5,95.6,42,115.9
							c43.5,20.4,95.6,1.5,115.9-42C374.4,256.5,355.6,204.5,312.1,184.1z"/>
						<path class="st2" d="M286.9,353.6c-17.1,2.3-34.5-0.4-50.5-7.8c-45.6-21.3-65.3-75.7-43.9-121.3c10.3-22,28.6-38.7,51.6-47.1
							c22.9-8.3,47.7-7.2,69.7,3.1c45.6,21.3,65.3,75.7,43.9,121.3c-10.3,22-28.6,38.7-51.6,47.1
							C299.8,351.1,293.4,352.7,286.9,353.6z M263.5,174.4c-6.4,0.8-12.7,2.4-18.9,4.6c-22.5,8.2-40.5,24.5-50.6,46.2
							c-10.1,21.6-11.2,45.9-3.1,68.4c8.2,22.5,24.5,40.5,46.2,50.6c21.6,10.1,45.9,11.2,68.4,3.1c22.5-8.2,40.5-24.5,50.6-46.2
							c20.9-44.7,1.6-98.1-43.1-119C297.4,174.7,280.3,172.1,263.5,174.4z M286.6,350.4c-16.1,2.1-33-0.1-48.8-7.5
							c-21.3-10-37.4-27.6-45.4-49.8c-8-22.1-7-46,3-67.3c20.6-44,73.1-63,117.1-42.4c21.3,10,37.4,27.6,45.4,49.8
							c8,22.1,7,46-3,67.3C341.6,328.6,315.3,346.6,286.6,350.4z M263.9,177.5c-28.2,3.8-54,21.3-67,49c-9.8,20.9-10.8,44.3-2.9,66
							c7.9,21.7,23.7,39,44.5,48.8c43.1,20.2,94.6,1.5,114.8-41.6c9.8-20.9,10.8-44.3,2.9-66c-7.9-21.7-23.7-39-44.5-48.8
							C296.2,177.7,279.7,175.4,263.9,177.5z"/>
					</g>
				</g>
				<g id="XMLID_75_">
					<path id="XMLID_76_" class="st0" d="M295.8,255c-3.4-1.6-6.7-1.8-9.9-0.6c-3.2,1.2-7.1,4.2-11.8,8.9
						c-5.1,5.5-9.8,9.1-14.1,10.9c-4.3,1.8-9.1,1.4-14.4-1.1c-5-2.4-8.4-5.8-10.1-10.4c-1.7-4.6-1.5-9.6,0.5-15.2l-9.4-4.4l2.2-4.7
						l9.4,4.4c3-5.2,7-8.5,11.9-9.8c4.9-1.3,10.3-0.6,16.2,2.3l0.2,0.2l-2.5,5.3c-4.6-2.1-8.9-2.6-12.9-1.5c-4,1.1-7.1,3.9-9.2,8.3
						c-2.1,4.6-2.6,8.6-1.3,12.1c1.3,3.5,3.7,6.1,7.4,7.8c3.5,1.7,6.9,1.9,10,0.8c3.1-1.1,7.1-4.2,11.9-9.3c5.1-5.4,9.8-9,14.1-10.7
						c4.3-1.8,9-1.4,14.2,1c5.1,2.4,8.5,5.9,10.1,10.6c1.6,4.6,1.3,9.8-0.8,15.5l8.8,4.1l-2.2,4.7l-8.8-4.1
						c-3,5.5-6.9,9.3-11.9,11.5c-5,2.2-10.7,1.7-17.2-1.5l-0.2-0.3l2.4-5.2c5.5,2.6,10.2,2.9,14.1,0.9c3.9-2,6.9-5.2,8.9-9.6
						c2.1-4.6,2.6-8.8,1.5-12.6C301.9,259.5,299.5,256.8,295.8,255z"/>
				</g>
			</g>
		</g>
		<g>
			<g>
				
					<rect x="58.7" y="65.6" transform="matrix(0.991 0.1342 -0.1342 0.991 40.3457 -24.257)" class="st1" width="282.7" height="443"/>
				<path class="st2" d="M310.6,527.3c-0.2,0-0.3,0-0.5,0L30.1,489.3c-0.9-0.1-1.6-1-1.5-1.9L88,48.4c0.1-0.9,1-1.6,1.9-1.5
					l280.1,37.9c0.9,0.1,1.6,1,1.5,1.9l-59.5,438.9c-0.1,0.5-0.3,0.9-0.7,1.1C311.2,527.1,310.9,527.2,310.6,527.3z M32.2,486.1
					l276.7,37.5l59-435.5L91.2,50.6L32.2,486.1z"/>
			</g>
			<g id="XMLID_206_">
				<g id="XMLID_209_">
					<g id="XMLID_210_">
						<path class="st2" d="M77.7,131.5l0.4-3.1c43.1,5.8,83-24.5,88.9-67.7l3.1,0.4C164,106,122.6,137.6,77.7,131.5z"/>
						<path class="st2" d="M99.6,132.4c-7.2,1-14.6,1-22.1,0l-0.9-0.1l0.7-4.9l0.9,0.1c42.7,5.8,82.1-24.2,87.9-66.9l0.1-0.9
							l4.9,0.7l-0.1,0.9C165.8,99.1,135.8,127.6,99.6,132.4z M78.7,130.8c43.8,5.5,84.1-25.2,90.5-68.9l-1.4-0.2
							c-3,20.7-13.9,39.2-30.6,51.9c-16.8,12.8-37.4,18.3-58.2,15.7L78.7,130.8z"/>
					</g>
				</g>
				<g id="XMLID_207_">
					<g id="XMLID_208_">
						<path class="st2" d="M357,169.3c-44.9-6.1-76.5-47.5-70.4-92.4l3.1,0.4c-5.8,43.1,24.5,83,67.7,88.9L357,169.3z"/>
						<path class="st2" d="M357.8,170.3l-0.9-0.1c-45.4-6.1-77.3-48-71.1-93.4l0.1-0.9l4.9,0.7l-0.1,0.9
							c-2.8,20.6,2.6,41.2,15.3,57.8c12.7,16.6,31,27.3,51.6,30.1l0.9,0.1L357.8,170.3z M287.4,77.9c-5.5,43.8,25.2,84.1,68.9,90.5
							l0.2-1.4c-20.7-3-39.2-13.9-51.9-30.6c-12.8-16.8-18.3-37.4-15.7-58.2L287.4,77.9z"/>
					</g>
				</g>
			</g>
			<g id="XMLID_201_">
				<g id="XMLID_204_">
					<g id="XMLID_205_">
						<path class="st0" d="M110.8,499.1l-3.1-0.4c5.8-43.1-24.5-83-67.7-88.9l0.4-3.1C85.3,412.8,116.9,454.2,110.8,499.1z"/>
						<path class="st0" d="M111.5,500.1l-4.9-0.7l0.1-0.9c5.8-42.7-24.2-82.1-66.9-87.9l-0.9-0.1l0.7-4.9l0.9,0.1
							c45.4,6.1,77.3,48,71.1,93.4L111.5,500.1z M108.6,498l1.4,0.2c5.5-43.8-25.2-84.1-68.9-90.5l-0.2,1.4
							C83.9,415.4,114,455,108.6,498z"/>
					</g>
				</g>
				<g id="XMLID_202_">
					<g id="XMLID_203_">
						<path class="st0" d="M230.5,515.3l-3.1-0.4c6.1-44.9,47.5-76.5,92.4-70.4l-0.4,3.1C276.2,441.8,236.3,472.2,230.5,515.3z"/>
						<path class="st0" d="M231.2,516.3l-4.9-0.7l0.1-0.9c3-21.9,14.3-41.4,32-54.9c17.7-13.4,39.5-19.2,61.4-16.2l0.9,0.1l-0.7,4.9
							l-0.9-0.1c-20.6-2.8-41.2,2.6-57.8,15.3c-16.6,12.7-27.3,31-30.1,51.6L231.2,516.3z M228.3,514.2l1.4,0.2
							c3-20.7,13.9-39.2,30.6-51.9c16.8-12.8,37.4-18.3,58.2-15.7l0.2-1.4c-21.2-2.6-42.2,3-59.3,16
							C242.5,474.3,231.4,493,228.3,514.2z"/>
					</g>
				</g>
			</g>
			<g id="XMLID_192_">
				
					<ellipse id="XMLID_200_" transform="matrix(0.7071 -0.7071 0.7071 0.7071 -138.8191 238.9995)" class="st3" cx="219.1" cy="287.1" rx="88.3" ry="88.3"/>
				<g id="XMLID_196_">
					<g id="XMLID_197_">
						<path class="st2" d="M188.2,377.5c-49.4-6.7-84.1-52.3-77.4-101.7c6.7-49.4,52.3-84.1,101.7-77.4
							c49.4,6.7,84.1,52.3,77.4,101.7C283.2,349.4,237.6,384.2,188.2,377.5z M212,201.5c-47.6-6.5-91.7,27.1-98.1,74.7
							c-6.5,47.6,27.1,91.7,74.7,98.1c47.6,6.5,91.7-27.1,98.1-74.7C293.2,252,259.7,208,212,201.5z"/>
						<path class="st2" d="M212.4,378.4c-8,1.1-16.2,1.1-24.3,0l0,0c-49.8-6.8-84.9-52.8-78.2-102.6c6.8-49.8,52.8-84.9,102.6-78.2
							c24.1,3.3,45.5,15.8,60.3,35.2c14.8,19.4,21.1,43.4,17.9,67.5c-3.3,24.1-15.8,45.5-35.2,60.3
							C242.7,370.2,227.9,376.3,212.4,378.4z M188.5,199.2c-39,5.2-71.4,35.9-76.9,76.7c-6.6,48.9,27.8,94.1,76.7,100.7l0,0
							c23.7,3.2,47.2-3,66.2-17.5c19-14.5,31.3-35.5,34.5-59.2c3.2-23.7-3-47.2-17.5-66.2c-14.5-19-35.5-31.3-59.2-34.5
							C204.3,198.1,196.3,198.2,188.5,199.2z M211.9,375.2c-7.6,1-15.4,1-23.4,0c-48.1-6.5-82-51-75.4-99.1
							c6.5-48.1,51-82,99.1-75.4c48.1,6.5,82,51,75.4,99.1C282.1,339.9,250.3,370.1,211.9,375.2z M189,202.3
							c-37.6,5-68.9,34.6-74.2,74c-6.4,47.2,26.8,90.7,74,97.1c7.8,1.1,15.5,1,22.9,0c37.6-5,68.9-34.6,74.2-74
							c6.4-47.2-26.8-90.7-74-97.1l0,0C204.1,201.3,196.4,201.4,189,202.3z"/>
					</g>
				</g>
			</g>
		</g>
	</g>
	<path class="st2" d="M551.1,715.8c8.5,2.3,11.7,5,7.6,8.3c-28.5,23-156.5,23.3-218.6,23.7c-78.1,0.6-159.4,1.8-229.7-3.2
		c-29.4-2.1-96.1-3.7-107.5-11.3c-29.9-20,182.9-27.2,217.4-27.8C277.6,704.8,502.4,702.8,551.1,715.8z"/>
	<g>
		<path class="st1" d="M501.8,723.5H47.4c-23.8,0-43.1-19.3-43.1-43.1V403.8c0-23.8,19.3-43.1,43.1-43.1h454.4
			c23.8,0,43.1,19.3,43.1,43.1v276.6C544.9,704.2,525.6,723.5,501.8,723.5z"/>
		<g>
			<path class="st2" d="M501.8,725.5H47.4c-24.8,0-45.1-20.2-45.1-45.1V403.8c0-24.8,20.2-45.1,45.1-45.1h454.4
				c24.8,0,45.1,20.2,45.1,45.1v276.6C546.9,705.2,526.6,725.5,501.8,725.5z M47.4,362.7c-22.6,0-41.1,18.4-41.1,41.1v276.6
				c0,22.6,18.4,41.1,41.1,41.1h454.4c22.6,0,41.1-18.4,41.1-41.1V403.8c0-22.6-18.4-41.1-41.1-41.1H47.4z"/>
		</g>
		<rect x="6.5" y="443.4" class="st4" width="540.5" height="100.1"/>
		<g>
			<path class="st2" d="M544.9,544.4H4.3c-1.1,0-2-0.9-2-2V442.3c0-1.1,0.9-2,2-2h540.5c1.1,0,2,0.9,2,2v100.1
				C546.9,543.5,546,544.4,544.9,544.4z M6.3,540.4h536.5v-96.1H6.3V540.4z"/>
		</g>
		<g>
			<g>
				<path class="st2" d="M447.6,703h-34.1c-1.1,0-2-0.9-2-2c0-1.1,0.9-2,2-2h34.1c1.1,0,2,0.9,2,2C449.6,702.1,448.7,703,447.6,703z
					"/>
			</g>
			<g>
				<path class="st2" d="M328.5,703h-24.1c-1.1,0-2-0.9-2-2c0-1.1,0.9-2,2-2h24.1c1.1,0,2,0.9,2,2C330.5,702.1,329.6,703,328.5,703z
					"/>
			</g>
			<g>
				<path class="st2" d="M291.5,703h-45.3c-1.1,0-2-0.9-2-2c0-1.1,0.9-2,2-2h45.3c1.1,0,2,0.9,2,2C293.5,702.1,292.6,703,291.5,703z
					"/>
			</g>
		</g>
		<g>
			<g>
				<path class="st2" d="M36.8,685.2c-0.8,0-1.5-0.4-1.8-1.2c-3.4-7.5-3.4-15.6-3.4-23.4c0-0.9,0-1.7,0-2.6c0-1.1,0.9-2,2-2
					c1.1,0,2,0.9,2,2c0,0.9,0,1.7,0,2.6c0,7.7-0.1,15.1,3,21.8c0.5,1,0,2.2-1,2.7C37.4,685.2,37.1,685.2,36.8,685.2z"/>
			</g>
			<g>
				<path class="st2" d="M58,702.5c-0.2,0-0.3,0-0.5-0.1c-5.5-1.4-10.7-4.1-14.9-8c-0.8-0.7-0.9-2-0.1-2.8c0.8-0.8,2-0.9,2.8-0.1
					c3.7,3.4,8.2,5.9,13.1,7.1c1.1,0.3,1.7,1.3,1.5,2.4C59.7,701.9,58.9,702.5,58,702.5z"/>
			</g>
		</g>
		<g>
			<path id="XMLID_498_" class="st1" d="M210.7,483.6c-2.7,0-4.8-2.1-4.8-4.6c0-2.6,2.2-4.6,4.8-4.6c2.7,0,4.8,2.1,4.8,4.6
				C215.5,481.5,213.4,483.6,210.7,483.6z"/>
			<path id="XMLID_494_" class="st1" d="M347,483.6c-2.7,0-4.8-2.1-4.8-4.6c0-2.6,2.2-4.6,4.8-4.6c2.7,0,4.8,2.1,4.8,4.6
				C351.9,481.5,349.7,483.6,347,483.6z"/>
			<g>
				<ellipse id="XMLID_492_" class="st5" cx="219.6" cy="500.7" rx="8.7" ry="11.6"/>
				<ellipse id="XMLID_491_" class="st5" cx="338.8" cy="500.7" rx="8.7" ry="11.6"/>
			</g>
			<g>
				<path class="st1" d="M279.7,521c-14.2,0-27.8-5.1-38.5-14.3c-0.8-0.7-0.9-2-0.2-2.8c0.7-0.8,2-0.9,2.8-0.2
					c10,8.6,22.7,13.4,35.9,13.4c12.9,0,25.5-4.6,35.3-12.9c0.8-0.7,2.1-0.6,2.8,0.2c0.7,0.8,0.6,2.1-0.2,2.8
					C307,516.1,293.6,521,279.7,521z"/>
			</g>
		</g>
	</g>
	<g>
		
			<rect x="202.1" y="297.6" transform="matrix(0.1512 -0.9885 0.9885 0.1512 -112.8789 468.9182)" class="st2" width="28.9" height="5.2"/>
		<path class="st2" d="M206.8,313.3l-5.1-0.8l1.7-11.3l-38.2-5.8l2.4-15.6c1.4-9,7.1-16.5,14.2-18.7c7.8-2.4,14.6-1.2,21.4,3.7
			c6,4.4,9,12.9,7.7,21.7l-1.6,10.4l24.9,3.8l-0.8,5.1l-24.9-3.8L206.8,313.3z M171.1,291.1l33.1,5.1l1.6-10.4
			c1-6.8-1.2-13.6-5.6-16.8c-5.4-3.9-10.6-4.8-16.8-2.9c-5.3,1.6-9.5,7.4-10.6,14.5L171.1,291.1z"/>
	</g>
</g>
</svg>
