<?xml version="1.0" encoding="utf-8"?>
<!-- Generator: Adobe Illustrator 22.0.1, SVG Export Plug-In . SVG Version: 6.00 Build 0)  -->
<svg version="1.1" xmlns="http://www.w3.org/2000/svg" xmlns:xlink="http://www.w3.org/1999/xlink" x="0px" y="0px"
	 viewBox="0 0 710.4 674.5" style="enable-background:new 0 0 710.4 674.5;" xml:space="preserve">
<style type="text/css">
	.st0{fill:#3C819E;}
	.st1{fill:#C1E3EA;}
	.st2{fill:#D9F2FA;}
	.st3{fill:#FFF0A9;}
	.st4{fill:#FFC261;}
</style>
<g id="Ñëîé_1">
</g>
<g id="Ñëîé_2">
	<g>
		<path class="st0" d="M13.3,630.8c-11.4-6.6-16-14.2-11.6-23c30.7-60.9,193.3-55.5,272.1-53.7c99.1,2.3,202.1,2.9,292.6,19.9
			c37.9,7.1,123,14.7,139.4,35.9c42.8,55.7-225.9,64.8-269.5,64.6C363.5,674.2,78.4,668.6,13.3,630.8z"/>
		<rect x="48.2" y="214.5" class="st1" width="621.3" height="424.6"/>
		<path class="st2" d="M48.2,313.2l585,0.1c13,0,23.5,10.5,23.5,23.5l-0.1,268c0,13.5-11,24.5-24.5,24.5l-584-0.1L48.2,313.2z"/>
		<path class="st0" d="M47.2,215.6c20.6,0,41.2,0,61.8,0c49.5,0,99,0,148.5,0c59.9,0,119.7,0,179.6,0c51.7,0,103.4,0,155.2,0
			c17,0,34.1,0,51.1,0c5.2,0,10.5,0,15.7,0c2.7,0,5.8,0.5,8.4,0c0.3-0.1,0.7,0,1,0c-0.5-0.2-0.9-0.3-1.4-0.5c0,14.1,0,28.2,0,42.3
			c0,33.9,0,67.7,0,101.6c0,40.8,0,81.6,0,122.3c0,35.3,0,70.5,0,105.8c0,11.7,0,23.5,0,35.2c0,3.6,0,7.2,0,10.9
			c0,1.6-0.5,4.2,0,5.7c0.1,0.2,0,0.5,0,0.7c1.1-0.6,2.3-1.2,3.4-1.8c-20.6,0-41.2,0-61.8,0c-49.5,0-99,0-148.5,0
			c-59.9,0-119.7,0-179.6,0c-51.7,0-103.4,0-155.2,0c-17,0-34.1,0-51.1,0c-5.2,0-10.5,0-15.7,0c-2.7,0-5.8-0.5-8.4,0
			c-0.3,0.1-0.7,0-1,0c0.5,0.2,0.9,0.3,1.4,0.5c0-14.1,0-28.2,0-42.3c0-33.9,0-67.7,0-101.6c0-40.8,0-81.6,0-122.3
			c0-35.3,0-70.5,0-105.8c0-11.7,0-23.5,0-35.2c0-3.6,0-7.2,0-10.9c0-1.5,0.5-4.2,0-5.7c-0.1-0.2,0-0.5,0-0.7c0-1.1-4.8-0.3-4.8,1.3
			c0,14.1,0,28.2,0,42.3c0,33.9,0,67.7,0,101.6c0,40.8,0,81.6,0,122.3c0,35.3,0,70.5,0,105.8c0,11.7,0,23.5,0,35.2
			c0,3.6,0,7.2,0,10.9c0,1.5-0.5,4.2,0,5.7c0.1,0.2,0,0.5,0,0.7c0,0.5,1.2,0.5,1.4,0.5c20.6,0,41.2,0,61.8,0c49.5,0,99,0,148.5,0
			c59.9,0,119.7,0,179.6,0c51.7,0,103.4,0,155.2,0c25,0,50.3,1.1,75.2,0c0.3,0,0.7,0,1,0c0.9,0,3.4-0.5,3.4-1.8
			c0-14.1,0-28.2,0-42.3c0-33.9,0-67.7,0-101.6c0-40.8,0-81.6,0-122.3c0-35.3,0-70.5,0-105.8c0-11.7,0-23.5,0-35.2
			c0-3.6,0-7.2,0-10.9c0-1.5,0.5-4.2,0-5.7c-0.1-0.2,0-0.5,0-0.7c0-0.5-1.2-0.5-1.4-0.5c-20.6,0-41.2,0-61.8,0c-49.5,0-99,0-148.5,0
			c-59.9,0-119.7,0-179.6,0c-51.7,0-103.4,0-155.2,0c-25,0-50.3-1.1-75.2,0c-0.3,0-0.7,0-1,0C47.7,213.4,44,215.6,47.2,215.6z"/>
		<rect id="XMLID_30_" x="31.9" y="215" class="st1" width="649.8" height="86.3"/>
		<path id="XMLID_27_" class="st2" d="M31.9,215h635.4v35.7c0,22.1-17.9,40-40,40H31.9V215z"/>
		<path class="st0" d="M29.5,220.1c0,26.8,0,53.6,0,80.5c0,0.7,4.8,0.1,4.8-1.3c0-26.8,0-53.6,0-80.5
			C34.3,218.1,29.5,218.8,29.5,220.1L29.5,220.1z"/>
		<path class="st0" d="M30.9,302.4c21.7,0,43.4,0,65,0c51.7,0,103.4,0,155.1,0c62.5,0,125,0,187.4,0c54,0,108,0,162.1,0
			c26.3,0,52.8,1,79.1,0c0.4,0,0.7,0,1.1,0c0.9,0,3.4-0.5,3.4-1.8c0-27,0-54.1,0-81.1c0-1-4.8-0.3-4.8,1.3c0,27,0,54.1,0,81.1
			c1.1-0.6,2.3-1.2,3.4-1.8c-21.7,0-43.4,0-65,0c-51.7,0-103.4,0-155.1,0c-62.5,0-125,0-187.4,0c-54,0-108,0-162.1,0
			c-26.3,0-52.8-0.9-79.1,0c-0.4,0-0.7,0-1.1,0C31.4,300.2,27.7,302.4,30.9,302.4L30.9,302.4z"/>
		<polygon class="st2" points="29.8,215 681.9,215.1 650.1,156.4 63,156.3 		"/>
		<path class="st0" d="M28.3,216c21.7,0,43.4,0,65.1,0c51.9,0,103.8,0,155.7,0c62.9,0,125.8,0,188.8,0c54.2,0,108.4,0,162.6,0
			c26.2,0,52.5,0.4,78.8,0c0.4,0,0.7,0,1.1,0c0.5,0,4.5-0.6,4-1.7c-10.6-19.6-21.2-39.1-31.8-58.7c-0.2-0.3-0.5-0.4-0.9-0.4
			c-19.5,0-38.9,0-58.4,0c-46.7,0-93.5,0-140.2,0c-56.5,0-113.1,0-169.6,0c-48.9,0-97.8,0-146.6,0c-23.7,0-47.5-0.4-71.2,0
			c-0.3,0-0.7,0-1,0c-1.2,0-3.3,0.3-3.9,1.4c-11.1,19.6-22.1,39.1-33.2,58.7c-0.4,0.7,4.1,0.5,4.8-0.8
			c11.1-19.6,22.1-39.1,33.2-58.7c-1.3,0.5-2.6,1-3.9,1.4c23.8,0,47.7,0,71.5,0c55,0,109.9,0,164.9,0c62.5,0,124.9,0,187.4,0
			c45.3,0,90.6,0,135.9,0c8.8,0,17.8,0.5,26.6,0c1.5-0.1-0.1-0.6,0.3,0.2c1.8,4.1,4.3,8,6.4,11.9c6.9,12.8,13.9,25.6,20.8,38.5
			c1.4,2.6,2.8,5.2,4.2,7.7c1.3-0.6,2.6-1.1,4-1.7c-21.7,0-43.4,0-65.1,0c-51.9,0-103.8,0-155.7,0c-62.9,0-125.8,0-188.8,0
			c-54.2,0-108.4,0-162.6,0c-26.2,0-52.5-0.4-78.8,0c-0.4,0-0.7,0-1.1,0C30.3,213.9,25.9,216,28.3,216z"/>
		
			<rect x="305.4" y="215.2" transform="matrix(-1 -6.848247e-03 6.848247e-03 -1 712.3634 521.3071)" class="st3" width="103.4" height="88.6"/>
		<polygon class="st4" points="305.7,214.8 409.1,215.5 397.9,157.8 311.7,157.1 		"/>
		<path class="st0" d="M406.1,216c-0.2,25.8-0.4,51.6-0.5,77.4c0,3.7-0.1,7.4-0.1,11.1c1.1-0.6,2.3-1.2,3.4-1.7
			c-30.1-0.2-60.3-0.4-90.4-0.6c-4.3,0-8.6-0.1-12.9-0.1c0.5,0.1,0.9,0.3,1.4,0.4c0.2-25.8,0.4-51.6,0.5-77.4
			c0-3.7,0.1-7.4,0.1-11.1c0-1-4.8-0.2-4.8,1.3c-0.2,25.8-0.4,51.6-0.5,77.4c0,3.7-0.1,7.4-0.1,11.1c0,0.5,1.2,0.4,1.4,0.4
			c30.1,0.2,60.3,0.4,90.4,0.6c4.3,0,8.6,0.1,12.9,0.1c0.9,0,3.4-0.5,3.4-1.7c0.2-25.8,0.4-51.6,0.5-77.4c0-3.7,0.1-7.4,0.1-11.1
			C410.9,213.8,406.1,214.5,406.1,216L406.1,216z"/>
		<path class="st0" d="M321.5,216.4c21.6,0.1,43.1,0.3,64.7,0.4c2.8,0,3.7-3.5,0.4-3.5c-21.6-0.1-43.1-0.3-64.7-0.4
			C319.2,212.9,318.3,216.4,321.5,216.4L321.5,216.4z"/>
		<path class="st0" d="M410.9,214.7c-3.7-19.2-7.4-38.5-11.1-57.7c-0.1-0.6-1-1-1.5-1c-25.1-0.2-50.2-0.4-75.3-0.6
			c-3.7,0-7.3-0.1-11-0.1c-1.1,0-3.2,0.4-3.3,1.8c-2,19.2-4,38.5-6,57.7c-0.2,2.3,4.7,1.5,4.9-0.5c2-19.2,4-38.5,6-57.7
			c-1.1,0.6-2.2,1.2-3.3,1.8c25.1,0.2,50.2,0.4,75.3,0.6c3.7,0,7.3,0.1,11,0.1c-0.5-0.3-1-0.6-1.5-1c3.7,19.2,7.4,38.5,11.1,57.7
			C406.5,218.1,411.3,216.9,410.9,214.7L410.9,214.7z"/>
		<path class="st3" d="M507.4,132.7c18.7-25.5,20.9-62,5.4-89.5c-24-42.6-86.8-54.7-127.7-27.9c-40.8,26.8-55.7,84.7-37.5,130
			c-5-35.7-28.5-68.3-60.8-84.3c-32.3-16-72.5-14.9-103.9,2.8c-21.4,12-45.5,41.4-37.2,67.6c8.4,26.7,27.2,46.1,54,55.2
			c26.9,9.1,57.2,8.4,85.2,6.2c24.8-1.9,47.6-12.4,66.1-28.9c2.5-2.2,5.1-6.6,8.5-5.6C393.9,168.2,482.3,166.9,507.4,132.7z"/>
		<path class="st0" d="M509.8,132.3c17-23.7,20.6-56.1,8.8-82.9c-9.8-22.4-30.2-38.1-53.3-45.1C443-2.4,418.1-1.3,396.6,8
			c-22.9,9.9-40.5,29.4-50.1,52.3c-11.4,27.1-12.1,58.4-1.3,85.7c0.5,1.2,5,0,4.8-1.3c-7.5-51.4-50.6-91.9-102.5-95.7
			c-24.9-1.8-52,4.1-72.6,18.6c-17.9,12.6-36,35-33,58.3c1.5,11.2,7.5,22.6,14.1,31.6c6.9,9.5,15.9,17.4,26.2,23.2
			c24.3,13.6,53.9,15.3,81.2,14.4c14-0.5,28.2-1.2,41.8-5c12.3-3.4,24.1-8.8,34.7-16c5.1-3.4,10.2-7.2,14.5-11.6
			c2.2-2.2,3-3.2,6.1-2.4c1.8,0.4,3.6,0.8,5.4,1.2c8.3,1.6,16.8,2.5,25.3,3c20.2,1.2,40.7,0.2,60.6-3.6c17.2-3.2,35.6-8.5,49.5-19.7
			c3.1-2.5,5.9-5.3,8.3-8.5c1-1.3-3.7-0.7-4.4,0.3c-10.3,13.7-27.6,20.2-43.7,24.1c-18.9,4.6-38.6,6.1-58,5.7
			c-8.8-0.2-17.5-0.8-26.2-2c-3.5-0.5-7-1.1-10.5-1.9c-3-0.7-6-2-9.1-1.3c-3.6,0.8-5.6,3.3-8.1,5.8c-4.8,4.7-10.5,8.8-16.2,12.4
			c-11.7,7.4-24.7,12.6-38.3,15c-14.4,2.5-29.8,2.8-44.4,2.5c-14.2-0.2-28.5-1.7-42.2-5.4c-22.3-6.1-41.5-19.5-53-39.9
			c-5.7-10.1-10.3-21.6-8.7-33.3c1.6-11.4,7.5-22,14.7-30.8c16.6-20.1,41.3-30.9,67.1-32.7c28.8-2,57.5,7.4,79.3,26.4
			c20.1,17.6,33.5,42.1,37.4,68.5c1.6-0.4,3.2-0.9,4.8-1.3c-17.8-45.1-3.9-103.9,38.6-130.3c40-24.8,100.6-10.9,122.9,31.4
			c14.4,27.4,11.6,62.2-6.4,87.3C504.6,133.6,508.9,133.5,509.8,132.3z"/>
		<path class="st0" d="M228.4,77.5c13.1,36,43.1,64.4,79.7,75.6c1.3-0.7,2.6-1.4,3.9-2.1c-25.1-5.8-52.3-9.7-76.5,1.6
			c-2.9,1.4,1.5,1.7,2.9,1c21.7-10.2,47.3-5.7,69.7-0.5c1.1,0.3,5.7-1.6,3.9-2.1c-36.2-11.1-65.8-39.2-78.8-74.8
			C232.7,74.8,228,76.2,228.4,77.5L228.4,77.5z"/>
		<path class="st0" d="M416.8,65.8c4.4,28.1-4.8,57-24.5,77.4c-1.4,1.4,3.3,1,4.1,0.3c18.6-16.6,41.7-26.8,66.6-28.8
			c2.3-0.2,4.1-2.7,0.7-2.4c-26.4,2.2-51.4,13-71.1,30.7c1.4,0.1,2.8,0.2,4.1,0.3c20-20.8,29.3-50.2,24.8-78.7
			C421.4,63.1,416.6,64.2,416.8,65.8L416.8,65.8z"/>
		<g>
			<g>
				<path class="st0" d="M240.9,448.2c-1.3-1-3.1-1.5-5.6-1.5c-3.1,0-5.8,1.5-7.9,4.4c-2.1,3-3.2,7-3.2,12.1v23.4H217v-45.9h7.3v9.4
					h0.2c1-3.2,2.6-5.7,4.8-7.5c2.1-1.8,4.6-2.7,7.2-2.7c1.9,0,3.4,0.2,4.4,0.6V448.2z"/>
				<path class="st0" d="M285.7,465.5h-32.4c0.1,5.1,1.5,9,4.1,11.8c2.6,2.8,6.2,4.2,10.8,4.2c5.2,0,9.9-1.7,14.2-5.1v6.9
					c-4,2.9-9.4,4.4-16,4.4c-6.5,0-11.6-2.1-15.3-6.2c-3.7-4.2-5.6-10-5.6-17.6c0-7.1,2-13,6.1-17.4c4-4.5,9.1-6.7,15.1-6.7
					c6,0,10.6,1.9,13.9,5.8c3.3,3.9,4.9,9.3,4.9,16.2V465.5z M278.2,459.3c0-4.2-1.1-7.5-3.1-9.9c-2-2.4-4.8-3.5-8.4-3.5
					c-3.5,0-6.4,1.2-8.8,3.7c-2.4,2.5-3.9,5.7-4.5,9.7H278.2z"/>
				<path class="st0" d="M299.4,449.7c-1.4,0-2.5-0.5-3.5-1.5c-1-1-1.5-2.2-1.5-3.5c0-1.4,0.5-2.5,1.5-3.5c1-1,2.1-1.4,3.5-1.4
					c1.4,0,2.6,0.5,3.6,1.4c1,1,1.5,2.1,1.5,3.5c0,1.4-0.5,2.6-1.5,3.5C302,449.2,300.8,449.7,299.4,449.7z M299.4,487.6
					c-1.4,0-2.5-0.5-3.5-1.5c-1-1-1.5-2.2-1.5-3.5s0.5-2.6,1.5-3.6c1-1,2.1-1.5,3.5-1.5c1.4,0,2.6,0.5,3.6,1.5c1,1,1.5,2.2,1.5,3.6
					s-0.5,2.6-1.5,3.5C302,487.1,300.8,487.6,299.4,487.6z"/>
				<path class="st0" d="M314.7,484v-8.9c1,0.9,2.2,1.7,3.7,2.4c1.4,0.7,2.9,1.3,4.5,1.8c1.6,0.5,3.1,0.9,4.7,1.1s3,0.4,4.4,0.4
					c4.6,0,8.1-0.9,10.4-2.6c2.3-1.7,3.4-4.2,3.4-7.4c0-1.7-0.4-3.2-1.1-4.5c-0.8-1.3-1.8-2.5-3.2-3.5s-2.9-2.1-4.8-3
					c-1.8-1-3.8-2-5.9-3.1c-2.2-1.1-4.3-2.3-6.3-3.4c-1.9-1.2-3.6-2.4-5.1-3.9c-1.4-1.4-2.6-3-3.4-4.8c-0.8-1.8-1.2-3.9-1.2-6.2
					c0-2.9,0.6-5.5,1.9-7.6c1.3-2.2,3-3.9,5.1-5.4c2.1-1.4,4.5-2.4,7.1-3.1c2.7-0.7,5.4-1,8.2-1c6.3,0,10.9,0.8,13.8,2.3v8.5
					c-3.8-2.6-8.7-3.9-14.6-3.9c-1.6,0-3.3,0.2-4.9,0.5c-1.6,0.3-3.1,0.9-4.4,1.7c-1.3,0.8-2.3,1.8-3.1,3s-1.2,2.7-1.2,4.5
					c0,1.6,0.3,3.1,0.9,4.3c0.6,1.2,1.5,2.3,2.7,3.3c1.2,1,2.6,1.9,4.4,2.9c1.7,0.9,3.7,1.9,5.9,3c2.3,1.1,4.5,2.3,6.5,3.6
					c2.1,1.3,3.9,2.6,5.4,4.2c1.6,1.5,2.8,3.2,3.7,5.1c0.9,1.9,1.4,4,1.4,6.4c0,3.2-0.6,5.8-1.9,8c-1.2,2.2-2.9,4-5,5.4
					c-2.1,1.4-4.5,2.4-7.3,3c-2.7,0.6-5.6,0.9-8.7,0.9c-1,0-2.3-0.1-3.8-0.2c-1.5-0.2-3-0.4-4.6-0.7c-1.6-0.3-3-0.7-4.4-1.2
					C316.6,485.1,315.5,484.6,314.7,484z"/>
				<path class="st0" d="M386.7,486.1c-1.7,1-4,1.4-6.9,1.4c-8,0-12-4.5-12-13.4V447h-7.9v-6.3h7.9v-11.2l7.3-2.4v13.6h11.6v6.3
					h-11.6v25.8c0,3.1,0.5,5.3,1.6,6.6c1,1.3,2.8,2,5.2,2c1.9,0,3.4-0.5,4.8-1.5V486.1z"/>
				<path class="st0" d="M415.7,487.7c-6.8,0-12.2-2.1-16.2-6.4c-4-4.3-6.1-10-6.1-17c0-7.7,2.1-13.7,6.3-18s9.9-6.5,17.1-6.5
					c6.8,0,12.2,2.1,16,6.3c3.8,4.2,5.8,10,5.8,17.5c0,7.3-2.1,13.2-6.2,17.6C428.2,485.5,422.6,487.7,415.7,487.7z M416.2,445.8
					c-4.7,0-8.5,1.6-11.2,4.8c-2.7,3.2-4.1,7.6-4.1,13.3c0,5.4,1.4,9.7,4.2,12.9c2.8,3.1,6.5,4.7,11.2,4.7c4.7,0,8.4-1.5,11-4.6
					c2.6-3.1,3.8-7.4,3.8-13.1c0-5.7-1.3-10.2-3.8-13.3C424.6,447.4,421,445.8,416.2,445.8z"/>
				<path class="st0" d="M474.2,448.2c-1.3-1-3.1-1.5-5.6-1.5c-3.1,0-5.8,1.5-7.9,4.4c-2.1,3-3.2,7-3.2,12.1v23.4h-7.3v-45.9h7.3
					v9.4h0.2c1-3.2,2.6-5.7,4.8-7.5c2.1-1.8,4.6-2.7,7.2-2.7c1.9,0,3.4,0.2,4.4,0.6V448.2z"/>
				<path class="st0" d="M519,465.5h-32.4c0.1,5.1,1.5,9,4.1,11.8c2.6,2.8,6.2,4.2,10.8,4.2c5.2,0,9.9-1.7,14.2-5.1v6.9
					c-4,2.9-9.4,4.4-16,4.4c-6.5,0-11.6-2.1-15.3-6.2s-5.6-10-5.6-17.6c0-7.1,2-13,6.1-17.4c4-4.5,9.1-6.7,15.1-6.7
					s10.6,1.9,13.9,5.8c3.3,3.9,4.9,9.3,4.9,16.2V465.5z M511.5,459.3c0-4.2-1.1-7.5-3.1-9.9s-4.8-3.5-8.4-3.5
					c-3.5,0-6.4,1.2-8.8,3.7c-2.4,2.5-3.9,5.7-4.5,9.7H511.5z"/>
			</g>
		</g>
	</g>
</g>
</svg>
