<?xml version="1.0" encoding="utf-8"?>
<!-- Generator: Adobe Illustrator 22.0.1, SVG Export Plug-In . SVG Version: 6.00 Build 0)  -->
<svg version="1.1" xmlns="http://www.w3.org/2000/svg" xmlns:xlink="http://www.w3.org/1999/xlink" x="0px" y="0px"
	 viewBox="0 0 890.6 638.7" style="enable-background:new 0 0 890.6 638.7;" xml:space="preserve">
<style type="text/css">
	.st0{fill:#3C819E;}
	.st1{fill:#FFFFFF;}
	.st2{fill:#BBF9BC;}
	.st3{fill:#6A79A6;}
	.st4{fill:#3A3571;}
	.st5{fill:#FFF0A9;}
	.st6{fill:#FFC261;}
</style>
<g id="Ñëîé_1">
</g>
<g id="Ñëîé_2">
	<g>
		<path class="st0" d="M141.5,627.1c-10.2-2.1-14-4.5-9.2-7.4c33.6-20,186.6-19.3,260.7-19.2c93.3,0.1,230.4-11.7,314.5-6.8
			c35.2,2.1,74.9,15.4,88.7,22.1c36.2,17.8-218,22.5-259.1,22.8C468.5,638.9,200,639,141.5,627.1z"/>
		<g>
			<path class="st1" d="M536.5,586.8c-82.2,26.4-166.5,39.3-252.8,38.2c2.4-40.1,4-80.2,4.8-120.3c77,6.9,152.8,0.7,227.8-17.9
				C523.7,520,530.4,553.3,536.5,586.8z"/>
			<g>
				<path class="st0" d="M536.8,584.9c-27.7,9-56.1,16.8-84.5,22.7c-44.7,9.2-90.6,14.2-136.5,15.4c-10.4,0.3-21,0.2-31.4,0
					c0.7,0.5,1.4,0.9,2.1,1.4c2-35.1,3.4-70.3,4.2-105.5c0.1-4.9,0.2-9.8,0.3-14.6c-1,0.8-2,1.6-3,2.4c25.5,2.3,51.2,3.5,76.6,3
					c41.2-0.9,82.7-6,123.3-14.4c9.4-2,18.9-4.2,28.3-6.7c-0.7-0.2-1.5-0.4-2.2-0.6c6.4,29.1,12.3,58.4,17.7,87.7
					c0.8,4.2,1.5,8.4,2.3,12.6c0.4,2.3,5.6-1,5.2-3c-5.4-29.3-11.3-58.6-17.7-87.7c-0.9-4-1.8-8-2.7-12c-0.2-0.9-1.4-0.8-2.2-0.6
					c-25.3,6.4-51.2,11.7-76.9,15.1c-40.3,5.4-81.7,6.9-122.6,4.8c-9.3-0.5-18.6-1.3-27.9-2.2c-1.3-0.1-3,0.9-3,2.4
					c-0.8,35.1-2.2,70.4-4.2,105.5c-0.3,5-0.6,10-0.9,15.1c-0.1,1.1,1.2,1.4,2.1,1.4c28.6,0.5,57.5-0.4,85.9-3.1
					c45.9-4.3,91.7-13.2,136.4-25.7c10.4-2.9,20.8-6.1,31-9.5C538.9,587.9,540.5,583.7,536.8,584.9z"/>
			</g>
		</g>
		<path class="st2" d="M527.1,582.6c-76.5,23.3-154.5,34.9-234.5,34.4c1.7-34.6,2.8-69.2,3.3-103.8c72.4,5.2,143.7-1,214.2-18
			C516.3,524.3,521.9,553.4,527.1,582.6z"/>
		<g>
			<path class="st1" d="M517.7,578.3C446.9,598.7,375,609,301.3,609.1c1.1-29.1,1.8-58.2,2.1-87.4c67.8,3.7,134.4-2.4,200.4-17.9
				C508.8,528.6,513.4,553.4,517.7,578.3z"/>
			<g>
				<path class="st3" d="M519.5,576.5c-41,12.1-83.2,21.1-125.4,26.1c-24.4,2.9-49.4,4.5-74.1,5c-3.5,0.1-7.1,0.1-10.6,0.1
					c-1.6,0-3.9,0.4-5.4,0c-1-0.3-0.1,0.3-0.1,0.4c-0.3-0.5,0.1-1.9,0.1-2.4c0.2-4.3,0.3-8.7,0.4-13c0.7-23.9,1.2-47.8,1.3-71.8
					c-1.4,0.7-2.9,1.3-4.3,2c39,2.2,78.2,1.6,116.7-2.7c22.9-2.6,46-6.5,68.7-11.3c3.3-0.7,6.6-1.5,9.8-2.2c1.4-0.3,3.5-1.2,5-1.2
					c0.9,0,0-0.3,0-0.3c0.3,0.3,0.3,1.6,0.4,2c0.7,3.6,1.4,7.2,2.1,10.9c3.9,20.5,7.6,41.2,11.1,61.8c0.2,1,5-2.1,4.9-3.2
					c-4.3-24.8-9-49.6-14-74.3c-0.1-0.3-0.2-0.3-0.6-0.2c-22.3,5.4-45.1,9.9-67.8,13.1c-35.4,5-71.7,6.9-107.6,6.3
					c-8.2-0.2-16.6-0.6-24.8-1.1c-0.9-0.1-4.3,0.8-4.3,2c-0.4,29.2-1.2,58.4-2.4,87.5c0,0.3,0.1,0.4,0.5,0.4
					c24.5,0.1,49.2-0.8,73.5-3c39-3.6,78.2-10.5,116.3-20c8.9-2.2,17.9-4.7,26.8-7.4C517.1,579.7,520.9,576.1,519.5,576.5z"/>
			</g>
		</g>
		<g>
			<path class="st2" d="M438.3,556.5c-1.4-16.3-19.2-25.2-33.7-24.3c-16.3,0.9-29,15.8-28.9,31.6c0,17.1,17.9,27.9,33.4,26.1
				C424.8,588,439.7,572.9,438.3,556.5z"/>
			<g>
				<path class="st3" d="M440.7,555.3c-2-13.6-13.9-23.3-27.3-24.6c-12.5-1.2-25.3,4.1-33.2,13.7c-8.5,10.3-9.6,26.1-1.2,36.4
					c8.5,10.5,25,13.6,37.7,8.1C429.4,583.4,442.2,570.3,440.7,555.3c-0.1-1.1-4.9,1.2-4.8,2.5c1.2,16.1-13.8,30.9-29.6,30.8
					c-14,0-27.5-12.5-28.1-25.8c-0.7-14.8,12.8-30.5,29.2-29.2c13,1,26.9,10.3,28.6,24.2C436,558.9,440.9,556.5,440.7,555.3z"/>
			</g>
		</g>
		<g>
			<path class="st2" d="M487.1,546.8c-1.1-6.7-8.1-10.7-15.8-9.1c-7.6,1.6-13.1,8.2-12.2,15.1c0.9,6.9,7.9,11.2,15.8,9.4
				C482.7,560.5,488.2,553.5,487.1,546.8z"/>
			<g>
				<path class="st3" d="M489.5,545.2c-4.1-18-34.3-7-32.7,9c1.9,19.4,33.9,6.8,32.7-8.8c-0.1-1-4.9,1.5-4.7,2.8
					c0.7,7.1-5,13.9-13.7,12.5c-5.2-0.8-8.9-4.7-9.5-9.4c-0.9-7.1,5.3-13.5,13.5-12.1c5.4,0.9,8.7,4.6,9.7,9.2
					C484.9,549,489.8,546.6,489.5,545.2z"/>
			</g>
		</g>
		<g>
			<path class="st2" d="M354.7,564.2c-0.2-7.4-6.6-13.2-14.2-13.1c-7.6,0.1-13.8,6.1-13.8,13.7c0,7.6,6.3,13.7,14.2,13.5
				C348.7,578,354.9,571.6,354.7,564.2z"/>
			<g>
				<path class="st3" d="M357.3,563.5c-1.9-19.5-32.9-16.6-33.3,2c-0.2,8.6,8,15.5,17,14.8C350.4,579.4,357.1,572.1,357.3,563.5
					c0.1-2.5-5.2-0.8-5.2,1.5c-0.4,15.1-22.4,12.4-22.8-0.9c-0.2-6.4,5.6-11.6,12.3-10.9c6.2,0.7,10.1,6.1,10.5,11.7
					C352.3,567.6,357.6,565.7,357.3,563.5z"/>
			</g>
		</g>
		<g>
			<path class="st3" d="M406.6,544.2c0.1,0.8,0.1,1.2,0.2,1.9c1.4,0,2.6,0.1,3.6,0.4c1,0.3,1.9,0.8,2.7,1.5c0.6,0.5,1.1,1.1,1.5,1.7
				c0.4,0.6,0.6,1.2,0.6,1.7c0.1,0.6-0.1,1.1-0.6,1.6c-0.4,0.5-1,0.8-1.7,0.9c-1.3,0.2-2.2-0.4-2.6-1.6c-0.6-1.4-1.7-2.3-3.3-2.6
				c0.2,3,0.4,4.5,0.6,7.5c1.6,0.2,3,0.4,4,0.7c1,0.2,1.9,0.6,2.7,1.1c0.9,0.6,1.6,1.3,2.1,2.1c0.5,0.9,0.8,1.8,0.9,2.9
				c0.1,1.4-0.1,2.7-0.7,4c-0.6,1.3-1.6,2.4-2.9,3.3c-1.3,0.9-2.9,1.6-4.8,2c0.1,1.8,0.2,2.7,0.3,4.5c0.1,0.7,0,1.2-0.1,1.6
				c-0.1,0.3-0.5,0.6-1,0.6c-0.5,0.1-0.8,0-1-0.3c-0.2-0.2-0.3-0.6-0.4-1.2c-0.1-2-0.2-2.9-0.3-4.9c-1.6,0-2.9-0.1-4.1-0.5
				c-1.2-0.4-2.2-0.9-3-1.6s-1.4-1.4-1.9-2.2c-0.4-0.8-0.7-1.6-0.7-2.4c0-0.6,0.2-1.1,0.6-1.7c0.5-0.5,1.1-0.8,1.8-0.9
				c0.6-0.1,1.1,0,1.5,0.2c0.4,0.2,0.7,0.5,0.9,1c0.4,1,0.8,1.7,1.1,2.2c0.3,0.5,0.7,0.9,1.3,1.3c0.6,0.4,1.3,0.6,2.2,0.7
				c-0.2-3.4-0.4-5.1-0.6-8.4c-1.8-0.2-3.3-0.6-4.5-1c-1.2-0.4-2.2-1.1-3-2.1c-0.8-0.9-1.3-2.2-1.4-3.8c-0.1-2.1,0.4-3.9,1.8-5.3
				c1.3-1.5,3.3-2.4,5.9-2.9c-0.1-0.8-0.1-1.1-0.2-1.9c-0.1-1,0.3-1.6,1.1-1.6C406.1,542.8,406.6,543.2,406.6,544.2z M405.2,556.8
				c-0.2-2.8-0.3-4.1-0.5-6.9c-1.1,0.4-1.9,0.9-2.5,1.5c-0.6,0.6-0.8,1.3-0.7,2.3c0.1,1,0.4,1.6,1,2.1
				C403.1,556.2,404,556.5,405.2,556.8z M408.1,561.9c0.2,3.2,0.4,4.7,0.6,7.9c1.3-0.4,2.3-1,3-1.9c0.7-0.8,1-1.7,0.9-2.7
				c-0.1-1-0.5-1.8-1.3-2.3C410.6,562.5,409.5,562.1,408.1,561.9z"/>
		</g>
		<g>
			<path class="st1" d="M385.6,573.9c-82.1,26.7-166.3,39.8-252.7,39c2.2-40.1,3.7-80.2,4.4-120.3c77,6.7,152.8,0.2,227.7-18.7
				C372.6,507.1,379.4,540.4,385.6,573.9z"/>
			<g>
				<path class="st0" d="M385.9,572c-27.7,9.1-56,17-84.4,22.9c-44.7,9.4-90.5,14.5-136.4,15.9c-10.4,0.3-21,0.3-31.4,0.1
					c0.7,0.5,1.4,0.9,2.1,1.4c1.9-35.2,3.2-70.4,3.9-105.5c0.1-4.9,0.2-9.8,0.2-14.6c-1,0.8-2,1.6-3,2.4c25.5,2.2,51.2,3.4,76.6,2.7
					c41.2-1,82.7-6.2,123.3-14.8c9.4-2,18.9-4.3,28.3-6.8c-0.7-0.2-1.5-0.4-2.2-0.6c6.5,29.1,12.5,58.3,18,87.6
					c0.8,4.2,1.5,8.4,2.3,12.6c0.4,2.3,5.6-1,5.2-3c-5.5-29.3-11.5-58.6-18-87.7c-0.9-4-1.8-8-2.8-12c-0.2-0.9-1.4-0.8-2.2-0.6
					c-25.3,6.5-51.2,11.8-76.9,15.4c-40.3,5.6-81.7,7.2-122.5,5.2c-9.3-0.4-18.6-1.2-27.9-2.1c-1.3-0.1-3,0.9-3,2.4
					c-0.7,35.1-2,70.4-3.9,105.5c-0.3,5-0.6,10-0.9,15.1c-0.1,1.1,1.2,1.4,2.1,1.4c28.6,0.4,57.5-0.6,85.9-3.4
					c45.9-4.5,91.7-13.5,136.3-26.1c10.4-2.9,20.7-6.2,31-9.6C388.1,574.9,389.6,570.8,385.9,572z"/>
			</g>
		</g>
		<path class="st2" d="M376.2,569.8c-76.4,23.5-154.4,35.4-234.4,35.2c1.6-34.6,2.6-69.2,3-103.8c72.5,5,143.7-1.4,214.2-18.7
			C365.2,511.5,370.9,540.6,376.2,569.8z"/>
		<g>
			<path class="st1" d="M366.7,565.4C296,586,224.1,596.6,150.5,596.9c1-29.1,1.6-58.3,1.8-87.4c67.8,3.5,134.3-2.8,200.4-18.5
				C357.7,515.7,362.4,540.5,366.7,565.4z"/>
			<g>
				<path class="st0" d="M368.6,563.6c-40.9,12.2-83.1,21.3-125.3,26.5c-24.4,3-49.4,4.7-74.1,5.3c-3.5,0.1-7.1,0.1-10.6,0.1
					c-1.6,0-3.9,0.4-5.4,0c-1-0.3-0.1,0.3-0.1,0.4c-0.3-0.5,0.1-1.9,0.1-2.4c0.1-4.3,0.3-8.7,0.4-13c0.7-23.9,1-47.9,1.1-71.8
					c-1.4,0.7-2.9,1.4-4.3,2c39,2.1,78.2,1.4,116.6-3c22.9-2.6,46-6.6,68.7-11.5c3.3-0.7,6.6-1.5,9.8-2.3c1.4-0.3,3.5-1.2,5-1.2
					c0.9,0,0-0.3,0-0.3c0.3,0.3,0.3,1.6,0.4,2c0.7,3.6,1.5,7.2,2.2,10.9c4,20.5,7.8,41.1,11.2,61.7c0.2,1,5-2.1,4.8-3.2
					c-4.4-24.8-9.1-49.6-14.2-74.2c-0.1-0.3-0.2-0.3-0.6-0.2c-22.3,5.5-45.1,10.1-67.7,13.3c-35.4,5.1-71.7,7.2-107.6,6.6
					c-8.3-0.1-16.6-0.5-24.8-1c-0.9-0.1-4.3,0.8-4.3,2c-0.3,29.2-1,58.4-2.1,87.6c0,0.3,0.1,0.4,0.5,0.4c24.5,0.1,49.2-0.9,73.5-3.2
					c39-3.7,78.2-10.7,116.3-20.4c8.9-2.3,17.9-4.8,26.7-7.5C366.2,566.9,370,563.2,368.6,563.6z"/>
			</g>
		</g>
		<g>
			<path class="st2" d="M287.3,543.9c-1.4-16.3-19.3-25.1-33.8-24.2c-16.3,1-28.9,15.9-28.8,31.7c0.1,17.1,18,27.9,33.5,26
				C273.9,575.4,288.8,560.2,287.3,543.9z"/>
			<g>
				<path class="st0" d="M289.7,542.6c-2-13.6-13.9-23.3-27.3-24.5c-12.5-1.1-25.3,4.2-33.2,13.8c-8.4,10.3-9.5,26.1-1.1,36.4
					c8.5,10.4,25.1,13.5,37.7,8C278.5,570.9,291.3,557.7,289.7,542.6c-0.1-1.1-4.9,1.2-4.8,2.5c1.3,16.1-13.7,30.9-29.5,30.9
					c-14,0-27.5-12.4-28.2-25.7c-0.8-14.8,12.7-30.6,29.1-29.3c13,1,27,10.2,28.6,24.1C285,546.3,289.9,543.8,289.7,542.6z"/>
			</g>
		</g>
		<g>
			<path class="st2" d="M336.1,534c-1.1-6.7-8.2-10.6-15.8-9c-7.6,1.6-13.1,8.3-12.2,15.1c0.9,6.9,8,11.2,15.8,9.4
				C331.8,547.8,337.2,540.7,336.1,534z"/>
			<g>
				<path class="st3" d="M338.4,532.4c-4.1-18-34.3-6.9-32.7,9.1c2,19.4,33.9,6.7,32.7-8.9c-0.1-1-4.9,1.6-4.7,2.8
					c0.7,7.1-4.9,13.9-13.6,12.6c-5.2-0.8-8.9-4.7-9.5-9.3c-1-7.1,5.2-13.5,13.5-12.2c5.4,0.9,8.7,4.5,9.7,9.1
					C333.9,536.2,338.8,533.8,338.4,532.4z"/>
			</g>
		</g>
		<g>
			<path class="st2" d="M203.8,551.9c-0.2-7.4-6.6-13.2-14.3-13.1c-7.6,0.1-13.8,6.2-13.8,13.7c0,7.6,6.4,13.7,14.2,13.4
				C197.8,565.7,204,559.3,203.8,551.9z"/>
			<g>
				<path class="st4" d="M206.4,551.1c-2-19.5-32.9-16.5-33.3,2.1c-0.2,8.6,8.1,15.5,17,14.7C199.4,567.1,206.2,559.7,206.4,551.1
					c0.1-2.5-5.2-0.8-5.2,1.5c-0.4,15.1-22.3,12.5-22.8-0.8c-0.2-6.4,5.6-11.6,12.2-10.9c6.2,0.7,10.1,6.1,10.6,11.7
					C201.4,555.3,206.6,553.4,206.4,551.1z"/>
			</g>
		</g>
		
			<ellipse transform="matrix(0.9799 -0.1994 0.1994 0.9799 -113.5795 73.3259)" class="st5" cx="307.3" cy="600.6" rx="46.4" ry="28.5"/>
		<g>
			<path class="st6" d="M350.4,592c2.5,14.5-11.5,25.4-23.1,30.7c-15,6.7-34.5,8.8-49.7,1.6c-11.9-5.7-17.5-18-10-29.8
				c8.7-13.7,26.7-20.2,42-21.6C324.1,571.6,346.4,575,350.4,592c0.4,1.7,5.2,0.4,4.8-1.3c-3.8-16.1-23.7-20.9-38-20.9
				c-18,0-38.5,6.2-50.8,20.1c-9.7,11-9.8,25.8,3.1,34.3c15.4,10.2,37.3,8.6,53.9,2.8c14.7-5.1,35-17.9,31.8-36.2
				C354.9,589.1,350,590.2,350.4,592z"/>
		</g>
		<path class="st6" d="M341.2,593.9c2.7,16.2-18,25.8-30.7,28c-12,2.1-34,0.8-37.1-14.6c-3.1-15.1,16.3-24.8,28.1-27.5
			C314.3,576.9,337.3,577.7,341.2,593.9c0.4,1.6,5.2,0.4,4.8-1.3c-3.2-13.1-19.3-16.8-30.9-16.8c-14.3,0.1-30.3,4.9-40.3,15.6
			c-8.3,8.9-8.9,21.3,2,28.3c12.5,8.1,30,6.8,43.5,2.1c11.9-4.1,28.3-14.4,25.8-29.2C345.8,591,340.9,592.1,341.2,593.9z"/>
		<g>
			<path class="st1" d="M410.3,426.3c-76.1,40.8-156.6,68.7-241.7,83.2c-4.9-39.9-10.6-79.6-17-119.2c77-7.1,150.4-26.9,220.8-58.8
				C385.7,362.9,398.3,394.5,410.3,426.3z"/>
			<g>
				<path class="st0" d="M410.3,424.3c-25.6,13.9-52.1,26.6-79,37.5c-42.3,17.2-86.5,30.4-131.4,39.8c-10.2,2.2-20.6,4-30.9,5.7
					c0.8,0.3,1.5,0.7,2.3,1c-4.4-34.9-9.3-69.8-14.9-104.5c-0.8-4.8-1.6-9.6-2.4-14.4c-0.8,1-1.7,1.9-2.6,2.9
					c25.5-2.4,51-5.8,75.9-10.9c40.4-8.3,80.3-20.8,118.7-36.4c8.9-3.6,17.9-7.6,26.6-11.7c-0.7-0.1-1.5-0.1-2.2-0.2
					c11.6,27.5,22.7,55.2,33.2,83c1.5,4,3,8,4.5,12c0.8,2.2,5.3-1.9,4.6-3.9c-10.6-27.9-21.7-55.6-33.3-83.1
					c-1.6-3.8-3.2-7.6-4.9-11.4c-0.4-0.8-1.5-0.5-2.2-0.2c-23.7,10.9-48.3,20.7-72.9,28.8c-38.7,12.6-79.1,21.6-119.7,26.9
					c-9.2,1.2-18.6,2.1-27.8,2.9c-1.3,0.1-2.8,1.4-2.6,2.9c5.6,34.7,10.5,69.6,14.9,104.5c0.6,5,1.2,10,1.8,15
					c0.1,1.1,1.4,1.2,2.3,1c28.2-4.7,56.5-10.8,83.9-18.6c44.4-12.6,87.8-29.6,129.5-49.9c9.7-4.7,19.3-9.8,28.8-15
					C412.9,426.9,413.7,422.5,410.3,424.3z"/>
			</g>
		</g>
		<path class="st2" d="M400.3,423.9c-71,36.7-145.7,62.2-224.4,76.2c-4.6-34.3-9.7-68.5-15.5-102.7c72.2-8,141.1-26.9,207.5-56.4
			C379.1,368.5,389.9,396.1,400.3,423.9z"/>
		<g>
			<path class="st1" d="M390.2,421.3c-65.9,32.8-134.8,56-207.2,69.4c-4.2-28.8-8.7-57.6-13.7-86.3c67.3-8.6,131.7-26.6,193.9-53.8
				C372.6,374,381.6,397.6,390.2,421.3z"/>
			<g>
				<path class="st0" d="M391.7,419.2c-38.1,19.3-78,35.7-118.6,48.3c-23.5,7.3-47.8,13.4-72,18.3c-3.5,0.7-7,1.4-10.4,2
					c-1.5,0.3-3.7,1.1-5.3,1c-1-0.1,0,0.3,0,0.4c-0.3-0.4-0.3-1.9-0.3-2.4c-0.6-4.3-1.3-8.6-1.9-12.8c-3.6-23.6-7.5-47.3-11.6-70.8
					c-1.3,0.9-2.6,1.8-3.9,2.8c38.8-4.9,77.2-12.5,114.3-23.7c22.1-6.7,44.1-14.7,65.5-23.5c3.1-1.3,6.2-2.6,9.3-4
					c1.4-0.6,3.2-1.8,4.7-2.1c0.9-0.2,0-0.3-0.1-0.3c0.4,0.3,0.6,1.5,0.8,1.9c1.4,3.4,2.7,6.9,4,10.3c7.6,19.5,14.9,39.1,22,58.8
					c0.3,0.9,4.6-2.9,4.2-4c-8.7-23.6-17.8-47.2-27.1-70.5c-0.1-0.3-0.3-0.3-0.6-0.1c-21,9.3-42.6,17.9-64.3,25.1
					c-33.9,11.3-69.3,19.8-104.7,25.6c-8.1,1.3-16.4,2.4-24.6,3.4c-0.9,0.1-4.1,1.5-3.9,2.7c4.9,28.8,9.4,57.6,13.5,86.5
					c0,0.3,0.2,0.4,0.6,0.3c24.1-4.3,48.3-9.6,71.8-16.2c37.7-10.5,75-24.4,110.8-40.7c8.4-3.8,16.7-7.9,25-12.1
					C389.9,422.8,393,418.5,391.7,419.2z"/>
			</g>
		</g>
		<g>
			<path class="st2" d="M308.3,414.2c-4.3-15.7-23.4-21.3-37.6-17.8c-15.9,3.9-25.6,20.8-22.8,36.3c3.1,16.8,22.7,24.2,37.6,19.6
				C300.7,447.6,312.6,430,308.3,414.2z"/>
			<g>
				<path class="st0" d="M310.4,412.6c-4.4-13-17.8-20.4-31.3-19.2c-12.5,1.1-24.2,8.6-30.2,19.5c-6.5,11.6-4.7,27.4,5.4,36.1
					c10.2,8.8,27.1,8.9,38.6,1.2C304.4,442.3,314.6,427.1,310.4,412.6c-0.3-1.1-4.6,2.1-4.3,3.3c4.1,15.6-8,32.9-23.6,35.7
					c-13.8,2.5-29.3-7.3-32.3-20.3c-3.4-14.4,7-32.3,23.4-34c12.9-1.3,28.4,5.3,32.5,18.7C306.4,417,310.8,413.7,310.4,412.6z"/>
			</g>
		</g>
		<g>
			<path class="st2" d="M354.5,395.8c-2.3-6.4-9.9-9-17.2-6.1c-7.2,2.9-11.4,10.5-9.3,17c2.1,6.6,9.8,9.6,17.2,6.4
				C352.7,410.1,356.8,402.2,354.5,395.8z"/>
			<g>
				<path class="st0" d="M356.5,393.8c-7.3-17-35-0.7-30.5,14.8c5.4,18.7,34.6,0.6,30.6-14.6c-0.3-1-4.5,2.4-4.2,3.6
					c1.9,6.8-2.4,14.6-11.2,14.8c-5.3,0.1-9.6-3-11-7.5c-2.2-6.8,2.8-14.3,11.1-14.4c5.4-0.1,9.3,2.9,11.2,7.3
					C352.8,398.4,357.1,395.2,356.5,393.8z"/>
			</g>
		</g>
		<g>
			<path class="st2" d="M227.4,436.9c-1.5-7.3-8.9-11.8-16.4-10.3c-7.5,1.5-12.5,8.5-11.1,15.9c1.4,7.4,8.7,12.3,16.3,10.7
				C224,451.5,229,444.1,227.4,436.9z"/>
			<g>
				<path class="st3" d="M229.9,435.7c-5.4-18.9-35.3-10.4-32.4,8c1.4,8.5,10.7,13.8,19.4,11.4C225.9,452.6,231.2,444.2,229.9,435.7
					c-0.4-2.5-5.2,0.2-4.9,2.4c2.3,15-19.7,16.3-22.6,3.3c-1.4-6.3,3.4-12.5,10.1-12.9c6.2-0.4,11,4.2,12.5,9.6
					C225.7,440.6,230.5,437.9,229.9,435.7z"/>
			</g>
		</g>
		
			<ellipse transform="matrix(0.8248 -0.5655 0.5655 0.8248 -125.8294 447.3335)" class="st5" cx="658.8" cy="426.7" rx="46.4" ry="30.9"/>
		<g>
			<path class="st6" d="M623,452.3c-7.2-11-3-24.7,3.8-34.8c10.2-14.9,28.7-27,47.2-26.4c13.5,0.5,24.8,9.5,24.5,23.6
				c-0.4,15.1-11.6,28.6-23.4,36.9C660.9,461.7,635.3,469.3,623,452.3c-0.9-1.2-5.2,0.8-4.8,1.3c10.1,13.8,30,12.1,44.2,6.8
				c16.9-6.2,33.3-19.5,39.1-37c5.1-15.2-1.7-30.3-18.1-33.6c-17.3-3.5-36.1,4.5-49.3,15.3c-13.1,10.8-26.8,31.7-16,48.4
				C618.9,454.8,623.4,452.9,623,452.3z"/>
		</g>
		<path class="st6" d="M630.5,446.6c-8.4-13.1,3-29.4,13.4-37.4c10.9-8.4,33.4-17,43.3-2.4c8.4,12.3-2.6,28.5-12.1,36.4
			C663.9,452.4,641.3,461.3,630.5,446.6c-1.2-1.6-5.8,0.2-4.4,2.1c8.2,11.1,24.3,10.2,35.9,5.8c13.8-5.2,27.2-16.4,31.7-30.8
			c3.9-12.4-2.1-24.3-15-27.2c-14.7-3.2-30.5,3.9-41.3,13.5c-10.2,9.1-19.7,25.4-11.2,38.6C627.1,450.4,631.8,448.6,630.5,446.6z"/>
		
			<ellipse transform="matrix(0.7263 -0.6874 0.6874 0.7263 -102.5658 644.6119)" class="st5" cx="758.2" cy="451.1" rx="27.9" ry="46.4"/>
		<g>
			<path class="st6" d="M728.2,417.8c11.5-10.2,30.2,0,40,7.8c12.1,9.6,22.8,23.9,25,39.6c0.8,5.8,0.3,12.4-3.4,17.3
				c-4.2,5.6-11.1,6.7-17.6,5.7c-15.8-2.5-29.9-14.4-38.9-27.1C725.5,449.9,716.6,429.5,728.2,417.8c2-2-2.7-2.1-3.9-0.9
				c-11.7,11.7-5.3,30.6,2.3,42.6c9.7,15.4,26.8,30,45.6,31.6c13.5,1.2,25.5-6.7,26.1-20.9c0.8-18.9-13.1-37.3-27.5-48
				c-12.6-9.4-33-17.3-46.5-5.3C722.3,418.8,727,418.9,728.2,417.8z"/>
		</g>
		<path class="st6" d="M734.3,425.2c11.9-10.4,31,4,39,12.9c7.6,8.5,19.6,28.5,8.5,39c-5.1,4.8-12.9,3.4-18.8,1.2
			c-7.9-3-14.9-8.5-20.5-14.8c-7.9-9-18.5-27.8-7.8-38.6c2.1-2.1-2.6-2.8-4-1.3c-9.3,9.4-4.4,24.5,1.6,34.3
			c7.7,12.5,21.4,24.3,36.5,25.9c11,1.2,21.1-5,21.9-16.6c1-14.9-9.6-29.4-20.6-38.2c-10.1-8.1-27.6-15.7-39-5.7
			C728.7,425.3,732.5,426.8,734.3,425.2z"/>
		
			<ellipse transform="matrix(0.9968 -7.969677e-02 7.969677e-02 0.9968 -44.3367 57.3301)" class="st5" cx="696" cy="584.1" rx="46.4" ry="27.9"/>
		<g>
			<path class="st6" d="M652.2,587.2c-0.7-15,15.9-23.8,28.2-27.2c15.5-4.2,34.9-3.8,48.7,5.3c10.7,7,14.4,19.4,5.7,29.6
				c-10.8,12.8-30.5,16.7-46.4,15.7C674.5,609.7,654,603.7,652.2,587.2c-0.2-1.7-5-0.6-4.8,1.3c1.8,16.3,21.3,23,35.2,24.6
				c18,2.1,39.3-1.8,53.1-14.3c10.7-9.6,12.2-24.1,0.5-33.6c-14.1-11.5-35.6-12.4-52.6-8.7c-15.2,3.3-37.2,13.4-36.2,32
				C647.4,590.1,652.3,589.1,652.2,587.2z"/>
		</g>
		<path class="st6" d="M661.5,586.9c-0.7-15.8,20.1-22.3,32.5-23.2c11.9-1,35.2,2.2,36.5,18c1.3,15.9-21.5,22.3-33.3,23.1
			c-12.4,0.8-33.9-2.6-35.7-18.2c-0.3-2.1-5.1-1-4.8,1.3c1.5,13.1,16.8,18.6,28.1,20.1c14.6,1.9,32-1.2,43.2-11.4
			c8.5-7.7,10.2-19.2,1.1-27.3c-10.9-9.6-28.3-10.6-41.9-7.9c-12.5,2.4-31.2,10.7-30.6,26.1C656.7,589.7,661.6,588.9,661.5,586.9z"
			/>
		
			<ellipse transform="matrix(0.164 -0.9865 0.9865 0.164 -45.0678 999.1652)" class="st5" cx="567" cy="526.2" rx="30.9" ry="46.4"/>
		<g>
			<path class="st6" d="M523.6,518.1c3.2-16.5,21.5-22.6,36.4-22.4c16,0.2,33.8,6.1,44.2,18.8c8.5,10.4,8.6,24.6-2.1,33.5
				c-14,11.7-36,10.2-52,3.9c-13.7-5.5-28.8-17.6-26.5-34c0.1-0.6-4.6-0.2-4.8,1.3c-2.5,17.6,14.8,30.2,29.4,35.4
				c16.7,5.9,37.2,5.9,52.9-3.1c13.5-7.8,18.8-23.1,9.3-36.4c-10.8-15.2-31.7-21.6-49.6-21.3c-16.1,0.3-38.4,6.9-41.9,25.2
				C518.6,520.1,523.4,519.3,523.6,518.1z"/>
		</g>
		<path class="st6" d="M532.9,519.9c3.4-17,26.3-19,40-15.9c12.5,2.8,30.9,12.9,28.3,28.5c-2.9,17.1-26.8,18.9-40,15.9
			C548.1,545.4,530.8,535.5,532.9,519.9c0.3-2.3-4.6-1.6-4.9,0.4c-1.8,13.8,10.5,23.9,22,28.5c13.8,5.6,31.3,6.1,44.4-1.6
			c10.7-6.3,15.2-18.4,8.3-29.3c-8.2-13-25.8-18.6-40.4-18.5c-13.6,0.1-31.3,5.7-34.3,20.9C527.5,522.5,532.5,521.9,532.9,519.9z"/>
		<g>
			<path class="st1" d="M568.6,620.9C538.8,551,502,485.3,458.2,423.4c33-23,66.5-45.2,100.5-66.6c44.8,74.7,80.8,153.3,107.8,236.1
				C633.6,601.3,601,610.7,568.6,620.9z"/>
			<g>
				<path class="st0" d="M570.5,620.8c-9.7-23.1-20.2-46.1-31.6-68.4c-18.5-36.4-39.5-71.9-62.2-106c-5.3-8-10.9-15.9-16.5-23.7
					c0,0.8,0,1.6,0,2.4c29-20,58.3-39.6,88.1-58.3c4.1-2.6,8.3-5.2,12.5-7.8c-1.4-0.5-2.8-1.1-4.1-1.6c15.4,25.5,30.1,51.5,43.4,78
					c20.8,41.2,38.9,84,54.5,127.6c3.5,9.8,6.9,19.8,10.1,29.8c0.1-0.8,0.3-1.5,0.4-2.3c-28.8,7.5-57.5,15.7-85.8,24.6
					c-4,1.3-8.1,2.6-12.1,3.9c-2.2,0.7,1.1,4.7,3,4.1c28.4-8.9,57-17.1,85.8-24.5c4-1,8-2,12-3c0.9-0.2,0.7-1.5,0.4-2.3
					c-8.8-27.4-18.6-54.7-29.4-81.2c-17.7-43.4-38.4-85.9-61.4-126.9c-5.4-9.6-11-19.2-16.8-28.6c-0.8-1.3-2.9-2.4-4.2-1.6
					c-29.8,18.8-59.2,38.3-88.1,58.4c-4.1,2.9-8.2,5.7-12.3,8.7c-0.9,0.6-0.4,1.7,0,2.4c15.1,21,29.6,42.7,43,64.8
					c20.9,34.3,39.8,70.3,56.6,106.9c3.8,8.3,7.5,16.7,11,25.1C567.7,623.1,571.8,623.9,570.5,620.8z"/>
			</g>
		</g>
		<path class="st2" d="M572.3,611.9c-28.1-65.7-62.4-127.9-102.9-186.8c28.7-19.4,57.7-38.3,87.2-56.6
			c41.2,69.2,74.8,141.8,100.8,218C628.8,594.4,600.5,602.8,572.3,611.9z"/>
		<g>
			<path class="st1" d="M576,602.8c-26.4-61.6-58.2-120-95.5-175.7c24.4-16,49-31.7,73.8-46.9c37.7,63.8,69,130.4,93.8,200.2
				C623.9,587.5,599.9,594.9,576,602.8z"/>
			<g>
				<path class="st0" d="M577.8,604.2c-14.9-35.4-31.8-70.4-50.5-103.8c-11.2-20.1-23.3-39.9-35.9-59.3c-1.8-2.8-3.7-5.6-5.5-8.4
					c-0.8-1.2-2.4-2.8-2.8-4.2c-0.3-0.9-0.3,0.1-0.3,0.2c0.2-0.5,1.6-1,2-1.3c3.6-2.4,7.2-4.7,10.9-7.1c20.1-13,40.5-25.7,60.9-38.1
					c-1.5-1-3-2-4.5-3c22.2,37.3,42.6,75.7,60.3,115.1c10.2,22.6,19.6,45.8,28.3,69.1c1.2,3.3,2.4,6.7,3.6,10
					c0.5,1.5,1.6,3.5,1.8,5.1c0.1,1,0.3,0,0.3,0c-0.3,0.4-1.5,0.4-2,0.6c-3.5,1-7.1,2.1-10.6,3.1c-19.9,6-39.9,12.3-59.6,19
					c-0.9,0.3,2.3,4.2,3.4,3.8c23.8-7.8,48-15.2,72.1-22c0.3-0.1,0.3-0.3,0.2-0.6c-8.1-23.2-16.9-46.4-26.5-68.9
					c-15.5-36.5-33.3-72.5-52.7-107.3c-4.6-8.2-9.3-16.4-14.1-24.5c-0.5-0.9-3.4-3.7-4.5-3c-24.9,15.3-49.5,31.1-73.8,47.2
					c-0.3,0.2-0.3,0.4-0.1,0.7c12.8,18.9,25.3,38.4,36.8,58c18,30.5,34.4,62.4,49.2,94.8c3.4,7.4,6.7,14.9,9.8,22.4
					C574.6,602.6,578.3,605.4,577.8,604.2z"/>
			</g>
		</g>
		<g>
			<path class="st2" d="M583.8,524.3c15.4-6.3,18.6-26.9,12.4-40.4c-6.5-14.2-25.8-24.8-40.8-16.1c-13.6,7.8-19.8,26.5-11.5,40.6
				C551.4,521.3,569.1,530.3,583.8,524.3z"/>
			<g>
				<path class="st0" d="M585.6,526.3c12.9-5.4,18.2-21.3,15.2-33.9c-3-12.7-13.1-24-25.7-28c-12.9-4.2-27.5,1.6-33.7,13.6
					c-6.2,12-3.2,27.1,5.8,36.8C556.1,524.7,572.2,531.6,585.6,526.3c1.1-0.4-2.5-4.4-3.7-3.9c-14.8,6.1-32-2.8-37.8-16.9
					c-5.4-13.2,1.4-29,13.2-35.7c14.9-8.5,34,2.4,38.6,17.4c3.9,12.7-0.7,29.5-14,35.2C580.8,522.8,584.5,526.7,585.6,526.3z"/>
			</g>
		</g>
		<g>
			<path class="st2" d="M603.3,569c6.4-2.2,9.2-9.8,6.2-17.1c-3-7.2-10.7-11.1-17.2-8.6c-6.4,2.5-9.1,10.2-6,17.1
				C589.4,567.4,597,571.2,603.3,569z"/>
			<g>
				<path class="st0" d="M605.2,571c17.1-7,1-35.4-14.8-29.6c-17.9,6.5-0.2,33.4,14.5,29.7c1-0.3-2.2-4.4-3.4-4.1
					c-6.8,1.9-14.2-2-14.5-10.5c-0.2-5.1,2.8-9.5,7.2-11.2c6.7-2.5,14.3,2.3,14.4,10.6c0.1,5.4-3,9.3-7.3,11.1
					C600.9,567.3,603.9,571.5,605.2,571z"/>
			</g>
		</g>
		<g>
			<path class="st2" d="M545.7,448.8c6.5-3.6,8.6-12.1,4.6-19.2c-4-7-12.7-9.6-19.2-5.7c-6.5,3.9-8.4,12.5-4.4,19.2
				C530.8,449.9,539.2,452.4,545.7,448.8z"/>
			<g>
				<path class="st3" d="M547.6,450.9c16.9-10.8-1.9-38.3-18.4-28.9c-7.5,4.3-9,14.9-4,22.3C530.3,452,539.8,454.5,547.6,450.9
					c2.3-1.1-1.7-5.1-3.8-4c-13.6,6.6-21.7-13.9-10.7-20.9c5.4-3.4,13.1-0.7,15.9,5.8c2.5,6-0.4,12.1-5.2,15.1
					C541.6,448.2,545.7,452.1,547.6,450.9z"/>
			</g>
		</g>
		<g>
			<path class="st3" d="M585.6,489.9c-0.7,0.3-1.1,0.5-1.8,0.8c0.5,1.3,0.8,2.6,0.9,3.6c0.1,1.1-0.1,2.1-0.5,3.2
				c-0.3,0.8-0.7,1.5-1.1,2c-0.4,0.6-0.9,0.9-1.4,1.2c-0.5,0.2-1.1,0.2-1.7,0c-0.6-0.3-1.1-0.7-1.4-1.3c-0.6-1.2-0.4-2.2,0.6-3.1
				c1.2-1,1.6-2.4,1.3-4.1c-2.7,1.3-4.1,1.9-6.8,3.1c0.4,1.6,0.6,3,0.7,4c0.1,1,0.1,2-0.2,2.9c-0.2,1-0.7,1.9-1.3,2.7
				c-0.6,0.8-1.5,1.4-2.4,1.8c-1.2,0.6-2.6,0.8-4,0.7c-1.4-0.1-2.7-0.6-4-1.5c-1.3-0.9-2.4-2.1-3.4-3.7c-1.6,0.8-2.4,1.2-4.1,1.9
				c-0.6,0.3-1.1,0.5-1.5,0.5c-0.4,0-0.7-0.2-0.9-0.7c-0.2-0.4-0.2-0.8-0.1-1c0.2-0.3,0.5-0.5,1-0.8c1.8-0.9,2.7-1.3,4.4-2.1
				c-0.6-1.4-0.9-2.7-0.9-4c-0.1-1.2,0.1-2.4,0.4-3.4c0.3-1,0.8-1.9,1.3-2.5c0.6-0.7,1.2-1.2,1.9-1.5c0.5-0.3,1.1-0.3,1.8,0
				c0.6,0.2,1.1,0.7,1.5,1.3c0.3,0.5,0.4,1,0.3,1.5c0,0.5-0.2,0.9-0.6,1.2c-0.7,0.7-1.3,1.3-1.6,1.8c-0.4,0.5-0.6,1-0.8,1.7
				c-0.2,0.7-0.1,1.4,0.1,2.3c3-1.4,4.6-2.2,7.6-3.6c-0.4-1.8-0.6-3.3-0.7-4.6c0-1.3,0.2-2.5,0.8-3.6c0.6-1.1,1.6-2,3-2.7
				c1.9-0.9,3.8-1,5.6-0.2c1.9,0.7,3.5,2.3,4.9,4.7c0.7-0.3,1-0.5,1.7-0.8c0.9-0.4,1.6-0.2,1.9,0.5
				C586.8,488.9,586.5,489.5,585.6,489.9z M573.2,492.8c2.5-1.2,3.8-1.8,6.3-2.9c-0.8-0.9-1.5-1.5-2.2-1.9c-0.7-0.4-1.5-0.3-2.5,0.1
				c-0.9,0.4-1.4,1-1.6,1.7C573.1,490.6,573.1,491.6,573.2,492.8z M569.5,497.3c-2.9,1.3-4.3,2-7.2,3.4c0.8,1.1,1.7,1.8,2.7,2.1
				c1,0.3,1.9,0.3,2.8-0.1c0.9-0.4,1.5-1.1,1.7-2C569.8,499.9,569.8,498.7,569.5,497.3z"/>
		</g>
		
			<ellipse transform="matrix(0.409 -0.9125 0.9125 0.409 -83.7142 1050.1047)" class="st5" cx="768.8" cy="589.7" rx="30.9" ry="46.4"/>
		<g>
			<path class="st6" d="M728.9,570.3c7.9-16.4,29.5-15.3,44.2-10.4c14.6,4.9,29.3,15.2,35.3,29.8c5.3,13,0.1,27-13.9,31.4
				c-16.7,5.2-36.6-2-49.8-12.3C733.5,600.1,722.7,585,728.9,570.3c0.3-0.8-4.2-0.4-4.8,0.8c-6.6,15.8,5.5,31.8,17.8,40.7
				c14.9,10.8,35.4,16.2,53.4,10.8c14.6-4.4,23.9-17.2,18.6-32.5c-6.1-17.4-24.4-29.1-41.6-33.5c-16.1-4.1-39.9-2.6-48.2,14.5
				C723.7,571.8,728.3,571.5,728.9,570.3z"/>
		</g>
		<path class="st6" d="M737.3,574.7c8.1-16.6,33-10.7,45.4-3.3c10.5,6.2,23.6,19.9,17.7,33.2c-7.2,16.4-32.1,10.8-44,4.1
			C745.2,602.5,731.5,588.8,737.3,574.7c1-2.5-3.8-2.3-4.6-0.4c-5,12.2,3,24.5,12.3,32c11.9,9.6,29.3,15,44.3,10.8
			c11.9-3.3,20-13.7,16.3-26.2c-4.3-14.2-18.9-24-32.5-28c-13.6-3.9-33.3-3.2-40.4,11.3C731.6,576.7,736.4,576.5,737.3,574.7z"/>
		
			<ellipse transform="matrix(0.8936 -0.4489 0.4489 0.8936 -132.8774 360.0381)" class="st5" cx="693" cy="460.3" rx="46.4" ry="28.5"/>
		<g>
			<path class="st6" d="M732,440.1c5.5,11.8-2.1,24.6-10.5,32.9c-12.4,12.3-31.7,21.1-49.4,18.7c-12.8-1.8-22.7-11.3-19.5-24.8
				c3.4-14.6,17-25.6,29.8-31.9C696.6,428.1,722.7,422.8,732,440.1c0.8,1.4,5.4-0.3,4.8-1.3c-8-14.7-28.6-14-42.5-10.4
				c-17.3,4.5-35.2,15.4-43.7,31.7c-6.8,13.1-2.9,27.5,11.7,32.3c17.2,5.6,37.6-1,52.2-10.4c13-8.4,30.2-26.1,22.3-43.2
				C736.2,437.4,731.5,439,732,440.1z"/>
		</g>
		<path class="st6" d="M723.7,444.3c5.8,12.6-5.9,25.7-15.6,32.3c-11.3,7.7-37.5,16.3-45.9-0.3c-6.2-12.3,6.2-25.9,15.6-32.3
			C689.6,436,714.7,428,723.7,444.3c0.6,1.1,5.2-0.6,4.8-1.3c-6.6-11.9-23.3-11-34.6-8c-13.7,3.6-27.9,12-34.9,24.7
			c-5.8,10.6-2.9,22.5,9.3,26.4c13.8,4.4,30.5-1.1,42.2-8.6c10.5-6.7,24.3-20.8,18-34.5C728,441.9,723.3,443.5,723.7,444.3z"/>
		
			<ellipse transform="matrix(8.642548e-02 -0.9963 0.9963 8.642548e-02 -21.1049 1172.8806)" class="st5" cx="629" cy="597.9" rx="26" ry="46.4"/>
		<g>
			<path class="st6" d="M640.6,622.4c-15.7,1.1-33.7-1.9-46.3-12c-9.8-7.8-12.7-20.3-1.9-28.7c12.8-10,32.7-10.1,47.8-6.7
				c12,2.6,29.2,9.3,32.3,22.9C676.4,615,652.8,621.3,640.6,622.4c-2.4,0.2-4,3.2-0.6,2.8c13.2-1.2,33.9-6.3,37.4-21.6
				c3.4-15-14.4-25.1-26-29.1c-17.6-6-39.7-6.5-56.6,2.1c-11.5,5.9-19.2,17.7-10.8,29.6c11.6,16.5,37.4,20.2,56,18.9
				C642.4,625.1,643.9,622.2,640.6,622.4z"/>
		</g>
		<path class="st6" d="M638.2,616.9c-13.7,0.9-34.1-1.9-41.9-15.1c-8.6-14.6,12.7-21.9,23.4-22.7c13.6-1.1,34.2,2.1,41.9,15.1
			C670.3,608.9,648.8,615.9,638.2,616.9c-2.7,0.3-3.7,3.8-0.4,3.5c10.7-1,26.8-4.9,30.1-17.1c3.5-12.5-10.9-21.1-20.7-24.5
			c-14.1-4.9-32-5.4-45.6,1.5c-9.4,4.8-15.9,14.6-9.1,24.5c9.3,13.5,30.3,16.6,45.3,15.6C640.5,620.2,641.5,616.7,638.2,616.9z"/>
		<g>
			<g>
				<path class="st1" d="M523,618.6c-76,6.4-150.8,0.1-224.5-19.7c14.6-27.2,28.4-54.8,41.3-82.9c69.4,18.6,139.7,24.1,211.3,17.3
					C542.5,562,533.1,590.4,523,618.6z"/>
				<g>
					<g>
						<path class="st0" d="M524.7,616.8c-25.7,2.4-51.8,3.4-77.4,2.7c-40.2-1.1-80.7-6.4-120.1-15.2c-9-2-17.9-4.3-26.8-6.8
							c0.2,0.4,0.4,0.8,0.6,1.3c12.8-24,25.1-48.3,36.5-72.9c1.6-3.3,3.1-6.7,4.6-10c-1.3,0.5-2.6,0.9-3.9,1.4
							c22.9,6.2,46.2,11.4,69.5,14.9c37.8,5.6,76.7,7,115,5c8.9-0.5,17.9-1.3,26.9-2.2c-0.3-0.3-0.6-0.5-0.9-0.8
							c-7.5,25-15.6,49.9-24.3,74.5c-1.3,3.6-2.6,7.2-3.9,10.8c-0.8,2.2,4.5-0.2,5.1-1.9c8.9-24.8,17.2-49.9,24.8-75
							c1-3.4,2-6.8,3-10.2c0.1-0.5-0.3-0.9-0.9-0.8c-24.1,2.5-48.7,3.8-72.8,3.3c-37.8-0.7-75.9-5.5-113-13.8
							c-8.4-1.9-16.9-4.1-25.2-6.4c-1.4-0.4-3.3,0.2-3.9,1.4c-11.3,24.4-23.3,48.7-35.9,72.4c-1.8,3.5-3.7,6.9-5.6,10.4
							c-0.3,0.5,0,1.1,0.6,1.3c24.2,6.7,49.1,12.2,73.9,15.9c40.2,6.1,81.4,7.9,122.2,6.2c9.5-0.4,19.1-1.1,28.6-2
							C523.6,620.2,527.5,616.6,524.7,616.8z"/>
					</g>
				</g>
			</g>
		</g>
		<path class="st2" d="M517.5,613.4c-70.7,5.2-140.1-0.7-208.8-18.2c12.4-23.7,24.2-47.6,35.4-71.9c65.2,16.6,131,21.8,198.1,16.3
			C534.5,564.4,526.3,589,517.5,613.4z"/>
		<g>
			<path class="st1" d="M512,608.2c-65.3,4-129.5-1.4-193.2-16.8c10.3-20.1,20.2-40.4,29.6-60.9c61,14.7,122.2,19.6,184.8,15.2
				C526.5,566.7,519.5,587.5,512,608.2z"/>
			<g>
				<path class="st0" d="M514.2,606.6c-37.9,2.7-76.3,2.2-113.9-2c-21.7-2.4-43.5-6.2-64.9-10.8c-3.1-0.7-6.1-1.4-9.2-2.1
					c-1.2-0.3-3.7-0.5-4.6-1.1c-0.5-0.3-0.4,0-0.3,0.1c-0.1-0.3,0.7-1.4,0.9-1.7c1.6-3,3.1-6.1,4.6-9.1
					c8.3-16.5,16.2-33.2,23.9-50.1c-1.5,0.6-2.9,1.1-4.4,1.7c35,8.5,70.5,14.4,106.1,16.5c21.2,1.3,42.9,1.2,64.2,0.2
					c3.1-0.1,6.2-0.4,9.3-0.6c1.2-0.1,3.7-0.6,4.7-0.3c0.5,0.1,0.3-0.1,0.3-0.2c0.2,0.2-0.4,1.4-0.5,1.7c-1,3-1.9,6-2.9,9
					c-5.7,17.3-11.7,34.6-17.9,51.8c-0.2,0.5,4.4-1.6,4.8-2.7c7.4-20.6,14.7-41.6,21.1-62.4c0-0.1,0-0.2-0.2-0.2
					c-20.9,1.2-42.6,2.4-63.7,1.8c-32.9-0.9-66.2-4.9-98.7-11.4c-7.4-1.5-14.9-3.2-22.3-5.1c-1.1-0.3-4,0.8-4.4,1.7
					c-9.5,20.5-19.6,40.9-29.8,61c-0.1,0.1,0,0.2,0.1,0.3c20.4,5.6,42.6,9.7,63.9,12.7c34.4,4.9,69.7,6.7,104.7,5.8
					c8.2-0.2,16.4-0.6,24.7-1.2C511.2,609.7,514.8,606.6,514.2,606.6z"/>
			</g>
		</g>
		<g>
			<path class="st2" d="M455.7,578c5.2-13.4-8.1-22.6-19.8-23.5c-13.8-1.1-31,6-37,18.7c-6.1,12.8,6.1,24.6,19,25.2
				C431.9,599,450.2,592.3,455.7,578z"/>
			<g>
				<path class="st0" d="M458.1,576.9c3.9-10.7-3.8-20.3-14.1-22.7c-11.8-2.7-24.5,0.2-34.8,6.3c-8.8,5.3-17.1,16.1-13.4,26.3
					c4.2,11.5,19.7,14.5,31.1,12.2C439.6,596.5,452.8,588.9,458.1,576.9c0.2-0.6-4.3,1.1-4.8,2.2c-6,14.3-24.9,20.1-38.7,17
					c-10.7-2.4-18.2-13.7-13.4-23.9c6-12.7,24.2-18.9,37.8-15.6c10.1,2.4,18.2,11.8,14.2,22.5C453.1,579.7,457.7,578,458.1,576.9z"
					/>
			</g>
		</g>
		<g>
			<path class="st2" d="M500.8,577.9c2-5.5-2.3-9.6-9.4-9.5c-7.1,0.1-14.5,4.5-16.5,10c-2.1,5.5,2.1,10,9.3,9.9
				C491.4,588.1,498.9,583.4,500.8,577.9z"/>
			<g>
				<path class="st0" d="M503.2,576.7c2-6.7-4.4-11.2-13.7-9.2c-7.2,1.5-14.9,6.7-16.9,12.1c-2.6,6.8,4.5,11.7,13.6,9.6
					C493.7,587.5,500.9,582.2,503.2,576.7c0.2-0.6-4.2,1.5-4.7,2.5c-3.9,8-24,9.6-21.2-2c1.4-5.7,11.5-8.8,17.3-6.5
					c3.8,1.6,5,4.8,3.9,8.4C498.3,579.8,502.9,577.7,503.2,576.7z"/>
			</g>
		</g>
		<g>
			<path class="st2" d="M380.5,569.8c2.4-5.4-1.3-10.7-8.1-12c-6.8-1.3-14.3,1.8-16.8,7.2c-2.5,5.4,1,11,7.9,12.3
				C370.4,578.7,378.1,575.2,380.5,569.8z"/>
			<g>
				<path class="st0" d="M382.9,569.5c2.4-6.4-2-12.5-10.6-13.3c-7.8-0.8-16.4,3.1-19.2,9.1c-2.9,6.4,1.9,12.9,10.3,13.8
					C371.8,579.9,379.8,575.5,382.9,569.5c1-2-4-0.8-4.9,0.6c-4.8,8.1-23.9,5.6-20-5.3c1.6-4.6,9.5-7,15-4.9c4.9,1.8,6.6,6,5,10.2
					C377.2,572.2,382.3,571.1,382.9,569.5z"/>
			</g>
		</g>
		
			<ellipse transform="matrix(0.2837 -0.9589 0.9589 0.2837 -168.343 925.7292)" class="st5" cx="535.5" cy="575.5" rx="46.4" ry="39.2"/>
		<g>
			<path class="st6" d="M510.7,611.1c-11.8-11.7-15.1-29.7-10.9-45.5c4.4-16.8,18.2-34.4,36.9-35c16.6-0.6,29.7,12.2,34.2,27.3
				c4.6,15.8,0.9,33.5-9,46.5c-6.4,8.4-15.8,15.2-26.6,15.9C526,621,517.4,617.3,510.7,611.1c-0.9-0.8-5.2,1-4.6,1.6
				c12.9,11.9,31.3,12,46.1,3.6c17.3-9.9,27-30.6,25.2-50.2c-1.6-18.3-14.2-35.5-33.5-37.2c-17.3-1.5-33.7,8.5-42.6,22.9
				c-11.5,18.7-11.3,45,4.8,61C507,613.6,511.4,611.8,510.7,611.1z"/>
		</g>
		<path class="st6" d="M516.1,603.6c-18.7-18.7-9.3-59.6,19.2-62.7c13.5-1.4,24.5,8.6,28.1,21c3.7,12.9,0.3,27.5-8.5,37.6
			c-10.3,11.9-27.1,14.7-39.1,3.7c-1.6-1.5-5.8,0.9-3.7,2.8c10.8,9.9,26.3,10.1,38.4,2.3c13.2-8.5,20.4-24.8,19.1-40.3
			c-1.3-14.7-11.1-28.4-26.4-30.6c-14.7-2.2-28.6,6.9-35.8,19.3c-8.9,15.2-8.5,36.2,4.3,49C513.2,607.3,517.8,605.3,516.1,603.6z"/>
		<g>
			<path class="st1" d="M424.5,568.8c-86.2,3.8-170.9-6.1-253.9-30c12.9-38,25-76.3,36.4-114.8c72.4,27,147.2,41.1,224.4,42.9
				C429.8,500.9,427.5,534.9,424.5,568.8z"/>
			<g>
				<path class="st0" d="M425.3,567c-29.1,1.4-58.5,1.4-87.5-0.5c-45.5-2.9-91.1-10.2-135.7-21.2c-10.1-2.5-20.3-5.3-30.3-8.3
					c0.5,0.6,1.1,1.3,1.6,1.9c11.2-33.4,21.9-66.9,31.9-100.6c1.4-4.7,2.8-9.4,4.1-14c-1.2,0.5-2.4,1-3.6,1.5
					c24,8.9,48.5,16.9,73.1,23.1c40,10.1,81.3,16.1,122.7,18.7c9.6,0.6,19.4,0.9,29.1,1c-0.6-0.4-1.3-0.8-1.9-1.2
					c-1.5,29.8-3.5,59.6-6.1,89.2c-0.4,4.2-0.8,8.5-1.2,12.8c-0.2,2.3,5.6,0.6,5.8-1.5c2.6-29.7,4.6-59.5,6.1-89.3
					c0.2-4.1,0.4-8.2,0.6-12.3c0-0.9-1.1-1.1-1.9-1.1c-26.1-0.5-52.5-2.3-78.2-5.7c-40.4-5.4-80.6-14.9-119.5-27.7
					c-8.8-2.9-17.6-6.1-26.3-9.5c-1.2-0.5-3.1,0.1-3.6,1.5c-10,33.7-20.7,67.3-31.9,100.6c-1.6,4.8-3.2,9.5-4.9,14.3
					c-0.4,1,0.8,1.7,1.6,1.9c27.5,8,55.6,14.8,83.7,19.7c45.4,7.9,91.9,11.5,138.3,11.3c10.8,0,21.6-0.4,32.4-1
					C426.6,570.4,429.2,566.8,425.3,567z"/>
			</g>
		</g>
		<path class="st2" d="M416.5,562.2c-79.9,2.3-158.3-7.2-235.2-28.8c10.7-32.9,21-66,30.6-99.2c68.5,24.2,138.8,37,211.4,39.2
			C421.5,503.1,419.3,532.7,416.5,562.2z"/>
		<g>
			<path class="st1" d="M408.6,555.6c-73.6,0.9-145.7-8.1-216.8-27.5c8.8-27.8,17.1-55.7,25.1-83.7c64.4,21.5,130.2,33.2,198.1,35.7
				C413.2,505.3,411.1,530.4,408.6,555.6z"/>
			<g>
				<path class="st0" d="M410.8,554.3c-42.7,0.8-85.8-1.7-127.8-8c-24.3-3.6-48.8-8.7-72.8-14.7c-3.4-0.9-6.9-1.8-10.3-2.7
					c-1.5-0.4-3.8-0.6-5.2-1.4c-0.9-0.5-0.2,0.3-0.1,0.3c-0.1-0.5,0.6-1.8,0.7-2.3c1.3-4.1,2.6-8.3,3.9-12.4
					c7-22.9,13.8-45.8,20.3-68.9c-1.6,0.3-3.1,0.5-4.7,0.8c37.1,12.4,75,22.3,113.2,28.3c22.8,3.6,46.1,5.9,69.2,7.2
					c3.3,0.2,6.7,0.3,10.1,0.5c1.5,0.1,3.7-0.2,5.1,0.2c0.9,0.3,0.1-0.2,0.1-0.3c0.2,0.4-0.1,1.6-0.1,2c-0.3,3.7-0.5,7.4-0.8,11
					c-1.6,20.8-3.5,41.7-5.7,62.5c-0.1,1,5.4-0.7,5.5-1.8c2.4-25.1,4.5-50.2,6.2-75.3c0-0.3-0.1-0.4-0.5-0.4
					c-23-0.7-46.2-2.3-68.8-5.3c-35.5-4.6-71-12.3-105.4-22.4c-7.9-2.3-15.8-4.9-23.6-7.6c-0.8-0.3-4.3-0.4-4.7,0.8
					c-8.1,28-16.6,56-25.4,83.8c-0.1,0.3,0,0.5,0.4,0.6c23.6,6.6,47.7,12.3,71.7,16.6c38.6,6.9,78.2,10.6,117.5,11.4
					c9.2,0.2,18.5,0.2,27.8,0C407.7,556.8,412.3,554.3,410.8,554.3z"/>
			</g>
		</g>
		<g>
			<path class="st2" d="M337.8,513.6c3-16-11.9-29.3-26.1-32.4c-16-3.4-32.1,7.6-36.3,22.9c-4.5,16.5,9.9,31.7,25.4,34
				C316.5,540.4,334.8,529.7,337.8,513.6z"/>
			<g>
				<path class="st0" d="M340.5,513c1.7-13.6-7.2-26.1-19.8-30.9c-11.7-4.4-25.5-2.8-35.7,4.4c-10.9,7.7-16.2,22.6-10.8,34.8
					c5.4,12.3,20.5,19.8,34.2,17.8C322.1,537.2,338,527.9,340.5,513c0.2-1.1-5.1-0.1-5.3,1.1c-3.1,15.9-21.5,26.1-36.7,21.9
					c-13.5-3.8-23.2-19.3-20.3-32.3c3.2-14.4,20.4-26.1,35.9-20.5c12.2,4.4,23.3,17.1,21.1,30.9C335,515.3,340.3,514.2,340.5,513z"
					/>
			</g>
		</g>
		<g>
			<path class="st2" d="M387.5,517.1c0.7-6.7-5-12.4-12.8-12.9c-7.8-0.5-14.8,4.5-15.8,11.3c-0.9,6.8,4.7,12.9,12.7,13.3
				C379.6,529.2,386.7,523.8,387.5,517.1z"/>
			<g>
				<path class="st0" d="M390.1,516.2c0.8-18.4-31.2-15.8-33.9,0.1c-3.3,19.2,30.9,15.5,33.9,0.2c0.2-1-5.1,0.2-5.3,1.4
					c-1.2,7-8.5,12.1-16.5,8.5c-4.8-2.2-7.3-6.9-6.7-11.5c1-7.1,8.7-11.7,16.2-8.1c4.9,2.3,7.1,6.7,6.9,11.4
					C384.8,518.6,390.1,517.6,390.1,516.2z"/>
			</g>
		</g>
		<g>
			<path class="st2" d="M255.2,498.9c1.8-7.2-2.9-14.5-10.3-16.4S230,484.8,228,492c-2,7.3,2.5,14.9,10.1,16.7
				C245.7,510.6,253.4,506.1,255.2,498.9z"/>
			<g>
				<path class="st0" d="M257.9,498.9c3.3-19.4-27.3-24.7-32.6-6.9c-2.5,8.2,3.6,17.1,12.5,18.7
					C246.9,512.4,255.4,507.1,257.9,498.9c0.7-2.4-4.8-2.1-5.4,0.1c-4.4,14.5-24.9,6.1-21.8-6.9c1.5-6.3,8.5-9.7,14.7-7.2
					c5.8,2.3,8.1,8.5,7.1,14.1C252,501.5,257.5,501.1,257.9,498.9z"/>
			</g>
		</g>
		<g>
			<path class="st1" d="M522.2,551.5c-74-44.4-139.2-99.4-195.3-165c31.7-24.6,62.9-49.8,93.7-75.6
				c45.5,62.5,100.1,115.4,163.5,159.6C564,497.8,543.4,524.8,522.2,551.5z"/>
			<g>
				<path class="st0" d="M523.8,550.4c-25.1-14.9-49.6-31.1-72.7-48.6c-36.4-27.5-70.4-58.8-101.5-92.5c-7.1-7.7-14-15.6-20.7-23.6
					c0.1,0.8,0.2,1.7,0.3,2.5c27.7-21.7,55.2-43.8,82.1-66.3c3.7-3.1,7.5-6.3,11.2-9.4c-1.3-0.2-2.5-0.5-3.8-0.7
					c15.1,20.7,31.1,40.9,48.2,59.6c27.8,30.4,59,58.3,92,83.3c7.7,5.8,15.7,11.5,23.7,16.9c-0.3-0.7-0.7-1.4-1-2
					c-17.7,24-35.8,47.7-54.3,71.1c-2.7,3.3-5.3,6.7-8,10c-1.4,1.8,4.4,3.6,5.7,2c18.5-23.3,36.7-47.1,54.3-71.1
					c2.4-3.3,4.9-6.7,7.3-10c0.5-0.7-0.3-1.6-1-2c-21.5-14.8-42.5-30.8-62-47.9c-30.7-26.8-59-56.9-84.4-89
					c-5.8-7.3-11.3-14.9-16.7-22.4c-0.8-1.1-2.7-1.7-3.8-0.7c-27,22.6-54.4,44.7-82.1,66.3c-4,3.1-8,6.2-12,9.2
					c-0.9,0.7-0.3,1.8,0.3,2.5c18.5,21.9,38.2,43,58.9,62.6c33.5,31.7,70.4,60.3,109.1,85.7c9,5.9,18.3,11.6,27.6,17
					C523,554,527.2,552.4,523.8,550.4z"/>
			</g>
		</g>
		<path class="st2" d="M519.1,541.6c-67.9-42.2-128-93.3-180.3-153.7c27.1-21.5,53.9-43.5,80.3-65.9
			c43.8,57.9,95.3,107.5,154.7,149.3C555.9,495.1,537.7,518.5,519.1,541.6z"/>
		<g>
			<path class="st1" d="M516.2,531.7c-61.9-39.8-117.1-87.1-165.7-142.5c22.6-18.4,45-37,67.2-56c41.9,53.4,90.3,99.5,145.5,139
				C547.8,492.3,532.1,512.1,516.2,531.7z"/>
			<g>
				<path class="st0" d="M518.7,531.9c-36.1-22.9-70.6-48.7-102.2-77.2c-18.3-16.5-35.9-34.2-52.6-52.4c-2.4-2.6-4.7-5.3-7.1-7.9
					c-1-1.2-2.9-2.6-3.5-4c-0.4-0.9-0.3,0.1-0.3,0.2c0.2-0.5,1.5-1.2,1.9-1.5c3.4-2.7,6.7-5.5,10.1-8.2
					c18.5-15.2,36.8-30.6,54.9-46.3c-1.4-0.6-2.9-1.3-4.3-1.9c24.1,30.8,50.3,59.9,78.8,86c17,15.5,35.2,30.4,53.8,44.2
					c2.7,2,5.4,4,8.2,5.9c1.2,0.9,3.2,1.8,4.2,3c0.6,0.7,0.2-0.1,0.2-0.2c0,0.5-1,1.3-1.2,1.6c-2.2,2.9-4.5,5.8-6.8,8.7
					c-12.9,16.5-26,32.9-39.2,49c-0.6,0.8,4.9,2.4,5.6,1.6c15.8-19.6,31.4-39.4,46.7-59.4c0.2-0.2,0.1-0.4-0.2-0.6
					c-18.8-13.2-37.2-27.4-54.5-42.4c-27.1-23.4-52.4-49.4-75.6-76.9c-5.3-6.3-10.5-12.8-15.5-19.4c-0.5-0.7-3.4-2.7-4.3-1.9
					c-22.2,18.9-44.7,37.6-67.4,55.9c-0.3,0.2-0.2,0.4,0,0.7c16,18.5,33,36.5,50.7,53.3c28.4,27,59.4,51.9,91.7,74.3
					c7.6,5.2,15.3,10.3,23.2,15.3C514.7,532.2,520,532.6,518.7,531.9z"/>
			</g>
		</g>
		<g>
			<path class="st2" d="M480.3,457.6c11.3-11.7,6.3-31-3.9-41.4c-11.5-11.7-31-11.4-42.9-0.9c-12.8,11.3-9.2,31.9,2.4,42.3
				C447.7,468.2,468.9,469.4,480.3,457.6z"/>
			<g>
				<path class="st0" d="M482.8,458.6c8.9-10.5,8.4-25.8,0.5-36.7c-7.3-10.2-19.7-16.4-32.2-16c-13.3,0.4-26,10-28.2,23.1
					c-2.3,13.3,6.2,27.8,18.7,33.7C454.2,468.7,472.5,469.7,482.8,458.6c0.8-0.8-4.2-2.9-5.1-2c-11.3,11.5-32.4,10-42.7-2
					c-9.2-10.6-8.7-28.9,0.9-38.2c10.6-10.3,31.4-10.5,41.2,2.7c7.8,10.4,10,27.1,0.6,37.4C477,457.5,482,459.5,482.8,458.6z"/>
			</g>
		</g>
		<g>
			<path class="st2" d="M519.8,487.9c4.3-5.2,2.7-13.2-3.6-17.9c-6.2-4.7-14.8-4.4-19.4,0.8c-4.6,5.2-3.2,13.3,3.3,18.1
				C506.5,493.7,515.4,493.2,519.8,487.9z"/>
			<g>
				<path class="st0" d="M522.5,488.6c10.8-14.9-17.3-30.4-28.3-18.7c-13.3,14.2,17.2,30,28.2,18.8c0.7-0.7-4.4-2.6-5.2-1.7
					c-4.9,5.2-13.8,5.4-18.4-2c-2.8-4.5-2.3-9.8,0.8-13.3c4.7-5.4,13.7-4.9,18,2.2c2.8,4.6,2.3,9.5-0.5,13.3
					C516.7,487.7,521.7,489.8,522.5,488.6z"/>
			</g>
		</g>
		<g>
			<path class="st2" d="M419.4,399.8c5.5-5,5.6-13.7,0.5-19.4c-5.1-5.7-13.7-6.3-19.4-1.4c-5.7,5-6.1,13.8-0.8,19.5
				C405.1,404.3,414,404.8,419.4,399.8z"/>
			<g>
				<path class="st3" d="M421.7,401.3c13.4-14.3-9.2-35.6-23.4-23.7c-6.6,5.5-6.4,16.2,0.1,22.5
					C405.1,406.5,415.1,406.8,421.7,401.3c2-1.6-2.8-4.4-4.6-2.9c-11.7,9.7-24.1-8.6-14.4-17.7c4.7-4.4,12.4-3.4,16.3,2.1
					c3.5,5.1,2,11.6-1.9,15.6C415.3,400.2,420.2,402.9,421.7,401.3z"/>
			</g>
		</g>
		
			<ellipse transform="matrix(0.6696 -0.7427 0.7427 0.6696 -373.0221 333.8207)" class="st5" cx="188.7" cy="586.2" rx="29.6" ry="46.4"/>
		<g>
			<path class="st6" d="M221,617.5c-11.6,12.2-31.9,3.2-43.3-4.9c-12.4-8.8-23.5-22.4-25.9-37.8c-0.9-6-0.4-12.4,2.9-17.6
				c4.4-6.9,12.1-8.8,19.9-7.8c16.4,2,31.6,13.2,41.2,26.2C224,586.8,231.4,605.2,221,617.5c-0.9,1.1,3.6,0.5,4.4-0.4
				c11.2-13.1,3.5-32.1-5.7-44c-11.1-14.4-29.4-26.8-48.3-25.8c-13.8,0.7-25.1,9.5-24.9,24c0.3,19.4,16.1,37.2,32,46.4
				c13.6,7.9,34.5,12.3,46.8-0.6C226.3,616.1,221.8,616.6,221,617.5z"/>
		</g>
		<path class="st6" d="M214.2,610.4c-12,12.4-33.7-1.6-42.6-11.1c-8.1-8.6-18.3-26.3-8.5-37.3c11.2-12.4,32.8,1.2,41.5,10
			C213.5,580.8,224.2,598.6,214.2,610.4c-1.9,2.3,2.7,2.8,4,1.2c8.6-10.2,3.8-24.7-3.1-34.5c-8.6-12.3-23.5-22.8-39-23
			c-11.8-0.1-21.8,7.5-21.7,19.9c0.2,15,11.7,28.8,23.7,36.6c11.5,7.4,29.2,12.2,40,1C220.3,609.5,215.6,609,214.2,610.4z"/>
		
			<ellipse transform="matrix(0.1204 -0.9927 0.9927 0.1204 -475.1391 658.3602)" class="st5" cx="134" cy="597.3" rx="26" ry="46.4"/>
		<g>
			<path class="st6" d="M145.3,622.1c-16,0.6-34-2.9-46.5-13.6c-9.3-7.9-12-20.3-1.4-28.4c13.1-9.9,33.4-9.2,48.5-5.3
				c11.9,3,28.8,10.3,31.5,23.9c3.4,17.3-20.4,22.7-32.7,23.4c-2.5,0.1-4,3-0.6,2.8c13.2-0.8,33.3-5,37.8-19.7
				c4.8-15.5-13.9-26.6-25.8-31c-16.9-6.1-37.9-7.3-54.6,0.2c-11.5,5.1-20.8,16.3-13.3,28.8c10.4,17.5,36.8,22.4,55.3,21.7
				C145.3,625,148.5,622,145.3,622.1z"/>
		</g>
		<path class="st6" d="M143.3,617.2c-14,0.5-34.4-3.3-41.9-16.8c-8.4-15,11.9-22.3,23.3-22.9c13.9-0.7,34.4,3.4,41.9,16.8
			C175,609.4,154.6,616.5,143.3,617.2c-1.5,0.1-5.2,2.5-2,2.3c10.6-0.7,26.3-3.6,31-14.8c5.1-12.2-9.5-21.6-18.9-25.3
			c-13.8-5.4-30.9-6.2-44.8-0.4c-9.6,4-18.1,13.1-11.4,23.6c8.7,13.7,29.3,17.4,44.2,16.8C142.8,619.4,146.5,617.1,143.3,617.2z"/>
		
			<ellipse transform="matrix(0.9997 -2.561200e-02 2.561200e-02 0.9997 -13.5914 4.1303)" class="st5" cx="154.4" cy="532.6" rx="39.2" ry="46.4"/>
		<g>
			<path class="st6" d="M142.2,574.8c-30.2-15.2-33.7-65.4-4.1-83.4c15.6-9.5,34.4-1.4,44.1,12.6c9.6,13.8,11.6,32.4,5.8,48.1
				c-3.2,8.6-8.8,16.5-16.6,21.5C162.3,579.3,151.8,579.2,142.2,574.8c-1.3-0.6-5,1.4-4.6,1.6c15.1,6.9,33,3.1,44.6-8.6
				c14.1-14.3,17.3-37.3,9.8-55.7c-6.8-16.8-23.1-29-41.7-26.5c-18.2,2.5-31.7,16.7-36,34.1c-5.3,21.3,2.9,46.4,23.2,56.7
				C138.9,577,142.7,575,142.2,574.8z"/>
		</g>
		<path class="st6" d="M144.3,565.3c-23.9-12.2-25.8-54.6,0-65.9c12.3-5.4,25.5,1,32.5,11.6c7.5,11.3,8.5,26.5,3.1,38.8
			C173.6,563.9,158.9,572,144.3,565.3c-2.1-0.9-5.6,2-2.8,3.3c13.4,6.1,28.5,1.8,37.7-9.5c10.1-12.5,11.7-30.8,4.9-45.2
			c-6.2-13-19.6-22.2-34.3-19.7c-15.1,2.5-25.5,15.8-28.3,30.2c-3.3,17.2,4.1,36.1,20,44.2C143.5,569.6,147,566.7,144.3,565.3z"/>
		<g>
			<path class="st1" d="M469,422.3c-72.3-22.9-146.2-37.9-221.7-45c4.1-40,9.1-79.9,15.1-119.6c85.8,14.7,168.9,38.7,249.3,72.2
				C496.5,360.3,482.4,391.1,469,422.3z"/>
			<g>
				<path class="st0" d="M470.2,420.9c-23.9-7.7-48.2-14.7-72.5-20.7c-39.6-9.7-80.3-16.9-120.9-21.9c-9.5-1.2-19.2-2.1-28.7-3
					c0.6,0.5,1.2,1,1.8,1.5c3.7-35,8.1-70,13.2-104.8c0.7-4.8,1.5-9.7,2.2-14.5c-1.3,0.7-2.6,1.4-3.9,2.1
					c29.4,5,58.7,10.8,87.4,17.9c44.7,11.1,89.1,25.3,132.3,41.8c9.8,3.7,19.5,7.7,29.2,11.8c-0.5-0.6-1-1.2-1.5-1.8
					c-13.1,26.8-25.6,53.8-37.3,81.1c-1.7,3.9-3.3,7.8-5,11.7c-0.9,2.1,4.2,2.3,5,0.4c11.8-27.3,24.2-54.4,37.3-81
					c1.8-3.7,3.7-7.4,5.5-11.1c0.4-0.8-0.7-1.5-1.5-1.8c-26.5-11.2-53.6-21.6-80.7-30.7C387.7,283,342,271,295.9,261.7
					c-10.8-2.2-21.7-4.1-32.6-6c-1.5-0.3-3.7,0.6-3.9,2.1c-5.2,34.8-9.6,69.9-13.2,104.9c-0.5,5-1,10-1.5,15c-0.1,1.1,1,1.5,1.8,1.5
					c25.8,2.3,51.7,5.4,77.1,9.6c39.6,6.5,79.2,15.6,117.9,26.8c8.8,2.5,17.6,5.3,26.2,8C470.1,424.5,473.3,421.9,470.2,420.9z"/>
			</g>
		</g>
		<path class="st2" d="M464.6,413.7c-68.2-21.5-137.6-36.1-208.7-43.7c4-34.4,8.6-68.7,14-103c79.3,13.9,156.3,35.7,231,65.7
			C488.1,359.4,476.1,386.4,464.6,413.7z"/>
		<g>
			<path class="st1" d="M460.1,405c-63.9-20.1-128.9-34.1-195.5-42.2c3.7-28.9,7.9-57.8,12.6-86.6c72.9,13,143.8,32.8,213,59.5
				C479.7,358.6,469.7,381.7,460.1,405z"/>
			<g>
				<path class="st0" d="M462.3,404.4c-36.6-11.8-74.1-21.8-111.7-29.4c-22.5-4.6-45.5-8.4-68.3-11.5c-3.3-0.5-6.6-0.9-10-1.3
					c-1.5-0.2-3.7,0-5-0.6c-0.9-0.4-0.1,0.3-0.1,0.4c-0.2-0.5,0.2-1.9,0.3-2.4c0.6-4.3,1.1-8.6,1.7-12.9
					c3.3-23.7,6.9-47.4,10.8-71.1c-1.7,0.5-3.5,0.9-5.2,1.4c42.8,7.5,85.2,17.1,126.6,29.3c23.8,7,47.5,15,70.8,23.6
					c3.3,1.2,6.6,2.5,10,3.8c1.5,0.6,3.7,1.1,5,1.9c0.8,0.6,0.2-0.2,0.2-0.3c0.1,0.5-0.7,1.4-0.8,1.9c-1.5,3.4-3.1,6.7-4.5,10.1
					c-8.5,19-16.6,38.3-24.5,57.6c-0.4,0.9,4.7,0.9,5.1-0.1c9.6-23.2,19.8-46.2,30.3-69c0.1-0.3,0-0.4-0.3-0.5
					c-22.9-9-46.2-17.4-69.5-24.9c-37.8-12.1-76.7-22-115.7-30c-9.2-1.9-18.5-3.6-27.8-5.2c-1-0.2-5,0.2-5.2,1.4
					c-4.6,28.8-8.7,57.8-12.3,86.8c0,0.3,0.1,0.5,0.5,0.5c22.7,2.6,45.6,5.9,68,9.9c34.9,6.3,69.8,14.6,103.9,24.5
					c7.8,2.3,15.7,4.7,23.4,7.1C459,405.9,463.6,404.8,462.3,404.4z"/>
			</g>
		</g>
		<g>
			<path class="st2" d="M405.6,347.9c5.2-15.8-8.3-31.6-22.5-35.7c-15-4.3-35.6,3.4-38.9,20.4c-2.9,15.4,7.2,32.2,23.3,35.2
				C382.3,370.4,400.6,362.9,405.6,347.9z"/>
			<g>
				<path class="st0" d="M408.3,347.8c4.3-13.3-4.3-27.6-15.8-33.6c-11.6-6-26.7-5.7-38,1.2c-11.6,7-16.7,21.9-11.6,34.5
					c5.1,12.6,18.4,20.1,31.7,19.7C387.9,369.1,403.6,361.4,408.3,347.8c0.4-1.1-5-0.9-5.4,0.2c-5,15.2-23,22.5-37.5,17.6
					c-13.5-4.5-21.1-19.9-18.5-33.3c3.3-16.9,24-24.2,38.4-17.9c12.1,5.3,21.9,19.8,17.6,33.6C402.6,349.1,407.9,348.9,408.3,347.8z
					"/>
			</g>
		</g>
		<g>
			<path class="st2" d="M452.3,362.2c2.5-6.3-1.5-13.4-8.9-15.9c-7.5-2.4-15.4,0.9-17.7,7.4c-2.3,6.5,1.8,13.5,9.1,15.8
				C442,371.7,449.8,368.5,452.3,362.2z"/>
			<g>
				<path class="st3" d="M455,362c5.9-17.5-26.2-23.8-32.1-8.1c-6.8,17.9,25.3,21.9,32,8.4c0.5-0.9-4.8-1.2-5.3-0.1
					c-3,6.4-10.8,9.5-17.4,4.2c-4-3.2-5.4-8.3-3.8-12.7c2.4-6.7,11.1-9.4,17.5-4c4.2,3.5,5.1,8.3,3.6,12.8
					C449.4,363,454.6,363.4,455,362z"/>
			</g>
		</g>
		<g>
			<path class="st2" d="M323.6,327.5c1.5-7.3-3.6-14.4-11.5-16c-7.9-1.5-15.5,3.3-16.8,10.8c-1.3,7.4,4,14.5,11.7,15.8
				C314.6,339.5,322.1,334.8,323.6,327.5z"/>
			<g>
				<path class="st0" d="M326.4,327.4c2.8-19.9-30.3-23.5-33.9-4.9c-1.6,8.4,5.4,16.5,14.3,17.6C316,341.2,324.1,335.7,326.4,327.4
					c0.7-2.4-5-2-5.5,0.2c-3.8,14.6-24.6,7.4-22.8-5.5c0.9-6.3,8-10.4,14.7-8.2c6.2,2,8.9,8.2,8.1,13.8
					C320.4,330.2,326.1,329.7,326.4,327.4z"/>
			</g>
		</g>
		<g>
			<path class="st1" d="M632.4,317.3c-52.1,36.9-108.5,64.1-169.9,81.6c3-27.8,5.2-55.7,6.6-83.6c57.8-19.8,109.8-48.7,157.4-87.1
				C629.3,257.9,631.3,287.5,632.4,317.3z"/>
			<g>
				<path class="st0" d="M632.8,314.9c-17.4,12.5-35.6,24.4-54.2,34.8c-29.5,16.4-61,30-93.2,40.6c-7.3,2.4-14.7,4.5-22.1,6.6
					c0.4,0.3,0.8,0.6,1.2,0.9c2.6-24.5,4.7-49,6-73.5c0.2-3.4,0.3-6.7,0.5-10.1c-0.8,1.1-1.5,2.1-2.3,3.2
					c19.2-6.5,38.1-13.7,56.1-22.2c29.4-13.8,57.5-31.1,83.8-50.6c6-4.5,12-9.2,17.8-14c-0.4-0.1-0.8-0.3-1.2-0.4
					c2.4,25.8,4.3,51.7,5.4,77.6c0.2,3.8,0.3,7.7,0.4,11.6c0.1,2.9,3.2-1.8,3.1-3.8c-1-26.1-2.7-52.3-5.1-78.4
					c-0.3-3.6-0.7-7.2-1.1-10.7c-0.1-0.8-0.5-0.9-1.2-0.4c-15.8,13-32.5,25.4-49.6,36.4c-27.2,17.3-56.4,31.9-86.6,43.7
					c-6.8,2.6-13.8,5.1-20.7,7.4c-1.2,0.4-2.2,2.2-2.3,3.2c-1.2,24.3-3,48.6-5.5,72.8c-0.4,3.6-0.8,7.2-1.2,10.8
					c-0.1,0.8,0.4,1.2,1.2,0.9c20.3-5.6,40.6-12.3,60.1-20.1c31.5-12.8,62-29,90.7-47.7c6.6-4.3,13.1-8.8,19.5-13.5
					C633.8,318.6,635,313.3,632.8,314.9z"/>
			</g>
		</g>
		<path class="st2" d="M627,314.9c-48.7,34-101,59.4-157.9,76.5c2.4-24.2,4.2-48.4,5.4-72.7c54-19,102.6-45.8,147.7-81
			C624.5,263.5,626.1,289.1,627,314.9z"/>
		<g>
			<path class="st1" d="M621.6,312.5c-45.4,31.1-93.5,54.8-145.9,71.4c1.8-20.5,3.4-41,4.3-61.6c50-18.1,95.5-42.9,138-74.9
				C619.6,269,620.8,290.7,621.6,312.5z"/>
			<g>
				<path class="st0" d="M622.5,309.8c-25.9,18.1-53.4,34.3-82,47.5c-16.8,7.7-34.4,14.6-51.9,20.6c-3.3,1.1-7.9,3.3-11.2,3.6
					c-0.6,0-0.4,0.2-0.2,0.4c-0.2-0.2,0.1-1.4,0.2-1.8c0.3-3,0.5-6,0.8-9c1.4-16.9,2.4-33.8,3.2-50.7c-0.8,1.3-1.7,2.6-2.5,3.9
					c28.7-10.3,56.5-22.5,82.7-37.4c15.7-9,31.2-19.2,46-29.8c2.8-2,6.5-5.6,9.3-7c0.5-0.2,0.3-0.3,0.1-0.5c0.2,0.2,0.1,1.4,0.1,1.8
					c0.2,3,0.5,6.1,0.7,9.1c1.2,18,2.2,36.2,2.8,54.3c0,1.3,2.4-3.6,2.3-4.7c-0.8-21.7-2.1-43.5-3.9-65.1c0-0.2,0-0.5-0.3-0.3
					c-36.6,28.2-76.7,51.3-119.5,68.6c-5.9,2.4-12,4.6-18,6.7c-0.9,0.3-2.4,3.1-2.5,3.9c-1,20.6-2.5,41.2-4.4,61.7
					c0,0.2-0.1,0.5,0.2,0.4c45.7-14,89-34.1,129.4-59.6c5.7-3.6,11.4-7.5,17-11.4C621.7,314.4,623.2,309.4,622.5,309.8z"/>
			</g>
		</g>
		<g>
			<path class="st2" d="M572.8,310.4c0.2-12-11.8-16.1-21.2-10.7c-11.1,6.3-20.5,19.8-21.5,32.8c-0.9,12.3,11.1,18,21.2,12.3
				C563,338.2,572.6,323.9,572.8,310.4z"/>
			<g>
				<path class="st0" d="M574.1,308.3c-0.4-10.6-7.2-16.2-16.8-13c-10.3,3.4-18.3,12.6-23.4,22.1c-4.4,8.2-8.1,20.9-1.7,28.3
					c6.9,8.1,19.5,1,25.5-3.6C566.9,335.1,573.7,321,574.1,308.3c0-1.3-2.5,3.2-2.5,4.2c-0.1,13.4-10.9,27.1-22.8,31.3
					c-9.6,3.3-17.8-3.3-17.3-13.3c0.6-12.2,10.6-25.7,22.7-30c9.8-3.5,17,1.6,17.3,12.1C571.6,313.9,574.1,309.4,574.1,308.3z"/>
			</g>
		</g>
		<g>
			<path class="st2" d="M604.9,290.3c-0.2-5.7-4.5-7.5-9.4-4.2c-5,3.3-8.9,10.4-8.8,16.1c0.1,5.7,4.4,7.8,9.5,4.5
				C601.2,303.4,605.1,296,604.9,290.3z"/>
			<g>
				<path class="st0" d="M606,288c-0.6-6.7-6-8.4-12-2.6c-4.9,4.7-8.7,13.2-8.6,18.9c0.1,6.9,6.1,8.6,12.1,3
					C602.6,302.5,606.1,293.9,606,288c0-1.4-2.3,3.4-2.3,4.5c0,5.9-5,11.7-9.6,12.9c-3.5,0.9-6.2-1.3-6.3-5.4
					c-0.2-5.7,5.2-11.6,9.6-12.7c3.6-1,6,1.2,6.3,5.2C603.8,293.9,606.1,289.1,606,288z"/>
			</g>
		</g>
		<g>
			<path class="st2" d="M515.5,338.3c0.2-5.5-4.1-8-9.5-5.9s-10.1,8.2-10.4,13.7c-0.3,5.5,4,8.3,9.5,6.2
				C510.6,350.1,515.3,343.8,515.5,338.3z"/>
			<g>
				<path class="st3" d="M517.3,336.8c0-6.4-4.9-9.4-11.6-6.2c-6.2,3-11.5,10.6-11.9,16.7c-0.3,6.4,5,9.7,11.6,6.6
					C512,350.9,516.8,343.2,517.3,336.8c0.2-2.7-3.3,0.9-3.5,2.8c-0.9,10.8-17,15-16.4,5.1c0.3-4.8,4.9-9.5,9.4-10.6
					c4.2-1,7,1.4,7,5.5C513.8,342.3,517.3,338.7,517.3,336.8z"/>
			</g>
		</g>
		<g>
			<path class="st3" d="M552.4,308.7c0,0.6,0,0.9,0,1.5c0.9-0.4,1.8-0.6,2.4-0.7c0.7-0.1,1.3,0.1,1.8,0.5c0.4,0.3,0.7,0.6,0.9,1
				c0.2,0.4,0.3,0.8,0.3,1.2c0,0.5-0.2,1-0.5,1.5c-0.3,0.5-0.7,0.9-1.2,1.1c-0.9,0.5-1.4,0.3-1.7-0.6c-0.3-1-1-1.4-2.1-1.2
				c0,2.3,0,3.5,0,5.8c1.1-0.3,2-0.4,2.6-0.5c0.6-0.1,1.2,0,1.7,0.2c0.5,0.2,1,0.6,1.3,1.2c0.3,0.6,0.4,1.3,0.4,2.1
				c0,1.1-0.2,2.2-0.7,3.4c-0.5,1.2-1.2,2.3-2.1,3.4c-0.9,1.1-2,2-3.3,2.8c0,1.4,0,2.1-0.1,3.6c0,0.6-0.1,1-0.2,1.3
				c-0.1,0.3-0.3,0.6-0.7,0.7c-0.3,0.2-0.6,0.2-0.7,0c-0.1-0.1-0.2-0.4-0.2-0.9c0-1.5,0-2.3,0.1-3.8c-1.1,0.4-2,0.6-2.8,0.6
				c-0.8,0-1.4-0.2-1.9-0.5c-0.5-0.3-0.9-0.8-1.1-1.3c-0.2-0.5-0.4-1.1-0.3-1.7c0-0.5,0.2-0.9,0.5-1.5c0.3-0.5,0.8-0.9,1.3-1.2
				c0.4-0.2,0.7-0.3,1-0.2c0.3,0.1,0.5,0.2,0.6,0.5c0.2,0.7,0.4,1.1,0.6,1.5c0.2,0.3,0.4,0.6,0.8,0.7c0.4,0.2,0.8,0.2,1.4,0
				c0-2.6,0-4,0.1-6.6c-1.2,0.3-2.2,0.4-3,0.4c-0.8,0-1.4-0.3-1.9-0.8c-0.5-0.5-0.7-1.4-0.7-2.7c0-1.6,0.5-3.2,1.5-4.7
				c1-1.5,2.4-2.8,4.2-4c0-0.6,0-0.9,0-1.5c0-0.8,0.3-1.3,0.8-1.6C552.1,307.7,552.4,307.9,552.4,308.7z M552.4,322.5
				c0,2.5,0,3.7-0.1,6.2c0.9-0.7,1.6-1.4,2.1-2.2c0.5-0.8,0.7-1.6,0.8-2.4c0-0.8-0.2-1.3-0.7-1.5C554,322.3,553.3,322.3,552.4,322.5
				z M550.7,319.2c0-2.2,0-3.2,0-5.4c-0.7,0.6-1.3,1.2-1.7,1.8c-0.4,0.6-0.6,1.3-0.6,2.1c0,0.7,0.2,1.2,0.6,1.4
				C549.3,319.2,549.9,319.3,550.7,319.2z"/>
		</g>
		
			<ellipse transform="matrix(0.2471 -0.969 0.969 0.2471 159.8922 995.6091)" class="st5" cx="720.6" cy="394.9" rx="39.2" ry="46.4"/>
		<g>
			<path class="st6" d="M755.8,420.5c-24.1,26.3-76.4,8.8-78.7-27.3c-1.1-17.3,11.8-31.5,28.1-35.4c17.1-4.1,36.4,2.1,48.3,15
				C766,386.3,768,406.2,755.8,420.5c-1.3,1.5,3.5,1.2,4.5,0c12.3-14.4,10.9-34.5-1.3-48.6c-12.8-14.8-34.1-20.9-53-16.8
				c-17.1,3.7-32.8,16.7-33.7,35.2c-0.9,19.4,14.1,35.6,31.5,41.9c19.2,7,42.4,3.6,56.5-11.8C761.6,419.1,756.8,419.4,755.8,420.5z"
				/>
		</g>
		<path class="st6" d="M748.5,414.9c-18.7,20.2-58.8,8-62-19.8c-1.6-13.5,7.7-25.1,20.4-28.8c13.6-4,29.4,0.6,39.1,10.8
			C756,387.5,758.2,403.4,748.5,414.9c-1.9,2.2,2.7,2.5,3.9,1c9.7-11.5,9.3-27.2-0.1-38.8c-9.9-12.2-26.9-17.5-42.2-14.7
			c-14,2.6-27.3,12.8-28.6,27.8c-1.3,15.6,10.2,28.8,24,34.4c15.6,6.3,35.1,3.9,46.9-8.8C754.5,413.8,749.8,413.5,748.5,414.9z"/>
		<ellipse class="st5" cx="460.9" cy="476.2" rx="35.3" ry="41.8"/>
		<g>
			<path class="st6" d="M449.2,513.8c-26.5-14.3-28.8-58.6-2.7-74.6c14.3-8.8,31.4-0.9,39.9,12c8,12.2,9.6,28.4,4.6,42.1
				c-2.9,7.8-7.9,15.2-15,19.7C467.6,518.3,457.9,518,449.2,513.8c-1.2-0.6-5,1.4-4.6,1.6c13.4,6.5,29.5,3.5,40.3-6.5
				c13.5-12.6,17-33.7,10.5-50.6c-5.9-15.3-20.3-26.5-37.1-24.6c-16.6,1.9-29.3,14.6-33.5,30.5c-5,19,1.8,41.5,19.8,51.2
				C445.8,516,449.7,514,449.2,513.8z"/>
		</g>
		<path class="st6" d="M451.6,505.4c-13.5-7.4-18.9-24-15.3-38.5c3.7-15.1,18.6-27.8,34.2-19.8c13.5,6.9,18.5,24.3,15.1,38.4
			c-3.8,15.6-18.7,27.3-34.5,19.7c-2-1-5.5,2-2.8,3.3c11.8,5.7,25.5,2.3,34.1-7.4c9.7-11,11.7-27.7,5.9-41
			c-5.2-12-17.1-20.7-30.6-18.9c-13.5,1.9-23.3,13.2-26.4,26c-3.7,15.4,2.2,33.2,16.5,41C449.8,509.3,454,506.7,451.6,505.4z"/>
		<g>
			<path class="st1" d="M518.1,446.6C452.8,398,396.6,340.6,350,273.8c32-20.2,63.6-41,94.9-62.4c37.1,62.8,83.4,117.5,138.9,164.8
				C562.4,400.1,540.5,423.6,518.1,446.6z"/>
			<g>
				<path class="st0" d="M519.9,445.7c-22.1-16.3-43.6-33.8-63.7-52.3c-31.6-29.1-60.7-61.6-86.8-96.1c-6-7.9-11.8-16-17.3-24.2
					c0,0.8,0,1.7,0.1,2.5c28-17.8,55.7-36,83-54.7c3.8-2.6,7.7-5.3,11.5-7.9c-1.2-0.4-2.5-0.7-3.7-1.1
					c12.3,20.8,25.4,41.2,39.8,60.3c23.3,31.1,50,60.2,78.7,86.6c6.7,6.2,13.7,12.2,20.8,18.1c-0.3-0.7-0.5-1.4-0.8-2.1
					c-18.8,20.9-37.9,41.5-57.4,61.6c-2.8,2.9-5.7,5.8-8.5,8.8c-1.6,1.6,4,4,5.4,2.5c19.5-20.2,38.7-40.8,57.4-61.7
					c2.6-2.9,5.2-5.9,7.8-8.8c0.6-0.7-0.2-1.6-0.8-2.1c-18.8-15.8-37-32.8-53.8-50.6c-26.3-27.9-50.2-58.8-71-91.3
					c-4.8-7.4-9.3-15.1-13.7-22.7c-0.6-1.1-2.5-1.9-3.7-1.1c-27.3,18.7-55.1,36.9-83,54.6c-4,2.6-8.1,5.1-12.2,7.7
					c-0.9,0.6-0.4,1.8,0,2.5c15.3,22.2,31.9,43.8,49.5,64.1c28.5,32.8,60.5,63.1,94.5,90.5c7.9,6.4,16.2,12.6,24.5,18.6
					C518.7,449.2,523,448,519.9,445.7z"/>
			</g>
		</g>
		<path class="st2" d="M516.2,437.1c-59.8-45.9-111.6-99.3-155.2-160.9c27.4-17.7,54.5-35.9,81.4-54.5
			c35.9,58.4,79.7,109.6,131.5,154.4C555,396.8,535.7,417.1,516.2,437.1z"/>
		<g>
			<path class="st1" d="M514.3,427.5c-54.5-43.1-101.9-92.5-142.5-149c22.9-15.2,45.6-30.6,68.2-46.4
				c34.5,54,75.7,101.7,123.9,143.9C547.6,393.4,531.1,410.5,514.3,427.5z"/>
			<g>
				<path class="st0" d="M516.9,427.9c-31.7-24.7-61.8-52.1-88.8-81.7c-15.7-17.2-30.7-35.5-44.8-54.3c-1.9-2.6-3.8-5.2-5.7-7.8
					c-0.9-1.2-2.6-2.9-3.1-4.3c-0.3-0.9-0.3,0.2-0.3,0.2c0.2-0.4,1.5-1,1.8-1.2c3.6-2,6.9-4.6,10.2-6.8
					c18.7-12.6,37.4-25.4,55.9-38.5c-1.4-0.8-2.8-1.5-4.1-2.3c19.8,31.1,41.7,60.8,66.1,87.9c14.6,16.2,30.4,31.9,46.6,46.7
					c2.2,2,4.5,4.1,6.8,6.1c1.1,0.9,3,2.1,3.8,3.3c0.5,0.8,0.2-0.2,0.2-0.2c0,0.4-1,1.1-1.2,1.3c-2.6,2.3-4.8,5.1-7.2,7.6
					c-13.6,14.3-27.4,28.5-41.4,42.5c-0.7,0.7,4.6,2.9,5.4,2.1c16.7-16.9,33.1-34.1,49.3-51.5c0.2-0.2,0.1-0.4-0.1-0.6
					c-16.3-14.1-32.3-29-47.1-44.6c-23.3-24.5-44.8-51.3-64.1-79.2c-4.4-6.4-8.7-13-12.8-19.6c-0.5-0.7-3.1-3-4.1-2.3
					c-22.6,15.7-45.4,31.1-68.4,46.3c-0.3,0.2-0.3,0.4-0.1,0.7c13.3,18.8,27.5,37.2,42.5,54.5c24.2,28,51.1,54.3,79.4,78.4
					c6.6,5.6,13.5,11.1,20.4,16.5C512.9,427.8,518,428.8,516.9,427.9z"/>
			</g>
		</g>
		<g>
			<path class="st2" d="M487.5,354.6c11.3-10,8.7-28.5,0.1-39.2c-9.7-12-28.9-13.6-40.2-4.8c-11.5,9.1-13,28.9-1.6,40
				C456.2,360.6,475.6,365.2,487.5,354.6z"/>
			<g>
				<path class="st0" d="M489.9,355.9c9.4-9.1,10.3-23.7,3.7-34.7c-6-10-16.8-16.7-28.3-17.8c-12.9-1.1-25.9,6.8-29.3,19.3
					c-3.5,12.7,3.6,26.2,14.4,33C461.5,362.8,479,365.4,489.9,355.9c0.9-0.7-3.9-3.3-4.8-2.5c-12,10.4-30.8,5.9-39.8-5.9
					c-8.3-10.9-5.3-27.7,4.5-35.5c10.9-8.6,30.4-6.6,38.4,6.5c6.6,10.8,6.5,25.8-3,34.9C484.2,354.2,489,356.7,489.9,355.9z"/>
			</g>
		</g>
		<g>
			<path class="st2" d="M521.7,386.8c4.5-4.5,3.7-12.1-1.7-17.1c-5.4-5-13.5-5.5-18.3-1.1c-4.8,4.5-4.2,12.2,1.4,17.3
				C508.8,390.9,517.2,391.3,521.7,386.8z"/>
			<g>
				<path class="st3" d="M524.4,387.7c10.9-13.3-14.7-29.5-25.2-20.2c-12.9,11.5,13.6,29.9,25,20.4c0.8-0.7-4.1-3-5-2.2
					c-5,4.3-13.2,3.8-16.8-3.5c-2.2-4.4-1.3-9.4,2-12.4c4.9-4.6,13-3.4,16.4,3.6c2.2,4.6,1.3,9.1-1.7,12.4
					C518.7,386.3,523.5,388.8,524.4,387.7z"/>
			</g>
		</g>
		<g>
			<path class="st2" d="M435.6,294.8c5.6-4.2,6.5-12.3,2.2-18.1c-4.3-5.8-12.3-7.2-18.1-3.1c-5.8,4.2-7,12.4-2.5,18.2
				C421.7,297.8,430.1,299,435.6,294.8z"/>
			<g>
				<path class="st0" d="M437.8,296.5c14.3-12.1-5.2-35.4-20-24.6c-6.7,4.9-7.5,14.8-2,21.3C421.6,299.9,430.9,301.1,437.8,296.5
					c2.1-1.4-2.4-4.6-4.3-3.3c-11.7,7.9-21.4-10.2-11.6-17.8c4.7-3.6,11.8-2.1,14.8,3.4c2.8,5.1,0.8,11-3.2,14.4
					C431.5,294.8,436,298,437.8,296.5z"/>
			</g>
		</g>
		<g>
			<path class="st1" d="M714,393c-80.7,30.6-164.2,47.8-250.5,51.1c0.3-40.2-0.1-80.3-1.3-120.4c77.2,3,152.6-7.1,226.6-29.5
				C697.8,326.9,706.3,359.9,714,393z"/>
			<g>
				<path class="st0" d="M714.2,391.1C687,401.5,659.1,410.7,631,418c-44.2,11.5-89.7,18.8-135.5,22.4c-10.4,0.8-20.9,1.3-31.4,1.6
					c0.7,0.4,1.4,0.9,2.1,1.3c0.2-35.2-0.2-70.4-1.2-105.6c-0.1-4.9-0.3-9.8-0.5-14.6c-1,0.9-1.9,1.7-2.9,2.6
					c25.6,1,51.3,0.9,76.6-0.9c41.1-3,82.3-10.2,122.4-20.7c9.3-2.4,18.7-5.2,27.9-8.1c-0.7-0.2-1.5-0.3-2.2-0.5
					c7.9,28.8,15.3,57.7,22.1,86.7c1,4.2,1.9,8.3,2.9,12.5c0.5,2.2,5.5-1.2,5-3.2c-6.9-29-14.3-58-22.2-86.7
					c-1.1-4-2.2-7.9-3.3-11.9c-0.2-0.9-1.4-0.7-2.2-0.5c-24.9,7.7-50.5,14.3-76,19c-40,7.5-81.2,11.1-122.2,11.1
					c-9.3,0-18.7-0.3-28-0.8c-1.3-0.1-3,1.1-2.9,2.5c1,35.1,1.4,70.4,1.2,105.5c0,5-0.1,10.1-0.2,15.1c0,1.1,1.3,1.3,2.1,1.3
					c28.6-1,57.4-3.4,85.6-7.5c45.6-6.7,90.9-17.9,134.9-32.6c10.2-3.4,20.4-7.2,30.5-11.1C716.5,393.9,717.9,389.7,714.2,391.1z"/>
			</g>
		</g>
		<path class="st2" d="M704.4,389.3c-75.2,27.2-152.6,42.7-232.4,46.3c-0.1-34.6-0.7-69.2-2-103.8c72.6,1.5,143.4-8.3,213-28.9
			C690.6,331.6,697.7,360.4,704.4,389.3z"/>
		<g>
			<path class="st1" d="M694.8,385.5c-69.6,23.9-140.9,38-214.5,41.8c-0.4-29.1-1.2-58.3-2.3-87.4c67.9,0.2,134.1-9.2,199.3-28.1
				C683.4,336.3,689.2,360.8,694.8,385.5z"/>
			<g>
				<path class="st0" d="M696.5,383.6c-40.3,14.2-82,25.3-123.9,32.5c-24.3,4.2-49.1,7-73.7,8.8c-3.5,0.3-7.1,0.5-10.6,0.6
					c-1.6,0.1-3.8,0.6-5.4,0.3c-1-0.2-0.1,0.3,0,0.4c-0.3-0.5,0-1.9,0-2.4c-0.1-4.3-0.1-8.7-0.2-13c-0.5-23.9-1.3-47.8-2.3-71.8
					c-1.4,0.7-2.8,1.5-4.2,2.2c39.1,0.2,78.2-2.3,116.4-8.6c22.7-3.7,45.7-8.8,68-14.8c3.2-0.9,6.5-1.8,9.7-2.7
					c1.4-0.4,3.4-1.4,4.9-1.4c0.9,0,0-0.3,0-0.3c0.4,0.3,0.4,1.5,0.5,2c0.9,3.6,1.8,7.2,2.7,10.7c5,20.3,9.7,40.7,14.2,61.1
					c0.2,1,4.9-2.3,4.7-3.4c-5.5-24.6-11.5-49.1-17.7-73.5c-0.1-0.3-0.2-0.3-0.6-0.2c-22,6.5-44.6,12.2-67,16.6
					c-35.1,6.8-71.2,10.6-107.2,11.7c-8.2,0.3-16.6,0.3-24.8,0.2c-0.9,0-4.2,1-4.2,2.2c1.1,29.1,1.8,58.4,2.1,87.6
					c0,0.3,0.2,0.4,0.5,0.4c24.5-1.1,49.1-3.3,73.3-6.7c38.8-5.5,77.5-14.4,115.2-26c8.8-2.7,17.6-5.6,26.4-8.7
					C694.3,386.9,697.9,383.1,696.5,383.6z"/>
			</g>
		</g>
		<g>
			<path class="st2" d="M614.4,367.7c-2.2-16.2-20.5-24.2-34.9-22.6c-16.3,1.8-28.1,17.3-27.3,33.1c0.9,17,19.3,27,34.7,24.3
				C602.5,399.9,616.6,384,614.4,367.7z"/>
			<g>
				<path class="st0" d="M616.8,366.4c-2.7-13.5-15-22.6-28.5-23.1c-12.5-0.5-25.1,5.4-32.5,15.4c-7.9,10.7-8.2,26.6,0.6,36.4
					c9,10,25.7,12.3,38.1,6.2C606.9,395.1,619,381.4,616.8,366.4c-0.2-1.1-4.9,1.5-4.7,2.7c2,16-12.2,31.6-28,32.3
					c-14,0.7-28.1-11-29.4-24.4c-1.5-14.7,11.2-31.1,27.7-30.7c13,0.4,27.4,8.9,29.8,22.7C612.2,370.3,617,367.6,616.8,366.4z"/>
			</g>
		</g>
		<g>
			<path class="st2" d="M662.7,355.6c-1.4-6.6-8.7-10.2-16.2-8.3c-7.6,2-12.7,8.9-11.4,15.7c1.2,6.8,8.5,10.8,16.2,8.6
				C659,369.5,664.1,362.2,662.7,355.6z"/>
			<g>
				<path class="st0" d="M664.9,353.8c-5-17.8-34.6-5.2-32.2,10.7c2.9,19.2,34.2,5.1,32.2-10.5c-0.1-1-4.8,1.8-4.6,3
					c1,7-4.3,14.1-13,13.2c-5.2-0.6-9.1-4.2-9.9-8.9c-1.3-7.1,4.6-13.8,12.9-12.8c5.4,0.6,8.9,4.1,10.1,8.6
					C660.6,357.9,665.3,355.2,664.9,353.8z"/>
			</g>
		</g>
		<g>
			<path class="st2" d="M531.3,379.7c-0.6-7.4-7.3-12.8-14.9-12.4c-7.6,0.5-13.5,6.8-13.1,14.4c0.4,7.6,7,13.3,14.8,12.7
				C526,393.8,531.9,387.1,531.3,379.7z"/>
			<g>
				<path class="st0" d="M533.9,378.8c-2.9-19.4-33.7-14.9-33.1,3.7c0.2,8.6,8.8,15.1,17.7,13.9
					C527.7,395.1,534.1,387.4,533.9,378.8c-0.1-2.5-5.2-0.5-5.1,1.8c0.4,15.1-21.7,13.6-22.8,0.3c-0.5-6.4,5-11.9,11.7-11.5
					c6.2,0.4,10.4,5.6,11.1,11.2C529.1,383.2,534.2,381.1,533.9,378.8z"/>
			</g>
		</g>
		<g>
			<path class="st1" d="M750.6,581.9c-68.5-32.8-139.5-57.8-213.3-75.4c9.6-39,20.1-77.8,31.5-116.4
				c82.9,26.5,161.9,61.8,236.8,106.1C786.6,524.3,768.2,552.8,750.6,581.9z"/>
			<g>
				<path class="st0" d="M752,580.6c-22.6-11-45.7-21.3-68.9-30.6c-37.9-15.1-77.2-27.9-116.7-38.5c-9.3-2.5-18.7-4.8-28.1-7
					c0.5,0.6,1.1,1.2,1.6,1.8c8.5-34.2,17.7-68.2,27.6-102c1.4-4.7,2.8-9.4,4.2-14.1c-1.4,0.5-2.8,1-4.2,1.5
					c28.4,9,56.6,18.9,84.1,29.9c42.8,17.2,84.7,37.4,125.2,59.8c9.2,5.1,18.3,10.4,27.2,15.7c-0.4-0.7-0.8-1.4-1.2-2
					c-16.7,24.7-32.8,49.7-48.2,75.1c-2.2,3.6-4.4,7.3-6.6,10.9c-1.2,2,3.9,2.8,4.9,1.1c15.4-25.4,31.6-50.5,48.2-75
					c2.3-3.4,4.7-6.8,7-10.2c0.5-0.7-0.5-1.6-1.2-2c-24.7-14.8-50-28.8-75.7-41.6c-41.9-20.9-85.6-39.1-129.9-54.7
					c-10.4-3.7-20.9-7.1-31.5-10.4c-1.5-0.5-3.8,0.1-4.2,1.5c-9.9,33.8-19.2,67.9-27.6,102c-1.2,4.9-2.4,9.8-3.6,14.6
					c-0.3,1.1,0.8,1.6,1.6,1.8c25.2,5.8,50.4,12.6,75,20.2c38.3,12,76.3,26.5,113.1,42.9c8.3,3.7,16.7,7.6,24.9,11.6
					C751.4,584.2,755,582.1,752,580.6z"/>
			</g>
		</g>
		<path class="st2" d="M747.5,572.7c-64.5-30.8-131.3-54.8-200.6-72.3c8.7-33.5,18.1-66.9,28.1-100.1
			c76.6,24.8,149.8,57.1,219.6,97.2C778.4,522.2,762.7,547.3,747.5,572.7z"/>
		<g>
			<path class="st1" d="M744.3,563.5c-60.5-28.8-123-51.7-187.7-68.9c7.7-28.1,15.9-56.1,24.5-84c70.4,23,137.9,52.4,202.7,88.5
				C770.2,520.3,757,541.7,744.3,563.5z"/>
			<g>
				<path class="st0" d="M746.6,563.3c-34.6-16.7-70.4-31.8-106.5-44.6c-21.7-7.7-43.9-14.6-66.1-20.9c-3.2-0.9-6.5-1.8-9.7-2.7
					c-1.4-0.4-3.6-0.5-4.9-1.3c-0.8-0.5-0.2,0.3-0.1,0.3c-0.1-0.5,0.5-1.8,0.6-2.3c1.1-4.2,2.3-8.3,3.5-12.5
					c6.5-23,13.4-46,20.6-68.9c-1.8,0.2-3.6,0.5-5.3,0.7c41.3,13.4,82,28.7,121.3,46.6c22.6,10.2,45,21.5,66.9,33.2
					c3.1,1.7,6.2,3.4,9.3,5.1c1.4,0.8,3.6,1.6,4.7,2.6c0.7,0.7,0.2-0.2,0.2-0.2c0,0.5-0.9,1.3-1.1,1.7c-2,3.1-4,6.2-5.9,9.4
					c-11,17.7-21.8,35.6-32.2,53.6c-0.5,0.8,4.5,1.6,5.1,0.6c12.8-21.6,26-43,39.6-64.2c0.2-0.2,0.1-0.4-0.3-0.6
					c-21.4-12.1-43.3-23.7-65.4-34.3c-35.8-17.2-72.9-32.4-110.4-45.8c-8.9-3.2-17.8-6.2-26.8-9c-1-0.3-5-0.5-5.3,0.7
					c-8.6,27.9-16.6,56-24.3,84.2c-0.1,0.3,0,0.5,0.4,0.5c22.1,5.7,44.3,12.2,66,19.3c33.7,11.1,67.1,24.2,99.5,38.7
					c7.4,3.3,14.9,6.8,22.2,10.3C743.1,564.2,747.7,563.8,746.6,563.3z"/>
			</g>
		</g>
		<g>
			<path class="st2" d="M698.3,499.3c7.4-14.9-3.8-32.5-17.3-38.5c-14.2-6.4-35.7-1.5-41.3,14.9c-5,14.8,2.7,32.9,18.2,38.1
				C672,518.5,691.2,513.5,698.3,499.3z"/>
			<g>
				<path class="st0" d="M700.9,499.6c6.1-12.6-0.4-28-11-35.5c-10.7-7.6-25.7-9.3-37.8-4.1c-12.4,5.4-19.6,19.3-16.3,32.5
					c3.3,13.2,15.4,22.5,28.6,23.9C677.8,517.9,694.4,512.5,700.9,499.6c0.5-1-4.8-1.6-5.3-0.5c-7.1,14.3-25.9,19-39.6,12.2
					c-12.7-6.3-18.1-22.7-13.7-35.6c5.6-16.3,27.1-20.6,40.5-12.4c11.3,7,18.9,22.6,12.7,35.7C695.1,500.2,700.4,500.7,700.9,499.6z
					"/>
			</g>
		</g>
		<g>
			<path class="st2" d="M742.5,520c3.3-5.9,0.4-13.5-6.6-16.9c-7-3.5-15.4-1.3-18.6,4.9c-3.2,6.1-0.1,13.6,6.8,16.9
				C731,528,739.2,525.9,742.5,520z"/>
			<g>
				<path class="st0" d="M745.2,520.2c8.2-16.5-22.6-27.2-30.7-12.5c-9.2,16.7,22,25.2,30.6,12.7c0.6-0.9-4.6-1.8-5.3-0.8
					c-3.8,5.9-12,7.9-17.8,1.7c-3.5-3.7-4.2-9-2-13.1c3.3-6.3,12.3-7.8,17.9-1.6c3.6,4,3.9,9,1.8,13.2
					C739.5,520.4,744.6,521.5,745.2,520.2z"/>
			</g>
		</g>
		<g>
			<path class="st2" d="M619.9,467.8c2.5-7-1.5-14.8-9.2-17.4c-7.7-2.6-15.8,1.1-18.2,8.3c-2.3,7.2,1.9,14.9,9.4,17.3
				C609.3,478.4,617.3,474.8,619.9,467.8z"/>
			<g>
				<path class="st0" d="M622.6,468.1c5.6-19.3-26.8-27.5-32.9-9.5c-2.8,8.1,3.1,17.1,11.7,19.4C610.4,480.3,619.2,476,622.6,468.1
					c1-2.3-4.6-2.7-5.5-0.5c-5.8,13.9-25.4,3.9-21.8-8.6c1.8-6.1,9.4-9.2,15.7-6.1c5.9,2.9,7.7,9.4,6.1,14.8
					C616.4,470,622,470.3,622.6,468.1z"/>
			</g>
		</g>
		
			<ellipse transform="matrix(0.2471 -0.969 0.969 0.2471 -32.139 1035.7823)" class="st5" cx="650.5" cy="538.6" rx="39.2" ry="46.4"/>
		<g>
			<path class="st6" d="M685.6,564.2c-24.1,26.3-76.4,8.8-78.7-27.3c-1.1-17.3,11.8-31.5,28.1-35.4c17.1-4.1,36.4,2.1,48.3,15
				C695.8,530,697.8,549.9,685.6,564.2c-1.3,1.5,3.5,1.2,4.5,0c12.3-14.4,10.9-34.5-1.3-48.6c-12.8-14.8-34.1-20.9-53-16.8
				c-17.1,3.7-32.8,16.7-33.7,35.2c-0.9,19.4,14.1,35.6,31.5,41.9c19.2,7,42.4,3.6,56.5-11.8C691.4,562.8,686.6,563.1,685.6,564.2z"
				/>
		</g>
		<path class="st6" d="M678.4,558.5c-18.7,20.2-58.8,8-62-19.8c-1.6-13.5,7.7-25.1,20.4-28.8c13.6-4,29.4,0.6,39.1,10.8
			C685.9,531.2,688.1,547,678.4,558.5c-1.9,2.2,2.7,2.5,3.9,1c9.7-11.5,9.3-27.2-0.1-38.8c-9.9-12.2-26.9-17.5-42.2-14.7
			c-14,2.6-27.3,12.8-28.6,27.8c-1.3,15.6,10.2,28.8,24,34.4c15.6,6.3,35.1,3.9,46.9-8.8C684.3,557.4,679.6,557.2,678.4,558.5z"/>
		
			<ellipse transform="matrix(0.4816 -0.8764 0.8764 0.4816 -98.1383 669.037)" class="st5" cx="516.5" cy="417.5" rx="26" ry="46.4"/>
		<g>
			<path class="st6" d="M517.8,444.4c-14.4-5.2-28.7-14.5-36.8-27.8c-6.5-10.6-6.8-25.1,7.5-28.7c15.5-3.9,33.5,3.9,46,12.7
				c10.2,7.1,22.9,19.4,22.1,33.1C555.4,452.6,529.6,448.3,517.8,444.4c-1.6-0.5-5.7,1.8-2.9,2.7c12.9,4.3,33.4,7.4,43.2-5.1
				c9.9-12.6-2.8-29.6-12.3-38c-13.5-12.1-32.8-21-51.2-19.7c-13.2,0.9-25.7,9.1-22.5,23.8c4.2,19.4,25.6,32.9,42.9,39.1
				C516.5,447.7,520.5,445.3,517.8,444.4z"/>
		</g>
		<path class="st6" d="M517.8,438.4c-13-4.7-28.9-14.8-32.4-29.3c-4.3-18.1,19.1-16.3,29.8-12.6c12.8,4.4,28,14.4,32.1,28.2
			c1.8,6,0.2,12.1-5.8,14.8C534.1,442.9,525,440.8,517.8,438.4c-2.1-0.7-5.7,2.3-2.8,3.2c10.7,3.5,27.6,6.2,35.4-4.6
			c7.3-10.2-1.9-23.1-9.4-30.1c-10.9-10.2-27-17.7-42.2-16.7c-10.8,0.8-20.7,7.7-18.3,19.6c3.2,15.7,20.6,26.7,34.5,31.7
			C517,442.4,520.6,439.5,517.8,438.4z"/>
		
			<ellipse transform="matrix(0.407 -0.9134 0.9134 0.407 35.0855 650.5667)" class="st5" cx="518.6" cy="298.3" rx="24.4" ry="39.3"/>
		<g>
			<path class="st6" d="M549,319.1c-10.3,9.8-28.3,5.3-39.7-0.1c-10.7-5.1-22-14-25-26c-3.3-13.3,7.8-21.2,20.1-21.2
				c13.5,0.1,27.4,6,37.4,15.1C550.4,294.6,558.6,308.9,549,319.1c-0.9,1,3.6,0.4,4.4-0.4c10-10.8,2.2-25.1-7-33.5
				c-11.9-10.8-29.3-17.1-45.3-14.9c-10.8,1.4-22.9,7.7-22.1,20.2c0.9,16.2,18.7,28,32.4,32.8c13.1,4.5,31.1,5.7,42-4.6
				C554.3,317.8,549.9,318.3,549,319.1z"/>
		</g>
		<path class="st6" d="M543,313.6c-9.8,9.1-27,3.9-36.9-2.4c-8.1-5.1-21.2-18.7-11.8-28.5c9.1-9.5,27.4-3.3,36.7,2.6
			c8.6,5.4,20.9,18.6,11.6,28.7c-2.1,2.2,2.6,3.1,4.1,1.5c7.7-8.4,3-19.6-4.1-26.7c-9.2-9.3-23.2-15-36.3-14.1
			c-9.2,0.6-19.8,5.7-19.9,16.3c-0.1,12.3,12.2,21.9,22.2,26.5c11.2,5.2,27.7,7.7,37.6-1.5C548.6,313.7,544.9,312,543,313.6z"/>
		<ellipse transform="matrix(0.1806 -0.9836 0.9836 0.1806 -136.3556 718.3403)" class="st5" cx="363" cy="441" rx="24.6" ry="44"/>
		<g>
			<path class="st6" d="M372.2,465c-14.9-0.4-31.5-4.6-42.6-15.1c-8.4-7.9-11-19.9-0.3-27.1c12.6-8.4,31.2-6.7,45-2.6
				c11.3,3.4,26.9,11,29.4,24C406.9,460.9,384,465,372.2,465c-1.9,0-5.1,2.9-1.8,2.9c12.6,0,31.6-2.7,37.3-16.1
				c6-14.1-10.3-25.9-21.2-30.9c-15.7-7.1-35.4-9.5-52-3.7c-11.9,4.2-22.2,14.9-14.8,27.8c9.4,16.5,33.1,22.4,50.7,22.9
				C372.3,467.9,375.5,465.1,372.2,465z"/>
		</g>
		<path class="st6" d="M370.4,459.6c-13-0.4-31.1-4.6-38-17.1c-8.2-14.8,12.9-20.2,23.3-20c13,0.2,31.8,5,38.1,17.8
			c7.2,14.8-13.9,19.3-24,19.3c-2.8,0-3.7,3.5-0.4,3.5c10.3,0,25.7-2.5,29.9-13.7c4.3-11.3-8.2-20.6-17-24.7
			c-12.9-6.1-29.6-8.1-43.1-3c-9.2,3.5-16.8,11.9-11.8,21.9c7,14,27,19,41.3,19.4C371.1,463.1,373.7,459.7,370.4,459.6z"/>
		<path class="st0" d="M574,225.4c21.4-16.7,44.6-30.7,69.1-42.5c2.9-1.4-1.5-1.9-2.9-1.2c-24.7,11.9-48.3,26.1-70,43.1
			C568.1,226.4,572.9,226.2,574,225.4L574,225.4z"/>
		<path class="st0" d="M286.6,192.1c17.2,8,34,17.5,46.6,32.1c1,1.1,5.6-0.5,4.5-1.8c-12.7-14.7-29.8-24.3-47.2-32.5
			C289.2,189.3,284.7,191.2,286.6,192.1L286.6,192.1z"/>
		<path class="st0" d="M392.5,198.5c-10.3-29.9-30.1-54.8-50.7-78.2c-1-1.1-5.6,0.6-4.5,1.8c20.5,23.3,40.2,48,50.4,77.7
			C388.2,201.4,392.9,200,392.5,198.5L392.5,198.5z"/>
		<path class="st0" d="M514.8,204c16.9-34.2,33.4-68.8,42.2-106.2c0.4-1.7-4.4-1-4.8,0.6c-8.8,37.1-25,71.5-41.9,105.5
			C509.3,206,514.1,205.4,514.8,204L514.8,204z"/>
		<path class="st0" d="M431,85c9.9,28.1,14.5,58,19.5,87.3c0.2,1.2,5.1,0.1,4.8-1.3c-5.1-29.3-9.6-59.2-19.5-87.3
			C435.4,82.4,430.6,83.8,431,85L431,85z"/>
		<g id="XMLID_274_">
			<g id="XMLID_284_">
				<rect id="XMLID_285_" x="772.8" y="125.8" class="st0" width="6" height="14.9"/>
			</g>
			<g id="XMLID_281_">
				<rect id="XMLID_282_" x="772.8" y="155.9" class="st0" width="6" height="14.9"/>
			</g>
			<g id="XMLID_278_">
				<rect id="XMLID_279_" x="753.2" y="145.2" class="st0" width="14.9" height="6"/>
			</g>
			<g id="XMLID_275_">
				<rect id="XMLID_276_" x="783.3" y="145.2" class="st0" width="14.9" height="6"/>
			</g>
		</g>
		<g id="XMLID_261_">
			<g id="XMLID_271_">
				<rect id="XMLID_272_" x="136.8" y="288.6" class="st0" width="6" height="14.9"/>
			</g>
			<g id="XMLID_268_">
				<rect id="XMLID_269_" x="136.8" y="318.7" class="st0" width="6" height="14.9"/>
			</g>
			<g id="XMLID_265_">
				<rect id="XMLID_266_" x="117.2" y="308" class="st0" width="14.9" height="6"/>
			</g>
			<g id="XMLID_262_">
				<rect id="XMLID_263_" x="147.3" y="308" class="st0" width="14.9" height="6"/>
			</g>
		</g>
		<g id="XMLID_252_">
			<g id="XMLID_259_">
				<rect id="XMLID_260_" x="865.2" y="414.4" class="st0" width="6" height="14.9"/>
			</g>
			<g id="XMLID_257_">
				<rect id="XMLID_258_" x="865.2" y="444.5" class="st0" width="6" height="14.9"/>
			</g>
			<g id="XMLID_255_">
				<rect id="XMLID_256_" x="845.6" y="433.7" class="st0" width="14.9" height="6"/>
			</g>
			<g id="XMLID_253_">
				<rect id="XMLID_254_" x="875.7" y="433.7" class="st0" width="14.9" height="6"/>
			</g>
		</g>
		<g id="XMLID_243_">
			<g id="XMLID_250_">
				<rect id="XMLID_251_" x="19.6" y="444.8" class="st0" width="6" height="14.9"/>
			</g>
			<g id="XMLID_248_">
				<rect id="XMLID_249_" x="19.6" y="474.9" class="st0" width="6" height="14.9"/>
			</g>
			<g id="XMLID_246_">
				<rect id="XMLID_247_" y="464.2" class="st0" width="14.9" height="6"/>
			</g>
			<g id="XMLID_244_">
				<rect id="XMLID_245_" x="30.1" y="464.2" class="st0" width="14.9" height="6"/>
			</g>
		</g>
		<g id="XMLID_234_">
			<g id="XMLID_241_">
				<rect id="XMLID_242_" x="310.8" class="st0" width="6" height="14.9"/>
			</g>
			<g id="XMLID_239_">
				<rect id="XMLID_240_" x="310.8" y="30.1" class="st0" width="6" height="14.9"/>
			</g>
			<g id="XMLID_237_">
				<rect id="XMLID_238_" x="291.2" y="19.4" class="st0" width="14.9" height="6"/>
			</g>
			<g id="XMLID_235_">
				<rect id="XMLID_236_" x="321.3" y="19.4" class="st0" width="14.9" height="6"/>
			</g>
		</g>
	</g>
</g>
</svg>
