<?xml version="1.0" encoding="utf-8"?>
<!-- Generator: Adobe Illustrator 22.0.1, SVG Export Plug-In . SVG Version: 6.00 Build 0)  -->
<svg version="1.1" xmlns="http://www.w3.org/2000/svg" xmlns:xlink="http://www.w3.org/1999/xlink" x="0px" y="0px"
	 viewBox="0 0 709.6 632.8" style="enable-background:new 0 0 709.6 632.8;" xml:space="preserve">
<style type="text/css">
	.st0{fill:#3C819E;}
	.st1{fill:#E3E3E3;}
	.st2{fill:#FFC061;}
	.st3{fill:#FFEEA7;}
	.st4{fill:#EFEFEF;}
	.st5{fill:#FFFFFF;}
	.st6{fill:#F9F9F9;}
</style>
<g id="Ñëîé_1">
</g>
<g id="Ñëîé_2">
	<g>
		<g>
			<path class="st0" d="M635.6,574.1c8.5,4.1,11.7,9.1,7.6,15c-28.5,41.3-156.5,41.9-218.6,42.7c-78.1,1-159.4,3.3-229.7-5.7
				c-29.4-3.7-96.1-6.6-107.5-20.3c-29.9-35.9,182.9-48.9,217.4-49.9C362.1,554.2,586.9,550.6,635.6,574.1z"/>
			<g>
				<path class="st1" d="M110,574.3l482.1,1.5c5.6,0,10.1-4.5,10.1-10V235c0-5.5-4.5-10-10.1-10H123.6h-1.1
					c-16.2,0.3-21.6,11-21.8,19.5l0,0.5l-0.4,308.8c0,0,0.4,8.3,1.8,12.3c1.4,4,3.4,8.1,3.4,8.1L110,574.3z"/>
				<g>
					<path class="st0" d="M111.9,575.8c12,0,24,0.1,36.1,0.1c30,0.1,60,0.2,90,0.3c38.9,0.1,77.7,0.2,116.6,0.4
						c38.6,0.1,77.3,0.2,115.9,0.4c29.3,0.1,58.6,0.2,88,0.3c8.3,0,16.6,0.1,25,0.1c4.3,0,9.6,0.6,13.6-1.1
						c8.5-3.6,7.6-11.8,7.6-19.2c0-10.5,0-21.1,0-31.6c0-35.3,0-70.6,0-105.9c0-38.4,0-76.7,0-115.1c0-22.4,0-44.7,0-67.1
						c0-7.7-3.9-13.8-12.4-14c-5.1-0.1-10.2,0-15.3,0c-25.2,0-50.4,0-75.7,0c-37.1,0-74.2,0-111.2,0c-39.6,0-79.2,0-118.8,0
						c-32.3,0-64.7,0-97,0c-15.4,0-30.8,0-46.2,0c-13.7,0-26.5,6.8-26.9,21.9c-0.1,5.2,0,10.5,0,15.7c0,30.6-0.1,61.3-0.1,91.9
						c-0.1,39.2-0.1,78.5-0.2,117.7c0,25.9-0.1,51.8-0.1,77.8c0,9.3,1.1,17.8,5.1,26.5c0.3,0.6,0.9,0.9,1.5,0.9
						C108.8,575.8,110.3,575.8,111.9,575.8c2.1,0.1,5-3.1,1.8-3.2c-1.5,0-3.1-0.1-4.6-0.1c0.5,0.3,1,0.6,1.5,0.9
						c-4.4-9.4-5.1-17-5.1-26.6c0-10.1,0-20.1,0-30.2c0-34.9,0.1-69.7,0.1-104.6c0-37.1,0.1-74.3,0.1-111.4
						c0-18.6-0.4-37.2,0.1-55.7c0.2-8.6,4.9-16,13.8-17.9c2.5-0.5,5-0.5,7.5-0.5c5.7,0,11.5,0,17.2,0c25.6,0,51.3,0,76.9,0
						c36.9,0,73.7,0,110.6,0c38.9,0,77.8,0,116.8,0c31.8,0,63.5,0,95.3,0c15.4,0,30.9-0.4,46.3,0c8.2,0.2,9.5,6.7,9.5,13.1
						c0,8.7,0,17.3,0,26c0,32.9,0,65.9,0,98.8c0,38.5,0,77,0,115.5c0,25.9,0,51.8,0,77.7c0,6.1,1.4,15.4-6.9,16.5
						c-3.7,0.5-7.9,0-11.7,0c-22.7-0.1-45.3-0.1-68-0.2c-35.3-0.1-70.6-0.2-105.8-0.3c-39.2-0.1-78.5-0.2-117.7-0.4
						c-34.6-0.1-69.1-0.2-103.7-0.3c-21.2-0.1-42.4-0.1-63.6-0.2c-2.9,0-5.8,0-8.7,0C111.5,572.7,108.6,575.8,111.9,575.8z"/>
				</g>
			</g>
			<g>
				<g>
					<path class="st0" d="M26.8,173.9c14.1,14.2,29.9,26.4,47.3,36.4c1.8,1,6.1-1.4,3.7-2.8c-17.1-9.8-32.8-21.7-46.6-35.7
						C29.7,170.3,25.1,172.3,26.8,173.9L26.8,173.9z"/>
				</g>
				<g>
					<path class="st0" d="M2.4,253.6c19.3,5.5,39.1,8.3,59.2,8.4c1.9,0,5.1-2.9,1.8-2.9c-19.7-0.1-39.1-2.9-58.1-8.2
						C3.7,250.4-0.3,252.8,2.4,253.6L2.4,253.6z"/>
				</g>
				<g>
					<path class="st0" d="M116.9,183.2c-8.1-18.1-13.6-37.2-16.5-56.9c-0.2-1.3-5.1-0.2-4.8,1.3c2.9,19.6,8.5,38.7,16.5,56.9
						C112.7,185.9,117.4,184.3,116.9,183.2L116.9,183.2z"/>
				</g>
			</g>
			<g>
				<g id="XMLID_50_">
					
						<ellipse transform="matrix(0.7071 -0.7071 0.7071 0.7071 8.0859 457.737)" class="st2" cx="556.6" cy="219.1" rx="152.2" ry="152.2"/>
					<g>
						<path class="st2" d="M465,338c-48.4-38.3-69.6-103.4-51.9-162.7c18.1-61,74.4-105.3,138.2-107.2c63-1.9,122,37.7,144.8,96.3
							c22.6,58.2,6.7,126.1-39.9,167.8c-46.8,42-116.6,49.4-171.5,18.9C477.8,347.3,471.2,342.9,465,338c-1.2-0.9-5.6,0.9-4.5,1.8
							c50.2,38.9,120.6,43.2,175.3,10.8c55.8-33.1,85.5-99.4,72.3-163c-13.2-63.6-67.1-113-131.6-120.8
							c-62.8-7.6-125.8,24.4-156.1,80.1c-30.8,56.6-21.8,128.8,21.9,176.2c5.6,6.1,11.7,11.7,18.2,16.8
							C461.7,340.8,466.1,338.9,465,338z"/>
					</g>
				</g>
				
					<ellipse id="XMLID_49_" transform="matrix(0.7071 -0.7071 0.7071 0.7071 6.5846 442.8134)" class="st3" cx="537.8" cy="213.5" rx="152.2" ry="152.2"/>
				<g>
					<g>
						<path class="st2" d="M484.9,230.1c4.4,0.8,8.8,1.8,13.2,2.8l6.5,1.5l6.5,1.6c2.2,0.5,4.4,1,6.6,1.4c2.2,0.5,4.3,1.1,6.4,2
							c2.1,0.9,4.1,1.9,6,3c2,1.2,3.9,2.4,5.7,4.1l-0.2,0.7c-2.4,0.3-4.7,0.2-7,0c-2.3-0.2-4.5-0.6-6.7-1.1
							c-2.2-0.5-4.3-1.2-6.3-2.1c-2-0.9-4.1-1.9-6.2-2.7l-6.2-2.5l-6.2-2.6c-4.1-1.8-8.2-3.6-12.3-5.5L484.9,230.1z"/>
					</g>
					<g>
						<path class="st2" d="M490.9,211.6l23.1,6.6l23,6.7c2,0.6,3.7,1.1,5.6,1.4l1.4,0.3l1.4,0.2c0.9,0.1,1.9,0.2,2.8,0.3
							c3.7,0.3,7.5,0,11.1-0.9c3.6-0.8,7-2.2,9.9-4.2c1.5-1,2.7-2.1,4-3.4c1.3-1.4,2.5-2.8,3.6-4.3c1.1-1.5,2-3,2.9-4.6
							c0.8-1.6,1.6-3.2,2.1-4.9c1.1-3.3,1.6-6.9,1.6-10.4c0-1.8-0.1-3.6-0.4-5.4c-0.1-1-0.3-1.7-0.4-2.5c-0.1-0.4-0.2-0.8-0.3-1.2
							c-0.1-0.4-0.2-0.8-0.4-1.2c-1.2-3.1-3-6-5.3-8.6c-2.3-2.6-5.1-4.8-8.1-6.6c-0.7-0.5-1.5-0.9-2.3-1.3c-0.8-0.4-1.6-0.7-2.4-1.1
							c-0.8-0.3-1.6-0.7-2.5-1c-0.9-0.3-1.6-0.5-2.6-0.8l-23-6.6l7.9-4c-2.8,9.8-5.7,19.7-9,29.4c-1.6,4.9-3.3,9.7-5,14.5l-2.6,7.2
							l-2.7,7.2c-3.6,9.6-7.3,19.2-11.3,28.6c-4,9.5-8.1,18.9-12.6,28.2l-1.2-0.4c1.8-10.2,4-20.2,6.3-30.2
							c2.4-10,4.9-19.9,7.7-29.8l2.1-7.4l2.1-7.4c1.4-4.9,2.9-9.8,4.5-14.7c3-9.8,6.4-19.4,9.9-29.1l2.2-6.1l5.7,2.1l22.5,8.2
							c8.3,2.8,16.1,7.8,21.9,14.8c2.9,3.5,5.2,7.5,6.7,12c0.2,0.5,0.3,1.1,0.5,1.7c0.1,0.6,0.3,1.1,0.4,1.7
							c0.2,1.2,0.4,2.4,0.5,3.4c0.2,2.1,0.2,4.3,0.2,6.5c-0.2,4.4-1,8.9-2.7,13c-0.8,2.1-1.8,4.1-2.9,6c-1.2,1.9-2.4,3.7-3.8,5.3
							c-1.4,1.7-2.9,3.2-4.4,4.7c-1.6,1.5-3.4,3-5.4,4.1c-3.8,2.3-8.1,3.7-12.3,4.4c-4.3,0.7-8.6,0.8-12.8,0.2
							c-1.1-0.1-2.1-0.3-3.1-0.5l-1.5-0.3l-1.5-0.4c-2-0.5-4-1.3-5.9-1.9L513,221l-22.5-8.2L490.9,211.6z"/>
					</g>
				</g>
				<g id="XMLID_47_">
					<path class="st2" d="M448.5,331.7c-48.3-38.2-69.5-103.4-51.9-162.5c17.7-59.5,72.2-104.7,135-106
						c62.5-1.3,120.6,38.2,143.2,96.3c22.5,57.8,6.9,125.1-38.9,166.9c-22.4,20.4-50.8,33.7-81,36.7c-30.3,3-61.2-3.8-87.6-18.8
						C460.8,340.6,454.5,336.3,448.5,331.7c-2-1.6-10.3,2.3-9.1,3.2c51.2,39.7,122.9,42.6,178.6,10.2
						c56.6-32.9,86.9-99.7,73.7-163.9c-13.2-64-67.9-113.7-132.9-120.9c-63.7-7.1-128.7,24.7-159.6,81.4
						c-30.9,56.8-21.8,128.9,22,176.4c5.6,6.1,11.7,11.7,18.2,16.8C441.4,336.5,449.8,332.7,448.5,331.7z"/>
				</g>
				<g id="XMLID_45_">
					<path class="st2" d="M467.4,307.4c-38.2-30.3-55.2-81.5-41.6-128.5c13.6-47.3,56.4-83,106-84.7c49.7-1.7,96.4,30,114.4,76.1
						c17.9,45.7,6,98.8-30,132.3c-36.1,33.6-90.7,39.1-133.5,15C477.3,314.6,472.2,311.2,467.4,307.4c-2.3-1.8-11,2-9,3.5
						c41.1,31.8,98.9,34.6,143.7,8.5c45.3-26.4,70.2-79.5,59.8-131.1c-10.4-51.7-54.1-91.5-106.3-97.8
						c-51.5-6.2-104,19.6-129.1,65.2c-25,45.5-17.8,103.6,17.4,141.8c4.5,4.9,9.4,9.3,14.5,13.4C460.6,312.7,469.4,309,467.4,307.4z
						"/>
				</g>
			</g>
			<g>
				<g id="XMLID_31_">
					
						<ellipse transform="matrix(0.7071 -0.7071 0.7071 0.7071 5.7129 320.2681)" class="st2" cx="389.5" cy="153.2" rx="152.2" ry="152.2"/>
					<g>
						<path class="st2" d="M374,303.3c-61.7-7.2-114-52.3-129.6-112.6c-15.7-60.6,8.5-126.2,59.8-162c52.6-36.8,125-34.3,175.7,4.7
							c49.2,37.8,70.6,103.5,53.2,163c-17.6,60-72.5,104.7-135.3,107.6C389.9,304.5,381.9,304.2,374,303.3c-1.3-0.1-5.6,2.1-3,2.4
							c62.8,6.8,125.4-25.2,155.3-81.2C557,166.9,546.7,94.1,501.6,47C457,0.5,386-12.9,327.2,13.1c-59,26-96.6,87.1-92.1,151.6
							c4.5,63.8,50.4,119.6,112.1,136.5c7.8,2.1,15.7,3.6,23.7,4.5C372.3,305.9,376.6,303.6,374,303.3z"/>
					</g>
				</g>
				
					<ellipse id="XMLID_30_" transform="matrix(0.7071 -0.7071 0.7071 0.7071 -3.4014 308.356)" class="st3" cx="370.5" cy="158.3" rx="152.2" ry="152.2"/>
				<g id="XMLID_28_">
					<path class="st2" d="M357.6,307.7c-61.3-7.2-113.2-51.6-129.3-111.3c-16.1-60,7-125.5,57.4-161.9c51.3-37.1,121.9-34,172,3.8
						c49.3,37.3,71.4,102.8,54.6,162.3c-16.6,58.7-69.2,104.4-130.8,107.7C373.5,308.9,365.5,308.6,357.6,307.7
						c-2.2-0.2-4.8,0.3-6.7,1.3c-0.6,0.3-3.5,2.1-1.2,2.3c63.7,6.8,128.5-24.5,159.4-81.2c31.3-57.5,21.6-130.3-23.2-177.9
						c-45.2-48-116.8-60.2-177-34.9c-60,25.2-99.1,86.4-95.1,151.7c3.9,64.1,49.5,120.1,111.3,137.5c8.1,2.3,16.3,3.8,24.6,4.8
						c2.2,0.3,4.8-0.3,6.7-1.3C356.9,309.8,359.8,308,357.6,307.7z"/>
				</g>
				<g id="XMLID_26_">
					<path class="st2" d="M360,276.9c-48.6-5.7-89.6-41.3-102.2-88.5c-12.8-47.9,5.8-100.4,46.4-129c40.7-28.8,96.4-26,135.7,4.1
						c38.9,29.9,56.2,81.7,42.8,128.9c-13.2,46.6-55.2,82.7-104.2,85.1C372.3,277.7,366.2,277.5,360,276.9c-2.1-0.2-5.2,0.3-6.8,1.8
						c-1.3,1.2-1.4,2.4,0.7,2.7c51.3,5.4,103.2-19.9,128.1-65.5c25.3-46.2,17.3-105-18.9-143.1c-36.4-38.3-94.6-48.4-142.7-27.5
						c-47.9,20.8-79.2,69.2-76.2,121.7c3,51.8,40.3,97.2,90.3,110.7c6.3,1.7,12.8,2.9,19.3,3.7c2.1,0.2,5.3-0.3,6.8-1.8
						C362.1,278.3,362.2,277.1,360,276.9z"/>
				</g>
			</g>
			<g>
				<path id="XMLID_3_" class="st4" d="M104,556.6l0.4-308.8l0.4-2.8c0,0,2.7,6.2,12.6,5.6h448.3c5.1,0,9.3,4.2,9.3,9.3v330.1
					c0,5.2-4.1,9.3-9.3,9.3H146.5C123,599.4,104,580.2,104,556.6z"/>
				<path id="XMLID_88_" class="st5" d="M103.5,542.1l0.4-291.5l0.9-2.1l2.7,2.1c81.9,0,163.7-0.1,245.6-0.1
					c54.5,0,108.9,0,163.4-0.1c25.3,0,40.2,2.5,45,31.2c7.3,43.4,6.8,87.9,3.2,131.6c-3.1,38-3.8,83.3-22.9,117.3
					c-42.3,75.2-164.4,52.4-235.4,52.4c-53.9,0-107.7,0-161.6,0C121.9,582.9,103.5,564.7,103.5,542.1z"/>
				<g id="XMLID_87_">
					<path class="st0" d="M105,556.4c0-35.4,0.1-70.8,0.1-106.2c0.1-55.7,0.1-111.4,0.2-167.1c0-8.9,0-17.8,0-26.6
						c0-3.9-0.2-7.8,0.4-11.7c-1.6,0.3-3.2,0.6-4.9,0.9c4.1,8.8,19.4,6.6,27.6,6.6c17.3,0,34.5,0,51.8,0c55.7,0,111.4,0,167.1,0
						c54.1,0,108.2,0,162.3,0c15.3,0,30.6,0,45.9,0c2.6,0,5.3-0.2,8,0c7.1,0.4,7.9,6.2,7.9,11.6c0,42.7,0,85.4,0,128.1
						c0,54.9,0,109.8,0,164.7c0,11,0.7,22.4,0,33.4c-0.5,6.7-4.6,7.7-9.7,7.7c-5.1,0-10.2,0-15.3,0c-46.8,0-93.5,0-140.3,0
						c-58.2,0-116.4,0-174.7,0c-28.8,0-57.6,0.6-86.4,0C122.8,597.3,105.4,578.5,105,556.4c0-2.4-4.9-1.5-4.9,0.4
						c0.3,20.3,13.9,38.3,34,43c4.8,1.1,9.6,1.2,14.5,1.2c14.2,0,28.3,0,42.5,0c55,0,110,0,164.9,0c54.5,0,109,0,163.5,0
						c13.6,0,27.2,0,40.7,0c5.3,0,10.8-0.3,14.2-5.3c2.5-3.6,1.9-7.9,1.9-12c0-45.7,0-91.4,0-137.1c0-53.9,0-107.9,0-161.8
						c0-6.6,0-13.1,0-19.7c0-4.9,0.6-10.1-3.7-13.6c-3.4-2.8-7.4-2.6-11.4-2.6c-5.2,0-10.5,0-15.7,0c-46.4,0-92.8,0-139.3,0
						c-60,0-119.9,0-179.9,0c-35.6,0-71.2,0-106.8,0c-4.8,0-11.4,0.4-13.8-4.7c-0.8-1.8-4.6-1-4.9,0.9c-1.5,10.2-0.4,21.1-0.5,31.3
						c0,24.3-0.1,48.6-0.1,73c-0.1,56.1-0.1,112.3-0.2,168.4c0,13,0,25.9-0.1,38.9C100.1,559.2,105,558.3,105,556.4z"/>
				</g>
				<path class="st4" d="M571.1,398.6h-86.4l-19.4,23.2c-8.8,10.5-8.5,27.6,0.7,37.6l17.7,19.2l87.4,0V398.6z"/>
				<path id="XMLID_2_" class="st4" d="M514.1,388.3h-22.6l-21,23.2c-9.5,10.5-9.2,27.6,0.8,37.6l19.1,19.2l109.1,0
					c4.3,0,7.7-3.8,7.7-8.5v-63c0-4.7-3.5-8.5-7.7-8.5h-62.2H514.1z"/>
				<path id="XMLID_4_" class="st5" d="M511,388.3h-19.8L472.9,409c-8.3,9.4-8,24.7,0.7,33.7l16.7,17.2c16,0,32,0,48,0
					c18.6,0,40.9,5.9,49.9-15.5c6.2-14.7,4-32.9,4-48.5c0-4.2-3-7.6-6.7-7.6h-54.3H511z"/>
				<g id="XMLID_85_">
					<path class="st0" d="M515,386.9c-7.1,0-14.2-0.1-21.3,0c-5.3,0.1-8.1,5.3-11.4,8.9c-4.6,5.1-9.3,10.1-13.8,15.2
						c-8,9.3-9.8,22.7-3.7,33.5c3.8,6.7,10.8,12.2,16.2,17.6c2.5,2.5,5.5,7.3,9.3,7.6c12.3,1,25.2,0,37.6,0c17.9,0,35.9,0,53.8,0
						c7.7,0,25.9,3.2,27.8-7.7c0.8-4.3,0.1-9.3,0.1-13.7c0-9.1,0-18.2,0-27.3c0-7.4,0-14.8,0-22.3c0-5.8-1.1-11.5-8.1-12
						c-13.8-1-28.1,0-42,0c-12,0-23.9,0-35.9,0C520.8,386.9,517.9,386.9,515,386.9c-1.9,0-5.1,2.9-1.8,2.9c24,0,48,0,72,0
						c4.5,0,9.7-0.7,14.1,0c6,1,5.5,6.4,5.5,11c0,14.8,0,29.7,0,44.5c0,5,0.1,10.1,0,15.2c-0.1,4.3-1.8,6.5-5.8,6.5
						c-11.8,0-23.6,0-35.4,0c-16,0-31.9,0-47.9,0c-5.9,0-11.8,0-17.7,0c-1.6,0-3.3-0.1-5,0c-2.1,0.1-1.4-0.6-0.5,0.4
						c-8.7-9.8-23-18.5-26-32.1c-3.9-18,12.4-30.6,23.1-42.5c1.2-1.3,2.4-2.7,3.7-4c-1,0.3-1.9,0.7-2.9,1c7.5,0,15.1,0,22.6,0
						C515.1,389.7,518.3,386.9,515,386.9z"/>
				</g>
				<g id="XMLID_84_">
					<circle class="st6" cx="525.8" cy="429.1" r="24.3"/>
					<g>
						<path class="st0" d="M547.7,429.4c-0.3,12.1-9.5,23.2-22.4,22.4c-11.9-0.7-21.3-11.1-21.4-22.9c-0.1-12.2,9.8-23.1,22.4-22.4
							C538.4,407.1,547.3,417.6,547.7,429.4c0.1,2.3,4.9,1.4,4.9-0.5c-0.7-24-30.8-34.2-46.8-16.6c-7.5,8.3-8.8,20.8-2.9,30.4
							c5.7,9.3,16.9,13.7,27.4,11.8c12.5-2.3,21.9-12.8,22.3-25.6C552.6,426.6,547.7,427.5,547.7,429.4z"/>
					</g>
				</g>
			</g>
		</g>
		<g>
			<g>
				<path class="st2" d="M322.6,187.2c4.5-0.5,8.9-0.8,13.4-1.1l6.7-0.4l6.7-0.3c2.2-0.1,4.5-0.3,6.7-0.5c2.2-0.2,4.5-0.2,6.7,0.1
					c2.2,0.3,4.4,0.6,6.7,1.2c2.2,0.5,4.4,1.2,6.6,2.3l0,0.7c-2.2,1-4.5,1.5-6.7,2c-2.2,0.4-4.5,0.7-6.7,0.9
					c-2.2,0.2-4.5,0.1-6.7-0.2c-2.2-0.3-4.4-0.6-6.7-0.8l-6.7-0.6l-6.7-0.7c-4.4-0.5-8.9-1-13.3-1.7L322.6,187.2z"/>
			</g>
			<g>
				<path class="st2" d="M323,167.7l24-0.4l24-0.3c2,0,3.9,0,5.8-0.2l1.4-0.1l1.4-0.2c0.9-0.1,1.9-0.3,2.8-0.5
					c3.7-0.8,7.2-2.2,10.3-4c3.2-1.8,6-4.1,8.2-6.9c1.1-1.3,2-2.8,2.8-4.4c0.8-1.7,1.6-3.4,2.2-5.1c0.6-1.7,1.1-3.5,1.5-5.2
					c0.3-1.8,0.6-3.5,0.6-5.3c0.1-3.5-0.5-7-1.5-10.4c-0.6-1.7-1.2-3.4-2-5.1c-0.4-0.9-0.8-1.6-1.2-2.3c-0.2-0.4-0.4-0.7-0.7-1
					c-0.2-0.3-0.4-0.7-0.7-1c-2-2.6-4.6-4.9-7.6-6.7c-3-1.8-6.3-3.1-9.7-4c-0.8-0.2-1.7-0.4-2.6-0.6c-0.9-0.1-1.7-0.3-2.6-0.4
					c-0.9-0.1-1.8-0.2-2.6-0.2c-0.9,0-1.7-0.1-2.7,0l-24,0.3l6.4-6.1c0.1,10.2,0.2,20.5-0.2,30.7c-0.1,5.1-0.4,10.2-0.6,15.4
					l-0.4,7.7l-0.5,7.7c-0.7,10.2-1.5,20.5-2.6,30.7c-1.1,10.2-2.3,20.4-3.9,30.6l-1.3,0c-1.3-10.3-2-20.5-2.7-30.8
					c-0.6-10.3-1-20.5-1.3-30.8l-0.2-7.7l-0.1-7.7c-0.1-5.1-0.1-10.2,0-15.4c0.1-10.2,0.6-20.5,1.1-30.7l0.4-6.5l6,0.3l23.9,1.3
					c8.8,0.3,17.7,2.8,25.3,7.8c3.8,2.5,7.2,5.7,9.8,9.6c0.3,0.5,0.6,1,0.9,1.5c0.3,0.5,0.6,1,0.9,1.5c0.5,1.1,1.1,2.1,1.4,3.1
					c0.8,2,1.5,4.1,2.1,6.2c1.1,4.3,1.6,8.8,1.2,13.3c-0.2,2.2-0.6,4.4-1.1,6.6c-0.6,2.1-1.2,4.2-2.1,6.2c-0.8,2-1.8,3.9-2.8,5.8
					c-1.1,1.9-2.4,3.8-4,5.5c-3,3.3-6.7,5.9-10.5,7.8c-3.9,1.9-8,3.2-12.2,3.9c-1,0.2-2.1,0.3-3.1,0.4l-1.6,0.1l-1.6,0.1
					c-2.1,0.1-4.2,0-6.2-0.1l-23.9-1.3l-23.9-1.4L323,167.7z"/>
			</g>
		</g>
		<path class="st0" d="M404.2,379.2c1.4-4.3,0-7.4-6.1-7.4H378c-5.1,0-7.4,2.7-8.8,5.7c0,0-10.4,25-24.8,41.2
			c-4.7,4.7-6.8,6.3-9.4,6.3c-1.4,0-3.1-1.6-3.1-5.9v-40.1c0-5.1-1.6-7.4-5.9-7.4h-31.7c-3.1,0-5.1,2.3-5.1,4.7
			c0,4.9,7.2,6.1,8,19.7v29.7c0,6.4-1.2,7.6-3.7,7.6c-6.8,0-23.4-25.2-33.4-53.9c-2-5.7-3.9-7.8-9-7.8h-20.3c-5.9,0-6.8,2.7-6.8,5.7
			c0,5.3,6.8,31.8,31.8,67c16.6,24,40.3,36.9,61.5,36.9c12.9,0,14.5-2.9,14.5-7.8v-18.2c0-5.9,1.2-6.8,5.3-6.8
			c2.9,0,8.2,1.6,20.1,13.1c13.7,13.7,16,19.9,23.6,19.9H401c5.9,0,8.6-2.9,7-8.6c-1.8-5.7-8.4-13.9-17-23.6
			c-4.7-5.5-11.7-11.5-13.9-14.5c-2.9-3.9-2.1-5.5,0-9C377,425.7,401.6,391,404.2,379.2"/>
	</g>
</g>
</svg>
