<?xml version="1.0" encoding="utf-8"?>
<!-- Generator: Adobe Illustrator 22.0.1, SVG Export Plug-In . SVG Version: 6.00 Build 0)  -->
<svg version="1.1" xmlns="http://www.w3.org/2000/svg" xmlns:xlink="http://www.w3.org/1999/xlink" x="0px" y="0px"
	 viewBox="0 0 299.1 427.2" style="enable-background:new 0 0 299.1 427.2;" xml:space="preserve">
<style type="text/css">
	.st0{fill:#3C819E;}
	.st1{fill:#FFFFFF;}
	.st2{fill:#6A79A8;}
	.st3{fill:#FCEBA2;}
	.st4{fill:#3A3571;}
	.st5{fill:none;stroke:#3C819E;stroke-width:5;stroke-miterlimit:10;}
</style>
<g id="Ñëîé_3">
</g>
<g id="Ñëîé_4">
</g>
<g id="Ñëîé_5">
	<g>
		<path class="st0" d="M294.2,395.9c4.6,2.2,6.2,4.8,4,8c-15.2,22-83.5,22.3-116.6,22.8c-41.7,0.6-85,1.7-122.5-3
			c-15.7-2-51.3-3.5-57.4-10.8c-16-19.2,97.6-26.1,116-26.6C148.2,385.3,268.2,383.4,294.2,395.9z"/>
		<g>
			<g>
				<path class="st1" d="M7.6,397l275.4,0.8c3.2,0,5.8-2.6,5.8-5.8v-190c0-3.2-2.6-5.8-5.8-5.8H15.3h-0.6
					c-9.3,0.2-12.3,6.3-12.5,11.2l0,0.3L2,385.3c0,0,0.2,4.8,1,7.1s1.9,4.6,1.9,4.6L7.6,397z"/>
				<g>
					<path class="st0" d="M283,399.9C282.9,399.9,282.9,399.9,283,399.9L7.6,399c0,0,0,0-0.1,0L4.9,399c-0.8,0-1.4-0.5-1.7-1.1
						c0-0.1-1.2-2.5-2-4.8c-0.9-2.5-1.1-7.1-1.1-7.6l0.2-177.8c0.2-6,4.1-13,14.4-13.2H283c4.3,0,7.8,3.5,7.8,7.8v190
						c0,2.1-0.8,4-2.3,5.5C287,399.1,285,399.9,283,399.9z M7.6,395l275.3,0.8c0,0,0,0,0,0c1,0,1.9-0.4,2.7-1.1
						c0.7-0.7,1.1-1.7,1.1-2.7v-190c0-2.1-1.7-3.8-3.8-3.8H14.7c-9.5,0.2-10.4,7.1-10.5,9.2l0,0.3L4,385.3c0.1,1.1,0.3,4.7,0.9,6.4
						c0.4,1.2,1,2.5,1.3,3.3L7.6,395z"/>
				</g>
			</g>
			<g>
				<g>
					
						<rect x="62.8" y="18.9" transform="matrix(0.9668 0.2556 -0.2556 0.9668 42.9198 -32.3174)" class="st1" width="166" height="260.1"/>
					<path class="st0" d="M192.8,297.9c-0.2,0-0.3,0-0.5-0.1L31.8,255.4c-0.5-0.1-1-0.5-1.2-0.9c-0.3-0.5-0.3-1-0.2-1.5L96.9,1.5
						c0.3-1.1,1.4-1.7,2.4-1.4l160.5,42.4c0.5,0.1,1,0.5,1.2,0.9c0.3,0.5,0.3,1,0.2,1.5l-66.5,251.5
						C194.5,297.3,193.7,297.9,192.8,297.9z M34.7,252.1l156.6,41.4l65.5-247.6L100.2,4.4L34.7,252.1z"/>
				</g>
				<g id="XMLID_258_">
					<g id="XMLID_261_">
						<g id="XMLID_262_">
							<path class="st2" d="M85.8,49.4l0.5-1.8c24.7,6.5,50.2-8.3,56.7-33l1.8,0.5C137.9,40.8,111.5,56.2,85.8,49.4z"/>
							<path class="st0" d="M98.1,52c-4.2,0-8.4-0.5-12.6-1.6l-1-0.3l1-3.7l1,0.3c11.7,3.1,23.9,1.4,34.4-4.7
								c10.5-6.1,18-15.9,21.1-27.6l0.3-1l3.7,1l-0.3,1C139.9,37.4,119.9,52,98.1,52z"/>
						</g>
					</g>
					<g id="XMLID_259_">
						<g id="XMLID_260_">
							<path class="st2" d="M245.8,91.7c-25.7-6.8-41.1-33.3-34.3-59l1.8,0.5c-6.5,24.7,8.3,50.2,33,56.7L245.8,91.7z"/>
							<path class="st0" d="M246.5,92.9l-1-0.3c-26.2-6.9-42-33.9-35-60.2l0.3-1l3.7,1l-0.3,1c-6.4,24.2,8.1,49.1,32.3,55.5l1,0.3
								L246.5,92.9z"/>
						</g>
					</g>
				</g>
				<g id="XMLID_242_">
					<g id="XMLID_255_">
						<g id="XMLID_257_">
							<path class="st2" d="M78.4,266.1l-1.8-0.5c6.5-24.7-8.3-50.2-33-56.7l0.5-1.8C69.8,213.9,85.2,240.3,78.4,266.1z"/>
							<path class="st0" d="M79.1,267.3l-3.7-1l0.3-1c3.1-11.7,1.4-23.9-4.7-34.4c-6.1-10.5-15.9-18-27.6-21.1l-1-0.3l1-3.7l1,0.3
								c26.2,6.9,42,33.9,35,60.2L79.1,267.3z"/>
						</g>
					</g>
					<g id="XMLID_243_">
						<g id="XMLID_252_">
							<path class="st2" d="M147,284.2l-1.8-0.5c6.8-25.7,33.3-41.1,59-34.3l-0.5,1.8C178.9,244.7,153.5,259.5,147,284.2z"/>
							<path class="st2" d="M147.7,285.4l-3.7-1l0.3-1c6.9-26.2,33.9-42,60.2-35l1,0.3l-1,3.7l-1-0.3c-11.7-3.1-23.9-1.4-34.4,4.7
								c-10.5,6.1-18,15.9-21.1,27.6L147.7,285.4z"/>
						</g>
					</g>
				</g>
				<g id="XMLID_227_">
					<g>
						
							<ellipse id="XMLID_47_" transform="matrix(0.9999 -1.147276e-02 1.147276e-02 0.9999 -1.6979 1.8068)" class="st3" cx="156.6" cy="148.9" rx="51.9" ry="51.9"/>
						<g id="XMLID_43_">
							<g>
								<g id="XMLID_44_">
									<path class="st4" d="M132.3,200.8c-28.3-7.5-45.2-36.6-37.7-64.9c7.5-28.3,36.6-45.2,64.9-37.7
										c28.3,7.5,45.2,36.6,37.7,64.9C189.7,191.3,160.6,208.3,132.3,200.8z M159,100c-27.3-7.2-55.4,9.1-62.6,36.4
										c-7.2,27.3,9.1,55.4,36.4,62.6c27.3,7.2,55.4-9.1,62.6-36.4C202.6,135.3,186.3,107.2,159,100z"/>
									<path class="st0" d="M145.9,203.5c-4.6,0-9.2-0.6-13.8-1.8h0c-28.8-7.6-46.1-37.3-38.5-66.1c3.7-13.9,12.6-25.6,25.1-32.9
										c12.5-7.3,27.1-9.2,41-5.6c28.8,7.6,46.1,37.3,38.5,66.1C191.7,187.5,169.8,203.5,145.9,203.5z M145.9,99.3
										c-22.2,0-42.6,14.9-48.5,37.4c-3.4,12.9-1.6,26.5,5.2,38.1c6.8,11.6,17.6,19.9,30.5,23.3c26.8,7.1,54.3-8.9,61.4-35.7
										c7.1-26.8-8.9-54.3-35.7-61.4C154.4,99.8,150.1,99.3,145.9,99.3z"/>
								</g>
							</g>
						</g>
					</g>
				</g>
			</g>
			<g>
				<path id="XMLID_224_" class="st1" d="M2,385.3l0.2-177.4l0.2-1.6c0,0,1.5,3.5,7.3,3.2h259.5c3,0,5.4,2.4,5.4,5.4v189.6
					c0,3-2.4,5.4-5.4,5.4H26.6C13,409.9,2,398.9,2,385.3z"/>
				<g id="XMLID_223_">
					<path class="st0" d="M269.3,411.9H26.6C11.9,411.9,0,399.9,0,385.3c0,0,0,0,0,0l0.2-177.4c0-0.1,0-0.2,0-0.3l0.2-1.6
						c0.1-0.9,0.8-1.6,1.7-1.7c0.9-0.1,1.7,0.4,2.1,1.2c0,0.1,1.2,2.3,5.3,2c0,0,0.1,0,0.1,0h259.5c4.1,0,7.4,3.3,7.4,7.4v189.6
						C276.7,408.6,273.4,411.9,269.3,411.9z M4,385.3c0,12.5,10.1,22.6,22.6,22.6h242.7c1.9,0,3.4-1.5,3.4-3.4V214.9
						c0-1.9-1.5-3.4-3.4-3.4H9.8c-2.4,0.1-4.2-0.3-5.6-1L4,385.3L4,385.3z"/>
				</g>
			</g>
			<g>
				<path id="XMLID_222_" class="st1" d="M291,290.8h-66.5l-12.1,12.1c-5.5,5.5-5.3,14.4,0.5,19.6l11,10l67.1,0V290.8z"/>
				<g id="XMLID_221_">
					<path class="st0" d="M291,334.4L291,334.4l-67.1,0c-0.5,0-1-0.2-1.3-0.5l-11-10c-3.2-2.9-5-6.8-5.1-11.1
						c-0.1-4.3,1.5-8.3,4.5-11.3l12.1-12.1c0.4-0.4,0.9-0.6,1.4-0.6h13c1.1,0,2,0.9,2,2c0,1.1-0.9,2-2,2h-12.2l-11.5,11.5
						c-2.3,2.3-3.5,5.2-3.4,8.4c0.1,3.2,1.4,6.1,3.8,8.3l10.4,9.5l64.3,0v-37.7h-38.2c-1.1,0-2-0.9-2-2c0-1.1,0.9-2,2-2H291
						c1.1,0,2,0.9,2,2v41.7c0,0.5-0.2,1-0.6,1.4S291.6,334.4,291,334.4z"/>
				</g>
				<g id="XMLID_220_">
					<path class="st0" d="M244.3,322.6c-5.8,0-10.6-4.7-10.6-10.6s4.7-10.6,10.6-10.6c5.8,0,10.6,4.7,10.6,10.6
						S250.1,322.6,244.3,322.6z M244.3,305.5c-3.6,0-6.6,2.9-6.6,6.6c0,3.6,2.9,6.6,6.6,6.6c3.6,0,6.6-2.9,6.6-6.6
						C250.9,308.4,247.9,305.5,244.3,305.5z"/>
				</g>
			</g>
			<g>
				<g>
					<path class="st0" d="M263.8,280.1c-1.1,0-2-0.9-2-2v-30.6c0-1.1,0.9-2,2-2c1.1,0,2,0.9,2,2v30.6
						C265.8,279.2,264.9,280.1,263.8,280.1z"/>
				</g>
				<g>
					<path class="st0" d="M172.1,400.8h-14.9c-1.1,0-2-0.9-2-2c0-1.1,0.9-2,2-2h14.9c1.1,0,2,0.9,2,2
						C174.1,399.9,173.2,400.8,172.1,400.8z"/>
				</g>
				<g>
					<path class="st0" d="M213.5,400.8H190c-1.1,0-2-0.9-2-2c0-1.1,0.9-2,2-2h23.5c1.1,0,2,0.9,2,2
						C215.5,399.9,214.6,400.8,213.5,400.8z"/>
				</g>
				<g>
					<path class="st0" d="M131.1,400.8H62.7c-1.1,0-2-0.9-2-2c0-1.1,0.9-2,2-2h68.5c1.1,0,2,0.9,2,2
						C133.1,399.9,132.2,400.8,131.1,400.8z"/>
				</g>
				<g>
					<path class="st0" d="M12.7,302.2c-1.1,0-2-0.9-2-2v-56c0-1.1,0.9-2,2-2s2,0.9,2,2v56C14.7,301.3,13.8,302.2,12.7,302.2z"/>
				</g>
				<g>
					<path class="st0" d="M12,346.6c-1.1,0-2-0.9-2-2v-20.4c0-1.1,0.9-2,2-2c1.1,0,2,0.9,2,2v20.4C14,345.7,13.1,346.6,12,346.6z"/>
				</g>
			</g>
		</g>
		<g>
			<line class="st5" x1="154.7" y1="169.5" x2="161.4" y2="146.5"/>
			<path class="st5" d="M146.5,167.1l6.3-21.5c1.8-6.3,0.5-12.8-3.4-16.5c-4.5-4.3-9.3-5.8-15.3-4.8c-5.3,0.9-10.1,5.8-12,12.2
				l-3.1,10.5l52.7,15.4"/>
		</g>
		<path class="st0" d="M189.3,276c0.9-3,0-5.1-4.2-5.1h-13.9c-3.5,0-5.1,1.9-6.1,3.9c0,0-7.2,17.3-17.2,28.5
			c-3.2,3.2-4.7,4.3-6.5,4.3c-0.9,0-2.2-1.1-2.2-4.1v-27.7c0-3.5-1.1-5.1-4.1-5.1h-21.9c-2.2,0-3.5,1.6-3.5,3.2
			c0,3.4,5,4.2,5.5,13.6v20.5c0,4.5-0.8,5.3-2.6,5.3c-4.7,0-16.2-17.4-23.1-37.3c-1.4-3.9-2.7-5.4-6.2-5.4H69.4
			c-4.1,0-4.7,1.9-4.7,3.9c0,3.6,4.7,22,22,46.3c11.5,16.6,27.8,25.5,42.6,25.5c8.9,0,10-2,10-5.4v-12.6c0-4.1,0.8-4.7,3.6-4.7
			c2,0,5.7,1.1,13.9,9.1c9.5,9.5,11.1,13.8,16.3,13.8h13.9c4.1,0,5.9-2,4.9-5.9c-1.2-3.9-5.8-9.6-11.8-16.3c-3.2-3.8-8.1-8-9.6-10
			c-2-2.7-1.5-3.8,0-6.2C170.5,308.2,187.5,284.1,189.3,276"/>
	</g>
</g>
</svg>
