<?xml version="1.0" encoding="utf-8"?>
<!-- Generator: Adobe Illustrator 22.0.1, SVG Export Plug-In . SVG Version: 6.00 Build 0)  -->
<svg version="1.1" xmlns="http://www.w3.org/2000/svg" xmlns:xlink="http://www.w3.org/1999/xlink" x="0px" y="0px"
	 viewBox="0 0 319.6 447" style="enable-background:new 0 0 319.6 447;" xml:space="preserve">
<style type="text/css">
	.st0{fill:#3C819E;}
	.st1{fill:#FFFFFF;}
	.st2{fill:#6A79A8;}
	.st3{fill:#BBDFF5;}
	.st4{fill:#FCEBA2;}
</style>
<g id="Ñëîé_3">
</g>
<g id="Ñëîé_4">
</g>
<g id="Ñëîé_5">
	<g>
		<path class="st0" d="M314.6,415.7c4.6,2.2,6.2,4.8,4,8c-15.2,22-83.5,22.3-116.6,22.8c-41.7,0.6-85,1.7-122.5-3
			c-15.7-2-51.3-3.5-57.4-10.8c-16-19.2,97.6-26.1,116-26.6C168.7,405.1,288.6,403.2,314.6,415.7z"/>
		<g>
			<g>
				<path class="st1" d="M29.6,410.6l275.4,0.8c3.2,0,5.8-2.6,5.8-5.8v-190c0-3.2-2.6-5.8-5.8-5.8H37.3h-0.6
					c-9.3,0.2-12.3,6.3-12.5,11.2l0,0.3L24,398.8c0,0,0.2,4.8,1,7.1c0.8,2.3,1.9,4.6,1.9,4.6L29.6,410.6z"/>
				<g>
					<path class="st0" d="M305,413.4C305,413.4,304.9,413.4,305,413.4l-275.4-0.8c0,0,0,0-0.1,0l-2.6-0.1c-0.8,0-1.4-0.5-1.7-1.1
						c0-0.1-1.2-2.5-2-4.8c-0.9-2.5-1.1-7.1-1.1-7.6l0.2-177.8c0.2-6,4.1-13,14.4-13.2H305c4.3,0,7.8,3.5,7.8,7.8v190
						c0,2.1-0.8,4-2.3,5.5C309,412.6,307,413.4,305,413.4z M29.6,408.6l275.3,0.8c0,0,0,0,0,0c1,0,1.9-0.4,2.7-1.1
						c0.7-0.7,1.1-1.7,1.1-2.7v-190c0-2.1-1.7-3.8-3.8-3.8H36.7c-9.5,0.2-10.4,7.1-10.5,9.2v0.3L26,398.8c0.1,1.1,0.3,4.7,0.9,6.4
						c0.4,1.2,1,2.5,1.3,3.3L29.6,408.6z"/>
				</g>
			</g>
			<g>
				<g>
					
						<rect x="112.5" y="61.6" transform="matrix(-0.9575 -0.2886 0.2886 -0.9575 327.4763 431.6365)" class="st1" width="166" height="260.1"/>
					<path class="st0" d="M77.3,293.8c-0.2-0.2-0.4-0.4-0.5-0.6c-0.3-0.5-0.3-1-0.2-1.5l75.1-249.1c0.2-0.5,0.5-0.9,1-1.2
						c0.5-0.3,1-0.3,1.5-0.2l159,47.9c1.1,0.3,1.7,1.4,1.3,2.5l-75.1,249.1c-0.3,1.1-1.4,1.7-2.5,1.3L78,294.2
						C77.7,294.1,77.5,294,77.3,293.8z M154.9,45.7L81,290.9l155.1,46.8l73.9-245.2L154.9,45.7z"/>
				</g>
				<g id="XMLID_96_">
					<g id="XMLID_99_">
						<g id="XMLID_100_">
							<path class="st2" d="M252.1,293.2l-0.5,1.8c-24.5-7.4-50.4,6.5-57.8,31l-1.8-0.5C199.7,300,226.7,285.6,252.1,293.2z"/>
							<path class="st2" d="M190.8,326.2l0.3-1c3.8-12.6,12.3-22.9,23.9-29.2c11.6-6.2,24.9-7.6,37.5-3.8l1,0.3l-1.1,3.7l-1-0.3
								c-24-7.2-49.3,6.4-56.5,30.4l-0.3,1L190.8,326.2z"/>
						</g>
					</g>
					<g id="XMLID_97_">
						<g id="XMLID_98_">
							<path class="st2" d="M93.6,245.5c25.5,7.7,39.9,34.6,32.3,60.1l-1.8-0.5c7.4-24.5-6.5-50.4-31-57.8L93.6,245.5z"/>
							<path class="st2" d="M122.9,305.7l0.3-1c3.5-11.6,2.3-23.9-3.5-34.5c-5.7-10.7-15.3-18.5-26.9-22l-1-0.3l1.1-3.7l1,0.3
								c26,7.8,40.8,35.4,32.9,61.4l-0.3,1L122.9,305.7z"/>
						</g>
					</g>
				</g>
				<g id="XMLID_85_">
					<g id="XMLID_88_">
						<g id="XMLID_89_">
							<path class="st2" d="M266.9,77l1.8,0.5c-7.4,24.5,6.5,50.4,31,57.8l-0.5,1.8C273.7,129.4,259.3,102.4,266.9,77z"/>
							<path class="st0" d="M282.8,129.7c-15.5-12.2-22.9-33-16.8-53l0.3-1l3.7,1.1l-0.3,1c-7.2,24,6.4,49.3,30.4,56.5l1,0.3
								l-1.1,3.7l-1-0.3C292.9,136.2,287.5,133.4,282.8,129.7z"/>
						</g>
					</g>
					<g id="XMLID_86_">
						<g id="XMLID_87_">
							<path class="st2" d="M199,56.5l1.8,0.5c-7.7,25.5-34.6,39.9-60.1,32.3l0.5-1.8C165.7,94.9,191.6,81,199,56.5z"/>
							<path class="st2" d="M139.5,90l1.1-3.7l1,0.3c24,7.2,49.3-6.4,56.5-30.4l0.3-1l3.7,1.1l-0.3,1c-3.8,12.6-12.3,22.9-23.9,29.2
								c-11.6,6.2-24.9,7.6-37.5,3.8L139.5,90z"/>
						</g>
					</g>
				</g>
				<g id="XMLID_50_">
					
						<ellipse id="XMLID_80_" transform="matrix(0.5921 -0.8059 0.8059 0.5921 -76.8238 245.4818)" class="st3" cx="204.1" cy="198.6" rx="51.9" ry="51.9"/>
					<g id="XMLID_54_">
						<g id="XMLID_55_">
							<path class="st2" d="M210.8,140.4c28,8.4,43.9,38.1,35.5,66.1c-8.4,28-38.1,43.9-66.1,35.5c-28-8.4-43.9-38.1-35.5-66.1
								C153.1,147.8,182.8,131.9,210.8,140.4z M180.7,240.2c27,8.1,55.7-7.2,63.8-34.3c8.1-27-7.2-55.7-34.3-63.8
								c-27-8.1-55.7,7.2-63.8,34.3C138.3,203.4,153.7,232.1,180.7,240.2z"/>
							<path class="st2" d="M162.2,233.8c-17-13.3-25.1-36.3-18.5-58.2c4.2-13.8,13.5-25.2,26.2-32c12.7-6.8,27.4-8.3,41.2-4.2
								c13.8,4.2,25.2,13.5,32,26.2c6.8,12.7,8.3,27.4,4.2,41.2c-8.6,28.5-38.8,44.8-67.4,36.2C173.3,241,167.3,237.8,162.2,233.8z
								 M226.4,151.6c-4.8-3.8-10.4-6.7-16.4-8.5c-26.5-8-54.6,7.1-62.6,33.6c-3.9,12.8-2.5,26.4,3.9,38.2
								c6.4,11.8,16.9,20.5,29.7,24.3l0,0c12.8,3.9,26.4,2.5,38.2-3.9c11.8-6.4,20.5-16.9,24.3-29.7c3.9-12.8,2.5-26.4-3.9-38.2
								C236.4,161.2,231.8,155.8,226.4,151.6z"/>
						</g>
					</g>
					<g id="XMLID_51_">
						<path id="XMLID_52_" class="st2" d="M184.1,197.6c2.1,0.6,4.1,0.5,5.8-0.5c1.8-1,3.8-3,6.1-6.2c2.5-3.6,4.9-6.1,7.3-7.5
							c2.4-1.4,5.2-1.6,8.4-0.6c3.1,0.9,5.4,2.7,6.8,5.2c1.4,2.5,1.7,5.5,1,8.9l5.8,1.8l-0.9,2.9l-5.8-1.8c-1.3,3.3-3.4,5.5-6.1,6.7
							c-2.7,1.2-5.9,1.2-9.6,0.1l-0.1-0.1l1-3.3c2.8,0.9,5.4,0.8,7.6-0.2c2.3-1,3.8-2.9,4.6-5.6c0.9-2.8,0.8-5.2-0.3-7.2
							c-1-1.9-2.7-3.2-5-3.9c-2.2-0.7-4.2-0.5-5.9,0.4c-1.7,0.9-3.8,3-6.1,6.4c-2.5,3.6-5,6-7.3,7.4c-2.3,1.4-5.1,1.6-8.3,0.6
							c-3.2-1-5.4-2.7-6.7-5.3c-1.3-2.6-1.6-5.6-0.9-9.1l-5.5-1.7l0.9-2.9l5.5,1.6c1.3-3.4,3.2-6,5.9-7.7c2.7-1.7,6.1-1.9,10.1-0.6
							l0.1,0.1l-1,3.2c-3.4-1-6.2-0.8-8.2,0.7c-2.1,1.5-3.5,3.6-4.4,6.4c-0.9,2.8-0.8,5.3,0.2,7.4
							C180.2,195.5,181.8,196.9,184.1,197.6z"/>
					</g>
				</g>
			</g>
			<g>
				<g>
					
						<rect x="91.7" y="44.8" transform="matrix(-0.9998 -1.788011e-02 1.788011e-02 -0.9998 346.1673 352.7802)" class="st1" width="166" height="260.1"/>
					<path class="st0" d="M88.6,305.3c-0.3-0.1-0.5-0.3-0.7-0.5c-0.4-0.4-0.6-0.9-0.6-1.4L92,43.3c0-0.5,0.2-1,0.6-1.4
						c0.4-0.4,0.9-0.6,1.4-0.6l166,3c1.1,0,2,0.9,2,2l-4.7,260.1c0,1.1-0.9,2-2,2l-166-3C89.1,305.4,88.8,305.4,88.6,305.3z
						 M96,45.3l-4.6,256.1l162,2.9l4.6-256.1L96,45.3z"/>
				</g>
				<g id="XMLID_45_">
					<g id="XMLID_48_">
						<g id="XMLID_49_">
							<path class="st2" d="M256.7,257.2l0,1.9c-25.6-0.5-46.7,20-47.2,45.5l-1.9,0C208.1,278,230.1,256.7,256.7,257.2z"/>
							<path class="st2" d="M206.6,305.6l0-1c0.2-13.1,5.6-25.4,15.1-34.5c9.5-9.1,21.9-14,35.1-13.8l1,0l-0.1,3.9l-1,0
								c-25-0.4-45.7,19.5-46.2,44.6l0,1L206.6,305.6z"/>
						</g>
					</g>
					<g id="XMLID_46_">
						<g id="XMLID_47_">
							<path class="st2" d="M91.2,254.3c26.6,0.5,47.8,22.5,47.4,49.1l-1.9,0c0.5-25.6-20-46.7-45.5-47.2L91.2,254.3z"/>
							<path class="st2" d="M135.7,304.3l0-1c0.2-12.1-4.3-23.6-12.7-32.3c-8.4-8.7-19.7-13.7-31.8-13.9l-1,0l0.1-3.9l1,0
								c27.1,0.5,48.8,23,48.4,50.1l0,1L135.7,304.3z"/>
						</g>
					</g>
				</g>
				<g id="XMLID_27_">
					<g id="XMLID_30_">
						<g id="XMLID_31_">
							<path class="st2" d="M212.2,45.1l1.9,0c-0.5,25.6,20,46.7,45.5,47.2l0,1.9C233,93.7,211.8,71.7,212.2,45.1z"/>
							<path class="st0" d="M241.8,91.5c-18.2-7.5-31-25.6-30.6-46.5l0-1l3.9,0.1l0,1c-0.4,25,19.5,45.7,44.6,46.2l1,0l-0.1,3.9
								l-1,0C253.3,95,247.3,93.8,241.8,91.5z"/>
						</g>
					</g>
					<g id="XMLID_28_">
						<g id="XMLID_29_">
							<path class="st2" d="M141.3,43.8l1.9,0c-0.5,26.6-22.5,47.8-49.1,47.4l0-1.9C119.7,89.8,140.9,69.4,141.3,43.8z"/>
							<path class="st2" d="M93.1,92.2l0.1-3.9l1,0c25,0.4,45.7-19.5,46.2-44.6l0-1l3.9,0.1l0,1c-0.2,13.1-5.6,25.4-15.1,34.5
								c-9.5,9.1-21.9,14-35.1,13.8L93.1,92.2z"/>
						</g>
					</g>
				</g>
				<g id="XMLID_3_">
					
						<ellipse id="XMLID_26_" transform="matrix(0.3512 -0.9363 0.9363 0.3512 -47.9272 289.266)" class="st4" cx="184.8" cy="179.2" rx="51.9" ry="51.9"/>
					<g id="XMLID_10_">
						<g id="XMLID_13_">
							<path class="st2" d="M175.4,121.3c29.3,0.5,52.6,24.8,52.1,54c-0.5,29.3-24.8,52.6-54,52.1c-29.3-0.5-52.6-24.8-52.1-54
								C121.9,144.2,146.2,120.8,175.4,121.3z M173.5,225.6c28.2,0.5,51.6-22.1,52.1-50.3c0.5-28.2-22.1-51.6-50.3-52.1
								c-28.2-0.5-51.6,22.1-52.1,50.3C122.8,201.7,145.3,225.1,173.5,225.6z"/>
							<path class="st0" d="M154,224.4c-20-8.2-34-28.1-33.6-51c0.3-14.4,6.1-27.9,16.5-37.9c10.4-10,24.1-15.4,38.5-15.2
								c14.4,0.3,27.9,6.1,37.9,16.5c10,10.4,15.4,24.1,15.2,38.5c-0.5,29.8-25.2,53.6-55,53.1C166.6,228.3,160,226.9,154,224.4z
								 M193.5,127.9c-5.7-2.3-11.8-3.6-18.1-3.7c-27.7-0.5-50.6,21.6-51.1,49.3c-0.2,13.4,4.8,26.1,14.1,35.7
								c9.3,9.7,21.8,15.1,35.2,15.4l0,0c13.4,0.2,26.1-4.8,35.7-14.1c9.7-9.3,15.1-21.8,15.4-35.2c0.2-13.4-4.8-26.1-14.1-35.7
								C205.7,134.4,199.9,130.5,193.5,127.9z"/>
						</g>
					</g>
					<g id="XMLID_4_">
						<path id="XMLID_5_" class="st2" d="M165.3,183.7c2.2,0,4-0.7,5.5-2.1c1.4-1.4,2.8-3.9,4.2-7.6c1.4-4.2,3.1-7.2,5-9.2
							c1.9-2,4.6-2.9,8-2.9c3.3,0.1,5.9,1.1,7.9,3.2c2,2,3.1,4.8,3.4,8.3l6.1,0.1l-0.1,3.1l-6.1-0.1c-0.4,3.5-1.7,6.2-4,8.1
							c-2.3,1.9-5.4,2.8-9.2,2.7l-0.1-0.1l0.1-3.4c3,0.1,5.4-0.7,7.3-2.3c1.9-1.6,2.9-3.8,2.9-6.7c0.1-3-0.7-5.2-2.2-6.8
							c-1.5-1.6-3.5-2.4-5.9-2.4c-2.3,0-4.1,0.6-5.6,2c-1.4,1.3-2.8,3.9-4.2,7.8c-1.5,4.1-3.1,7.2-5,9.1c-1.9,2-4.5,2.9-7.8,2.9
							c-3.3-0.1-6-1.1-7.9-3.3c-2-2.1-3-4.9-3.3-8.5l-5.7-0.1l0.1-3.1l5.7,0.1c0.3-3.6,1.5-6.6,3.6-9c2.1-2.4,5.3-3.5,9.6-3.3
							l0.2,0.1l-0.1,3.4c-3.6-0.1-6.1,0.9-7.7,2.9c-1.6,2-2.4,4.4-2.5,7.3c-0.1,3,0.7,5.3,2.2,7.1
							C160.9,182.7,162.9,183.6,165.3,183.7z"/>
					</g>
				</g>
			</g>
			<g>
				<g>
					
						<rect x="43.5" y="23.3" transform="matrix(-0.9318 0.3629 -0.3629 -0.9318 300.1283 250.2719)" class="st1" width="166" height="260.1"/>
					<path class="st0" d="M96.4,306.7c-0.3,0-0.5-0.1-0.8-0.2c-0.5-0.2-0.9-0.6-1.1-1.1L0.1,63c-0.2-0.5-0.2-1,0-1.5
						c0.2-0.5,0.6-0.9,1.1-1.1L156,0.1c1-0.4,2.2,0.1,2.6,1.1L253,243.7c0.4,1-0.1,2.2-1.1,2.6L97.1,306.5
						C96.9,306.6,96.7,306.7,96.4,306.7z M4.6,63.4l93,238.7l151-58.8l-93-238.7L4.6,63.4z"/>
				</g>
				<g id="XMLID_192_">
					<g id="XMLID_195_">
						<g id="XMLID_196_">
							<path class="st2" d="M233.7,198.4l0.7,1.7c-23.8,9.3-35.7,36.2-26.4,60l-1.7,0.7C196.6,236.1,208.9,208.1,233.7,198.4z"/>
							<path class="st0" d="M205.7,262.2l-0.4-0.9c-4.8-12.2-4.5-25.6,0.8-37.7c5.3-12.1,15-21.3,27.2-26.1l0.9-0.4l1.4,3.6
								l-0.9,0.4c-23.3,9.1-34.9,35.4-25.8,58.8l0.4,0.9L205.7,262.2z"/>
						</g>
					</g>
					<g id="XMLID_193_">
						<g id="XMLID_194_">
							<path class="st2" d="M79.5,258.5c24.8-9.7,52.8,2.7,62.5,27.4l-1.7,0.7c-9.3-23.8-36.2-35.7-60-26.4L79.5,258.5z"/>
							<path class="st2" d="M139.6,287.9l-0.4-0.9c-4.4-11.3-12.9-20.2-24-25.1c-11.1-4.9-23.4-5.2-34.7-0.8l-0.9,0.4l-1.4-3.6
								l0.9-0.4c25.3-9.9,53.9,2.7,63.8,28l0.4,0.9L139.6,287.9z"/>
						</g>
					</g>
				</g>
				<g id="XMLID_187_">
					<g id="XMLID_190_">
						<g id="XMLID_191_">
							<path class="st2" d="M112.1,19l1.7-0.7c9.3,23.8,36.2,35.7,60,26.4l0.7,1.7C149.7,56.1,121.7,43.8,112.1,19z"/>
							<path class="st0" d="M157.1,50.7c-19.7,0-38.4-11.9-45.9-31.4l-0.4-0.9l3.6-1.4l0.4,0.9c9.1,23.3,35.4,34.9,58.8,25.8
								l0.9-0.4l1.4,3.6l-0.9,0.4C169,49.7,163,50.7,157.1,50.7z"/>
						</g>
					</g>
					<g id="XMLID_188_">
						<g id="XMLID_189_">
							<path class="st2" d="M46,44.7l1.7-0.7c9.7,24.8-2.7,52.8-27.4,62.5l-0.7-1.7C43.4,95.5,55.3,68.6,46,44.7z"/>
							<path class="st0" d="M19.7,107.8l-1.4-3.6l0.9-0.4C42.5,94.8,54.1,68.4,45,45.1l-0.4-0.9l3.6-1.4l0.4,0.9
								c4.8,12.2,4.5,25.6-0.8,37.7c-5.3,12.1-15,21.3-27.2,26.1L19.7,107.8z"/>
						</g>
					</g>
				</g>
				<g id="XMLID_148_">
					
						<ellipse id="XMLID_186_" transform="matrix(0.9995 -3.044239e-02 3.044239e-02 0.9995 -4.6104 4.2587)" class="st4" cx="137.6" cy="153.5" rx="51.9" ry="51.9"/>
					<g id="XMLID_152_">
						<g id="XMLID_153_">
							<path class="st2" d="M106.9,103.5c27.3-10.6,58.1,2.9,68.7,30.2c10.6,27.3-2.9,58.1-30.2,68.7c-27.3,10.6-58.1-2.9-68.7-30.2
								C66.1,145,79.7,114.1,106.9,103.5z M144.8,200.7c26.3-10.2,39.4-40,29.1-66.3c-10.2-26.3-40-39.4-66.3-29.1
								c-26.3,10.2-39.4,40-29.1,66.3C88.7,197.9,118.5,210.9,144.8,200.7z"/>
							<path class="st0" d="M126.3,207c-21.6,0-42.1-13.1-50.4-34.4c-5.2-13.4-4.9-28.1,0.9-41.4c5.8-13.2,16.4-23.4,29.9-28.6
								c13.4-5.2,28.1-4.9,41.4,0.9c13.2,5.8,23.4,16.4,28.6,29.9c10.8,27.8-3,59.2-30.8,70C139.4,205.9,132.8,207,126.3,207z
								 M126.2,102.7c-6.1,0-12.3,1.1-18.2,3.4c-25.8,10-38.6,39.2-28.6,65c4.9,12.5,14.3,22.3,26.6,27.7
								c12.3,5.4,25.9,5.7,38.4,0.8l0,0c12.5-4.9,22.3-14.3,27.7-26.6c5.4-12.3,5.7-25.9,0.8-38.4c-4.9-12.5-14.3-22.3-26.6-27.7
								C139.9,104.2,133,102.7,126.2,102.7z"/>
						</g>
					</g>
				</g>
			</g>
			<g>
				<path id="XMLID_127_" class="st1" d="M24,398.8l0.2-177.4l0.2-1.6c0,0,1.5,3.5,7.3,3.2h259.6c3,0,5.4,2.4,5.4,5.4V418
					c0,3-2.4,5.4-5.4,5.4H48.6C35,423.4,24,412.4,24,398.8z"/>
				<g id="XMLID_125_">
					<path class="st0" d="M291.3,425.4H48.6c-14.7,0-26.6-11.9-26.6-26.6c0,0,0,0,0,0l0.2-177.4c0-0.1,0-0.2,0-0.3l0.2-1.6
						c0.1-0.9,0.8-1.6,1.7-1.7c0.9-0.1,1.7,0.4,2.1,1.2c0,0.1,1.2,2.3,5.3,2c0,0,0.1,0,0.1,0h259.6c4.1,0,7.4,3.3,7.4,7.4V418
						C298.7,422.1,295.4,425.4,291.3,425.4z M26,398.8c0,12.5,10.1,22.6,22.6,22.6h242.7c1.9,0,3.4-1.5,3.4-3.4V228.4
						c0-1.9-1.5-3.4-3.4-3.4H31.8c-2.4,0.1-4.2-0.3-5.6-1L26,398.8L26,398.8z"/>
				</g>
			</g>
			<g>
				<path id="XMLID_120_" class="st1" d="M313.1,304.3h-66.5l-12.1,12.1c-5.5,5.5-5.3,14.4,0.5,19.6l11,10l67.1,0V304.3z"/>
				<g id="XMLID_119_">
					<path class="st0" d="M313.1,347.9L313.1,347.9l-67.1,0c-0.5,0-1-0.2-1.3-0.5l-11-10c-3.2-2.9-5-6.8-5.1-11.1
						c-0.1-4.3,1.5-8.3,4.5-11.3l12.1-12.1c0.4-0.4,0.9-0.6,1.4-0.6h13c1.1,0,2,0.9,2,2c0,1.1-0.9,2-2,2h-12.2l-11.5,11.5
						c-2.3,2.3-3.5,5.2-3.4,8.4c0.1,3.2,1.4,6.1,3.8,8.3l10.4,9.5l64.3,0v-37.7h-38.2c-1.1,0-2-0.9-2-2c0-1.1,0.9-2,2-2h40.2
						c1.1,0,2,0.9,2,2v41.7c0,0.5-0.2,1-0.6,1.4S313.6,347.9,313.1,347.9z"/>
				</g>
				<g id="XMLID_118_">
					<path class="st0" d="M266.3,336.1c-5.8,0-10.6-4.7-10.6-10.6s4.7-10.6,10.6-10.6s10.6,4.7,10.6,10.6S272.1,336.1,266.3,336.1z
						 M266.3,319c-3.6,0-6.6,2.9-6.6,6.6c0,3.6,2.9,6.6,6.6,6.6c3.6,0,6.6-2.9,6.6-6.6C272.9,321.9,269.9,319,266.3,319z"/>
				</g>
			</g>
			<g>
				<g>
					<path class="st0" d="M285.8,293.6c-1.1,0-2-0.9-2-2v-30.6c0-1.1,0.9-2,2-2c1.1,0,2,0.9,2,2v30.6
						C287.8,292.7,286.9,293.6,285.8,293.6z"/>
				</g>
				<g>
					<path class="st0" d="M194.1,414.3h-14.9c-1.1,0-2-0.9-2-2s0.9-2,2-2h14.9c1.1,0,2,0.9,2,2S195.2,414.3,194.1,414.3z"/>
				</g>
				<g>
					<path class="st0" d="M235.5,414.3H212c-1.1,0-2-0.9-2-2s0.9-2,2-2h23.5c1.1,0,2,0.9,2,2S236.6,414.3,235.5,414.3z"/>
				</g>
				<g>
					<path class="st0" d="M153.1,414.3H84.7c-1.1,0-2-0.9-2-2s0.9-2,2-2h68.5c1.1,0,2,0.9,2,2S154.2,414.3,153.1,414.3z"/>
				</g>
				<g>
					<path class="st0" d="M34.7,315.7c-1.1,0-2-0.9-2-2v-56c0-1.1,0.9-2,2-2s2,0.9,2,2v56C36.7,314.8,35.8,315.7,34.7,315.7z"/>
				</g>
				<g>
					<path class="st0" d="M34,360.1c-1.1,0-2-0.9-2-2v-20.4c0-1.1,0.9-2,2-2s2,0.9,2,2v20.4C36,359.2,35.1,360.1,34,360.1z"/>
				</g>
			</g>
		</g>
		<g>
			
				<rect x="140.9" y="144.2" transform="matrix(0.9256 -0.3786 0.3786 0.9256 -48.4355 65.9187)" class="st0" width="5" height="23.9"/>
			<path class="st0" d="M104.8,175.1l-5.1-12.4c-2.9-7.1-2-15,2.2-19.7c4.6-5.1,10-7.2,17-6.6c6.3,0.5,12.1,5.4,15,12.4l3.1,7.7
				l18.9-7.7l1.9,4.6l-18.9,7.7l3.4,8.4l-4.6,1.9l-3.4-8.4L104.8,175.1z M116.6,141.3c-4.5,0-7.8,1.6-11,5c-3,3.3-3.5,9-1.3,14.4
				l3.2,7.8l24.9-10.2l-3.1-7.7c-2.1-5.2-6.4-8.9-10.8-9.3C117.8,141.4,117.2,141.3,116.6,141.3z"/>
		</g>
		<path class="st0" d="M214.3,291.3c0.9-3,0-5.1-4.2-5.1h-13.9c-3.5,0-5.1,1.9-6.1,3.9c0,0-7.2,17.3-17.2,28.5
			c-3.2,3.2-4.7,4.3-6.5,4.3c-0.9,0-2.2-1.1-2.2-4.1v-27.7c0-3.5-1.1-5.1-4.1-5.1h-21.9c-2.2,0-3.5,1.6-3.5,3.2
			c0,3.4,5,4.2,5.5,13.6v20.5c0,4.5-0.8,5.3-2.6,5.3c-4.7,0-16.2-17.4-23.1-37.3c-1.4-3.9-2.7-5.4-6.2-5.4H94.4
			c-4.1,0-4.7,1.9-4.7,3.9c0,3.6,4.7,22,22,46.3c11.5,16.6,27.8,25.5,42.6,25.5c8.9,0,10-2,10-5.4v-12.6c0-4.1,0.8-4.7,3.6-4.7
			c2,0,5.7,1.1,13.9,9.1c9.5,9.5,11.1,13.8,16.3,13.8h13.9c4.1,0,5.9-2,4.9-5.9c-1.2-3.9-5.8-9.6-11.8-16.3c-3.2-3.8-8.1-8-9.6-10
			c-2-2.7-1.5-3.8,0-6.2C195.5,323.5,212.5,299.4,214.3,291.3"/>
	</g>
</g>
</svg>
